%TF.GenerationSoftware,KiCad,Pcbnew,9.0.0-rc3*%
%TF.CreationDate,2025-02-21T17:02:01-08:00*%
%TF.ProjectId,LTC3556_v2.4,4c544333-3535-4365-9f76-322e342e6b69,rev?*%
%TF.SameCoordinates,Original*%
%TF.FileFunction,Paste,Top*%
%TF.FilePolarity,Positive*%
%FSLAX46Y46*%
G04 Gerber Fmt 4.6, Leading zero omitted, Abs format (unit mm)*
G04 Created by KiCad (PCBNEW 9.0.0-rc3) date 2025-02-21 17:02:01*
%MOMM*%
%LPD*%
G01*
G04 APERTURE LIST*
G04 Aperture macros list*
%AMRoundRect*
0 Rectangle with rounded corners*
0 $1 Rounding radius*
0 $2 $3 $4 $5 $6 $7 $8 $9 X,Y pos of 4 corners*
0 Add a 4 corners polygon primitive as box body*
4,1,4,$2,$3,$4,$5,$6,$7,$8,$9,$2,$3,0*
0 Add four circle primitives for the rounded corners*
1,1,$1+$1,$2,$3*
1,1,$1+$1,$4,$5*
1,1,$1+$1,$6,$7*
1,1,$1+$1,$8,$9*
0 Add four rect primitives between the rounded corners*
20,1,$1+$1,$2,$3,$4,$5,0*
20,1,$1+$1,$4,$5,$6,$7,0*
20,1,$1+$1,$6,$7,$8,$9,0*
20,1,$1+$1,$8,$9,$2,$3,0*%
%AMFreePoly0*
4,1,11,0.760000,0.825000,0.380000,0.510000,0.380000,-0.510000,0.760000,-0.825000,0.760000,-1.525000,-0.125000,-1.525000,-0.380000,-1.270000,-0.380000,1.270000,-0.125000,1.525000,0.760000,1.525000,0.760000,0.825000,0.760000,0.825000,$1*%
%AMFreePoly1*
4,1,11,1.015000,1.170000,0.435000,0.575000,0.435000,-0.575000,1.015000,-1.170000,1.015000,-1.945000,0.125000,-1.945000,-0.435000,-1.395000,-0.435000,1.395000,0.125000,1.945000,1.015000,1.945000,1.015000,1.170000,1.015000,1.170000,$1*%
%AMFreePoly2*
4,1,11,0.435000,1.395000,0.435000,-1.395000,-0.125000,-1.945000,-1.015000,-1.945000,-1.015000,-1.170000,-0.435000,-0.575000,-0.435000,0.575000,-1.015000,1.170000,-1.015000,1.945000,-0.125000,1.945000,0.435000,1.395000,0.435000,1.395000,$1*%
G04 Aperture macros list end*
%ADD10FreePoly0,0.000000*%
%ADD11FreePoly0,180.000000*%
%ADD12RoundRect,0.140000X-0.170000X0.140000X-0.170000X-0.140000X0.170000X-0.140000X0.170000X0.140000X0*%
%ADD13RoundRect,0.160000X0.197500X0.160000X-0.197500X0.160000X-0.197500X-0.160000X0.197500X-0.160000X0*%
%ADD14RoundRect,0.250000X-0.325000X-0.650000X0.325000X-0.650000X0.325000X0.650000X-0.325000X0.650000X0*%
%ADD15RoundRect,0.150000X0.587500X0.150000X-0.587500X0.150000X-0.587500X-0.150000X0.587500X-0.150000X0*%
%ADD16RoundRect,0.250000X0.337500X0.475000X-0.337500X0.475000X-0.337500X-0.475000X0.337500X-0.475000X0*%
%ADD17RoundRect,0.160000X-0.197500X-0.160000X0.197500X-0.160000X0.197500X0.160000X-0.197500X0.160000X0*%
%ADD18RoundRect,0.250000X-0.650000X0.325000X-0.650000X-0.325000X0.650000X-0.325000X0.650000X0.325000X0*%
%ADD19RoundRect,0.140000X-0.140000X-0.170000X0.140000X-0.170000X0.140000X0.170000X-0.140000X0.170000X0*%
%ADD20RoundRect,0.140000X0.140000X0.170000X-0.140000X0.170000X-0.140000X-0.170000X0.140000X-0.170000X0*%
%ADD21FreePoly0,90.000000*%
%ADD22FreePoly0,270.000000*%
%ADD23O,0.890000X1.550000*%
%ADD24O,1.250000X0.950000*%
%ADD25RoundRect,0.100000X0.100000X0.575000X-0.100000X0.575000X-0.100000X-0.575000X0.100000X-0.575000X0*%
%ADD26RoundRect,0.250000X0.475000X0.525000X-0.475000X0.525000X-0.475000X-0.525000X0.475000X-0.525000X0*%
%ADD27RoundRect,0.250000X0.500000X0.525000X-0.500000X0.525000X-0.500000X-0.525000X0.500000X-0.525000X0*%
%ADD28RoundRect,0.250000X-0.337500X-0.475000X0.337500X-0.475000X0.337500X0.475000X-0.337500X0.475000X0*%
%ADD29RoundRect,0.160000X0.160000X-0.197500X0.160000X0.197500X-0.160000X0.197500X-0.160000X-0.197500X0*%
%ADD30RoundRect,0.245000X-0.290000X-0.245000X0.290000X-0.245000X0.290000X0.245000X-0.290000X0.245000X0*%
%ADD31RoundRect,0.062500X-0.362500X-0.062500X0.362500X-0.062500X0.362500X0.062500X-0.362500X0.062500X0*%
%ADD32RoundRect,0.062500X-0.062500X-0.362500X0.062500X-0.362500X0.062500X0.362500X-0.062500X0.362500X0*%
%ADD33RoundRect,0.140000X0.170000X-0.140000X0.170000X0.140000X-0.170000X0.140000X-0.170000X-0.140000X0*%
%ADD34FreePoly1,180.000000*%
%ADD35FreePoly2,180.000000*%
%ADD36RoundRect,0.160000X-0.160000X0.197500X-0.160000X-0.197500X0.160000X-0.197500X0.160000X0.197500X0*%
%ADD37RoundRect,0.250000X0.450000X-0.325000X0.450000X0.325000X-0.450000X0.325000X-0.450000X-0.325000X0*%
%ADD38RoundRect,0.250000X0.475000X-0.337500X0.475000X0.337500X-0.475000X0.337500X-0.475000X-0.337500X0*%
%ADD39RoundRect,0.150000X-0.150000X0.825000X-0.150000X-0.825000X0.150000X-0.825000X0.150000X0.825000X0*%
%ADD40RoundRect,0.250000X-0.325000X-0.450000X0.325000X-0.450000X0.325000X0.450000X-0.325000X0.450000X0*%
G04 APERTURE END LIST*
D10*
%TO.C,L3*%
X134287500Y-99682500D03*
D11*
X136827500Y-99682500D03*
%TD*%
D12*
%TO.C,C14*%
X133760000Y-103730000D03*
X133760000Y-104690000D03*
%TD*%
D13*
%TO.C,R14*%
X137717500Y-95767000D03*
X136522500Y-95767000D03*
%TD*%
D14*
%TO.C,C1*%
X138855000Y-88130000D03*
X141805000Y-88130000D03*
%TD*%
D15*
%TO.C,Q1*%
X147477500Y-98155000D03*
X147477500Y-96255000D03*
X145602500Y-97205000D03*
%TD*%
D16*
%TO.C,C16*%
X129747500Y-93755000D03*
X127672500Y-93755000D03*
%TD*%
D17*
%TO.C,R1*%
X149643500Y-104648000D03*
X150838500Y-104648000D03*
%TD*%
D18*
%TO.C,C2*%
X135800000Y-88535000D03*
X135800000Y-91485000D03*
%TD*%
D19*
%TO.C,C9*%
X149836300Y-100737500D03*
X150796300Y-100737500D03*
%TD*%
D20*
%TO.C,C8*%
X134990000Y-106620000D03*
X134030000Y-106620000D03*
%TD*%
D21*
%TO.C,L2*%
X147100000Y-102220000D03*
D22*
X147100000Y-99680000D03*
%TD*%
D19*
%TO.C,C7*%
X135250000Y-102670000D03*
X136210000Y-102670000D03*
%TD*%
D13*
%TO.C,R4*%
X135380000Y-96910000D03*
X134185000Y-96910000D03*
%TD*%
%TO.C,R7*%
X137722500Y-96915000D03*
X136527500Y-96915000D03*
%TD*%
%TO.C,R13*%
X135087500Y-105680000D03*
X133892500Y-105680000D03*
%TD*%
D23*
%TO.C,J1*%
X139350000Y-80894400D03*
D24*
X138350000Y-83594400D03*
X133350000Y-83594400D03*
D23*
X132350000Y-80894400D03*
D25*
X137150000Y-83594400D03*
X136500000Y-83594400D03*
X135850000Y-83594400D03*
X135200000Y-83594400D03*
X134550000Y-83594400D03*
D26*
X138875000Y-80894400D03*
D27*
X136850000Y-80894400D03*
X134850000Y-80894400D03*
D26*
X132825000Y-80894400D03*
%TD*%
D28*
%TO.C,C18*%
X127727500Y-91567500D03*
X129802500Y-91567500D03*
%TD*%
D29*
%TO.C,R11*%
X136310000Y-107147500D03*
X136310000Y-105952500D03*
%TD*%
D30*
%TO.C,U1*%
X140530000Y-98700000D03*
X140530000Y-99920000D03*
X140530000Y-101140000D03*
X141850000Y-98700000D03*
X141850000Y-99920000D03*
X141850000Y-101140000D03*
D31*
X139240000Y-98170000D03*
X139240000Y-98670000D03*
X139240000Y-99170000D03*
X139240000Y-99670000D03*
X139240000Y-100170000D03*
X139240000Y-100670000D03*
X139240000Y-101170000D03*
X139240000Y-101670000D03*
D32*
X139940000Y-102370000D03*
X140440000Y-102370000D03*
X140940000Y-102370000D03*
X141440000Y-102370000D03*
X141940000Y-102370000D03*
X142440000Y-102370000D03*
D31*
X143140000Y-101670000D03*
X143140000Y-101170000D03*
X143140000Y-100670000D03*
X143140000Y-100170000D03*
X143140000Y-99670000D03*
X143140000Y-99170000D03*
X143140000Y-98670000D03*
X143140000Y-98170000D03*
D32*
X142440000Y-97470000D03*
X141940000Y-97470000D03*
X141440000Y-97470000D03*
X140940000Y-97470000D03*
X140440000Y-97470000D03*
X139940000Y-97470000D03*
%TD*%
D33*
%TO.C,C4*%
X140210000Y-104740000D03*
X140210000Y-103780000D03*
%TD*%
D12*
%TO.C,C13*%
X152180000Y-96430000D03*
X152180000Y-97390000D03*
%TD*%
D16*
%TO.C,C15*%
X123490000Y-84175000D03*
X121415000Y-84175000D03*
%TD*%
D13*
%TO.C,R6*%
X150965500Y-98171000D03*
X149770500Y-98171000D03*
%TD*%
D34*
%TO.C,L1*%
X143462500Y-107792500D03*
D35*
X139932500Y-107792500D03*
%TD*%
D36*
%TO.C,R5*%
X153427500Y-96085000D03*
X153427500Y-97280000D03*
%TD*%
D37*
%TO.C,D1*%
X153527500Y-101087500D03*
X153527500Y-99037500D03*
%TD*%
D12*
%TO.C,C10*%
X135049500Y-103774500D03*
X135049500Y-104734500D03*
%TD*%
D19*
%TO.C,C3*%
X134450000Y-95800000D03*
X135410000Y-95800000D03*
%TD*%
%TO.C,C12*%
X149822500Y-99462500D03*
X150782500Y-99462500D03*
%TD*%
D13*
%TO.C,R8*%
X138547500Y-107350000D03*
X137352500Y-107350000D03*
%TD*%
D20*
%TO.C,C11*%
X138260000Y-105390000D03*
X137300000Y-105390000D03*
%TD*%
D38*
%TO.C,C17*%
X119722500Y-89272500D03*
X119722500Y-87197500D03*
%TD*%
D33*
%TO.C,C5*%
X141250000Y-104750000D03*
X141250000Y-103790000D03*
%TD*%
D17*
%TO.C,R12*%
X149692000Y-103238500D03*
X150887000Y-103238500D03*
%TD*%
D39*
%TO.C,U2*%
X125957500Y-86610000D03*
X124687500Y-86610000D03*
X123417500Y-86610000D03*
X122147500Y-86610000D03*
X122147500Y-91560000D03*
X123417500Y-91560000D03*
X124687500Y-91560000D03*
X125957500Y-91560000D03*
%TD*%
D34*
%TO.C,L7*%
X143164500Y-93180100D03*
D35*
X139634500Y-93180100D03*
%TD*%
D19*
%TO.C,C6*%
X137320000Y-106340000D03*
X138280000Y-106340000D03*
%TD*%
D13*
%TO.C,R3*%
X148552500Y-104648000D03*
X147357500Y-104648000D03*
%TD*%
D17*
%TO.C,R9*%
X149730000Y-101962500D03*
X150925000Y-101962500D03*
%TD*%
D40*
%TO.C,D2*%
X168877500Y-104170000D03*
X170927500Y-104170000D03*
%TD*%
D36*
%TO.C,R10*%
X136319500Y-103657000D03*
X136319500Y-104852000D03*
%TD*%
M02*
