%TF.GenerationSoftware,KiCad,Pcbnew,9.0.0-rc3*%
%TF.CreationDate,2025-02-21T17:02:01-08:00*%
%TF.ProjectId,LTC3556_v2.4,4c544333-3535-4365-9f76-322e342e6b69,rev?*%
%TF.SameCoordinates,Original*%
%TF.FileFunction,Copper,L1,Top*%
%TF.FilePolarity,Positive*%
%FSLAX46Y46*%
G04 Gerber Fmt 4.6, Leading zero omitted, Abs format (unit mm)*
G04 Created by KiCad (PCBNEW 9.0.0-rc3) date 2025-02-21 17:02:01*
%MOMM*%
%LPD*%
G01*
G04 APERTURE LIST*
G04 Aperture macros list*
%AMRoundRect*
0 Rectangle with rounded corners*
0 $1 Rounding radius*
0 $2 $3 $4 $5 $6 $7 $8 $9 X,Y pos of 4 corners*
0 Add a 4 corners polygon primitive as box body*
4,1,4,$2,$3,$4,$5,$6,$7,$8,$9,$2,$3,0*
0 Add four circle primitives for the rounded corners*
1,1,$1+$1,$2,$3*
1,1,$1+$1,$4,$5*
1,1,$1+$1,$6,$7*
1,1,$1+$1,$8,$9*
0 Add four rect primitives between the rounded corners*
20,1,$1+$1,$2,$3,$4,$5,0*
20,1,$1+$1,$4,$5,$6,$7,0*
20,1,$1+$1,$6,$7,$8,$9,0*
20,1,$1+$1,$8,$9,$2,$3,0*%
%AMFreePoly0*
4,1,11,0.760000,0.825000,0.380000,0.510000,0.380000,-0.510000,0.760000,-0.825000,0.760000,-1.525000,-0.125000,-1.525000,-0.380000,-1.270000,-0.380000,1.270000,-0.125000,1.525000,0.760000,1.525000,0.760000,0.825000,0.760000,0.825000,$1*%
%AMFreePoly1*
4,1,11,1.015000,1.170000,0.435000,0.575000,0.435000,-0.575000,1.015000,-1.170000,1.015000,-1.945000,0.125000,-1.945000,-0.435000,-1.395000,-0.435000,1.395000,0.125000,1.945000,1.015000,1.945000,1.015000,1.170000,1.015000,1.170000,$1*%
%AMFreePoly2*
4,1,11,0.435000,1.395000,0.435000,-1.395000,-0.125000,-1.945000,-1.015000,-1.945000,-1.015000,-1.170000,-0.435000,-0.575000,-0.435000,0.575000,-1.015000,1.170000,-1.015000,1.945000,-0.125000,1.945000,0.435000,1.395000,0.435000,1.395000,$1*%
G04 Aperture macros list end*
%TA.AperFunction,SMDPad,CuDef*%
%ADD10FreePoly0,0.000000*%
%TD*%
%TA.AperFunction,SMDPad,CuDef*%
%ADD11FreePoly0,180.000000*%
%TD*%
%TA.AperFunction,SMDPad,CuDef*%
%ADD12RoundRect,0.140000X-0.170000X0.140000X-0.170000X-0.140000X0.170000X-0.140000X0.170000X0.140000X0*%
%TD*%
%TA.AperFunction,SMDPad,CuDef*%
%ADD13RoundRect,0.160000X0.197500X0.160000X-0.197500X0.160000X-0.197500X-0.160000X0.197500X-0.160000X0*%
%TD*%
%TA.AperFunction,SMDPad,CuDef*%
%ADD14RoundRect,0.250000X-0.325000X-0.650000X0.325000X-0.650000X0.325000X0.650000X-0.325000X0.650000X0*%
%TD*%
%TA.AperFunction,SMDPad,CuDef*%
%ADD15RoundRect,0.150000X0.587500X0.150000X-0.587500X0.150000X-0.587500X-0.150000X0.587500X-0.150000X0*%
%TD*%
%TA.AperFunction,SMDPad,CuDef*%
%ADD16RoundRect,0.250000X0.337500X0.475000X-0.337500X0.475000X-0.337500X-0.475000X0.337500X-0.475000X0*%
%TD*%
%TA.AperFunction,SMDPad,CuDef*%
%ADD17RoundRect,0.160000X-0.197500X-0.160000X0.197500X-0.160000X0.197500X0.160000X-0.197500X0.160000X0*%
%TD*%
%TA.AperFunction,ComponentPad*%
%ADD18RoundRect,0.249999X-0.850001X0.850001X-0.850001X-0.850001X0.850001X-0.850001X0.850001X0.850001X0*%
%TD*%
%TA.AperFunction,ComponentPad*%
%ADD19C,2.200000*%
%TD*%
%TA.AperFunction,SMDPad,CuDef*%
%ADD20RoundRect,0.250000X-0.650000X0.325000X-0.650000X-0.325000X0.650000X-0.325000X0.650000X0.325000X0*%
%TD*%
%TA.AperFunction,ComponentPad*%
%ADD21R,1.700000X1.700000*%
%TD*%
%TA.AperFunction,ComponentPad*%
%ADD22O,1.700000X1.700000*%
%TD*%
%TA.AperFunction,SMDPad,CuDef*%
%ADD23RoundRect,0.140000X-0.140000X-0.170000X0.140000X-0.170000X0.140000X0.170000X-0.140000X0.170000X0*%
%TD*%
%TA.AperFunction,SMDPad,CuDef*%
%ADD24RoundRect,0.140000X0.140000X0.170000X-0.140000X0.170000X-0.140000X-0.170000X0.140000X-0.170000X0*%
%TD*%
%TA.AperFunction,ComponentPad*%
%ADD25C,3.900000*%
%TD*%
%TA.AperFunction,ConnectorPad*%
%ADD26C,7.000000*%
%TD*%
%TA.AperFunction,SMDPad,CuDef*%
%ADD27FreePoly0,90.000000*%
%TD*%
%TA.AperFunction,SMDPad,CuDef*%
%ADD28FreePoly0,270.000000*%
%TD*%
%TA.AperFunction,SMDPad,CuDef*%
%ADD29RoundRect,0.100000X0.100000X0.575000X-0.100000X0.575000X-0.100000X-0.575000X0.100000X-0.575000X0*%
%TD*%
%TA.AperFunction,HeatsinkPad*%
%ADD30O,0.890000X1.550000*%
%TD*%
%TA.AperFunction,SMDPad,CuDef*%
%ADD31RoundRect,0.250000X0.475000X0.525000X-0.475000X0.525000X-0.475000X-0.525000X0.475000X-0.525000X0*%
%TD*%
%TA.AperFunction,HeatsinkPad*%
%ADD32O,1.250000X0.950000*%
%TD*%
%TA.AperFunction,SMDPad,CuDef*%
%ADD33RoundRect,0.250000X0.500000X0.525000X-0.500000X0.525000X-0.500000X-0.525000X0.500000X-0.525000X0*%
%TD*%
%TA.AperFunction,ComponentPad*%
%ADD34C,1.600000*%
%TD*%
%TA.AperFunction,SMDPad,CuDef*%
%ADD35RoundRect,0.250000X-0.337500X-0.475000X0.337500X-0.475000X0.337500X0.475000X-0.337500X0.475000X0*%
%TD*%
%TA.AperFunction,SMDPad,CuDef*%
%ADD36RoundRect,0.160000X0.160000X-0.197500X0.160000X0.197500X-0.160000X0.197500X-0.160000X-0.197500X0*%
%TD*%
%TA.AperFunction,SMDPad,CuDef*%
%ADD37RoundRect,0.062500X-0.362500X-0.062500X0.362500X-0.062500X0.362500X0.062500X-0.362500X0.062500X0*%
%TD*%
%TA.AperFunction,SMDPad,CuDef*%
%ADD38RoundRect,0.062500X-0.062500X-0.362500X0.062500X-0.362500X0.062500X0.362500X-0.062500X0.362500X0*%
%TD*%
%TA.AperFunction,HeatsinkPad*%
%ADD39C,0.500000*%
%TD*%
%TA.AperFunction,HeatsinkPad*%
%ADD40R,2.650000X3.650000*%
%TD*%
%TA.AperFunction,SMDPad,CuDef*%
%ADD41RoundRect,0.140000X0.170000X-0.140000X0.170000X0.140000X-0.170000X0.140000X-0.170000X-0.140000X0*%
%TD*%
%TA.AperFunction,ComponentPad*%
%ADD42O,2.200000X3.500000*%
%TD*%
%TA.AperFunction,ComponentPad*%
%ADD43R,1.500000X2.500000*%
%TD*%
%TA.AperFunction,ComponentPad*%
%ADD44O,1.500000X2.500000*%
%TD*%
%TA.AperFunction,SMDPad,CuDef*%
%ADD45FreePoly1,180.000000*%
%TD*%
%TA.AperFunction,SMDPad,CuDef*%
%ADD46FreePoly2,180.000000*%
%TD*%
%TA.AperFunction,ComponentPad*%
%ADD47RoundRect,0.249999X0.850001X-0.850001X0.850001X0.850001X-0.850001X0.850001X-0.850001X-0.850001X0*%
%TD*%
%TA.AperFunction,SMDPad,CuDef*%
%ADD48RoundRect,0.160000X-0.160000X0.197500X-0.160000X-0.197500X0.160000X-0.197500X0.160000X0.197500X0*%
%TD*%
%TA.AperFunction,SMDPad,CuDef*%
%ADD49RoundRect,0.250000X0.450000X-0.325000X0.450000X0.325000X-0.450000X0.325000X-0.450000X-0.325000X0*%
%TD*%
%TA.AperFunction,SMDPad,CuDef*%
%ADD50RoundRect,0.250000X0.475000X-0.337500X0.475000X0.337500X-0.475000X0.337500X-0.475000X-0.337500X0*%
%TD*%
%TA.AperFunction,SMDPad,CuDef*%
%ADD51RoundRect,0.150000X-0.150000X0.825000X-0.150000X-0.825000X0.150000X-0.825000X0.150000X0.825000X0*%
%TD*%
%TA.AperFunction,ComponentPad*%
%ADD52RoundRect,0.250000X0.350000X0.625000X-0.350000X0.625000X-0.350000X-0.625000X0.350000X-0.625000X0*%
%TD*%
%TA.AperFunction,ComponentPad*%
%ADD53O,1.200000X1.750000*%
%TD*%
%TA.AperFunction,SMDPad,CuDef*%
%ADD54RoundRect,0.250000X-0.325000X-0.450000X0.325000X-0.450000X0.325000X0.450000X-0.325000X0.450000X0*%
%TD*%
%TA.AperFunction,ViaPad*%
%ADD55C,0.600000*%
%TD*%
%TA.AperFunction,ViaPad*%
%ADD56C,0.500000*%
%TD*%
%TA.AperFunction,ViaPad*%
%ADD57C,1.000000*%
%TD*%
%TA.AperFunction,ViaPad*%
%ADD58C,0.400000*%
%TD*%
%TA.AperFunction,ViaPad*%
%ADD59C,0.800000*%
%TD*%
%TA.AperFunction,ViaPad*%
%ADD60C,0.700000*%
%TD*%
%TA.AperFunction,Conductor*%
%ADD61C,0.250000*%
%TD*%
%TA.AperFunction,Conductor*%
%ADD62C,0.400000*%
%TD*%
%TA.AperFunction,Conductor*%
%ADD63C,0.635000*%
%TD*%
%TA.AperFunction,Conductor*%
%ADD64C,0.500000*%
%TD*%
%TA.AperFunction,Conductor*%
%ADD65C,0.350000*%
%TD*%
%TA.AperFunction,Conductor*%
%ADD66C,0.750000*%
%TD*%
%TA.AperFunction,Conductor*%
%ADD67C,0.300000*%
%TD*%
%TA.AperFunction,Conductor*%
%ADD68C,0.600000*%
%TD*%
%TA.AperFunction,Conductor*%
%ADD69C,0.700000*%
%TD*%
%TA.AperFunction,Conductor*%
%ADD70C,0.450000*%
%TD*%
%TA.AperFunction,Conductor*%
%ADD71C,1.000000*%
%TD*%
%TA.AperFunction,Conductor*%
%ADD72C,0.800000*%
%TD*%
%TA.AperFunction,Conductor*%
%ADD73C,1.016000*%
%TD*%
G04 APERTURE END LIST*
D10*
%TO.P,L3,1,1*%
%TO.N,/P2V5*%
X134287500Y-99682500D03*
D11*
%TO.P,L3,2,2*%
%TO.N,Net-(U1-SW1)*%
X136827500Y-99682500D03*
%TD*%
D12*
%TO.P,C14,1*%
%TO.N,/P2V5*%
X133760000Y-103730000D03*
%TO.P,C14,2*%
%TO.N,GND*%
X133760000Y-104690000D03*
%TD*%
D13*
%TO.P,R14,1*%
%TO.N,Net-(U1-CLPROG)*%
X137717500Y-95767000D03*
%TO.P,R14,2*%
%TO.N,Net-(C3-Pad2)*%
X136522500Y-95767000D03*
%TD*%
D14*
%TO.P,C1,1*%
%TO.N,Net-(J1-VBUS)*%
X138855000Y-88130000D03*
%TO.P,C1,2*%
%TO.N,GND*%
X141805000Y-88130000D03*
%TD*%
D15*
%TO.P,Q1,1,G*%
%TO.N,Net-(Q1-G)*%
X147477500Y-98155000D03*
%TO.P,Q1,2,S*%
%TO.N,Net-(J13-Pin_3)*%
X147477500Y-96255000D03*
%TO.P,Q1,3,D*%
%TO.N,VBAT*%
X145602500Y-97205000D03*
%TD*%
D16*
%TO.P,C16,1*%
%TO.N,GND*%
X129747500Y-93755000D03*
%TO.P,C16,2*%
%TO.N,Net-(U2-OSC)*%
X127672500Y-93755000D03*
%TD*%
D17*
%TO.P,R1,1*%
%TO.N,/VOUT0*%
X149643500Y-104648000D03*
%TO.P,R1,2*%
%TO.N,Net-(D2-A)*%
X150838500Y-104648000D03*
%TD*%
D18*
%TO.P,J18,1,Pin_1*%
%TO.N,/3V3*%
X119080000Y-111020000D03*
D19*
%TO.P,J18,2,Pin_2*%
%TO.N,GND*%
X119080000Y-113560000D03*
%TD*%
D20*
%TO.P,C2,1*%
%TO.N,Net-(J1-VBUS)*%
X135800000Y-88535000D03*
%TO.P,C2,2*%
%TO.N,GND*%
X135800000Y-91485000D03*
%TD*%
D21*
%TO.P,J19,1,Pin_1*%
%TO.N,GND*%
X132620000Y-86825000D03*
D22*
%TO.P,J19,2,Pin_2*%
%TO.N,Net-(J19-Pin_2)*%
X132620000Y-89365000D03*
%TD*%
D23*
%TO.P,C9,1*%
%TO.N,/3V3*%
X149836300Y-100737500D03*
%TO.P,C9,2*%
%TO.N,Net-(U1-FB2)*%
X150796300Y-100737500D03*
%TD*%
D24*
%TO.P,C8,1*%
%TO.N,Net-(U1-FB3)*%
X134990000Y-106620000D03*
%TO.P,C8,2*%
%TO.N,Net-(U1-VC3)*%
X134030000Y-106620000D03*
%TD*%
D25*
%TO.P,H4,1,1*%
%TO.N,GND*%
X168580000Y-119540000D03*
D26*
X168580000Y-119540000D03*
%TD*%
D27*
%TO.P,L2,1,1*%
%TO.N,/3V3*%
X147100000Y-102220000D03*
D28*
%TO.P,L2,2,2*%
%TO.N,Net-(U1-SW2)*%
X147100000Y-99680000D03*
%TD*%
D23*
%TO.P,C7,1*%
%TO.N,GND*%
X135250000Y-102670000D03*
%TO.P,C7,2*%
%TO.N,/3V56*%
X136210000Y-102670000D03*
%TD*%
D13*
%TO.P,R4,1*%
%TO.N,Net-(J1-VBUS)*%
X135380000Y-96910000D03*
%TO.P,R4,2*%
%TO.N,Net-(J19-Pin_2)*%
X134185000Y-96910000D03*
%TD*%
D25*
%TO.P,H1,1,1*%
%TO.N,GND*%
X113320000Y-83647500D03*
D26*
X113320000Y-83647500D03*
%TD*%
D21*
%TO.P,J23,1,Pin_1*%
%TO.N,/N2V5*%
X124755000Y-95830000D03*
D22*
%TO.P,J23,2,Pin_2*%
%TO.N,/P2V5*%
X124755000Y-98370000D03*
%TO.P,J23,3,Pin_3*%
%TO.N,/3V3*%
X124755000Y-100910000D03*
%TO.P,J23,4,Pin_4*%
%TO.N,GND*%
X124755000Y-103450000D03*
%TD*%
D21*
%TO.P,J24,1,Pin_1*%
%TO.N,/3V3*%
X124905000Y-111020000D03*
D22*
%TO.P,J24,2,Pin_2*%
%TO.N,GND*%
X124905000Y-113560000D03*
%TD*%
D13*
%TO.P,R7,1*%
%TO.N,Net-(U1-CLPROG)*%
X137722500Y-96915000D03*
%TO.P,R7,2*%
%TO.N,GND*%
X136527500Y-96915000D03*
%TD*%
%TO.P,R13,1*%
%TO.N,Net-(U1-FB1)*%
X135087500Y-105680000D03*
%TO.P,R13,2*%
%TO.N,GND*%
X133892500Y-105680000D03*
%TD*%
D21*
%TO.P,J13,1,Pin_1*%
%TO.N,/DVCC*%
X155940000Y-114255000D03*
D22*
%TO.P,J13,2,Pin_2*%
%TO.N,Net-(J13-Pin_2)*%
X155940000Y-111715000D03*
%TO.P,J13,3,Pin_3*%
%TO.N,Net-(J13-Pin_3)*%
X155940000Y-109175000D03*
%TD*%
D29*
%TO.P,J1,1,VBUS*%
%TO.N,Net-(J1-VBUS)*%
X137150000Y-83594400D03*
%TO.P,J1,2,D-*%
%TO.N,unconnected-(J1-D--Pad2)*%
X136500000Y-83594400D03*
%TO.P,J1,3,D+*%
%TO.N,unconnected-(J1-D+-Pad3)*%
X135850000Y-83594400D03*
%TO.P,J1,4,ID*%
%TO.N,unconnected-(J1-ID-Pad4)*%
X135200000Y-83594400D03*
%TO.P,J1,5,GND*%
%TO.N,GND*%
X134550000Y-83594400D03*
D30*
%TO.P,J1,6,Shield*%
X139350000Y-80894400D03*
D31*
X138875000Y-80894400D03*
D32*
X138350000Y-83594400D03*
D33*
X136850000Y-80894400D03*
X134850000Y-80894400D03*
D32*
X133350000Y-83594400D03*
D31*
X132825000Y-80894400D03*
D30*
X132350000Y-80894400D03*
%TD*%
D34*
%TO.P,TH1,1*%
%TO.N,GND*%
X129590000Y-86825000D03*
%TO.P,TH1,2*%
%TO.N,Net-(J19-Pin_2)*%
X129590000Y-89325000D03*
%TD*%
D25*
%TO.P,H2,1,1*%
%TO.N,GND*%
X168580000Y-83720000D03*
D26*
X168580000Y-83720000D03*
%TD*%
D35*
%TO.P,C18,1*%
%TO.N,/VOUT0*%
X127727500Y-91567500D03*
%TO.P,C18,2*%
%TO.N,GND*%
X129802500Y-91567500D03*
%TD*%
D36*
%TO.P,R11,1*%
%TO.N,Net-(U1-FB3)*%
X136310000Y-107147500D03*
%TO.P,R11,2*%
%TO.N,GND*%
X136310000Y-105952500D03*
%TD*%
D37*
%TO.P,U1,1,LDO3V3*%
%TO.N,Net-(J13-Pin_2)*%
X139240000Y-98170000D03*
%TO.P,U1,2,CLPROG*%
%TO.N,Net-(U1-CLPROG)*%
X139240000Y-98670000D03*
%TO.P,U1,3,NTC*%
%TO.N,Net-(J19-Pin_2)*%
X139240000Y-99170000D03*
%TO.P,U1,4,SW1*%
%TO.N,Net-(U1-SW1)*%
X139240000Y-99670000D03*
%TO.P,U1,5,VIN1*%
%TO.N,/3V56*%
X139240000Y-100170000D03*
%TO.P,U1,6,FB1*%
%TO.N,Net-(U1-FB1)*%
X139240000Y-100670000D03*
%TO.P,U1,7,FB3*%
%TO.N,Net-(U1-FB3)*%
X139240000Y-101170000D03*
%TO.P,U1,8,VC3*%
%TO.N,Net-(U1-VC3)*%
X139240000Y-101670000D03*
D38*
%TO.P,U1,9,SWAB3*%
%TO.N,Net-(U1-SWAB3)*%
X139940000Y-102370000D03*
%TO.P,U1,10,DVCC*%
%TO.N,/DVCC*%
X140440000Y-102370000D03*
%TO.P,U1,11,VIN3*%
%TO.N,/VOUT0*%
X140940000Y-102370000D03*
%TO.P,U1,12,VOUT3*%
%TO.N,/3V56*%
X141440000Y-102370000D03*
%TO.P,U1,13,SCL*%
%TO.N,/SCL*%
X141940000Y-102370000D03*
%TO.P,U1,14,SWCD3*%
%TO.N,Net-(U1-SWCD3)*%
X142440000Y-102370000D03*
D37*
%TO.P,U1,15,PGOODALL*%
%TO.N,/PGOOD*%
X143140000Y-101670000D03*
%TO.P,U1,16,SDA*%
%TO.N,/SDA*%
X143140000Y-101170000D03*
%TO.P,U1,17,FB2*%
%TO.N,Net-(U1-FB2)*%
X143140000Y-100670000D03*
%TO.P,U1,18,VIN2*%
%TO.N,/3V56*%
X143140000Y-100170000D03*
%TO.P,U1,19,SW2*%
%TO.N,Net-(U1-SW2)*%
X143140000Y-99670000D03*
%TO.P,U1,20,PROG*%
%TO.N,Net-(U1-PROG)*%
X143140000Y-99170000D03*
%TO.P,U1,21,\u002ACHRG*%
%TO.N,/CHRG*%
X143140000Y-98670000D03*
%TO.P,U1,22,GATE*%
%TO.N,Net-(Q1-G)*%
X143140000Y-98170000D03*
D38*
%TO.P,U1,23,BAT*%
%TO.N,VBAT*%
X142440000Y-97470000D03*
%TO.P,U1,24,VOUT*%
%TO.N,Net-(J13-Pin_3)*%
X141940000Y-97470000D03*
%TO.P,U1,25,VBUS*%
%TO.N,Net-(J1-VBUS)*%
X141440000Y-97470000D03*
%TO.P,U1,26,SW*%
%TO.N,Net-(U1-SW)*%
X140940000Y-97470000D03*
%TO.P,U1,27,SEQ*%
%TO.N,unconnected-(U1-SEQ-Pad27)*%
X140440000Y-97470000D03*
%TO.P,U1,28,ENALL*%
%TO.N,/ENALL*%
X139940000Y-97470000D03*
D39*
%TO.P,U1,29,EPAD*%
%TO.N,GND*%
X140115000Y-98345000D03*
X140115000Y-99395000D03*
X140115000Y-100445000D03*
X140115000Y-101495000D03*
X141190000Y-98345000D03*
X141190000Y-99395000D03*
D40*
X141190000Y-99920000D03*
D39*
X141190000Y-100445000D03*
X141190000Y-101495000D03*
X142265000Y-98345000D03*
X142265000Y-99395000D03*
X142265000Y-100445000D03*
X142265000Y-101495000D03*
%TD*%
D41*
%TO.P,C4,1*%
%TO.N,GND*%
X140210000Y-104740000D03*
%TO.P,C4,2*%
%TO.N,/DVCC*%
X140210000Y-103780000D03*
%TD*%
D12*
%TO.P,C13,1*%
%TO.N,Net-(J13-Pin_3)*%
X152180000Y-96430000D03*
%TO.P,C13,2*%
%TO.N,GND*%
X152180000Y-97390000D03*
%TD*%
D21*
%TO.P,J14,1,Pin_1*%
%TO.N,GND*%
X124905000Y-118760000D03*
%TD*%
D16*
%TO.P,C15,1*%
%TO.N,Net-(U2-CAP+)*%
X123490000Y-84175000D03*
%TO.P,C15,2*%
%TO.N,Net-(U2-CAP-)*%
X121415000Y-84175000D03*
%TD*%
D13*
%TO.P,R6,1*%
%TO.N,Net-(U1-PROG)*%
X150965500Y-98171000D03*
%TO.P,R6,2*%
%TO.N,GND*%
X149770500Y-98171000D03*
%TD*%
D42*
%TO.P,SW1,*%
%TO.N,*%
X147390000Y-91867500D03*
X155590000Y-91867500D03*
D43*
%TO.P,SW1,1,A*%
%TO.N,GND*%
X149490000Y-91867500D03*
D44*
%TO.P,SW1,2,B*%
%TO.N,/VOUT0*%
X151490000Y-91867500D03*
%TO.P,SW1,3,C*%
%TO.N,Net-(J13-Pin_3)*%
X153490000Y-91867500D03*
%TD*%
D45*
%TO.P,L1,1,1*%
%TO.N,Net-(U1-SWCD3)*%
X143462500Y-107792500D03*
D46*
%TO.P,L1,2,2*%
%TO.N,Net-(U1-SWAB3)*%
X139932500Y-107792500D03*
%TD*%
D47*
%TO.P,J21,1,Pin_1*%
%TO.N,/VOUT0*%
X161925000Y-93662500D03*
D19*
%TO.P,J21,2,Pin_2*%
%TO.N,GND*%
X161925000Y-91122500D03*
%TD*%
D48*
%TO.P,R5,1*%
%TO.N,Net-(J13-Pin_3)*%
X153427500Y-96085000D03*
%TO.P,R5,2*%
%TO.N,Net-(D1-A)*%
X153427500Y-97280000D03*
%TD*%
D49*
%TO.P,D1,1,K*%
%TO.N,GND*%
X153527500Y-101087500D03*
%TO.P,D1,2,A*%
%TO.N,Net-(D1-A)*%
X153527500Y-99037500D03*
%TD*%
D12*
%TO.P,C10,1*%
%TO.N,/P2V5*%
X135049500Y-103774500D03*
%TO.P,C10,2*%
%TO.N,Net-(U1-FB1)*%
X135049500Y-104734500D03*
%TD*%
D21*
%TO.P,J22,1,Pin_1*%
%TO.N,/3V56*%
X161130000Y-99070000D03*
D22*
%TO.P,J22,2,Pin_2*%
%TO.N,/PGOOD*%
X161130000Y-101610000D03*
%TO.P,J22,3,Pin_3*%
%TO.N,/CHRG*%
X161130000Y-104150000D03*
%TO.P,J22,4,Pin_4*%
%TO.N,/ENALL*%
X161130000Y-106690000D03*
%TO.P,J22,5,Pin_5*%
%TO.N,/SDA*%
X161130000Y-109230000D03*
%TO.P,J22,6,Pin_6*%
%TO.N,/SCL*%
X161130000Y-111770000D03*
%TO.P,J22,7,Pin_7*%
%TO.N,/DVCC*%
X161130000Y-114310000D03*
%TD*%
D23*
%TO.P,C3,1*%
%TO.N,GND*%
X134450000Y-95800000D03*
%TO.P,C3,2*%
%TO.N,Net-(C3-Pad2)*%
X135410000Y-95800000D03*
%TD*%
%TO.P,C12,1*%
%TO.N,/3V3*%
X149822500Y-99462500D03*
%TO.P,C12,2*%
%TO.N,GND*%
X150782500Y-99462500D03*
%TD*%
D13*
%TO.P,R8,1*%
%TO.N,/3V56*%
X138547500Y-107350000D03*
%TO.P,R8,2*%
%TO.N,Net-(U1-FB3)*%
X137352500Y-107350000D03*
%TD*%
D24*
%TO.P,C11,1*%
%TO.N,/3V56*%
X138260000Y-105390000D03*
%TO.P,C11,2*%
%TO.N,GND*%
X137300000Y-105390000D03*
%TD*%
D50*
%TO.P,C17,1*%
%TO.N,Net-(U2-LV)*%
X119722500Y-89272500D03*
%TO.P,C17,2*%
%TO.N,GND*%
X119722500Y-87197500D03*
%TD*%
D41*
%TO.P,C5,1*%
%TO.N,GND*%
X141250000Y-104750000D03*
%TO.P,C5,2*%
%TO.N,/VOUT0*%
X141250000Y-103790000D03*
%TD*%
D17*
%TO.P,R12,1*%
%TO.N,Net-(U1-FB2)*%
X149692000Y-103238500D03*
%TO.P,R12,2*%
%TO.N,GND*%
X150887000Y-103238500D03*
%TD*%
D18*
%TO.P,J20,1,Pin_1*%
%TO.N,/N2V5*%
X119080000Y-95830000D03*
D19*
%TO.P,J20,2,Pin_2*%
%TO.N,/P2V5*%
X119080000Y-98370000D03*
%TO.P,J20,3,Pin_3*%
%TO.N,/3V3*%
X119080000Y-100910000D03*
%TO.P,J20,4,Pin_4*%
%TO.N,GND*%
X119080000Y-103450000D03*
%TD*%
D51*
%TO.P,U2,1,BOOST*%
%TO.N,unconnected-(U2-BOOST-Pad1)*%
X125957500Y-86610000D03*
%TO.P,U2,2,CAP+*%
%TO.N,Net-(U2-CAP+)*%
X124687500Y-86610000D03*
%TO.P,U2,3,GND*%
%TO.N,GND*%
X123417500Y-86610000D03*
%TO.P,U2,4,CAP-*%
%TO.N,Net-(U2-CAP-)*%
X122147500Y-86610000D03*
%TO.P,U2,5,VOUT*%
%TO.N,/N2V5*%
X122147500Y-91560000D03*
%TO.P,U2,6,LV*%
%TO.N,Net-(U2-LV)*%
X123417500Y-91560000D03*
%TO.P,U2,7,OSC*%
%TO.N,Net-(U2-OSC)*%
X124687500Y-91560000D03*
%TO.P,U2,8,V+*%
%TO.N,/VOUT0*%
X125957500Y-91560000D03*
%TD*%
D45*
%TO.P,L7,1,1*%
%TO.N,Net-(J13-Pin_3)*%
X143164500Y-93180100D03*
D46*
%TO.P,L7,2,2*%
%TO.N,Net-(U1-SW)*%
X139634500Y-93180100D03*
%TD*%
D23*
%TO.P,C6,1*%
%TO.N,GND*%
X137320000Y-106340000D03*
%TO.P,C6,2*%
%TO.N,/3V56*%
X138280000Y-106340000D03*
%TD*%
D13*
%TO.P,R3,1*%
%TO.N,/VOUT0*%
X148552500Y-104648000D03*
%TO.P,R3,2*%
%TO.N,/PGOOD*%
X147357500Y-104648000D03*
%TD*%
D17*
%TO.P,R9,1*%
%TO.N,/3V3*%
X149730000Y-101962500D03*
%TO.P,R9,2*%
%TO.N,Net-(U1-FB2)*%
X150925000Y-101962500D03*
%TD*%
D52*
%TO.P,J12,1,Pin_1*%
%TO.N,VBAT*%
X147577500Y-86190000D03*
D53*
%TO.P,J12,2,Pin_2*%
%TO.N,GND*%
X145577500Y-86190000D03*
%TD*%
D54*
%TO.P,D2,1,K*%
%TO.N,/CHRG*%
X168877500Y-104170000D03*
%TO.P,D2,2,A*%
%TO.N,Net-(D2-A)*%
X170927500Y-104170000D03*
%TD*%
D48*
%TO.P,R10,1*%
%TO.N,/P2V5*%
X136319500Y-103657000D03*
%TO.P,R10,2*%
%TO.N,Net-(U1-FB1)*%
X136319500Y-104852000D03*
%TD*%
D25*
%TO.P,H3,1,1*%
%TO.N,GND*%
X113407500Y-119505000D03*
D26*
X113407500Y-119505000D03*
%TD*%
D55*
%TO.N,GND*%
X141270000Y-105300000D03*
X146362500Y-106992500D03*
X140230000Y-105300000D03*
D56*
X136080000Y-96460000D03*
D55*
X138360000Y-104430000D03*
D57*
%TO.N,Net-(J1-VBUS)*%
X137150000Y-84747500D03*
X141450300Y-95847100D03*
X137150000Y-86245000D03*
D55*
X132842000Y-97500000D03*
%TO.N,Net-(U1-FB3)*%
X137530000Y-104350000D03*
X137270000Y-108220000D03*
%TO.N,Net-(U1-VC3)*%
X133180000Y-106610000D03*
X138397499Y-103486002D03*
%TO.N,Net-(U1-FB2)*%
X146057500Y-103222500D03*
X148447500Y-103222500D03*
%TO.N,VBAT*%
X144027500Y-97237500D03*
X144652500Y-97237500D03*
%TO.N,Net-(U1-PROG)*%
X152047500Y-98152500D03*
D58*
X144477500Y-98912500D03*
D55*
%TO.N,Net-(J13-Pin_3)*%
X157353000Y-96062500D03*
%TO.N,Net-(J13-Pin_2)*%
X138726000Y-97536000D03*
X146962500Y-114200000D03*
D56*
%TO.N,Net-(J19-Pin_2)*%
X137770000Y-98820000D03*
D55*
X131230000Y-96910000D03*
%TO.N,/VOUT0*%
X148005000Y-89408000D03*
X125970000Y-89877500D03*
X146862837Y-109857163D03*
D59*
X142670000Y-105140000D03*
D55*
%TO.N,/DVCC*%
X140182389Y-103213652D03*
X140167500Y-116162500D03*
D58*
%TO.N,/3V56*%
X142680000Y-103800000D03*
D59*
X139924989Y-110524989D03*
D55*
X138290000Y-108260000D03*
D59*
X145060000Y-105690000D03*
D55*
X136200000Y-101860000D03*
X144860000Y-100507500D03*
D59*
%TO.N,/3V3*%
X154045000Y-104242500D03*
D60*
X148960000Y-102222500D03*
D55*
%TO.N,/CHRG*%
X154500000Y-96890000D03*
X158650000Y-97690000D03*
D58*
X145900000Y-98440000D03*
D55*
X158640000Y-104140000D03*
D56*
%TO.N,/SDA*%
X144050000Y-101750000D03*
D55*
X153025000Y-107530000D03*
%TO.N,/ENALL*%
X166595000Y-106680000D03*
X138684000Y-95200220D03*
D58*
%TO.N,/SCL*%
X142336195Y-103153313D03*
%TD*%
D61*
%TO.N,GND*%
X137167500Y-105982500D02*
X137300000Y-105850000D01*
X137330000Y-105390000D02*
X137300000Y-105390000D01*
X140230000Y-105310000D02*
X140230000Y-104760000D01*
X138360000Y-104430000D02*
X138290000Y-104430000D01*
X137300000Y-106320000D02*
X137320000Y-106340000D01*
X141270000Y-105370000D02*
X141270000Y-104770000D01*
D62*
X136105000Y-96460000D02*
X136555000Y-96910000D01*
D61*
X137300000Y-105390000D02*
X137300000Y-105850000D01*
X138290000Y-104430000D02*
X137330000Y-105390000D01*
X136080000Y-96460000D02*
X136105000Y-96460000D01*
X141270000Y-104770000D02*
X141250000Y-104750000D01*
X140230000Y-104760000D02*
X140210000Y-104740000D01*
X137300000Y-105850000D02*
X137300000Y-106320000D01*
X136240000Y-105982500D02*
X137167500Y-105982500D01*
D63*
%TO.N,Net-(J1-VBUS)*%
X137155000Y-88030000D02*
X138765000Y-88030000D01*
D64*
X137150000Y-84306700D02*
X137150000Y-86245000D01*
D61*
X134567532Y-97506000D02*
X134573532Y-97500000D01*
X134573532Y-97500000D02*
X135327500Y-97500000D01*
X141440000Y-95857400D02*
X141450300Y-95847100D01*
X133796468Y-97500000D02*
X133802468Y-97506000D01*
D65*
X141440000Y-97470000D02*
X141440000Y-95857400D01*
D61*
X133802468Y-97506000D02*
X134567532Y-97506000D01*
D66*
X137150000Y-86245000D02*
X137150000Y-88025000D01*
D64*
X137150000Y-88025000D02*
X137155000Y-88030000D01*
D61*
X135380000Y-97447500D02*
X135380000Y-96910000D01*
D63*
X138765000Y-88030000D02*
X138825000Y-88090000D01*
D61*
X135327500Y-97500000D02*
X135380000Y-97447500D01*
X132850000Y-97500000D02*
X133796468Y-97500000D01*
D62*
X137150000Y-84255000D02*
X137150000Y-83595000D01*
D63*
X136650000Y-88535000D02*
X137155000Y-88030000D01*
X136290000Y-88535000D02*
X136650000Y-88535000D01*
D61*
%TO.N,Net-(U1-CLPROG)*%
X137727500Y-97260000D02*
X137727500Y-97722500D01*
X137717500Y-95767000D02*
X137717500Y-97250000D01*
X137717500Y-97250000D02*
X137727500Y-97260000D01*
X137727500Y-97722500D02*
X138675000Y-98670000D01*
X138675000Y-98670000D02*
X139240000Y-98670000D01*
%TO.N,Net-(U1-FB3)*%
X136242500Y-107180000D02*
X136240000Y-107177500D01*
X135547500Y-107177500D02*
X134990000Y-106620000D01*
X137822499Y-103687501D02*
X137822499Y-102167501D01*
X137302500Y-108187500D02*
X137302500Y-107420000D01*
X137302500Y-107420000D02*
X137062500Y-107180000D01*
X137270000Y-108220000D02*
X137302500Y-108187500D01*
X137530000Y-104350000D02*
X137530000Y-103980000D01*
X137822499Y-102167501D02*
X138820000Y-101170000D01*
X138820000Y-101170000D02*
X139240000Y-101170000D01*
X137062500Y-107180000D02*
X136242500Y-107180000D01*
X136240000Y-107177500D02*
X135547500Y-107177500D01*
X137530000Y-103980000D02*
X137822499Y-103687501D01*
%TO.N,Net-(U1-VC3)*%
X138397499Y-102512501D02*
X139240000Y-101670000D01*
X138397499Y-103486002D02*
X138397499Y-102512501D01*
X133180000Y-106610000D02*
X134020000Y-106610000D01*
X134020000Y-106610000D02*
X134030000Y-106620000D01*
%TO.N,Net-(U1-FB2)*%
X150925000Y-100866200D02*
X150796300Y-100737500D01*
D67*
X143601304Y-100678411D02*
X143672893Y-100750000D01*
X150925000Y-101962500D02*
X150925000Y-100866200D01*
D64*
X144880000Y-102530000D02*
X145572500Y-103222500D01*
D67*
X143879173Y-100760000D02*
X144270000Y-101050000D01*
D64*
X144880000Y-101300000D02*
X144880000Y-102530000D01*
D61*
X143609716Y-100670000D02*
X143140000Y-100670000D01*
D67*
X149692000Y-103195500D02*
X149804500Y-103195500D01*
X150925000Y-102075000D02*
X150925000Y-101962500D01*
D64*
X145572500Y-103222500D02*
X146057500Y-103222500D01*
D62*
X149804500Y-103195500D02*
X150925000Y-102075000D01*
D64*
X148447500Y-103222500D02*
X149676000Y-103222500D01*
D67*
X143672893Y-100750000D02*
X143710000Y-100750000D01*
X143710000Y-100750000D02*
X143720000Y-100760000D01*
D61*
X149676000Y-103222500D02*
X149692000Y-103238500D01*
D67*
X144270000Y-101050000D02*
X144880000Y-101200000D01*
D61*
X149692000Y-103238500D02*
X149692000Y-103195500D01*
D67*
X143720000Y-100760000D02*
X143879173Y-100760000D01*
D61*
%TO.N,Net-(U1-FB1)*%
X136658000Y-104852000D02*
X136319500Y-104852000D01*
X136937500Y-103792500D02*
X136937500Y-104572500D01*
X137422500Y-103307500D02*
X136937500Y-103792500D01*
X138710000Y-100670000D02*
X137422500Y-101957500D01*
X136202000Y-104734500D02*
X136319500Y-104852000D01*
X139240000Y-100670000D02*
X138710000Y-100670000D01*
X136937500Y-104572500D02*
X136658000Y-104852000D01*
X135049500Y-104734500D02*
X135049500Y-105642000D01*
X135049500Y-104734500D02*
X136202000Y-104734500D01*
X137422500Y-101957500D02*
X137422500Y-103307500D01*
X135049500Y-105642000D02*
X135087500Y-105680000D01*
D68*
%TO.N,Net-(U2-CAP+)*%
X123490000Y-84175000D02*
X124250000Y-84175000D01*
X124687500Y-84612500D02*
X124687500Y-86610000D01*
X124250000Y-84175000D02*
X124687500Y-84612500D01*
D69*
%TO.N,Net-(U2-CAP-)*%
X121705000Y-86610000D02*
X122100000Y-86610000D01*
D68*
X121415000Y-86320000D02*
X121705000Y-86610000D01*
X121415000Y-84175000D02*
X121415000Y-86320000D01*
D61*
%TO.N,Net-(D1-A)*%
X153527500Y-97380000D02*
X153427500Y-97280000D01*
X153527500Y-99037500D02*
X153527500Y-97380000D01*
D66*
%TO.N,VBAT*%
X145570000Y-97237500D02*
X142842500Y-97237500D01*
X142842500Y-97237500D02*
X142677500Y-97402500D01*
D70*
%TO.N,Net-(U1-SW2)*%
X143140000Y-99670000D02*
X144460000Y-99670000D01*
D66*
X147097500Y-99682500D02*
X147100000Y-99680000D01*
X144487500Y-99682500D02*
X147097500Y-99682500D01*
%TO.N,Net-(U1-SW1)*%
X137977500Y-99682500D02*
X136827500Y-99682500D01*
D70*
X139240000Y-99670000D02*
X138060000Y-99670000D01*
D71*
%TO.N,Net-(U1-SW)*%
X140047500Y-95887500D02*
X140047500Y-95162500D01*
X140047500Y-95162500D02*
X140057500Y-95152500D01*
D61*
X140940000Y-97470000D02*
X140940000Y-96875000D01*
D62*
X140877500Y-96875000D02*
X140185000Y-96120000D01*
D61*
%TO.N,Net-(Q1-G)*%
X143420000Y-97890000D02*
X147485000Y-97890000D01*
X143140000Y-98170000D02*
X143420000Y-97890000D01*
%TO.N,Net-(U1-PROG)*%
X152029000Y-98171000D02*
X152047500Y-98152500D01*
X143690000Y-99170000D02*
X143937500Y-98922500D01*
X150965500Y-98171000D02*
X152029000Y-98171000D01*
X144467500Y-98922500D02*
X144477500Y-98912500D01*
X143140000Y-99170000D02*
X143690000Y-99170000D01*
X143937500Y-98922500D02*
X144467500Y-98922500D01*
D66*
%TO.N,Net-(U1-SWCD3)*%
X143672500Y-103392500D02*
X143672500Y-107662500D01*
X142697200Y-102336600D02*
X143672500Y-103392500D01*
%TO.N,Net-(U1-SWAB3)*%
X139697500Y-106182500D02*
X139697500Y-107662500D01*
X139270000Y-102797500D02*
X139270000Y-105710000D01*
D72*
X139270000Y-105710000D02*
X139720000Y-106160000D01*
D66*
X139697500Y-102370000D02*
X139270000Y-102797500D01*
D61*
%TO.N,Net-(D2-A)*%
X159790000Y-107960000D02*
X170040000Y-107960000D01*
X155140000Y-103310000D02*
X159790000Y-107960000D01*
X170717500Y-107282500D02*
X170717500Y-104380000D01*
X153611000Y-103310000D02*
X155140000Y-103310000D01*
X152273000Y-104648000D02*
X153611000Y-103310000D01*
X150965500Y-104648000D02*
X152273000Y-104648000D01*
X170040000Y-107960000D02*
X170717500Y-107282500D01*
D68*
%TO.N,Net-(J13-Pin_3)*%
X153427500Y-96085000D02*
X152195000Y-96085000D01*
D61*
X141940000Y-97470000D02*
X141940000Y-96876284D01*
D68*
X157353000Y-96062500D02*
X157340500Y-96075000D01*
D61*
X152195000Y-96085000D02*
X152187500Y-96092500D01*
D71*
X142751858Y-95912500D02*
X142751858Y-95242500D01*
X151864500Y-95912500D02*
X153490000Y-94287000D01*
X153490000Y-94287000D02*
X153490000Y-91867500D01*
X142903784Y-95912500D02*
X151864500Y-95912500D01*
D62*
X141977500Y-96876284D02*
X142751858Y-96064426D01*
D68*
X157340500Y-96075000D02*
X153437500Y-96075000D01*
D64*
%TO.N,Net-(J13-Pin_2)*%
X152617500Y-111715000D02*
X155940000Y-111715000D01*
X138726000Y-97536000D02*
X139240000Y-98050000D01*
X146962500Y-114200000D02*
X150132500Y-114200000D01*
X150132500Y-114200000D02*
X152617500Y-111715000D01*
D61*
%TO.N,Net-(C3-Pad2)*%
X135410000Y-95800000D02*
X136489500Y-95800000D01*
%TO.N,Net-(J19-Pin_2)*%
X134175000Y-96900000D02*
X134185000Y-96910000D01*
D67*
X137870000Y-98820000D02*
X138170000Y-98820000D01*
X131240000Y-96900000D02*
X134175000Y-96900000D01*
D61*
X138520000Y-99170000D02*
X139240000Y-99170000D01*
D67*
X138170000Y-98820000D02*
X138520000Y-99140000D01*
D61*
X131230000Y-96910000D02*
X131240000Y-96900000D01*
D68*
%TO.N,Net-(U2-OSC)*%
X125357500Y-93575000D02*
X127862500Y-93575000D01*
X124687500Y-91560000D02*
X124687500Y-92905000D01*
X124687500Y-92905000D02*
X125357500Y-93575000D01*
%TO.N,Net-(U2-LV)*%
X122890000Y-89272500D02*
X123417500Y-89800000D01*
X119722500Y-89272500D02*
X122890000Y-89272500D01*
X123417500Y-89800000D02*
X123417500Y-91560000D01*
X119722500Y-89480000D02*
X119722500Y-89272500D01*
D62*
%TO.N,/VOUT0*%
X141470000Y-103790000D02*
X141250000Y-103790000D01*
X149630000Y-104788500D02*
X149733000Y-104685500D01*
D69*
X151490000Y-90784000D02*
X151490000Y-91867500D01*
X125970000Y-91547500D02*
X125957500Y-91560000D01*
X148005000Y-89408000D02*
X150114000Y-89408000D01*
D67*
X142670000Y-105140000D02*
X142670000Y-104960000D01*
D62*
X142670000Y-104960000D02*
X142640000Y-104960000D01*
D61*
X149770500Y-104648000D02*
X148552500Y-104648000D01*
D69*
X125957500Y-91560000D02*
X127720000Y-91560000D01*
D62*
X140940000Y-102370000D02*
X140940000Y-103480000D01*
D69*
X125970000Y-89877500D02*
X125970000Y-91547500D01*
D62*
X142640000Y-104960000D02*
X141470000Y-103790000D01*
D69*
X150114000Y-89408000D02*
X151490000Y-90784000D01*
D62*
X140940000Y-103480000D02*
X141250000Y-103790000D01*
D69*
X127720000Y-91560000D02*
X127727500Y-91567500D01*
D62*
X146862837Y-109857163D02*
X149630000Y-107090000D01*
X149630000Y-107090000D02*
X149630000Y-104788500D01*
D61*
%TO.N,/DVCC*%
X140440000Y-102956041D02*
X140440000Y-102370000D01*
D64*
X140167500Y-116162500D02*
X140282500Y-116277500D01*
D61*
X140182389Y-103213652D02*
X140440000Y-102956041D01*
D64*
X155075000Y-116277500D02*
X157777500Y-116277500D01*
D68*
X155940000Y-114255000D02*
X155940000Y-116140000D01*
D61*
X140182389Y-103213652D02*
X140210000Y-103241263D01*
D64*
X140282500Y-116277500D02*
X155802500Y-116277500D01*
D61*
X140210000Y-103241263D02*
X140210000Y-103780000D01*
D64*
X159745000Y-114310000D02*
X161130000Y-114310000D01*
X157777500Y-116277500D02*
X159745000Y-114310000D01*
%TO.N,/3V56*%
X136200000Y-101860000D02*
X136200000Y-102660000D01*
D61*
X138620000Y-100170000D02*
X139240000Y-100170000D01*
X136800000Y-102670000D02*
X137022500Y-102447500D01*
D67*
X142680000Y-103800000D02*
X142217107Y-103800000D01*
X142217107Y-103800000D02*
X141440000Y-103022893D01*
D61*
X136200000Y-102660000D02*
X136210000Y-102670000D01*
D62*
X138352000Y-108198000D02*
X138352000Y-105420000D01*
D61*
X137022500Y-102447500D02*
X137022500Y-101767500D01*
D66*
X144615011Y-110524989D02*
X145060000Y-110080000D01*
D61*
X136210000Y-102670000D02*
X136800000Y-102670000D01*
X138290000Y-108260000D02*
X138352000Y-108198000D01*
D67*
X141440000Y-103022893D02*
X141440000Y-102370000D01*
D61*
X143880000Y-100170000D02*
X143140000Y-100170000D01*
D62*
X144860000Y-100507500D02*
X144379695Y-100507500D01*
D66*
X145060000Y-110080000D02*
X145060000Y-105690000D01*
D62*
X144379695Y-100507500D02*
X144029695Y-100250000D01*
D61*
X137022500Y-101767500D02*
X138620000Y-100170000D01*
D62*
X144029695Y-100250000D02*
X143880000Y-100250000D01*
D66*
X139924989Y-110524989D02*
X144615011Y-110524989D01*
D73*
%TO.N,/3V3*%
X149472500Y-102220000D02*
X147100000Y-102220000D01*
D61*
X149730000Y-100843800D02*
X149836300Y-100737500D01*
D71*
X153997500Y-104185000D02*
X151757500Y-106425000D01*
D73*
X149730000Y-101962500D02*
X149472500Y-102220000D01*
D71*
X151757500Y-110345000D02*
X150092500Y-112010000D01*
X126330000Y-100910000D02*
X129720000Y-104300000D01*
X119172500Y-100792500D02*
X124637500Y-100792500D01*
X129720000Y-112010000D02*
X129240000Y-112010000D01*
X129720000Y-112010000D02*
X129720000Y-104300000D01*
X124755000Y-100910000D02*
X126330000Y-100910000D01*
X128250000Y-111020000D02*
X124905000Y-111020000D01*
D61*
X147100000Y-102220000D02*
X147357500Y-101962500D01*
D71*
X150092500Y-112010000D02*
X129720000Y-112010000D01*
X129240000Y-112010000D02*
X128250000Y-111020000D01*
X154045000Y-104185000D02*
X153997500Y-104185000D01*
D62*
X149822500Y-99462500D02*
X149822500Y-101870000D01*
D71*
X124905000Y-111020000D02*
X119202500Y-111020000D01*
X151757500Y-106425000D02*
X151757500Y-110345000D01*
D61*
X147357500Y-101962500D02*
X149730000Y-101962500D01*
X149836300Y-101856200D02*
X149730000Y-101962500D01*
D71*
X124637500Y-100792500D02*
X124755000Y-100910000D01*
D61*
%TO.N,/P2V5*%
X135167000Y-103657000D02*
X135049500Y-103774500D01*
X135049500Y-103774500D02*
X133779500Y-103774500D01*
D71*
X119172500Y-98252500D02*
X124637500Y-98252500D01*
D61*
X136319500Y-103657000D02*
X135167000Y-103657000D01*
X133760000Y-103730000D02*
X133820000Y-103670000D01*
D68*
X132995000Y-98390000D02*
X134287500Y-99682500D01*
X124975000Y-98390000D02*
X132995000Y-98390000D01*
D61*
X133820000Y-103670000D02*
X133820000Y-100009000D01*
%TO.N,/CHRG*%
X157850000Y-96890000D02*
X158650000Y-97690000D01*
X158640000Y-104140000D02*
X168655000Y-104140000D01*
X143140000Y-98670000D02*
X143624314Y-98670000D01*
X143954314Y-98340000D02*
X145800000Y-98340000D01*
X143624314Y-98670000D02*
X143954314Y-98340000D01*
X154500000Y-96890000D02*
X157850000Y-96890000D01*
X145800000Y-98340000D02*
X145900000Y-98440000D01*
D73*
%TO.N,/N2V5*%
X124637500Y-95712500D02*
X124755000Y-95830000D01*
X119172500Y-95712500D02*
X124637500Y-95712500D01*
X119172500Y-95712500D02*
X119172500Y-92205000D01*
X119817500Y-91560000D02*
X121900000Y-91560000D01*
X119172500Y-92205000D02*
X119817500Y-91560000D01*
D61*
%TO.N,/PGOOD*%
X147357500Y-104648000D02*
X147992500Y-104013000D01*
X146078000Y-104648000D02*
X147357500Y-104648000D01*
X147992500Y-104013000D02*
X152057000Y-104013000D01*
X153454000Y-102616000D02*
X155634000Y-102616000D01*
X152057000Y-104013000D02*
X153454000Y-102616000D01*
X161120000Y-101600000D02*
X161130000Y-101610000D01*
X143140000Y-101670000D02*
X143140000Y-101710000D01*
X156650000Y-101600000D02*
X161120000Y-101600000D01*
X155634000Y-102616000D02*
X156650000Y-101600000D01*
X143140000Y-101710000D02*
X146078000Y-104648000D01*
%TO.N,/SDA*%
X157252500Y-107387500D02*
X159095000Y-109230000D01*
X159095000Y-109230000D02*
X161130000Y-109230000D01*
X143704030Y-101330000D02*
X143544030Y-101170000D01*
X143920000Y-101330000D02*
X143704030Y-101330000D01*
X153025000Y-107530000D02*
X153167500Y-107387500D01*
X143544030Y-101170000D02*
X143140000Y-101170000D01*
X144050000Y-101460000D02*
X143920000Y-101330000D01*
X144050000Y-101750000D02*
X144050000Y-101460000D01*
X153167500Y-107387500D02*
X157252500Y-107387500D01*
%TO.N,/ENALL*%
X138684000Y-96214000D02*
X139940000Y-97470000D01*
X138684000Y-95200222D02*
X138684000Y-96214000D01*
D68*
X161140000Y-106680000D02*
X161130000Y-106690000D01*
X166595000Y-106680000D02*
X161140000Y-106680000D01*
D61*
%TO.N,/SCL*%
X142319283Y-103153313D02*
X141940000Y-102774030D01*
X141940000Y-102774030D02*
X141940000Y-102370000D01*
X142336195Y-103153313D02*
X142319283Y-103153313D01*
%TD*%
%TA.AperFunction,Conductor*%
%TO.N,GND*%
G36*
X132824074Y-98860185D02*
G01*
X132844716Y-98876819D01*
X133615959Y-99648062D01*
X133649444Y-99709385D01*
X133644460Y-99779077D01*
X133615962Y-99823422D01*
X133586443Y-99852941D01*
X133544500Y-99954199D01*
X133544500Y-103211734D01*
X133524815Y-103278773D01*
X133472011Y-103324528D01*
X133470587Y-103325168D01*
X133422983Y-103346187D01*
X133346187Y-103422983D01*
X133302318Y-103522335D01*
X133302318Y-103522337D01*
X133299500Y-103546625D01*
X133299500Y-103913365D01*
X133299502Y-103913388D01*
X133302317Y-103937659D01*
X133302318Y-103937662D01*
X133346186Y-104037015D01*
X133346187Y-104037016D01*
X133422984Y-104113813D01*
X133522338Y-104157682D01*
X133546627Y-104160500D01*
X133973372Y-104160499D01*
X133997662Y-104157682D01*
X134097016Y-104113813D01*
X134124510Y-104086319D01*
X134185833Y-104052834D01*
X134212191Y-104050000D01*
X134552808Y-104050000D01*
X134582186Y-104058626D01*
X134612116Y-104065103D01*
X134617207Y-104068909D01*
X134619847Y-104069685D01*
X134640393Y-104086223D01*
X134640485Y-104086315D01*
X134640489Y-104086318D01*
X134712484Y-104158313D01*
X134712764Y-104158437D01*
X134721069Y-104166723D01*
X134732585Y-104187760D01*
X134747752Y-104206345D01*
X134749060Y-104217853D01*
X134754621Y-104228010D01*
X134752936Y-104251932D01*
X134755647Y-104275767D01*
X134750526Y-104286155D01*
X134749713Y-104297707D01*
X134735360Y-104316923D01*
X134724756Y-104338437D01*
X134720324Y-104342277D01*
X134720609Y-104342562D01*
X134635687Y-104427483D01*
X134591818Y-104526835D01*
X134591818Y-104526837D01*
X134589000Y-104551125D01*
X134589000Y-104917865D01*
X134589002Y-104917888D01*
X134591817Y-104942159D01*
X134591818Y-104942162D01*
X134635686Y-105041515D01*
X134694848Y-105100677D01*
X134728333Y-105162000D01*
X134723349Y-105231692D01*
X134694848Y-105276039D01*
X134629401Y-105341485D01*
X134582512Y-105447678D01*
X134579500Y-105473639D01*
X134579500Y-105886348D01*
X134579502Y-105886372D01*
X134582510Y-105912314D01*
X134582513Y-105912324D01*
X134629400Y-106018513D01*
X134662348Y-106051461D01*
X134666646Y-106059332D01*
X134673834Y-106064698D01*
X134683131Y-106089522D01*
X134695833Y-106112784D01*
X134695193Y-106121729D01*
X134698339Y-106130129D01*
X134692739Y-106156035D01*
X134690849Y-106182476D01*
X134685083Y-106191460D01*
X134683579Y-106198422D01*
X134662653Y-106226414D01*
X134662468Y-106226702D01*
X134606187Y-106282984D01*
X134606065Y-106283259D01*
X134597800Y-106291547D01*
X134576749Y-106303078D01*
X134558155Y-106318252D01*
X134546663Y-106319558D01*
X134536522Y-106325114D01*
X134512584Y-106323434D01*
X134488733Y-106326147D01*
X134478358Y-106321033D01*
X134466823Y-106320224D01*
X134447590Y-106305867D01*
X134426063Y-106295256D01*
X134422222Y-106290824D01*
X134421938Y-106291109D01*
X134337016Y-106206187D01*
X134237663Y-106162318D01*
X134213373Y-106159500D01*
X133846634Y-106159500D01*
X133846611Y-106159502D01*
X133822340Y-106162317D01*
X133822337Y-106162318D01*
X133722985Y-106206186D01*
X133655817Y-106273354D01*
X133594493Y-106306838D01*
X133524802Y-106301853D01*
X133480455Y-106273353D01*
X133456615Y-106249513D01*
X133456613Y-106249511D01*
X133353886Y-106190201D01*
X133239309Y-106159500D01*
X133120691Y-106159500D01*
X133006114Y-106190201D01*
X133006112Y-106190201D01*
X133006112Y-106190202D01*
X132903387Y-106249511D01*
X132903384Y-106249513D01*
X132819513Y-106333384D01*
X132819511Y-106333387D01*
X132760201Y-106436114D01*
X132729500Y-106550691D01*
X132729500Y-106669309D01*
X132760201Y-106783886D01*
X132819511Y-106886613D01*
X132903387Y-106970489D01*
X133006114Y-107029799D01*
X133120691Y-107060500D01*
X133120694Y-107060500D01*
X133239306Y-107060500D01*
X133239309Y-107060500D01*
X133353886Y-107029799D01*
X133456613Y-106970489D01*
X133470455Y-106956646D01*
X133531775Y-106923161D01*
X133601467Y-106928144D01*
X133645817Y-106956646D01*
X133646187Y-106957016D01*
X133722984Y-107033813D01*
X133822338Y-107077682D01*
X133846627Y-107080500D01*
X134213372Y-107080499D01*
X134237662Y-107077682D01*
X134337016Y-107033813D01*
X134413813Y-106957016D01*
X134413813Y-106957015D01*
X134421938Y-106948891D01*
X134424930Y-106951883D01*
X134461749Y-106921788D01*
X134531165Y-106913835D01*
X134593861Y-106944673D01*
X134597769Y-106949183D01*
X134598062Y-106948891D01*
X134606187Y-106957016D01*
X134682984Y-107033813D01*
X134782338Y-107077682D01*
X134806627Y-107080500D01*
X135009520Y-107080499D01*
X135076560Y-107100183D01*
X135097202Y-107116818D01*
X135391441Y-107411057D01*
X135406562Y-107417320D01*
X135406563Y-107417320D01*
X135406564Y-107417321D01*
X135492697Y-107452999D01*
X135492698Y-107452999D01*
X135492700Y-107453000D01*
X135777468Y-107453000D01*
X135844507Y-107472685D01*
X135881294Y-107515140D01*
X135882908Y-107514035D01*
X135889401Y-107523514D01*
X135971486Y-107605599D01*
X136077680Y-107652488D01*
X136103643Y-107655500D01*
X136516356Y-107655499D01*
X136524726Y-107654528D01*
X136542314Y-107652489D01*
X136542315Y-107652488D01*
X136542320Y-107652488D01*
X136648514Y-107605599D01*
X136665692Y-107588420D01*
X136727011Y-107554937D01*
X136796702Y-107559920D01*
X136852637Y-107601791D01*
X136855772Y-107606174D01*
X136862202Y-107615589D01*
X136894401Y-107688514D01*
X136949901Y-107744014D01*
X136956431Y-107753576D01*
X136963779Y-107776239D01*
X136975196Y-107797147D01*
X136974358Y-107808863D01*
X136977982Y-107820040D01*
X136971911Y-107843077D01*
X136970212Y-107866839D01*
X136962478Y-107878871D01*
X136960178Y-107887603D01*
X136952120Y-107894988D01*
X136941712Y-107911185D01*
X136909514Y-107943383D01*
X136909511Y-107943387D01*
X136885393Y-107985161D01*
X136850201Y-108046114D01*
X136819500Y-108160691D01*
X136819500Y-108279309D01*
X136850201Y-108393886D01*
X136909511Y-108496613D01*
X136993387Y-108580489D01*
X137096114Y-108639799D01*
X137210691Y-108670500D01*
X137210694Y-108670500D01*
X137329306Y-108670500D01*
X137329309Y-108670500D01*
X137443886Y-108639799D01*
X137546613Y-108580489D01*
X137630489Y-108496613D01*
X137661065Y-108443653D01*
X137711631Y-108395438D01*
X137780238Y-108382214D01*
X137845103Y-108408182D01*
X137875838Y-108443652D01*
X137928018Y-108534027D01*
X137929511Y-108536613D01*
X138013387Y-108620489D01*
X138116114Y-108679799D01*
X138230691Y-108710500D01*
X138230694Y-108710500D01*
X138349306Y-108710500D01*
X138349309Y-108710500D01*
X138463886Y-108679799D01*
X138566613Y-108620489D01*
X138650489Y-108536613D01*
X138709799Y-108433886D01*
X138740500Y-108319309D01*
X138740500Y-108200691D01*
X138709799Y-108086114D01*
X138709795Y-108086108D01*
X138708046Y-108079578D01*
X138707523Y-108078763D01*
X138702500Y-108043828D01*
X138702500Y-107941254D01*
X138722185Y-107874215D01*
X138774989Y-107828460D01*
X138812217Y-107818079D01*
X138817320Y-107817488D01*
X138923514Y-107770599D01*
X138975847Y-107718265D01*
X139037166Y-107684783D01*
X139106858Y-107689767D01*
X139162791Y-107731638D01*
X139183299Y-107773854D01*
X139189541Y-107797147D01*
X139207812Y-107865337D01*
X139207813Y-107865338D01*
X139276992Y-107985161D01*
X139276996Y-107985166D01*
X139305681Y-108013851D01*
X139339166Y-108075174D01*
X139342000Y-108101532D01*
X139342000Y-109187500D01*
X139347667Y-109229098D01*
X139347667Y-109229099D01*
X139347668Y-109229100D01*
X139388537Y-109298437D01*
X139388538Y-109298438D01*
X139388540Y-109298441D01*
X139780371Y-109683275D01*
X139873951Y-109775184D01*
X139907987Y-109836204D01*
X139903630Y-109905937D01*
X139862265Y-109962246D01*
X139819158Y-109983426D01*
X139792365Y-109990606D01*
X139712499Y-110012006D01*
X139586977Y-110084477D01*
X139586971Y-110084482D01*
X139484482Y-110186971D01*
X139484477Y-110186977D01*
X139412006Y-110312500D01*
X139412005Y-110312504D01*
X139374489Y-110452514D01*
X139374489Y-110597464D01*
X139405849Y-110714500D01*
X139412006Y-110737477D01*
X139484477Y-110863000D01*
X139484479Y-110863002D01*
X139484480Y-110863004D01*
X139586974Y-110965498D01*
X139586975Y-110965499D01*
X139586977Y-110965500D01*
X139712500Y-111037971D01*
X139712501Y-111037971D01*
X139712504Y-111037973D01*
X139852514Y-111075489D01*
X139852517Y-111075489D01*
X139997462Y-111075489D01*
X139997464Y-111075489D01*
X140065005Y-111057391D01*
X140074997Y-111054714D01*
X140107090Y-111050489D01*
X144538216Y-111050489D01*
X144538232Y-111050490D01*
X144545828Y-111050490D01*
X144684192Y-111050490D01*
X144684194Y-111050490D01*
X144754466Y-111031660D01*
X144789603Y-111022245D01*
X144789604Y-111022244D01*
X144817847Y-111014677D01*
X144937676Y-110945494D01*
X145035516Y-110847654D01*
X145035516Y-110847652D01*
X145045720Y-110837449D01*
X145045724Y-110837444D01*
X145372455Y-110510713D01*
X145372460Y-110510709D01*
X145382663Y-110500505D01*
X145382665Y-110500505D01*
X145480505Y-110402665D01*
X145549688Y-110282836D01*
X145576231Y-110183777D01*
X145585500Y-110149184D01*
X145585500Y-110010817D01*
X145585500Y-105872100D01*
X145589725Y-105840006D01*
X145610500Y-105762475D01*
X145610500Y-105617525D01*
X145572984Y-105477515D01*
X145570748Y-105473643D01*
X145500511Y-105351988D01*
X145500506Y-105351982D01*
X145398017Y-105249493D01*
X145398011Y-105249488D01*
X145272488Y-105177017D01*
X145272489Y-105177017D01*
X145261006Y-105173940D01*
X145132475Y-105139500D01*
X144987525Y-105139500D01*
X144858993Y-105173940D01*
X144847511Y-105177017D01*
X144721988Y-105249488D01*
X144721982Y-105249493D01*
X144619493Y-105351982D01*
X144619488Y-105351988D01*
X144547017Y-105477511D01*
X144547016Y-105477515D01*
X144509500Y-105617525D01*
X144509500Y-105762475D01*
X144530275Y-105840006D01*
X144534500Y-105872100D01*
X144534500Y-109810969D01*
X144525855Y-109840409D01*
X144519332Y-109870396D01*
X144515577Y-109875411D01*
X144514815Y-109878008D01*
X144498181Y-109898650D01*
X144433661Y-109963170D01*
X144372338Y-109996655D01*
X144345980Y-109999489D01*
X143595883Y-109999489D01*
X143528844Y-109979804D01*
X143483089Y-109927000D01*
X143473145Y-109857842D01*
X143502170Y-109794286D01*
X143508974Y-109787042D01*
X144006460Y-109298441D01*
X144032167Y-109265250D01*
X144053000Y-109187500D01*
X144053000Y-108076532D01*
X144072685Y-108009493D01*
X144089319Y-107988851D01*
X144093005Y-107985165D01*
X144162188Y-107865336D01*
X144198000Y-107731683D01*
X144198000Y-103456978D01*
X144217685Y-103389939D01*
X144270489Y-103344184D01*
X144339647Y-103334240D01*
X144403203Y-103363265D01*
X144409681Y-103369297D01*
X144882740Y-103842356D01*
X145921941Y-104881557D01*
X145935268Y-104887077D01*
X145943671Y-104890558D01*
X145943674Y-104890559D01*
X146023195Y-104923498D01*
X146023200Y-104923500D01*
X146790873Y-104923500D01*
X146857912Y-104943185D01*
X146893169Y-104977418D01*
X146899399Y-104986512D01*
X146899401Y-104986514D01*
X146981486Y-105068599D01*
X147087680Y-105115488D01*
X147113643Y-105118500D01*
X147601356Y-105118499D01*
X147612359Y-105117223D01*
X147627314Y-105115489D01*
X147627315Y-105115488D01*
X147627320Y-105115488D01*
X147733514Y-105068599D01*
X147815599Y-104986514D01*
X147841567Y-104927701D01*
X147886651Y-104874328D01*
X147953437Y-104853800D01*
X148020720Y-104872638D01*
X148067136Y-104924861D01*
X148068404Y-104927637D01*
X148094401Y-104986514D01*
X148176486Y-105068599D01*
X148282680Y-105115488D01*
X148308643Y-105118500D01*
X148796356Y-105118499D01*
X148807359Y-105117223D01*
X148822314Y-105115489D01*
X148822315Y-105115488D01*
X148822320Y-105115488D01*
X148928514Y-105068599D01*
X149010319Y-104986794D01*
X149018264Y-104982455D01*
X149023690Y-104975208D01*
X149048449Y-104965973D01*
X149071642Y-104953309D01*
X149080671Y-104953954D01*
X149089154Y-104950791D01*
X149114974Y-104956407D01*
X149141334Y-104958293D01*
X149150387Y-104964111D01*
X149157427Y-104965643D01*
X149185681Y-104986794D01*
X149243181Y-105044294D01*
X149276666Y-105105617D01*
X149279500Y-105131975D01*
X149279500Y-106893456D01*
X149259815Y-106960495D01*
X149243181Y-106981137D01*
X146846319Y-109377998D01*
X146790732Y-109410091D01*
X146688951Y-109437364D01*
X146688949Y-109437364D01*
X146688949Y-109437365D01*
X146586224Y-109496674D01*
X146586221Y-109496676D01*
X146502350Y-109580547D01*
X146502348Y-109580550D01*
X146443038Y-109683277D01*
X146412337Y-109797854D01*
X146412337Y-109916472D01*
X146443038Y-110031049D01*
X146502348Y-110133776D01*
X146586224Y-110217652D01*
X146688951Y-110276962D01*
X146803528Y-110307663D01*
X146803531Y-110307663D01*
X146922143Y-110307663D01*
X146922146Y-110307663D01*
X147036723Y-110276962D01*
X147139450Y-110217652D01*
X147223326Y-110133776D01*
X147282636Y-110031049D01*
X147309909Y-109929263D01*
X147341999Y-109873682D01*
X149910469Y-107305213D01*
X149956614Y-107225288D01*
X149980500Y-107136144D01*
X149980500Y-105158975D01*
X149986790Y-105137553D01*
X149988451Y-105115286D01*
X149997406Y-105101397D01*
X150000185Y-105091936D01*
X150005461Y-105084361D01*
X150016249Y-105070040D01*
X150019514Y-105068599D01*
X150101599Y-104986514D01*
X150133348Y-104914607D01*
X150141961Y-104903176D01*
X150158970Y-104890523D01*
X150172651Y-104874328D01*
X150186443Y-104870088D01*
X150198022Y-104861476D01*
X150219173Y-104860028D01*
X150239437Y-104853800D01*
X150253332Y-104857690D01*
X150267729Y-104856705D01*
X150286305Y-104866922D01*
X150306720Y-104872638D01*
X150316305Y-104883423D01*
X150328949Y-104890377D01*
X150339052Y-104909015D01*
X150353136Y-104924861D01*
X150354404Y-104927637D01*
X150380401Y-104986514D01*
X150462486Y-105068599D01*
X150568680Y-105115488D01*
X150594643Y-105118500D01*
X151082356Y-105118499D01*
X151093359Y-105117223D01*
X151108314Y-105115489D01*
X151108315Y-105115488D01*
X151108320Y-105115488D01*
X151214514Y-105068599D01*
X151296599Y-104986514D01*
X151296600Y-104986512D01*
X151302831Y-104977418D01*
X151356959Y-104933238D01*
X151405127Y-104923500D01*
X152039691Y-104923500D01*
X152106730Y-104943185D01*
X152152485Y-104995989D01*
X152162429Y-105065147D01*
X152133404Y-105128703D01*
X152127372Y-105135181D01*
X151252227Y-106010325D01*
X151252224Y-106010328D01*
X151216892Y-106063206D01*
X151216893Y-106063207D01*
X151181034Y-106116874D01*
X151131999Y-106235255D01*
X151131997Y-106235261D01*
X151107000Y-106360928D01*
X151107000Y-110024192D01*
X151087315Y-110091231D01*
X151070681Y-110111873D01*
X149859373Y-111323181D01*
X149798050Y-111356666D01*
X149771692Y-111359500D01*
X130494500Y-111359500D01*
X130427461Y-111339815D01*
X130381706Y-111287011D01*
X130370500Y-111235500D01*
X130370500Y-104235928D01*
X130345502Y-104110261D01*
X130345501Y-104110260D01*
X130345501Y-104110256D01*
X130298863Y-103997662D01*
X130296466Y-103991875D01*
X130296463Y-103991870D01*
X130284104Y-103973374D01*
X130284102Y-103973371D01*
X130279252Y-103966112D01*
X130225277Y-103885331D01*
X130225275Y-103885329D01*
X130225273Y-103885326D01*
X126744673Y-100404726D01*
X126744669Y-100404723D01*
X126638127Y-100333535D01*
X126634421Y-100332000D01*
X126519744Y-100284499D01*
X126519738Y-100284497D01*
X126394071Y-100259500D01*
X126394069Y-100259500D01*
X125570783Y-100259500D01*
X125503744Y-100239815D01*
X125483106Y-100223185D01*
X125392782Y-100132861D01*
X125392781Y-100132860D01*
X125392780Y-100132859D01*
X125228920Y-100023371D01*
X125228907Y-100023364D01*
X125046839Y-99947950D01*
X125046829Y-99947947D01*
X124853543Y-99909500D01*
X124853541Y-99909500D01*
X124656459Y-99909500D01*
X124656457Y-99909500D01*
X124463170Y-99947947D01*
X124463160Y-99947950D01*
X124281092Y-100023364D01*
X124281079Y-100023371D01*
X124134816Y-100121102D01*
X124068138Y-100141980D01*
X124065925Y-100142000D01*
X120130833Y-100142000D01*
X120063794Y-100122315D01*
X120036551Y-100098541D01*
X120033831Y-100095357D01*
X119894648Y-99956174D01*
X119894646Y-99956172D01*
X119759295Y-99857833D01*
X119735403Y-99840474D01*
X119558787Y-99750485D01*
X119507990Y-99702511D01*
X119491195Y-99634690D01*
X119513732Y-99568555D01*
X119558787Y-99529515D01*
X119735403Y-99439525D01*
X119735402Y-99439525D01*
X119735405Y-99439524D01*
X119894646Y-99323828D01*
X120033828Y-99184646D01*
X120149524Y-99025405D01*
X120177395Y-98970705D01*
X120225370Y-98919909D01*
X120287880Y-98903000D01*
X123841568Y-98903000D01*
X123908607Y-98922685D01*
X123944670Y-98958109D01*
X123977860Y-99007781D01*
X123977863Y-99007785D01*
X124117214Y-99147136D01*
X124117218Y-99147139D01*
X124281079Y-99256628D01*
X124281092Y-99256635D01*
X124463160Y-99332049D01*
X124463165Y-99332051D01*
X124463169Y-99332051D01*
X124463170Y-99332052D01*
X124656456Y-99370500D01*
X124656459Y-99370500D01*
X124853543Y-99370500D01*
X124983582Y-99344632D01*
X125046835Y-99332051D01*
X125205515Y-99266324D01*
X125228907Y-99256635D01*
X125228907Y-99256634D01*
X125228914Y-99256632D01*
X125392782Y-99147139D01*
X125532139Y-99007782D01*
X125588999Y-98922685D01*
X125607091Y-98895609D01*
X125660703Y-98850804D01*
X125710193Y-98840500D01*
X132757035Y-98840500D01*
X132824074Y-98860185D01*
G37*
%TD.AperFunction*%
%TA.AperFunction,Conductor*%
G36*
X140755154Y-104037520D02*
G01*
X140763144Y-104037619D01*
X140786044Y-104052736D01*
X140810663Y-104064863D01*
X140816273Y-104072692D01*
X140821454Y-104076112D01*
X140828927Y-104088061D01*
X140829694Y-104087537D01*
X140836187Y-104097016D01*
X140912984Y-104173813D01*
X141012338Y-104217682D01*
X141036627Y-104220500D01*
X141353455Y-104220499D01*
X141420494Y-104240183D01*
X141441136Y-104256818D01*
X142096844Y-104912526D01*
X142130329Y-104973849D01*
X142128938Y-105032298D01*
X142119500Y-105067520D01*
X142119500Y-105067525D01*
X142119500Y-105212475D01*
X142154069Y-105341485D01*
X142157017Y-105352488D01*
X142229488Y-105478011D01*
X142229493Y-105478017D01*
X142329348Y-105577872D01*
X142362833Y-105639195D01*
X142357849Y-105708887D01*
X142329348Y-105753234D01*
X142312833Y-105769748D01*
X142292000Y-105847500D01*
X142292000Y-106622502D01*
X142296796Y-106660824D01*
X142336150Y-106731044D01*
X142595147Y-106996738D01*
X142820286Y-107227700D01*
X142836793Y-107244633D01*
X142869493Y-107306379D01*
X142872000Y-107331188D01*
X142872000Y-108253810D01*
X142852315Y-108320849D01*
X142836793Y-108340365D01*
X142336153Y-108853952D01*
X142312833Y-108884749D01*
X142312832Y-108884750D01*
X142292000Y-108962500D01*
X142292000Y-109737499D01*
X142317058Y-109831019D01*
X142316129Y-109831267D01*
X142328289Y-109881388D01*
X142305437Y-109947415D01*
X142250516Y-109990606D01*
X142204429Y-109999489D01*
X141190571Y-109999489D01*
X141123532Y-109979804D01*
X141077777Y-109927000D01*
X141067833Y-109857842D01*
X141080771Y-109820457D01*
X141082165Y-109815251D01*
X141082167Y-109815250D01*
X141103000Y-109737500D01*
X141103000Y-108962500D01*
X141098203Y-108924174D01*
X141058850Y-108853957D01*
X141058849Y-108853955D01*
X140558207Y-108340365D01*
X140525507Y-108278619D01*
X140523000Y-108253810D01*
X140523000Y-107331188D01*
X140542685Y-107264149D01*
X140558207Y-107244633D01*
X140574714Y-107227700D01*
X141058850Y-106731043D01*
X141082167Y-106700250D01*
X141103000Y-106622500D01*
X141103000Y-105847500D01*
X141082167Y-105769750D01*
X141082166Y-105769749D01*
X141082166Y-105769748D01*
X141025251Y-105712833D01*
X140986375Y-105702416D01*
X140947500Y-105692000D01*
X140081887Y-105692000D01*
X140052446Y-105683355D01*
X140022460Y-105676832D01*
X140017444Y-105673077D01*
X140014848Y-105672315D01*
X139994206Y-105655681D01*
X139831819Y-105493294D01*
X139798334Y-105431971D01*
X139795500Y-105405613D01*
X139795500Y-104319901D01*
X139815185Y-104252862D01*
X139867989Y-104207107D01*
X139937147Y-104197163D01*
X139969590Y-104206468D01*
X139972338Y-104207682D01*
X139996627Y-104210500D01*
X140423372Y-104210499D01*
X140447662Y-104207682D01*
X140547016Y-104163813D01*
X140623813Y-104087016D01*
X140623818Y-104087004D01*
X140624443Y-104086093D01*
X140626039Y-104084789D01*
X140631385Y-104079443D01*
X140634042Y-104073811D01*
X140657306Y-104059260D01*
X140678564Y-104041904D01*
X140686504Y-104040998D01*
X140693280Y-104036761D01*
X140720716Y-104037097D01*
X140747984Y-104033989D01*
X140755154Y-104037520D01*
G37*
%TD.AperFunction*%
%TA.AperFunction,Conductor*%
G36*
X138141662Y-103860469D02*
G01*
X138160329Y-103869264D01*
X138223607Y-103905798D01*
X138223608Y-103905799D01*
X138223610Y-103905799D01*
X138223613Y-103905801D01*
X138338190Y-103936502D01*
X138338193Y-103936502D01*
X138456805Y-103936502D01*
X138456808Y-103936502D01*
X138571385Y-103905801D01*
X138571394Y-103905795D01*
X138573045Y-103905113D01*
X138574557Y-103904950D01*
X138579235Y-103903697D01*
X138579430Y-103904426D01*
X138642514Y-103897643D01*
X138704994Y-103928916D01*
X138740648Y-103989004D01*
X138744500Y-104019673D01*
X138744500Y-104864253D01*
X138724815Y-104931292D01*
X138672011Y-104977047D01*
X138602853Y-104986991D01*
X138570414Y-104977687D01*
X138467666Y-104932319D01*
X138467662Y-104932318D01*
X138443373Y-104929500D01*
X138076634Y-104929500D01*
X138076611Y-104929502D01*
X138052340Y-104932317D01*
X138052337Y-104932318D01*
X137952984Y-104976186D01*
X137876187Y-105052983D01*
X137832318Y-105152335D01*
X137832318Y-105152337D01*
X137829500Y-105176625D01*
X137829500Y-105603365D01*
X137829502Y-105603388D01*
X137832317Y-105627659D01*
X137832318Y-105627662D01*
X137876186Y-105727015D01*
X137936490Y-105787319D01*
X137969975Y-105848642D01*
X137964991Y-105918334D01*
X137936490Y-105962681D01*
X137896187Y-106002983D01*
X137852318Y-106102335D01*
X137852318Y-106102337D01*
X137849500Y-106126625D01*
X137849500Y-106553365D01*
X137849502Y-106553388D01*
X137852317Y-106577659D01*
X137852318Y-106577662D01*
X137896186Y-106677015D01*
X137965181Y-106746010D01*
X137979884Y-106772937D01*
X137996477Y-106798756D01*
X137997368Y-106804956D01*
X137998666Y-106807333D01*
X138001500Y-106833691D01*
X138001500Y-106903025D01*
X137981815Y-106970064D01*
X137929011Y-107015819D01*
X137859853Y-107025763D01*
X137796297Y-106996738D01*
X137789819Y-106990706D01*
X137728514Y-106929401D01*
X137622321Y-106882512D01*
X137596357Y-106879500D01*
X137108651Y-106879500D01*
X137108642Y-106879501D01*
X137082678Y-106882512D01*
X137056811Y-106893934D01*
X137047096Y-106895983D01*
X137041660Y-106899477D01*
X137006725Y-106904500D01*
X136870128Y-106904500D01*
X136803089Y-106884815D01*
X136757334Y-106832011D01*
X136756751Y-106830715D01*
X136730599Y-106771486D01*
X136648514Y-106689401D01*
X136648512Y-106689400D01*
X136542321Y-106642512D01*
X136516357Y-106639500D01*
X136103651Y-106639500D01*
X136103627Y-106639502D01*
X136077685Y-106642510D01*
X136077675Y-106642513D01*
X135971486Y-106689400D01*
X135889402Y-106771484D01*
X135889401Y-106771485D01*
X135889401Y-106771486D01*
X135864408Y-106828089D01*
X135852412Y-106842290D01*
X135844689Y-106859203D01*
X135830334Y-106868427D01*
X135819325Y-106881462D01*
X135801553Y-106886924D01*
X135785911Y-106896977D01*
X135753851Y-106901586D01*
X135752539Y-106901990D01*
X135750976Y-106902000D01*
X135712978Y-106902000D01*
X135645939Y-106882315D01*
X135625297Y-106865681D01*
X135456818Y-106697202D01*
X135423333Y-106635879D01*
X135420499Y-106609521D01*
X135420499Y-106406634D01*
X135420499Y-106406628D01*
X135417682Y-106382338D01*
X135373813Y-106282984D01*
X135373811Y-106282982D01*
X135371141Y-106276935D01*
X135362069Y-106207657D01*
X135391892Y-106144472D01*
X135434488Y-106113415D01*
X135463514Y-106100599D01*
X135545599Y-106018514D01*
X135592488Y-105912320D01*
X135595500Y-105886357D01*
X135595499Y-105473644D01*
X135592488Y-105447680D01*
X135545599Y-105341486D01*
X135463514Y-105259401D01*
X135463511Y-105259399D01*
X135457281Y-105255132D01*
X135444396Y-105239347D01*
X135428087Y-105227137D01*
X135422752Y-105212832D01*
X135413098Y-105201005D01*
X135410792Y-105180762D01*
X135403673Y-105161671D01*
X135406919Y-105146751D01*
X135405192Y-105131584D01*
X135414196Y-105113308D01*
X135418529Y-105093399D01*
X135434550Y-105071998D01*
X135436073Y-105068909D01*
X135439634Y-105065194D01*
X135458515Y-105046314D01*
X135519840Y-105012832D01*
X135546192Y-105010000D01*
X135728593Y-105010000D01*
X135795632Y-105029685D01*
X135841387Y-105082489D01*
X135851767Y-105119711D01*
X135852011Y-105121815D01*
X135852013Y-105121824D01*
X135898900Y-105228013D01*
X135898901Y-105228014D01*
X135980986Y-105310099D01*
X136087180Y-105356988D01*
X136113143Y-105360000D01*
X136525856Y-105359999D01*
X136534226Y-105359028D01*
X136551814Y-105356989D01*
X136551815Y-105356988D01*
X136551820Y-105356988D01*
X136658014Y-105310099D01*
X136740099Y-105228014D01*
X136773513Y-105152338D01*
X136784894Y-105126563D01*
X136788660Y-105121064D01*
X136789496Y-105117223D01*
X136810647Y-105088967D01*
X136814056Y-105085557D01*
X136814058Y-105085557D01*
X136891557Y-105008058D01*
X136891556Y-105008058D01*
X137145368Y-104754247D01*
X137206690Y-104720763D01*
X137276382Y-104725747D01*
X137295049Y-104734543D01*
X137356108Y-104769796D01*
X137356109Y-104769797D01*
X137356111Y-104769797D01*
X137356114Y-104769799D01*
X137470691Y-104800500D01*
X137470694Y-104800500D01*
X137589306Y-104800500D01*
X137589309Y-104800500D01*
X137703886Y-104769799D01*
X137806613Y-104710489D01*
X137890489Y-104626613D01*
X137949799Y-104523886D01*
X137980500Y-104409309D01*
X137980500Y-104290691D01*
X137949799Y-104176114D01*
X137949797Y-104176111D01*
X137949797Y-104176109D01*
X137949796Y-104176108D01*
X137914543Y-104115049D01*
X137907977Y-104087987D01*
X137898245Y-104061893D01*
X137899852Y-104054501D01*
X137898069Y-104047149D01*
X137907177Y-104020831D01*
X137913097Y-103993620D01*
X137919603Y-103984928D01*
X137920921Y-103981122D01*
X137934243Y-103965370D01*
X138010648Y-103888967D01*
X138071971Y-103855484D01*
X138141662Y-103860469D01*
G37*
%TD.AperFunction*%
%TA.AperFunction,Conductor*%
G36*
X137185720Y-95991638D02*
G01*
X137232136Y-96043861D01*
X137233404Y-96046637D01*
X137259401Y-96105514D01*
X137341486Y-96187599D01*
X137368088Y-96199345D01*
X137382290Y-96211341D01*
X137399203Y-96219065D01*
X137408427Y-96233419D01*
X137421462Y-96244429D01*
X137426924Y-96262200D01*
X137436977Y-96277843D01*
X137441586Y-96309902D01*
X137441990Y-96311215D01*
X137442000Y-96312778D01*
X137442000Y-96371429D01*
X137422315Y-96438468D01*
X137369511Y-96484223D01*
X137368087Y-96484863D01*
X137346490Y-96494399D01*
X137346488Y-96494400D01*
X137346486Y-96494401D01*
X137346485Y-96494401D01*
X137346483Y-96494403D01*
X137264401Y-96576485D01*
X137217512Y-96682678D01*
X137214500Y-96708639D01*
X137214500Y-97121348D01*
X137214502Y-97121372D01*
X137217510Y-97147314D01*
X137217513Y-97147324D01*
X137264400Y-97253513D01*
X137264401Y-97253514D01*
X137346486Y-97335599D01*
X137346488Y-97335600D01*
X137346490Y-97335601D01*
X137378084Y-97349551D01*
X137431461Y-97394636D01*
X137451990Y-97461422D01*
X137452000Y-97462986D01*
X137452000Y-97777300D01*
X137487339Y-97862614D01*
X137487339Y-97862615D01*
X137493941Y-97878554D01*
X137493943Y-97878558D01*
X137493945Y-97878560D01*
X137823203Y-98207819D01*
X137856688Y-98269142D01*
X137851704Y-98338834D01*
X137809832Y-98394767D01*
X137744368Y-98419184D01*
X137735522Y-98419500D01*
X137717273Y-98419500D01*
X137615413Y-98446793D01*
X137615406Y-98446796D01*
X137545741Y-98487017D01*
X137477841Y-98503490D01*
X137411814Y-98480637D01*
X137368624Y-98425716D01*
X137360803Y-98395815D01*
X137357701Y-98372253D01*
X137317457Y-98302548D01*
X137317453Y-98302543D01*
X137062463Y-98047552D01*
X137062462Y-98047551D01*
X137062457Y-98047547D01*
X137062455Y-98047545D01*
X137030250Y-98022833D01*
X137030248Y-98022832D01*
X136971257Y-98007026D01*
X136952500Y-98002000D01*
X136067500Y-98002000D01*
X135989748Y-98022833D01*
X135932833Y-98079748D01*
X135912000Y-98157500D01*
X135912000Y-98857501D01*
X135921699Y-98911559D01*
X135968256Y-98977208D01*
X135968262Y-98977216D01*
X136234605Y-99198000D01*
X136247135Y-99208386D01*
X136286185Y-99266324D01*
X136292000Y-99303851D01*
X136292000Y-100061146D01*
X136272315Y-100128185D01*
X136247136Y-100156611D01*
X135968265Y-100387781D01*
X135968263Y-100387782D01*
X135968262Y-100387784D01*
X135942933Y-100417786D01*
X135932832Y-100429751D01*
X135912000Y-100507500D01*
X135912000Y-101207499D01*
X135932833Y-101285251D01*
X135950942Y-101303360D01*
X135984427Y-101364683D01*
X135979443Y-101434375D01*
X135937571Y-101490308D01*
X135925271Y-101498423D01*
X135923390Y-101499508D01*
X135923384Y-101499513D01*
X135839513Y-101583384D01*
X135839511Y-101583387D01*
X135797633Y-101655922D01*
X135780201Y-101686114D01*
X135749500Y-101800691D01*
X135749500Y-101919309D01*
X135780201Y-102033886D01*
X135782886Y-102038537D01*
X135799500Y-102100537D01*
X135799500Y-102367265D01*
X135788936Y-102417349D01*
X135782318Y-102432337D01*
X135779500Y-102456625D01*
X135779500Y-102883365D01*
X135779502Y-102883388D01*
X135782317Y-102907659D01*
X135782318Y-102907662D01*
X135826186Y-103007015D01*
X135911109Y-103091938D01*
X135908194Y-103094852D01*
X135938536Y-103131978D01*
X135946484Y-103201394D01*
X135928057Y-103248128D01*
X135921043Y-103258843D01*
X135898901Y-103280986D01*
X135883043Y-103316899D01*
X135877474Y-103325409D01*
X135858312Y-103341733D01*
X135842071Y-103360962D01*
X135832172Y-103364004D01*
X135824289Y-103370721D01*
X135799344Y-103374094D01*
X135775285Y-103381490D01*
X135773722Y-103381500D01*
X135391866Y-103381500D01*
X135341779Y-103370934D01*
X135336323Y-103368525D01*
X135315884Y-103359500D01*
X135287163Y-103346818D01*
X135262873Y-103344000D01*
X134836134Y-103344000D01*
X134836111Y-103344002D01*
X134811840Y-103346817D01*
X134811837Y-103346818D01*
X134712485Y-103390686D01*
X134640489Y-103462682D01*
X134579165Y-103496166D01*
X134552808Y-103499000D01*
X134288175Y-103499000D01*
X134221136Y-103479315D01*
X134193258Y-103454792D01*
X134181882Y-103441260D01*
X134173813Y-103422984D01*
X134128033Y-103377204D01*
X134124583Y-103373100D01*
X134112610Y-103345811D01*
X134098334Y-103319665D01*
X134097423Y-103311195D01*
X134096512Y-103309118D01*
X134096922Y-103306537D01*
X134095500Y-103293308D01*
X134095500Y-101487000D01*
X134115185Y-101419961D01*
X134167989Y-101374206D01*
X134219500Y-101363000D01*
X135047498Y-101363000D01*
X135047500Y-101363000D01*
X135125250Y-101342167D01*
X135182167Y-101285250D01*
X135203000Y-101207500D01*
X135203000Y-100507500D01*
X135201625Y-100499838D01*
X135193389Y-100453935D01*
X135193301Y-100453442D01*
X135189577Y-100448191D01*
X135146739Y-100387785D01*
X135146738Y-100387784D01*
X134867864Y-100156611D01*
X134828815Y-100098672D01*
X134823000Y-100061146D01*
X134823000Y-99303851D01*
X134842685Y-99236812D01*
X134867865Y-99208386D01*
X134878767Y-99199349D01*
X135146738Y-98977216D01*
X135182167Y-98935250D01*
X135203000Y-98857500D01*
X135203000Y-98157500D01*
X135182167Y-98079750D01*
X135182166Y-98079749D01*
X135182166Y-98079748D01*
X135125251Y-98022833D01*
X135111972Y-98019275D01*
X135052311Y-97982910D01*
X135021782Y-97920063D01*
X135030077Y-97850688D01*
X135074562Y-97796810D01*
X135141114Y-97775535D01*
X135144065Y-97775500D01*
X135382299Y-97775500D01*
X135382300Y-97775500D01*
X135483558Y-97733557D01*
X135547615Y-97669500D01*
X135613557Y-97603559D01*
X135637339Y-97546144D01*
X135655500Y-97502300D01*
X135655500Y-97455778D01*
X135675185Y-97388739D01*
X135727989Y-97342984D01*
X135729296Y-97342396D01*
X135756014Y-97330599D01*
X135838099Y-97248514D01*
X135884988Y-97142320D01*
X135888000Y-97116357D01*
X135887999Y-96703644D01*
X135885683Y-96683672D01*
X135884989Y-96677685D01*
X135884988Y-96677682D01*
X135884988Y-96677680D01*
X135875611Y-96656444D01*
X135838099Y-96571486D01*
X135756014Y-96489401D01*
X135681344Y-96456431D01*
X135627968Y-96411345D01*
X135607441Y-96344559D01*
X135626279Y-96277277D01*
X135651415Y-96248269D01*
X135665033Y-96236765D01*
X135717016Y-96213813D01*
X135793813Y-96137016D01*
X135800170Y-96122617D01*
X135821297Y-96104772D01*
X135838536Y-96097160D01*
X135853137Y-96085241D01*
X135875999Y-96080618D01*
X135885213Y-96076550D01*
X135891358Y-96077512D01*
X135901313Y-96075500D01*
X135983025Y-96075500D01*
X136050064Y-96095185D01*
X136070706Y-96111819D01*
X136146486Y-96187599D01*
X136252680Y-96234488D01*
X136278643Y-96237500D01*
X136766356Y-96237499D01*
X136775988Y-96236382D01*
X136792314Y-96234489D01*
X136792315Y-96234488D01*
X136792320Y-96234488D01*
X136898514Y-96187599D01*
X136980599Y-96105514D01*
X137006567Y-96046701D01*
X137051651Y-95993328D01*
X137118437Y-95972800D01*
X137185720Y-95991638D01*
G37*
%TD.AperFunction*%
%TA.AperFunction,Conductor*%
G36*
X142207064Y-97993831D02*
G01*
X142227055Y-97994189D01*
X142252165Y-98006203D01*
X142255165Y-98007026D01*
X142258850Y-98009394D01*
X142294391Y-98033142D01*
X142305311Y-98035314D01*
X142356515Y-98045499D01*
X142356519Y-98045500D01*
X142440500Y-98045500D01*
X142507539Y-98065185D01*
X142553294Y-98117989D01*
X142564500Y-98169500D01*
X142564500Y-98253484D01*
X142576857Y-98315609D01*
X142600578Y-98351109D01*
X142621456Y-98417786D01*
X142602972Y-98485166D01*
X142600578Y-98488891D01*
X142576857Y-98524390D01*
X142564500Y-98586515D01*
X142564500Y-98753484D01*
X142576857Y-98815609D01*
X142600578Y-98851109D01*
X142621456Y-98917786D01*
X142602972Y-98985166D01*
X142600578Y-98988891D01*
X142576857Y-99024390D01*
X142564500Y-99086515D01*
X142564500Y-99253484D01*
X142576857Y-99315609D01*
X142600578Y-99351109D01*
X142621456Y-99417786D01*
X142602972Y-99485166D01*
X142600578Y-99488891D01*
X142576857Y-99524390D01*
X142564500Y-99586515D01*
X142564500Y-99753484D01*
X142576857Y-99815609D01*
X142600578Y-99851109D01*
X142621456Y-99917786D01*
X142602972Y-99985166D01*
X142600578Y-99988891D01*
X142576857Y-100024390D01*
X142564500Y-100086515D01*
X142564500Y-100253484D01*
X142576857Y-100315609D01*
X142600578Y-100351109D01*
X142621456Y-100417786D01*
X142602972Y-100485166D01*
X142600578Y-100488891D01*
X142576857Y-100524390D01*
X142564500Y-100586515D01*
X142564500Y-100753484D01*
X142576857Y-100815609D01*
X142600578Y-100851109D01*
X142621456Y-100917786D01*
X142602972Y-100985166D01*
X142600578Y-100988891D01*
X142576857Y-101024390D01*
X142564500Y-101086515D01*
X142564500Y-101253484D01*
X142576857Y-101315609D01*
X142600578Y-101351109D01*
X142621456Y-101417786D01*
X142602972Y-101485166D01*
X142600578Y-101488891D01*
X142576857Y-101524390D01*
X142564500Y-101586515D01*
X142564500Y-101670500D01*
X142544815Y-101737539D01*
X142492011Y-101783294D01*
X142440500Y-101794500D01*
X142356515Y-101794500D01*
X142294390Y-101806857D01*
X142258891Y-101830578D01*
X142192214Y-101851456D01*
X142124834Y-101832972D01*
X142121109Y-101830578D01*
X142085609Y-101806857D01*
X142023484Y-101794500D01*
X142023480Y-101794500D01*
X141856520Y-101794500D01*
X141856515Y-101794500D01*
X141794390Y-101806857D01*
X141758891Y-101830578D01*
X141692214Y-101851456D01*
X141624834Y-101832972D01*
X141621109Y-101830578D01*
X141585609Y-101806857D01*
X141523484Y-101794500D01*
X141523480Y-101794500D01*
X141356520Y-101794500D01*
X141356515Y-101794500D01*
X141294390Y-101806857D01*
X141258891Y-101830578D01*
X141192214Y-101851456D01*
X141124834Y-101832972D01*
X141121109Y-101830578D01*
X141085609Y-101806857D01*
X141023484Y-101794500D01*
X141023480Y-101794500D01*
X140856520Y-101794500D01*
X140856515Y-101794500D01*
X140794390Y-101806857D01*
X140758891Y-101830578D01*
X140692214Y-101851456D01*
X140624834Y-101832972D01*
X140621109Y-101830578D01*
X140585609Y-101806857D01*
X140523484Y-101794500D01*
X140523480Y-101794500D01*
X140356520Y-101794500D01*
X140356515Y-101794500D01*
X140294390Y-101806857D01*
X140258891Y-101830578D01*
X140192214Y-101851456D01*
X140124834Y-101832972D01*
X140121109Y-101830578D01*
X140085609Y-101806857D01*
X140023484Y-101794500D01*
X140023480Y-101794500D01*
X139939500Y-101794500D01*
X139872461Y-101774815D01*
X139826706Y-101722011D01*
X139815500Y-101670500D01*
X139815500Y-101586519D01*
X139815499Y-101586515D01*
X139806224Y-101539888D01*
X139803142Y-101524391D01*
X139779421Y-101488889D01*
X139758543Y-101422216D01*
X139777026Y-101354835D01*
X139779394Y-101351149D01*
X139803142Y-101315609D01*
X139815500Y-101253480D01*
X139815500Y-101086520D01*
X139803142Y-101024391D01*
X139779421Y-100988889D01*
X139758543Y-100922216D01*
X139777026Y-100854835D01*
X139779394Y-100851149D01*
X139803142Y-100815609D01*
X139815500Y-100753480D01*
X139815500Y-100586520D01*
X139803142Y-100524391D01*
X139779421Y-100488889D01*
X139758543Y-100422216D01*
X139777026Y-100354835D01*
X139779394Y-100351149D01*
X139803142Y-100315609D01*
X139815500Y-100253480D01*
X139815500Y-100086520D01*
X139803142Y-100024391D01*
X139779421Y-99988889D01*
X139758543Y-99922216D01*
X139777026Y-99854835D01*
X139779394Y-99851149D01*
X139803142Y-99815609D01*
X139815500Y-99753480D01*
X139815500Y-99586520D01*
X139803142Y-99524391D01*
X139779421Y-99488889D01*
X139758543Y-99422216D01*
X139777026Y-99354835D01*
X139779394Y-99351149D01*
X139803142Y-99315609D01*
X139815500Y-99253480D01*
X139815500Y-99086520D01*
X139803142Y-99024391D01*
X139779421Y-98988889D01*
X139758543Y-98922216D01*
X139777026Y-98854835D01*
X139779394Y-98851149D01*
X139803142Y-98815609D01*
X139815500Y-98753480D01*
X139815500Y-98586520D01*
X139803142Y-98524391D01*
X139779421Y-98488889D01*
X139758543Y-98422216D01*
X139777026Y-98354835D01*
X139779394Y-98351149D01*
X139803142Y-98315609D01*
X139815500Y-98253480D01*
X139815500Y-98169500D01*
X139835185Y-98102461D01*
X139887989Y-98056706D01*
X139939500Y-98045500D01*
X140023481Y-98045500D01*
X140023482Y-98045499D01*
X140085609Y-98033142D01*
X140121110Y-98009421D01*
X140187784Y-97988543D01*
X140255165Y-98007026D01*
X140258850Y-98009394D01*
X140294391Y-98033142D01*
X140305311Y-98035314D01*
X140356515Y-98045499D01*
X140356519Y-98045500D01*
X140356520Y-98045500D01*
X140523481Y-98045500D01*
X140523482Y-98045499D01*
X140585609Y-98033142D01*
X140621110Y-98009421D01*
X140687784Y-97988543D01*
X140755165Y-98007026D01*
X140758850Y-98009394D01*
X140794391Y-98033142D01*
X140805311Y-98035314D01*
X140856515Y-98045499D01*
X140856519Y-98045500D01*
X140856520Y-98045500D01*
X141023481Y-98045500D01*
X141023482Y-98045499D01*
X141085609Y-98033142D01*
X141121110Y-98009421D01*
X141187784Y-97988543D01*
X141255165Y-98007026D01*
X141258850Y-98009394D01*
X141294391Y-98033142D01*
X141305311Y-98035314D01*
X141356515Y-98045499D01*
X141356519Y-98045500D01*
X141356520Y-98045500D01*
X141523481Y-98045500D01*
X141523482Y-98045499D01*
X141585609Y-98033142D01*
X141621110Y-98009421D01*
X141687784Y-97988543D01*
X141755165Y-98007026D01*
X141758850Y-98009394D01*
X141794391Y-98033142D01*
X141805311Y-98035314D01*
X141856515Y-98045499D01*
X141856519Y-98045500D01*
X141856520Y-98045500D01*
X142023481Y-98045500D01*
X142023482Y-98045499D01*
X142085609Y-98033142D01*
X142121110Y-98009421D01*
X142140188Y-98003446D01*
X142157197Y-97992941D01*
X142172846Y-97993220D01*
X142187784Y-97988543D01*
X142207064Y-97993831D01*
G37*
%TD.AperFunction*%
%TA.AperFunction,Conductor*%
G36*
X172037539Y-79940185D02*
G01*
X172083294Y-79992989D01*
X172094500Y-80044500D01*
X172094500Y-123245500D01*
X172074815Y-123312539D01*
X172022011Y-123358294D01*
X171970500Y-123369500D01*
X109719500Y-123369500D01*
X109652461Y-123349815D01*
X109606706Y-123297011D01*
X109595500Y-123245500D01*
X109595500Y-116103191D01*
X139717000Y-116103191D01*
X139717000Y-116221809D01*
X139747701Y-116336386D01*
X139807011Y-116439113D01*
X139890887Y-116522989D01*
X139993614Y-116582299D01*
X140007352Y-116585980D01*
X140037254Y-116598365D01*
X140127913Y-116650707D01*
X140229773Y-116678001D01*
X140229775Y-116678001D01*
X140342823Y-116678001D01*
X140342839Y-116678000D01*
X157830225Y-116678000D01*
X157830227Y-116678000D01*
X157932088Y-116650707D01*
X158023413Y-116597980D01*
X159874574Y-114746819D01*
X159901501Y-114732115D01*
X159927320Y-114715523D01*
X159933520Y-114714631D01*
X159935897Y-114713334D01*
X159962255Y-114710500D01*
X160130105Y-114710500D01*
X160197144Y-114730185D01*
X160239506Y-114779073D01*
X160240498Y-114778544D01*
X160242833Y-114782913D01*
X160242899Y-114782989D01*
X160243009Y-114783243D01*
X160243371Y-114783920D01*
X160352860Y-114947781D01*
X160352863Y-114947785D01*
X160492214Y-115087136D01*
X160492218Y-115087139D01*
X160656079Y-115196628D01*
X160656092Y-115196635D01*
X160798207Y-115255500D01*
X160838165Y-115272051D01*
X160838169Y-115272051D01*
X160838170Y-115272052D01*
X161031456Y-115310500D01*
X161031459Y-115310500D01*
X161228543Y-115310500D01*
X161406079Y-115275185D01*
X161421835Y-115272051D01*
X161603914Y-115196632D01*
X161767782Y-115087139D01*
X161907139Y-114947782D01*
X162016632Y-114783914D01*
X162092051Y-114601835D01*
X162116959Y-114476615D01*
X162130500Y-114408543D01*
X162130500Y-114211456D01*
X162092052Y-114018170D01*
X162092051Y-114018169D01*
X162092051Y-114018165D01*
X162037864Y-113887345D01*
X162016635Y-113836092D01*
X162016628Y-113836079D01*
X161907139Y-113672218D01*
X161907136Y-113672214D01*
X161767785Y-113532863D01*
X161767781Y-113532860D01*
X161603920Y-113423371D01*
X161603907Y-113423364D01*
X161421839Y-113347950D01*
X161421829Y-113347947D01*
X161228543Y-113309500D01*
X161228541Y-113309500D01*
X161031459Y-113309500D01*
X161031457Y-113309500D01*
X160838170Y-113347947D01*
X160838160Y-113347950D01*
X160656092Y-113423364D01*
X160656079Y-113423371D01*
X160492218Y-113532860D01*
X160492214Y-113532863D01*
X160352863Y-113672214D01*
X160352860Y-113672218D01*
X160243371Y-113836079D01*
X160240498Y-113841456D01*
X160238618Y-113840451D01*
X160200841Y-113887345D01*
X160134550Y-113909420D01*
X160130105Y-113909500D01*
X159692273Y-113909500D01*
X159590410Y-113936793D01*
X159499087Y-113989520D01*
X159499084Y-113989522D01*
X157647926Y-115840681D01*
X157586603Y-115874166D01*
X157560245Y-115877000D01*
X156514500Y-115877000D01*
X156447461Y-115857315D01*
X156401706Y-115804511D01*
X156390500Y-115753000D01*
X156390500Y-115379500D01*
X156410185Y-115312461D01*
X156462989Y-115266706D01*
X156514500Y-115255500D01*
X156804822Y-115255500D01*
X156848717Y-115246768D01*
X156848717Y-115246767D01*
X156848722Y-115246767D01*
X156898504Y-115213504D01*
X156931767Y-115163722D01*
X156940500Y-115119820D01*
X156940500Y-113390180D01*
X156940500Y-113390177D01*
X156931768Y-113346282D01*
X156931767Y-113346281D01*
X156931767Y-113346278D01*
X156898504Y-113296496D01*
X156898503Y-113296495D01*
X156848724Y-113263234D01*
X156848717Y-113263231D01*
X156804822Y-113254500D01*
X156804820Y-113254500D01*
X155075180Y-113254500D01*
X155075178Y-113254500D01*
X155031282Y-113263231D01*
X155031275Y-113263234D01*
X154981496Y-113296495D01*
X154981495Y-113296496D01*
X154948234Y-113346275D01*
X154948231Y-113346282D01*
X154939500Y-113390177D01*
X154939500Y-113390180D01*
X154939500Y-115119820D01*
X154939500Y-115119822D01*
X154939499Y-115119822D01*
X154948231Y-115163717D01*
X154948234Y-115163724D01*
X154981495Y-115213503D01*
X154981496Y-115213504D01*
X155031278Y-115246767D01*
X155031281Y-115246767D01*
X155031282Y-115246768D01*
X155075177Y-115255500D01*
X155075180Y-115255500D01*
X155365500Y-115255500D01*
X155432539Y-115275185D01*
X155478294Y-115327989D01*
X155489500Y-115379500D01*
X155489500Y-115753000D01*
X155469815Y-115820039D01*
X155417011Y-115865794D01*
X155365500Y-115877000D01*
X140570464Y-115877000D01*
X140503425Y-115857315D01*
X140482783Y-115840681D01*
X140444115Y-115802013D01*
X140444113Y-115802011D01*
X140341386Y-115742701D01*
X140226809Y-115712000D01*
X140108191Y-115712000D01*
X139993614Y-115742701D01*
X139993612Y-115742701D01*
X139993612Y-115742702D01*
X139890887Y-115802011D01*
X139890884Y-115802013D01*
X139807013Y-115885884D01*
X139807011Y-115885887D01*
X139747701Y-115988614D01*
X139717000Y-116103191D01*
X109595500Y-116103191D01*
X109595500Y-113633920D01*
X115789499Y-113633920D01*
X115818340Y-113778907D01*
X115818343Y-113778917D01*
X115874912Y-113915488D01*
X115874919Y-113915501D01*
X115957048Y-114038415D01*
X115957051Y-114038419D01*
X116061580Y-114142948D01*
X116061584Y-114142951D01*
X116184498Y-114225080D01*
X116184511Y-114225087D01*
X116321082Y-114281656D01*
X116321087Y-114281658D01*
X116321091Y-114281658D01*
X116321092Y-114281659D01*
X116466079Y-114310500D01*
X116466082Y-114310500D01*
X116613920Y-114310500D01*
X116711462Y-114291096D01*
X116758913Y-114281658D01*
X116895495Y-114225084D01*
X117018416Y-114142951D01*
X117020676Y-114140691D01*
X146512000Y-114140691D01*
X146512000Y-114259309D01*
X146542701Y-114373886D01*
X146602011Y-114476613D01*
X146685887Y-114560489D01*
X146788614Y-114619799D01*
X146903191Y-114650500D01*
X146903194Y-114650500D01*
X147021806Y-114650500D01*
X147021809Y-114650500D01*
X147136386Y-114619799D01*
X147141037Y-114617114D01*
X147203038Y-114600500D01*
X150185225Y-114600500D01*
X150185227Y-114600500D01*
X150287088Y-114573207D01*
X150378413Y-114520480D01*
X152747073Y-112151818D01*
X152808396Y-112118334D01*
X152834754Y-112115500D01*
X154940105Y-112115500D01*
X155007144Y-112135185D01*
X155049506Y-112184073D01*
X155050498Y-112183544D01*
X155052833Y-112187913D01*
X155052899Y-112187989D01*
X155053009Y-112188243D01*
X155053371Y-112188920D01*
X155162860Y-112352781D01*
X155162863Y-112352785D01*
X155302214Y-112492136D01*
X155302218Y-112492139D01*
X155466079Y-112601628D01*
X155466092Y-112601635D01*
X155598876Y-112656635D01*
X155648165Y-112677051D01*
X155648169Y-112677051D01*
X155648170Y-112677052D01*
X155841456Y-112715500D01*
X155841459Y-112715500D01*
X156038543Y-112715500D01*
X156168582Y-112689632D01*
X156231835Y-112677051D01*
X156413914Y-112601632D01*
X156577782Y-112492139D01*
X156717139Y-112352782D01*
X156826632Y-112188914D01*
X156902051Y-112006835D01*
X156926322Y-111884820D01*
X156929560Y-111868543D01*
X160129499Y-111868543D01*
X160167947Y-112061829D01*
X160167950Y-112061839D01*
X160243364Y-112243907D01*
X160243371Y-112243920D01*
X160352860Y-112407781D01*
X160352863Y-112407785D01*
X160492214Y-112547136D01*
X160492218Y-112547139D01*
X160656079Y-112656628D01*
X160656092Y-112656635D01*
X160798207Y-112715500D01*
X160838165Y-112732051D01*
X160838169Y-112732051D01*
X160838170Y-112732052D01*
X161031456Y-112770500D01*
X161031459Y-112770500D01*
X161228543Y-112770500D01*
X161358582Y-112744632D01*
X161421835Y-112732051D01*
X161603914Y-112656632D01*
X161767782Y-112547139D01*
X161907139Y-112407782D01*
X162016632Y-112243914D01*
X162092051Y-112061835D01*
X162123940Y-111901520D01*
X162130500Y-111868543D01*
X162130500Y-111671456D01*
X162092052Y-111478170D01*
X162092051Y-111478169D01*
X162092051Y-111478165D01*
X162069272Y-111423170D01*
X162016635Y-111296092D01*
X162016628Y-111296079D01*
X161907139Y-111132218D01*
X161907136Y-111132214D01*
X161767785Y-110992863D01*
X161767781Y-110992860D01*
X161603920Y-110883371D01*
X161603907Y-110883364D01*
X161421839Y-110807950D01*
X161421829Y-110807947D01*
X161228543Y-110769500D01*
X161228541Y-110769500D01*
X161031459Y-110769500D01*
X161031457Y-110769500D01*
X160838170Y-110807947D01*
X160838160Y-110807950D01*
X160656092Y-110883364D01*
X160656079Y-110883371D01*
X160492218Y-110992860D01*
X160492214Y-110992863D01*
X160352863Y-111132214D01*
X160352860Y-111132218D01*
X160243371Y-111296079D01*
X160243364Y-111296092D01*
X160167950Y-111478160D01*
X160167947Y-111478170D01*
X160129500Y-111671456D01*
X160129500Y-111671459D01*
X160129500Y-111868541D01*
X160129500Y-111868543D01*
X160129499Y-111868543D01*
X156929560Y-111868543D01*
X156940500Y-111813543D01*
X156940500Y-111616456D01*
X156902052Y-111423170D01*
X156902051Y-111423169D01*
X156902051Y-111423165D01*
X156882303Y-111375488D01*
X156826635Y-111241092D01*
X156826628Y-111241079D01*
X156717139Y-111077218D01*
X156717136Y-111077214D01*
X156577785Y-110937863D01*
X156577781Y-110937860D01*
X156413920Y-110828371D01*
X156413907Y-110828364D01*
X156231839Y-110752950D01*
X156231829Y-110752947D01*
X156038543Y-110714500D01*
X156038541Y-110714500D01*
X155841459Y-110714500D01*
X155841457Y-110714500D01*
X155648170Y-110752947D01*
X155648160Y-110752950D01*
X155466092Y-110828364D01*
X155466079Y-110828371D01*
X155302218Y-110937860D01*
X155302214Y-110937863D01*
X155162863Y-111077214D01*
X155162860Y-111077218D01*
X155053371Y-111241079D01*
X155050498Y-111246456D01*
X155048618Y-111245451D01*
X155010841Y-111292345D01*
X154944550Y-111314420D01*
X154940105Y-111314500D01*
X152677839Y-111314500D01*
X152677823Y-111314499D01*
X152670227Y-111314499D01*
X152564773Y-111314499D01*
X152496866Y-111332695D01*
X152462912Y-111341793D01*
X152371584Y-111394522D01*
X150002926Y-113763181D01*
X149941603Y-113796666D01*
X149915245Y-113799500D01*
X147203038Y-113799500D01*
X147141037Y-113782886D01*
X147136390Y-113780203D01*
X147136387Y-113780201D01*
X147107741Y-113772525D01*
X147021809Y-113749500D01*
X146903191Y-113749500D01*
X146788614Y-113780201D01*
X146788612Y-113780201D01*
X146788612Y-113780202D01*
X146685887Y-113839511D01*
X146685884Y-113839513D01*
X146602013Y-113923384D01*
X146602011Y-113923387D01*
X146547288Y-114018170D01*
X146542701Y-114026114D01*
X146512000Y-114140691D01*
X117020676Y-114140691D01*
X117116485Y-114044883D01*
X117122948Y-114038419D01*
X117122951Y-114038416D01*
X117205084Y-113915495D01*
X117261658Y-113778913D01*
X117271096Y-113731462D01*
X117290500Y-113633920D01*
X117290500Y-113486079D01*
X117261659Y-113341092D01*
X117261658Y-113341091D01*
X117261658Y-113341087D01*
X117243188Y-113296496D01*
X117205087Y-113204511D01*
X117205080Y-113204498D01*
X117122951Y-113081584D01*
X117122948Y-113081580D01*
X117018419Y-112977051D01*
X117018415Y-112977048D01*
X116895501Y-112894919D01*
X116895488Y-112894912D01*
X116758917Y-112838343D01*
X116758907Y-112838340D01*
X116613920Y-112809500D01*
X116613918Y-112809500D01*
X116466082Y-112809500D01*
X116466080Y-112809500D01*
X116321092Y-112838340D01*
X116321082Y-112838343D01*
X116184511Y-112894912D01*
X116184498Y-112894919D01*
X116061584Y-112977048D01*
X116061580Y-112977051D01*
X115957051Y-113081580D01*
X115957048Y-113081584D01*
X115874919Y-113204498D01*
X115874912Y-113204511D01*
X115818343Y-113341082D01*
X115818340Y-113341092D01*
X115789500Y-113486079D01*
X115789500Y-113486082D01*
X115789500Y-113633918D01*
X115789500Y-113633920D01*
X115789499Y-113633920D01*
X109595500Y-113633920D01*
X109595500Y-111093920D01*
X115789499Y-111093920D01*
X115818340Y-111238907D01*
X115818343Y-111238917D01*
X115874912Y-111375488D01*
X115874919Y-111375501D01*
X115957048Y-111498415D01*
X115957051Y-111498419D01*
X116061580Y-111602948D01*
X116061584Y-111602951D01*
X116184498Y-111685080D01*
X116184511Y-111685087D01*
X116286812Y-111727461D01*
X116321087Y-111741658D01*
X116321091Y-111741658D01*
X116321092Y-111741659D01*
X116466079Y-111770500D01*
X116466082Y-111770500D01*
X116613920Y-111770500D01*
X116711462Y-111751096D01*
X116758913Y-111741658D01*
X116895495Y-111685084D01*
X117018416Y-111602951D01*
X117122951Y-111498416D01*
X117205084Y-111375495D01*
X117261658Y-111238913D01*
X117271096Y-111191462D01*
X117290500Y-111093920D01*
X117290500Y-110946079D01*
X117261659Y-110801092D01*
X117261658Y-110801091D01*
X117261658Y-110801087D01*
X117244502Y-110759669D01*
X117205087Y-110664511D01*
X117205080Y-110664498D01*
X117122951Y-110541584D01*
X117122948Y-110541580D01*
X117018419Y-110437051D01*
X117018415Y-110437048D01*
X116895501Y-110354919D01*
X116895488Y-110354912D01*
X116758917Y-110298343D01*
X116758907Y-110298340D01*
X116613920Y-110269500D01*
X116613918Y-110269500D01*
X116466082Y-110269500D01*
X116466080Y-110269500D01*
X116321092Y-110298340D01*
X116321082Y-110298343D01*
X116184511Y-110354912D01*
X116184498Y-110354919D01*
X116061584Y-110437048D01*
X116061580Y-110437051D01*
X115957051Y-110541580D01*
X115957048Y-110541584D01*
X115874919Y-110664498D01*
X115874912Y-110664511D01*
X115818343Y-110801082D01*
X115818340Y-110801092D01*
X115789500Y-110946079D01*
X115789500Y-110946082D01*
X115789500Y-111093918D01*
X115789500Y-111093920D01*
X115789499Y-111093920D01*
X109595500Y-111093920D01*
X109595500Y-94948474D01*
X117829500Y-94948474D01*
X117829500Y-96711525D01*
X117844352Y-96805302D01*
X117857289Y-96830691D01*
X117901950Y-96918343D01*
X117901952Y-96918345D01*
X117901954Y-96918348D01*
X117991651Y-97008045D01*
X117991653Y-97008046D01*
X117991657Y-97008050D01*
X118101241Y-97063886D01*
X118104697Y-97065647D01*
X118198475Y-97080500D01*
X118345733Y-97080500D01*
X118412772Y-97100185D01*
X118458527Y-97152989D01*
X118468471Y-97222147D01*
X118439446Y-97285703D01*
X118418619Y-97304817D01*
X118265354Y-97416172D01*
X118265352Y-97416174D01*
X118265351Y-97416174D01*
X118126174Y-97555351D01*
X118126174Y-97555352D01*
X118126172Y-97555354D01*
X118098920Y-97592863D01*
X118010476Y-97714594D01*
X117921117Y-97889970D01*
X117860290Y-98077173D01*
X117829500Y-98271577D01*
X117829500Y-98468422D01*
X117860290Y-98662826D01*
X117921117Y-98850029D01*
X117998551Y-99002001D01*
X118010476Y-99025405D01*
X118126172Y-99184646D01*
X118265354Y-99323828D01*
X118424595Y-99439524D01*
X118521484Y-99488891D01*
X118601213Y-99529515D01*
X118652009Y-99577489D01*
X118668804Y-99645310D01*
X118646267Y-99711445D01*
X118601213Y-99750485D01*
X118424594Y-99840476D01*
X118361847Y-99886065D01*
X118265354Y-99956172D01*
X118265352Y-99956174D01*
X118265351Y-99956174D01*
X118126174Y-100095351D01*
X118126174Y-100095352D01*
X118126172Y-100095354D01*
X118092296Y-100141980D01*
X118010476Y-100254594D01*
X117921117Y-100429970D01*
X117860290Y-100617173D01*
X117829500Y-100811577D01*
X117829500Y-101008422D01*
X117860290Y-101202826D01*
X117921117Y-101390029D01*
X117997813Y-101540553D01*
X118010476Y-101565405D01*
X118126172Y-101724646D01*
X118265354Y-101863828D01*
X118424595Y-101979524D01*
X118507455Y-102021743D01*
X118599970Y-102068882D01*
X118599972Y-102068882D01*
X118599975Y-102068884D01*
X118646251Y-102083920D01*
X118787173Y-102129709D01*
X118981578Y-102160500D01*
X118981583Y-102160500D01*
X119178422Y-102160500D01*
X119372826Y-102129709D01*
X119392837Y-102123207D01*
X119560025Y-102068884D01*
X119735405Y-101979524D01*
X119894646Y-101863828D01*
X120033828Y-101724646D01*
X120149524Y-101565405D01*
X120177395Y-101510705D01*
X120225370Y-101459909D01*
X120287880Y-101443000D01*
X123841568Y-101443000D01*
X123908607Y-101462685D01*
X123944670Y-101498109D01*
X123977860Y-101547781D01*
X123977863Y-101547785D01*
X124117214Y-101687136D01*
X124117218Y-101687139D01*
X124281079Y-101796628D01*
X124281092Y-101796635D01*
X124463160Y-101872049D01*
X124463165Y-101872051D01*
X124463169Y-101872051D01*
X124463170Y-101872052D01*
X124656456Y-101910500D01*
X124656459Y-101910500D01*
X124853543Y-101910500D01*
X124983582Y-101884632D01*
X125046835Y-101872051D01*
X125204226Y-101806858D01*
X125228907Y-101796635D01*
X125228907Y-101796634D01*
X125228914Y-101796632D01*
X125392782Y-101687139D01*
X125483103Y-101596817D01*
X125544424Y-101563334D01*
X125570783Y-101560500D01*
X126009192Y-101560500D01*
X126076231Y-101580185D01*
X126096873Y-101596819D01*
X129033181Y-104533127D01*
X129066666Y-104594450D01*
X129069500Y-104620808D01*
X129069500Y-110620191D01*
X129049815Y-110687230D01*
X128997011Y-110732985D01*
X128927853Y-110742929D01*
X128864297Y-110713904D01*
X128857819Y-110707872D01*
X128664673Y-110514726D01*
X128664669Y-110514723D01*
X128558127Y-110443535D01*
X128542473Y-110437051D01*
X128439744Y-110394499D01*
X128439738Y-110394497D01*
X128314071Y-110369500D01*
X128314069Y-110369500D01*
X126029500Y-110369500D01*
X125962461Y-110349815D01*
X125916706Y-110297011D01*
X125905500Y-110245500D01*
X125905500Y-110155177D01*
X125896768Y-110111282D01*
X125896767Y-110111281D01*
X125896767Y-110111278D01*
X125863504Y-110061496D01*
X125863503Y-110061495D01*
X125813724Y-110028234D01*
X125813717Y-110028231D01*
X125769822Y-110019500D01*
X125769820Y-110019500D01*
X124040180Y-110019500D01*
X124040178Y-110019500D01*
X123996282Y-110028231D01*
X123996275Y-110028234D01*
X123946496Y-110061495D01*
X123946495Y-110061496D01*
X123913234Y-110111275D01*
X123913231Y-110111282D01*
X123904500Y-110155177D01*
X123904500Y-110245500D01*
X123884815Y-110312539D01*
X123832011Y-110358294D01*
X123780500Y-110369500D01*
X120454500Y-110369500D01*
X120387461Y-110349815D01*
X120341706Y-110297011D01*
X120330500Y-110245500D01*
X120330500Y-110138474D01*
X120315647Y-110044697D01*
X120308693Y-110031049D01*
X120258050Y-109931657D01*
X120258046Y-109931653D01*
X120258045Y-109931651D01*
X120168348Y-109841954D01*
X120168345Y-109841952D01*
X120168343Y-109841950D01*
X120074798Y-109794286D01*
X120055302Y-109784352D01*
X119961525Y-109769500D01*
X119961520Y-109769500D01*
X118198480Y-109769500D01*
X118198475Y-109769500D01*
X118104697Y-109784352D01*
X118052460Y-109810969D01*
X117991657Y-109841950D01*
X117991656Y-109841951D01*
X117991651Y-109841954D01*
X117901954Y-109931651D01*
X117901951Y-109931656D01*
X117901950Y-109931657D01*
X117891514Y-109952139D01*
X117844352Y-110044697D01*
X117829500Y-110138474D01*
X117829500Y-111901525D01*
X117844352Y-111995302D01*
X117862805Y-112031518D01*
X117901950Y-112108343D01*
X117901952Y-112108345D01*
X117901954Y-112108348D01*
X117991651Y-112198045D01*
X117991653Y-112198046D01*
X117991657Y-112198050D01*
X118081670Y-112243914D01*
X118104697Y-112255647D01*
X118198475Y-112270500D01*
X118198480Y-112270500D01*
X119961525Y-112270500D01*
X120055302Y-112255647D01*
X120055303Y-112255646D01*
X120055305Y-112255646D01*
X120168343Y-112198050D01*
X120258050Y-112108343D01*
X120315646Y-111995305D01*
X120315646Y-111995303D01*
X120315647Y-111995302D01*
X120330500Y-111901525D01*
X120330500Y-111794500D01*
X120350185Y-111727461D01*
X120402989Y-111681706D01*
X120454500Y-111670500D01*
X123780500Y-111670500D01*
X123847539Y-111690185D01*
X123893294Y-111742989D01*
X123904500Y-111794500D01*
X123904500Y-111884820D01*
X123904500Y-111884822D01*
X123904499Y-111884822D01*
X123913231Y-111928717D01*
X123913232Y-111928721D01*
X123913233Y-111928722D01*
X123946496Y-111978504D01*
X123996278Y-112011767D01*
X123996281Y-112011767D01*
X123996282Y-112011768D01*
X124040177Y-112020500D01*
X124040180Y-112020500D01*
X125769822Y-112020500D01*
X125813717Y-112011768D01*
X125813717Y-112011767D01*
X125813722Y-112011767D01*
X125863504Y-111978504D01*
X125896767Y-111928722D01*
X125905500Y-111884820D01*
X125905500Y-111794500D01*
X125925185Y-111727461D01*
X125977989Y-111681706D01*
X126029500Y-111670500D01*
X127929192Y-111670500D01*
X127996231Y-111690185D01*
X128016873Y-111706819D01*
X128825324Y-112515271D01*
X128825327Y-112515274D01*
X128825330Y-112515276D01*
X128873017Y-112547139D01*
X128931873Y-112586465D01*
X129050256Y-112635501D01*
X129050260Y-112635501D01*
X129050261Y-112635502D01*
X129175928Y-112660500D01*
X129175931Y-112660500D01*
X150156571Y-112660500D01*
X150241115Y-112643682D01*
X150282244Y-112635501D01*
X150400627Y-112586465D01*
X150459483Y-112547139D01*
X150507169Y-112515277D01*
X152262777Y-110759669D01*
X152333966Y-110653126D01*
X152368527Y-110569688D01*
X152383001Y-110534744D01*
X152402434Y-110437051D01*
X152408000Y-110409071D01*
X152408000Y-109273543D01*
X154939499Y-109273543D01*
X154977947Y-109466829D01*
X154977950Y-109466839D01*
X155053364Y-109648907D01*
X155053371Y-109648920D01*
X155162860Y-109812781D01*
X155162863Y-109812785D01*
X155302214Y-109952136D01*
X155302218Y-109952139D01*
X155466079Y-110061628D01*
X155466092Y-110061635D01*
X155598876Y-110116635D01*
X155648165Y-110137051D01*
X155648169Y-110137051D01*
X155648170Y-110137052D01*
X155841456Y-110175500D01*
X155841459Y-110175500D01*
X156038543Y-110175500D01*
X156170849Y-110149182D01*
X156231835Y-110137051D01*
X156413914Y-110061632D01*
X156577782Y-109952139D01*
X156717139Y-109812782D01*
X156826632Y-109648914D01*
X156902051Y-109466835D01*
X156919722Y-109377998D01*
X156940500Y-109273543D01*
X156940500Y-109076456D01*
X156902052Y-108883170D01*
X156902051Y-108883169D01*
X156902051Y-108883165D01*
X156849416Y-108756092D01*
X156826635Y-108701092D01*
X156826628Y-108701079D01*
X156717139Y-108537218D01*
X156717136Y-108537214D01*
X156577785Y-108397863D01*
X156577781Y-108397860D01*
X156413920Y-108288371D01*
X156413907Y-108288364D01*
X156231839Y-108212950D01*
X156231829Y-108212947D01*
X156038543Y-108174500D01*
X156038541Y-108174500D01*
X155841459Y-108174500D01*
X155841457Y-108174500D01*
X155648170Y-108212947D01*
X155648160Y-108212950D01*
X155466092Y-108288364D01*
X155466079Y-108288371D01*
X155302218Y-108397860D01*
X155302214Y-108397863D01*
X155162863Y-108537214D01*
X155162860Y-108537218D01*
X155053371Y-108701079D01*
X155053364Y-108701092D01*
X154977950Y-108883160D01*
X154977947Y-108883170D01*
X154939500Y-109076456D01*
X154939500Y-109076459D01*
X154939500Y-109273541D01*
X154939500Y-109273543D01*
X154939499Y-109273543D01*
X152408000Y-109273543D01*
X152408000Y-107825097D01*
X152427685Y-107758058D01*
X152480489Y-107712303D01*
X152549647Y-107702359D01*
X152613203Y-107731384D01*
X152639386Y-107763096D01*
X152664511Y-107806613D01*
X152748387Y-107890489D01*
X152851114Y-107949799D01*
X152965691Y-107980500D01*
X152965694Y-107980500D01*
X153084306Y-107980500D01*
X153084309Y-107980500D01*
X153198886Y-107949799D01*
X153301613Y-107890489D01*
X153385489Y-107806613D01*
X153432609Y-107724998D01*
X153483177Y-107676784D01*
X153539996Y-107663000D01*
X157087023Y-107663000D01*
X157154062Y-107682685D01*
X157174704Y-107699319D01*
X158938938Y-109463555D01*
X158938939Y-109463555D01*
X158938941Y-109463557D01*
X158968595Y-109475839D01*
X158968597Y-109475841D01*
X158968598Y-109475841D01*
X158989570Y-109484527D01*
X159040200Y-109505500D01*
X160078328Y-109505500D01*
X160145367Y-109525185D01*
X160191122Y-109577989D01*
X160192889Y-109582047D01*
X160243366Y-109703911D01*
X160243371Y-109703920D01*
X160352860Y-109867781D01*
X160352863Y-109867785D01*
X160492214Y-110007136D01*
X160492218Y-110007139D01*
X160656079Y-110116628D01*
X160656092Y-110116635D01*
X160825908Y-110186974D01*
X160838165Y-110192051D01*
X160838169Y-110192051D01*
X160838170Y-110192052D01*
X161031456Y-110230500D01*
X161031459Y-110230500D01*
X161228543Y-110230500D01*
X161358582Y-110204632D01*
X161421835Y-110192051D01*
X161603914Y-110116632D01*
X161767782Y-110007139D01*
X161907139Y-109867782D01*
X162016632Y-109703914D01*
X162092051Y-109521835D01*
X162114278Y-109410092D01*
X162130500Y-109328543D01*
X162130500Y-109131456D01*
X162092052Y-108938170D01*
X162092051Y-108938169D01*
X162092051Y-108938165D01*
X162086256Y-108924174D01*
X162016635Y-108756092D01*
X162016628Y-108756079D01*
X161907139Y-108592218D01*
X161907136Y-108592214D01*
X161763475Y-108448553D01*
X161765089Y-108446938D01*
X161731487Y-108397615D01*
X161729612Y-108327770D01*
X161765796Y-108268000D01*
X161828550Y-108237280D01*
X161849484Y-108235500D01*
X170094799Y-108235500D01*
X170094800Y-108235500D01*
X170196058Y-108193557D01*
X170273557Y-108116058D01*
X170273556Y-108116058D01*
X170332125Y-108057489D01*
X170951058Y-107438558D01*
X170951058Y-107438556D01*
X170951060Y-107438555D01*
X170985207Y-107356114D01*
X170993000Y-107337300D01*
X170993000Y-107227700D01*
X170993000Y-105144499D01*
X171012685Y-105077460D01*
X171065489Y-105031705D01*
X171117000Y-105020499D01*
X171284017Y-105020499D01*
X171284018Y-105020499D01*
X171377804Y-105005646D01*
X171490842Y-104948050D01*
X171580550Y-104858342D01*
X171638146Y-104745304D01*
X171638146Y-104745302D01*
X171638147Y-104745301D01*
X171652999Y-104651524D01*
X171653000Y-104651519D01*
X171652999Y-103688482D01*
X171638146Y-103594696D01*
X171580550Y-103481658D01*
X171580546Y-103481654D01*
X171580545Y-103481652D01*
X171490847Y-103391954D01*
X171490844Y-103391952D01*
X171490842Y-103391950D01*
X171414017Y-103352805D01*
X171377801Y-103334352D01*
X171284024Y-103319500D01*
X170570982Y-103319500D01*
X170490019Y-103332323D01*
X170477196Y-103334354D01*
X170364158Y-103391950D01*
X170364157Y-103391951D01*
X170364152Y-103391954D01*
X170274454Y-103481652D01*
X170274451Y-103481657D01*
X170216852Y-103594698D01*
X170202000Y-103688475D01*
X170202000Y-104651517D01*
X170211340Y-104710486D01*
X170216854Y-104745304D01*
X170274450Y-104858342D01*
X170364158Y-104948050D01*
X170364160Y-104948051D01*
X170374293Y-104953214D01*
X170425090Y-105001188D01*
X170442000Y-105063700D01*
X170442000Y-107117022D01*
X170422315Y-107184061D01*
X170405681Y-107204703D01*
X169962204Y-107648181D01*
X169900881Y-107681666D01*
X169874523Y-107684500D01*
X161849484Y-107684500D01*
X161782445Y-107664815D01*
X161736690Y-107612011D01*
X161726746Y-107542853D01*
X161755771Y-107479297D01*
X161763652Y-107471624D01*
X161763475Y-107471447D01*
X161907136Y-107327785D01*
X161907139Y-107327782D01*
X162002136Y-107185609D01*
X162055748Y-107140804D01*
X162105238Y-107130500D01*
X166654306Y-107130500D01*
X166654309Y-107130500D01*
X166768886Y-107099799D01*
X166871613Y-107040489D01*
X166955489Y-106956613D01*
X167014799Y-106853886D01*
X167045500Y-106739309D01*
X167045500Y-106620691D01*
X167014799Y-106506114D01*
X166955489Y-106403387D01*
X166871613Y-106319511D01*
X166768886Y-106260201D01*
X166654309Y-106229500D01*
X166654306Y-106229500D01*
X162091874Y-106229500D01*
X162024835Y-106209815D01*
X161988772Y-106174390D01*
X161907142Y-106052222D01*
X161907136Y-106052214D01*
X161767785Y-105912863D01*
X161767781Y-105912860D01*
X161603920Y-105803371D01*
X161603907Y-105803364D01*
X161421839Y-105727950D01*
X161421829Y-105727947D01*
X161228543Y-105689500D01*
X161228541Y-105689500D01*
X161031459Y-105689500D01*
X161031457Y-105689500D01*
X160838170Y-105727947D01*
X160838160Y-105727950D01*
X160656092Y-105803364D01*
X160656079Y-105803371D01*
X160492218Y-105912860D01*
X160492214Y-105912863D01*
X160352863Y-106052214D01*
X160352860Y-106052218D01*
X160243371Y-106216079D01*
X160243364Y-106216092D01*
X160167950Y-106398160D01*
X160167947Y-106398170D01*
X160129500Y-106591456D01*
X160129500Y-106591459D01*
X160129500Y-106788541D01*
X160129500Y-106788543D01*
X160129499Y-106788543D01*
X160167947Y-106981829D01*
X160167950Y-106981839D01*
X160243364Y-107163907D01*
X160243371Y-107163920D01*
X160352860Y-107327781D01*
X160352863Y-107327785D01*
X160496525Y-107471447D01*
X160494910Y-107473061D01*
X160528513Y-107522385D01*
X160530388Y-107592230D01*
X160494204Y-107652000D01*
X160431450Y-107682720D01*
X160410516Y-107684500D01*
X159955478Y-107684500D01*
X159888439Y-107664815D01*
X159867797Y-107648181D01*
X158131930Y-105912314D01*
X156300306Y-104080691D01*
X158189500Y-104080691D01*
X158189500Y-104199309D01*
X158220201Y-104313886D01*
X158279511Y-104416613D01*
X158363387Y-104500489D01*
X158466114Y-104559799D01*
X158580691Y-104590500D01*
X158580694Y-104590500D01*
X158699306Y-104590500D01*
X158699309Y-104590500D01*
X158813886Y-104559799D01*
X158916613Y-104500489D01*
X158965283Y-104451819D01*
X159026606Y-104418334D01*
X159052964Y-104415500D01*
X160074186Y-104415500D01*
X160141225Y-104435185D01*
X160186980Y-104487989D01*
X160188747Y-104492047D01*
X160243366Y-104623911D01*
X160243371Y-104623920D01*
X160352860Y-104787781D01*
X160352863Y-104787785D01*
X160492214Y-104927136D01*
X160492218Y-104927139D01*
X160656079Y-105036628D01*
X160656092Y-105036635D01*
X160822632Y-105105617D01*
X160838165Y-105112051D01*
X160838169Y-105112051D01*
X160838170Y-105112052D01*
X161031456Y-105150500D01*
X161031459Y-105150500D01*
X161228543Y-105150500D01*
X161372723Y-105121820D01*
X161421835Y-105112051D01*
X161564439Y-105052983D01*
X161603907Y-105036635D01*
X161603907Y-105036634D01*
X161603914Y-105036632D01*
X161767782Y-104927139D01*
X161907139Y-104787782D01*
X162016632Y-104623914D01*
X162067756Y-104500489D01*
X162071253Y-104492047D01*
X162115094Y-104437644D01*
X162181388Y-104415579D01*
X162185814Y-104415500D01*
X168028001Y-104415500D01*
X168095040Y-104435185D01*
X168140795Y-104487989D01*
X168152001Y-104539500D01*
X168152001Y-104651518D01*
X168166854Y-104745304D01*
X168224450Y-104858342D01*
X168224452Y-104858344D01*
X168224454Y-104858347D01*
X168314152Y-104948045D01*
X168314154Y-104948046D01*
X168314158Y-104948050D01*
X168418447Y-105001188D01*
X168427198Y-105005647D01*
X168520975Y-105020499D01*
X168520981Y-105020500D01*
X169234018Y-105020499D01*
X169327804Y-105005646D01*
X169440842Y-104948050D01*
X169530550Y-104858342D01*
X169588146Y-104745304D01*
X169588146Y-104745302D01*
X169588147Y-104745301D01*
X169602999Y-104651524D01*
X169603000Y-104651519D01*
X169602999Y-103688482D01*
X169588146Y-103594696D01*
X169530550Y-103481658D01*
X169530546Y-103481654D01*
X169530545Y-103481652D01*
X169440847Y-103391954D01*
X169440844Y-103391952D01*
X169440842Y-103391950D01*
X169364017Y-103352805D01*
X169327801Y-103334352D01*
X169234024Y-103319500D01*
X168520982Y-103319500D01*
X168440019Y-103332323D01*
X168427196Y-103334354D01*
X168314158Y-103391950D01*
X168314157Y-103391951D01*
X168314152Y-103391954D01*
X168224454Y-103481652D01*
X168224451Y-103481657D01*
X168166852Y-103594698D01*
X168152000Y-103688475D01*
X168152000Y-103740500D01*
X168132315Y-103807539D01*
X168079511Y-103853294D01*
X168028000Y-103864500D01*
X162177530Y-103864500D01*
X162110491Y-103844815D01*
X162064736Y-103792011D01*
X162062969Y-103787953D01*
X162016633Y-103676088D01*
X162016628Y-103676079D01*
X161907139Y-103512218D01*
X161907136Y-103512214D01*
X161767785Y-103372863D01*
X161767781Y-103372860D01*
X161603920Y-103263371D01*
X161603907Y-103263364D01*
X161421839Y-103187950D01*
X161421829Y-103187947D01*
X161228543Y-103149500D01*
X161228541Y-103149500D01*
X161031459Y-103149500D01*
X161031457Y-103149500D01*
X160838170Y-103187947D01*
X160838160Y-103187950D01*
X160656092Y-103263364D01*
X160656079Y-103263371D01*
X160492218Y-103372860D01*
X160492214Y-103372863D01*
X160352863Y-103512214D01*
X160352860Y-103512218D01*
X160243371Y-103676079D01*
X160243366Y-103676088D01*
X160197031Y-103787953D01*
X160153190Y-103842356D01*
X160086896Y-103864421D01*
X160082470Y-103864500D01*
X159052964Y-103864500D01*
X158985925Y-103844815D01*
X158965283Y-103828181D01*
X158916615Y-103779513D01*
X158916613Y-103779511D01*
X158813886Y-103720201D01*
X158699309Y-103689500D01*
X158580691Y-103689500D01*
X158466114Y-103720201D01*
X158466112Y-103720201D01*
X158466112Y-103720202D01*
X158363387Y-103779511D01*
X158363384Y-103779513D01*
X158279513Y-103863384D01*
X158279511Y-103863387D01*
X158221784Y-103963373D01*
X158220201Y-103966114D01*
X158189500Y-104080691D01*
X156300306Y-104080691D01*
X155322795Y-103103180D01*
X155289311Y-103041858D01*
X155294295Y-102972166D01*
X155336167Y-102916233D01*
X155401631Y-102891816D01*
X155410477Y-102891500D01*
X155688799Y-102891500D01*
X155688800Y-102891500D01*
X155790058Y-102849557D01*
X155867557Y-102772058D01*
X156727796Y-101911819D01*
X156789119Y-101878334D01*
X156815477Y-101875500D01*
X160074186Y-101875500D01*
X160141225Y-101895185D01*
X160186980Y-101947989D01*
X160188747Y-101952047D01*
X160243366Y-102083911D01*
X160243371Y-102083920D01*
X160352860Y-102247781D01*
X160352863Y-102247785D01*
X160492214Y-102387136D01*
X160492218Y-102387139D01*
X160656079Y-102496628D01*
X160656092Y-102496635D01*
X160838160Y-102572049D01*
X160838165Y-102572051D01*
X160838169Y-102572051D01*
X160838170Y-102572052D01*
X161031456Y-102610500D01*
X161031459Y-102610500D01*
X161228543Y-102610500D01*
X161368164Y-102582727D01*
X161421835Y-102572051D01*
X161603914Y-102496632D01*
X161767782Y-102387139D01*
X161907139Y-102247782D01*
X162016632Y-102083914D01*
X162092051Y-101901835D01*
X162112977Y-101796635D01*
X162130500Y-101708543D01*
X162130500Y-101511456D01*
X162092052Y-101318170D01*
X162092051Y-101318169D01*
X162092051Y-101318165D01*
X162090992Y-101315609D01*
X162016635Y-101136092D01*
X162016628Y-101136079D01*
X161907139Y-100972218D01*
X161907136Y-100972214D01*
X161767785Y-100832863D01*
X161767781Y-100832860D01*
X161603920Y-100723371D01*
X161603907Y-100723364D01*
X161421839Y-100647950D01*
X161421829Y-100647947D01*
X161228543Y-100609500D01*
X161228541Y-100609500D01*
X161031459Y-100609500D01*
X161031457Y-100609500D01*
X160838170Y-100647947D01*
X160838160Y-100647950D01*
X160656092Y-100723364D01*
X160656079Y-100723371D01*
X160492218Y-100832860D01*
X160492214Y-100832863D01*
X160352863Y-100972214D01*
X160352860Y-100972218D01*
X160243371Y-101136079D01*
X160243366Y-101136088D01*
X160197031Y-101247953D01*
X160153190Y-101302356D01*
X160086896Y-101324421D01*
X160082470Y-101324500D01*
X156595199Y-101324500D01*
X156556522Y-101340521D01*
X156517845Y-101356542D01*
X156493942Y-101366443D01*
X156493940Y-101366444D01*
X155556204Y-102304181D01*
X155494881Y-102337666D01*
X155468523Y-102340500D01*
X153399198Y-102340500D01*
X153327599Y-102370158D01*
X153297939Y-102382443D01*
X151979204Y-103701181D01*
X151917881Y-103734666D01*
X151891523Y-103737500D01*
X150269538Y-103737500D01*
X150202499Y-103717815D01*
X150156744Y-103665011D01*
X150146800Y-103595853D01*
X150156104Y-103563413D01*
X150196988Y-103470820D01*
X150200000Y-103444857D01*
X150199999Y-103347042D01*
X150219683Y-103280005D01*
X150236314Y-103259366D01*
X151026362Y-102469317D01*
X151087685Y-102435833D01*
X151114043Y-102432999D01*
X151168848Y-102432999D01*
X151168856Y-102432999D01*
X151177226Y-102432028D01*
X151194814Y-102429989D01*
X151194815Y-102429988D01*
X151194820Y-102429988D01*
X151301014Y-102383099D01*
X151383099Y-102301014D01*
X151429988Y-102194820D01*
X151433000Y-102168857D01*
X151432999Y-101756144D01*
X151432690Y-101753480D01*
X151429989Y-101730185D01*
X151429988Y-101730182D01*
X151429988Y-101730180D01*
X151427545Y-101724648D01*
X151383099Y-101623986D01*
X151301016Y-101541903D01*
X151301014Y-101541901D01*
X151301011Y-101541899D01*
X151301006Y-101541896D01*
X151299406Y-101541190D01*
X151296967Y-101539129D01*
X151291533Y-101535407D01*
X151291909Y-101534857D01*
X151246033Y-101496100D01*
X151225510Y-101429313D01*
X151225500Y-101427759D01*
X151225500Y-100969250D01*
X151226326Y-100954957D01*
X151226800Y-100950873D01*
X151226799Y-100524128D01*
X151223982Y-100499838D01*
X151180113Y-100400484D01*
X151103316Y-100323687D01*
X151054220Y-100302009D01*
X151003963Y-100279818D01*
X150979673Y-100277000D01*
X150612934Y-100277000D01*
X150612911Y-100277002D01*
X150588640Y-100279817D01*
X150588637Y-100279818D01*
X150489284Y-100323686D01*
X150489283Y-100323687D01*
X150404362Y-100408609D01*
X150401375Y-100405622D01*
X150364455Y-100435752D01*
X150295033Y-100443647D01*
X150232363Y-100412756D01*
X150228224Y-100408769D01*
X150220192Y-100400665D01*
X150220113Y-100400484D01*
X150209034Y-100389405D01*
X150208924Y-100389294D01*
X150192408Y-100358721D01*
X150175834Y-100328367D01*
X150175789Y-100327956D01*
X150175716Y-100327820D01*
X150175740Y-100327497D01*
X150173000Y-100302009D01*
X150173000Y-99934822D01*
X160129499Y-99934822D01*
X160138231Y-99978717D01*
X160138234Y-99978724D01*
X160168748Y-100024392D01*
X160171496Y-100028504D01*
X160221278Y-100061767D01*
X160221281Y-100061767D01*
X160221282Y-100061768D01*
X160265177Y-100070500D01*
X160265180Y-100070500D01*
X161994822Y-100070500D01*
X162038717Y-100061768D01*
X162038717Y-100061767D01*
X162038722Y-100061767D01*
X162088504Y-100028504D01*
X162121767Y-99978722D01*
X162127888Y-99947950D01*
X162130500Y-99934822D01*
X162130500Y-98205177D01*
X162121768Y-98161282D01*
X162121767Y-98161281D01*
X162121767Y-98161278D01*
X162088504Y-98111496D01*
X162088503Y-98111495D01*
X162038724Y-98078234D01*
X162038717Y-98078231D01*
X161994822Y-98069500D01*
X161994820Y-98069500D01*
X160265180Y-98069500D01*
X160265178Y-98069500D01*
X160221282Y-98078231D01*
X160221275Y-98078234D01*
X160171496Y-98111495D01*
X160171495Y-98111496D01*
X160138234Y-98161275D01*
X160138231Y-98161282D01*
X160129500Y-98205177D01*
X160129500Y-98205180D01*
X160129500Y-99934820D01*
X160129500Y-99934822D01*
X160129499Y-99934822D01*
X150173000Y-99934822D01*
X150173000Y-99884191D01*
X150192685Y-99817152D01*
X150203003Y-99804347D01*
X150206309Y-99799519D01*
X150206313Y-99799516D01*
X150250182Y-99700162D01*
X150253000Y-99675873D01*
X150252999Y-99249128D01*
X150250182Y-99224838D01*
X150206313Y-99125484D01*
X150129516Y-99048687D01*
X150127480Y-99047788D01*
X150030163Y-99004818D01*
X150005873Y-99002000D01*
X149639134Y-99002000D01*
X149639111Y-99002002D01*
X149614840Y-99004817D01*
X149614837Y-99004818D01*
X149515484Y-99048686D01*
X149438687Y-99125483D01*
X149394818Y-99224835D01*
X149394818Y-99224837D01*
X149392000Y-99249125D01*
X149392000Y-99675865D01*
X149392002Y-99675888D01*
X149394817Y-99700159D01*
X149394818Y-99700162D01*
X149438686Y-99799515D01*
X149445181Y-99808996D01*
X149443229Y-99810333D01*
X149469166Y-99857833D01*
X149472000Y-99884191D01*
X149472000Y-100333600D01*
X149455639Y-100389316D01*
X149457128Y-100389974D01*
X149452487Y-100400483D01*
X149452487Y-100400484D01*
X149448829Y-100408769D01*
X149408618Y-100499835D01*
X149408618Y-100499837D01*
X149405800Y-100524125D01*
X149405800Y-100950865D01*
X149405802Y-100950888D01*
X149408617Y-100975159D01*
X149408618Y-100975162D01*
X149457128Y-101085027D01*
X149455062Y-101085938D01*
X149456375Y-101089967D01*
X149466977Y-101106464D01*
X149471104Y-101135171D01*
X149471946Y-101137754D01*
X149472000Y-101141399D01*
X149472000Y-101276639D01*
X149452315Y-101343678D01*
X149416891Y-101379741D01*
X149310232Y-101451007D01*
X149287381Y-101473859D01*
X149236057Y-101525182D01*
X149209126Y-101539888D01*
X149183313Y-101556477D01*
X149177113Y-101557368D01*
X149174737Y-101558666D01*
X149148378Y-101561500D01*
X148902608Y-101561500D01*
X148835569Y-101541815D01*
X148789814Y-101489011D01*
X148783652Y-101467568D01*
X148782603Y-101467850D01*
X148780500Y-101460000D01*
X148759667Y-101382250D01*
X148759666Y-101382249D01*
X148759666Y-101382248D01*
X148702751Y-101325333D01*
X148661197Y-101314199D01*
X148625000Y-101304500D01*
X147925000Y-101304500D01*
X147924998Y-101304500D01*
X147870940Y-101314199D01*
X147805291Y-101360756D01*
X147805287Y-101360759D01*
X147805284Y-101360762D01*
X147680365Y-101511459D01*
X147676074Y-101516635D01*
X147618136Y-101555685D01*
X147580609Y-101561500D01*
X147035141Y-101561500D01*
X146907928Y-101586804D01*
X146907918Y-101586807D01*
X146788089Y-101636441D01*
X146788073Y-101636450D01*
X146774984Y-101645196D01*
X146708306Y-101666073D01*
X146640926Y-101647587D01*
X146610630Y-101621229D01*
X146488783Y-101474240D01*
X146394716Y-101360762D01*
X146352750Y-101325333D01*
X146352748Y-101325332D01*
X146303457Y-101312125D01*
X146275000Y-101304500D01*
X145575000Y-101304500D01*
X145497248Y-101325333D01*
X145492181Y-101330401D01*
X145430858Y-101363886D01*
X145361166Y-101358902D01*
X145305233Y-101317030D01*
X145282190Y-101255250D01*
X145281561Y-101255333D01*
X145281200Y-101252597D01*
X145280816Y-101251566D01*
X145280723Y-101248970D01*
X145280500Y-101247280D01*
X145280500Y-101247273D01*
X145253207Y-101145413D01*
X145200480Y-101054087D01*
X145163178Y-101016785D01*
X145129693Y-100955462D01*
X145134677Y-100885770D01*
X145163174Y-100841427D01*
X145220489Y-100784113D01*
X145279799Y-100681386D01*
X145292717Y-100633175D01*
X145329081Y-100573517D01*
X145391928Y-100542988D01*
X145461304Y-100551283D01*
X145487752Y-100569184D01*
X145497248Y-100574666D01*
X145497249Y-100574666D01*
X145497250Y-100574667D01*
X145575000Y-100595500D01*
X145575002Y-100595500D01*
X146275002Y-100595500D01*
X146291448Y-100592548D01*
X146329058Y-100585801D01*
X146394716Y-100539238D01*
X146625888Y-100260363D01*
X146683827Y-100221315D01*
X146721353Y-100215500D01*
X147478647Y-100215500D01*
X147545686Y-100235185D01*
X147574111Y-100260363D01*
X147805284Y-100539238D01*
X147847250Y-100574667D01*
X147925000Y-100595500D01*
X147925002Y-100595500D01*
X148624998Y-100595500D01*
X148625000Y-100595500D01*
X148702750Y-100574667D01*
X148759667Y-100517750D01*
X148780500Y-100440000D01*
X148780500Y-99555000D01*
X148777061Y-99528884D01*
X148775201Y-99514753D01*
X148734957Y-99445048D01*
X148734953Y-99445043D01*
X148479963Y-99190052D01*
X148479962Y-99190051D01*
X148479957Y-99190047D01*
X148479955Y-99190045D01*
X148447750Y-99165333D01*
X148447748Y-99165332D01*
X148389776Y-99149799D01*
X148370000Y-99144500D01*
X145830000Y-99144500D01*
X145829993Y-99144500D01*
X145789753Y-99149799D01*
X145787927Y-99150419D01*
X145748068Y-99157000D01*
X144936450Y-99157000D01*
X144869411Y-99137315D01*
X144823656Y-99084511D01*
X144813712Y-99015353D01*
X144816671Y-99000921D01*
X144828000Y-98958644D01*
X144828000Y-98866356D01*
X144804114Y-98777212D01*
X144804113Y-98777210D01*
X144802608Y-98771593D01*
X144804271Y-98701744D01*
X144843433Y-98643881D01*
X144907662Y-98616377D01*
X144922383Y-98615500D01*
X145528457Y-98615500D01*
X145595496Y-98635185D01*
X145616138Y-98651819D01*
X145619531Y-98655212D01*
X145684788Y-98720469D01*
X145684791Y-98720470D01*
X145684794Y-98720473D01*
X145764706Y-98766611D01*
X145764707Y-98766611D01*
X145764712Y-98766614D01*
X145853856Y-98790500D01*
X145853858Y-98790500D01*
X145946142Y-98790500D01*
X145946144Y-98790500D01*
X146035288Y-98766614D01*
X146115212Y-98720469D01*
X146180469Y-98655212D01*
X146226614Y-98575288D01*
X146250500Y-98486144D01*
X146250500Y-98393856D01*
X146231137Y-98321592D01*
X146231732Y-98296598D01*
X146228174Y-98271853D01*
X146232549Y-98262272D01*
X146232800Y-98251743D01*
X146246812Y-98231039D01*
X146257199Y-98208297D01*
X146266060Y-98202602D01*
X146271963Y-98193881D01*
X146294943Y-98184039D01*
X146315977Y-98170523D01*
X146331832Y-98168243D01*
X146336191Y-98166377D01*
X146350912Y-98165500D01*
X146465501Y-98165500D01*
X146532540Y-98185185D01*
X146578295Y-98237989D01*
X146589501Y-98289500D01*
X146589501Y-98349856D01*
X146589502Y-98349882D01*
X146592413Y-98374987D01*
X146592415Y-98374991D01*
X146637793Y-98477764D01*
X146637794Y-98477765D01*
X146717235Y-98557206D01*
X146820009Y-98602585D01*
X146845135Y-98605500D01*
X148109864Y-98605499D01*
X148109879Y-98605497D01*
X148109882Y-98605497D01*
X148134987Y-98602586D01*
X148134988Y-98602585D01*
X148134991Y-98602585D01*
X148237765Y-98557206D01*
X148317206Y-98477765D01*
X148362585Y-98374991D01*
X148365500Y-98349865D01*
X148365499Y-97964639D01*
X150457500Y-97964639D01*
X150457500Y-98377348D01*
X150457502Y-98377372D01*
X150460510Y-98403314D01*
X150460513Y-98403324D01*
X150507400Y-98509513D01*
X150507401Y-98509514D01*
X150589486Y-98591599D01*
X150695680Y-98638488D01*
X150721643Y-98641500D01*
X151209356Y-98641499D01*
X151217726Y-98640528D01*
X151235314Y-98638489D01*
X151235315Y-98638488D01*
X151235320Y-98638488D01*
X151341514Y-98591599D01*
X151423599Y-98509514D01*
X151423600Y-98509512D01*
X151429831Y-98500418D01*
X151435417Y-98495858D01*
X151438414Y-98489297D01*
X151462126Y-98474058D01*
X151483959Y-98456238D01*
X151492561Y-98454498D01*
X151497192Y-98451523D01*
X151532127Y-98446500D01*
X151653036Y-98446500D01*
X151720075Y-98466185D01*
X151740717Y-98482819D01*
X151770887Y-98512989D01*
X151873614Y-98572299D01*
X151988191Y-98603000D01*
X151988194Y-98603000D01*
X152106806Y-98603000D01*
X152106809Y-98603000D01*
X152221386Y-98572299D01*
X152324113Y-98512989D01*
X152407989Y-98429113D01*
X152467299Y-98326386D01*
X152498000Y-98211809D01*
X152498000Y-98093191D01*
X152467299Y-97978614D01*
X152407989Y-97875887D01*
X152324113Y-97792011D01*
X152221386Y-97732701D01*
X152106809Y-97702000D01*
X151988191Y-97702000D01*
X151873614Y-97732701D01*
X151873612Y-97732701D01*
X151873612Y-97732702D01*
X151770887Y-97792011D01*
X151703716Y-97859182D01*
X151676785Y-97873886D01*
X151650970Y-97890477D01*
X151644767Y-97891368D01*
X151642392Y-97892666D01*
X151616035Y-97895500D01*
X151532127Y-97895500D01*
X151465088Y-97875815D01*
X151429831Y-97841582D01*
X151423600Y-97832487D01*
X151341514Y-97750401D01*
X151235321Y-97703512D01*
X151209357Y-97700500D01*
X150721651Y-97700500D01*
X150721627Y-97700502D01*
X150695685Y-97703510D01*
X150695675Y-97703513D01*
X150589486Y-97750400D01*
X150507401Y-97832485D01*
X150460512Y-97938678D01*
X150457500Y-97964639D01*
X148365499Y-97964639D01*
X148365499Y-97960136D01*
X148365497Y-97960117D01*
X148362586Y-97935012D01*
X148362585Y-97935010D01*
X148362585Y-97935009D01*
X148317206Y-97832235D01*
X148237765Y-97752794D01*
X148204484Y-97738099D01*
X148134992Y-97707415D01*
X148109868Y-97704500D01*
X148109865Y-97704500D01*
X147740477Y-97704500D01*
X147673438Y-97684815D01*
X147652796Y-97668181D01*
X147641059Y-97656444D01*
X147641058Y-97656443D01*
X147539800Y-97614500D01*
X146594210Y-97614500D01*
X146527171Y-97594815D01*
X146481416Y-97542011D01*
X146471472Y-97472853D01*
X146480775Y-97440414D01*
X146487585Y-97424991D01*
X146490500Y-97399865D01*
X146490499Y-97010136D01*
X146489871Y-97004722D01*
X146487586Y-96985012D01*
X146487585Y-96985010D01*
X146487585Y-96985009D01*
X146442206Y-96882235D01*
X146362765Y-96802794D01*
X146357417Y-96800432D01*
X146349903Y-96794085D01*
X146340467Y-96791315D01*
X146323658Y-96771917D01*
X146304044Y-96755349D01*
X146301153Y-96745944D01*
X146294712Y-96738511D01*
X146291058Y-96713101D01*
X146283516Y-96688563D01*
X146286168Y-96679090D01*
X146284768Y-96669353D01*
X146295433Y-96645999D01*
X146302354Y-96621281D01*
X146309705Y-96614746D01*
X146313793Y-96605797D01*
X146335391Y-96591916D01*
X146354577Y-96574864D01*
X146365862Y-96572334D01*
X146372571Y-96568023D01*
X146407506Y-96563000D01*
X146571666Y-96563000D01*
X146638705Y-96582685D01*
X146659347Y-96599318D01*
X146717235Y-96657206D01*
X146820009Y-96702585D01*
X146845135Y-96705500D01*
X148109864Y-96705499D01*
X148109879Y-96705497D01*
X148109882Y-96705497D01*
X148134987Y-96702586D01*
X148134988Y-96702585D01*
X148134991Y-96702585D01*
X148237765Y-96657206D01*
X148295653Y-96599318D01*
X148356977Y-96565834D01*
X148383334Y-96563000D01*
X151608553Y-96563000D01*
X151675592Y-96582685D01*
X151721347Y-96635489D01*
X151721987Y-96636913D01*
X151756958Y-96716114D01*
X151766187Y-96737016D01*
X151842984Y-96813813D01*
X151942338Y-96857682D01*
X151966627Y-96860500D01*
X152393372Y-96860499D01*
X152417662Y-96857682D01*
X152517016Y-96813813D01*
X152593813Y-96737016D01*
X152637682Y-96637662D01*
X152637682Y-96637659D01*
X152640130Y-96628664D01*
X152643443Y-96629565D01*
X152664076Y-96580897D01*
X152721797Y-96541525D01*
X152759980Y-96535500D01*
X153045619Y-96535500D01*
X153055335Y-96537549D01*
X153061718Y-96536550D01*
X153095705Y-96546066D01*
X153147795Y-96569066D01*
X153201172Y-96614152D01*
X153221699Y-96680938D01*
X153202861Y-96748220D01*
X153150638Y-96794636D01*
X153147796Y-96795934D01*
X153088985Y-96821901D01*
X153006901Y-96903985D01*
X152960012Y-97010178D01*
X152957000Y-97036139D01*
X152957000Y-97523848D01*
X152957002Y-97523872D01*
X152960010Y-97549814D01*
X152960013Y-97549824D01*
X153006900Y-97656013D01*
X153006901Y-97656014D01*
X153088986Y-97738099D01*
X153178089Y-97777441D01*
X153231462Y-97822525D01*
X153251990Y-97889311D01*
X153252000Y-97890874D01*
X153252000Y-98188000D01*
X153232315Y-98255039D01*
X153179511Y-98300794D01*
X153128001Y-98312000D01*
X153045982Y-98312000D01*
X152965019Y-98324823D01*
X152952196Y-98326854D01*
X152839158Y-98384450D01*
X152839157Y-98384451D01*
X152839152Y-98384454D01*
X152749454Y-98474152D01*
X152749451Y-98474157D01*
X152749450Y-98474158D01*
X152736070Y-98500418D01*
X152691852Y-98587198D01*
X152677000Y-98680975D01*
X152677000Y-99394017D01*
X152686490Y-99453935D01*
X152691854Y-99487804D01*
X152749450Y-99600842D01*
X152749452Y-99600844D01*
X152749454Y-99600847D01*
X152839152Y-99690545D01*
X152839154Y-99690546D01*
X152839158Y-99690550D01*
X152952194Y-99748145D01*
X152952198Y-99748147D01*
X153045975Y-99762999D01*
X153045981Y-99763000D01*
X154009018Y-99762999D01*
X154102804Y-99748146D01*
X154215842Y-99690550D01*
X154305550Y-99600842D01*
X154363146Y-99487804D01*
X154363146Y-99487802D01*
X154363147Y-99487801D01*
X154377999Y-99394024D01*
X154378000Y-99394019D01*
X154377999Y-98680982D01*
X154363146Y-98587196D01*
X154305550Y-98474158D01*
X154305546Y-98474154D01*
X154305545Y-98474152D01*
X154215847Y-98384454D01*
X154215844Y-98384452D01*
X154215842Y-98384450D01*
X154115783Y-98333467D01*
X154102801Y-98326852D01*
X154009024Y-98312000D01*
X154009019Y-98312000D01*
X153927000Y-98312000D01*
X153859961Y-98292315D01*
X153814206Y-98239511D01*
X153803000Y-98188000D01*
X153803000Y-97752475D01*
X153822685Y-97685436D01*
X153839319Y-97664794D01*
X153848099Y-97656014D01*
X153894988Y-97549820D01*
X153898000Y-97523857D01*
X153897999Y-97211074D01*
X153917683Y-97144037D01*
X153970487Y-97098282D01*
X154039646Y-97088338D01*
X154103201Y-97117363D01*
X154129385Y-97149075D01*
X154139511Y-97166613D01*
X154223387Y-97250489D01*
X154326114Y-97309799D01*
X154440691Y-97340500D01*
X154440694Y-97340500D01*
X154559306Y-97340500D01*
X154559309Y-97340500D01*
X154673886Y-97309799D01*
X154776613Y-97250489D01*
X154825283Y-97201819D01*
X154886606Y-97168334D01*
X154912964Y-97165500D01*
X157684523Y-97165500D01*
X157751562Y-97185185D01*
X157772204Y-97201819D01*
X158163181Y-97592796D01*
X158196666Y-97654119D01*
X158199500Y-97680477D01*
X158199500Y-97749309D01*
X158230201Y-97863886D01*
X158289511Y-97966613D01*
X158373387Y-98050489D01*
X158476114Y-98109799D01*
X158590691Y-98140500D01*
X158590694Y-98140500D01*
X158709306Y-98140500D01*
X158709309Y-98140500D01*
X158823886Y-98109799D01*
X158926613Y-98050489D01*
X159010489Y-97966613D01*
X159069799Y-97863886D01*
X159100500Y-97749309D01*
X159100500Y-97630691D01*
X159069799Y-97516114D01*
X159010489Y-97413387D01*
X158926613Y-97329511D01*
X158823886Y-97270201D01*
X158709309Y-97239500D01*
X158640477Y-97239500D01*
X158573438Y-97219815D01*
X158552796Y-97203181D01*
X158006059Y-96656444D01*
X158006058Y-96656443D01*
X157904800Y-96614500D01*
X157737466Y-96614500D01*
X157670427Y-96594815D01*
X157624672Y-96542011D01*
X157614728Y-96472853D01*
X157643753Y-96409297D01*
X157649785Y-96402818D01*
X157661918Y-96390685D01*
X157713490Y-96339114D01*
X157772799Y-96236387D01*
X157776573Y-96222299D01*
X157784705Y-96191956D01*
X157799425Y-96137016D01*
X157803500Y-96121809D01*
X157803500Y-96003191D01*
X157776359Y-95901900D01*
X157772799Y-95888613D01*
X157772798Y-95888611D01*
X157772798Y-95888610D01*
X157713494Y-95785892D01*
X157713488Y-95785884D01*
X157629615Y-95702011D01*
X157629610Y-95702007D01*
X157526890Y-95642702D01*
X157526883Y-95642699D01*
X157496184Y-95634473D01*
X157496184Y-95634472D01*
X157412312Y-95612000D01*
X157412309Y-95612000D01*
X157293691Y-95612000D01*
X157293689Y-95612000D01*
X157262807Y-95620275D01*
X157230715Y-95624500D01*
X153786733Y-95624500D01*
X153736646Y-95613934D01*
X153734947Y-95613184D01*
X153674802Y-95586627D01*
X153659821Y-95580012D01*
X153633860Y-95577000D01*
X153419307Y-95577000D01*
X153352268Y-95557315D01*
X153306513Y-95504511D01*
X153296569Y-95435353D01*
X153325594Y-95371797D01*
X153331616Y-95365329D01*
X153995276Y-94701669D01*
X154066465Y-94595127D01*
X154115501Y-94476744D01*
X154117171Y-94468345D01*
X154117172Y-94468345D01*
X154117172Y-94468342D01*
X154140500Y-94351069D01*
X154140500Y-93041861D01*
X154147577Y-93017758D01*
X154150611Y-92992817D01*
X154158175Y-92981664D01*
X154160185Y-92974822D01*
X154169042Y-92962718D01*
X154172733Y-92958265D01*
X154189464Y-92941535D01*
X154201338Y-92923763D01*
X154205424Y-92918836D01*
X154229294Y-92902750D01*
X154251387Y-92884285D01*
X154257912Y-92883465D01*
X154263365Y-92879791D01*
X154292142Y-92879164D01*
X154320711Y-92875575D01*
X154326643Y-92878413D01*
X154333218Y-92878270D01*
X154357771Y-92893304D01*
X154383740Y-92905727D01*
X154387497Y-92911505D01*
X154392805Y-92914755D01*
X154402044Y-92933874D01*
X154418812Y-92959657D01*
X154431081Y-92997416D01*
X154431118Y-92997530D01*
X154511198Y-93154696D01*
X154520476Y-93172905D01*
X154636172Y-93332146D01*
X154775354Y-93471328D01*
X154934595Y-93587024D01*
X155017455Y-93629243D01*
X155109970Y-93676382D01*
X155109972Y-93676382D01*
X155109975Y-93676384D01*
X155208660Y-93708449D01*
X155297173Y-93737209D01*
X155491578Y-93768000D01*
X155491583Y-93768000D01*
X155688422Y-93768000D01*
X155882826Y-93737209D01*
X155911276Y-93727965D01*
X156070025Y-93676384D01*
X156245405Y-93587024D01*
X156404646Y-93471328D01*
X156543828Y-93332146D01*
X156659524Y-93172905D01*
X156748884Y-92997525D01*
X156809709Y-92810326D01*
X156814358Y-92780974D01*
X160674500Y-92780974D01*
X160674500Y-94544025D01*
X160689352Y-94637802D01*
X160696563Y-94651954D01*
X160746950Y-94750843D01*
X160746952Y-94750845D01*
X160746954Y-94750848D01*
X160836651Y-94840545D01*
X160836653Y-94840546D01*
X160836657Y-94840550D01*
X160940671Y-94893548D01*
X160949697Y-94898147D01*
X161043475Y-94913000D01*
X161043480Y-94913000D01*
X162806525Y-94913000D01*
X162900302Y-94898147D01*
X162900303Y-94898146D01*
X162900305Y-94898146D01*
X163013343Y-94840550D01*
X163103050Y-94750843D01*
X163160646Y-94637805D01*
X163160646Y-94637803D01*
X163160647Y-94637802D01*
X163175500Y-94544025D01*
X163175500Y-93736420D01*
X163714499Y-93736420D01*
X163743340Y-93881407D01*
X163743343Y-93881417D01*
X163799912Y-94017988D01*
X163799919Y-94018001D01*
X163882048Y-94140915D01*
X163882051Y-94140919D01*
X163986580Y-94245448D01*
X163986584Y-94245451D01*
X164109498Y-94327580D01*
X164109511Y-94327587D01*
X164246082Y-94384156D01*
X164246087Y-94384158D01*
X164246091Y-94384158D01*
X164246092Y-94384159D01*
X164391079Y-94413000D01*
X164391082Y-94413000D01*
X164538920Y-94413000D01*
X164636462Y-94393596D01*
X164683913Y-94384158D01*
X164820495Y-94327584D01*
X164943416Y-94245451D01*
X165047951Y-94140916D01*
X165130084Y-94017995D01*
X165139693Y-93994798D01*
X165151541Y-93966192D01*
X165186658Y-93881413D01*
X165215500Y-93736418D01*
X165215500Y-93588582D01*
X165215500Y-93588579D01*
X165186659Y-93443592D01*
X165186658Y-93443591D01*
X165186658Y-93443587D01*
X165140499Y-93332148D01*
X165130087Y-93307011D01*
X165130080Y-93306998D01*
X165047951Y-93184084D01*
X165047948Y-93184080D01*
X164943419Y-93079551D01*
X164943415Y-93079548D01*
X164820501Y-92997419D01*
X164820488Y-92997412D01*
X164683917Y-92940843D01*
X164683907Y-92940840D01*
X164538920Y-92912000D01*
X164538918Y-92912000D01*
X164391082Y-92912000D01*
X164391080Y-92912000D01*
X164246092Y-92940840D01*
X164246082Y-92940843D01*
X164109511Y-92997412D01*
X164109498Y-92997419D01*
X163986584Y-93079548D01*
X163986580Y-93079551D01*
X163882051Y-93184080D01*
X163882048Y-93184084D01*
X163799919Y-93306998D01*
X163799912Y-93307011D01*
X163743343Y-93443582D01*
X163743340Y-93443592D01*
X163714500Y-93588579D01*
X163714500Y-93588582D01*
X163714500Y-93736418D01*
X163714500Y-93736420D01*
X163714499Y-93736420D01*
X163175500Y-93736420D01*
X163175500Y-92780974D01*
X163160647Y-92687197D01*
X163158297Y-92682585D01*
X163103050Y-92574157D01*
X163103046Y-92574153D01*
X163103045Y-92574151D01*
X163013348Y-92484454D01*
X163013345Y-92484452D01*
X163013343Y-92484450D01*
X162931991Y-92442999D01*
X162900302Y-92426852D01*
X162806525Y-92412000D01*
X162806520Y-92412000D01*
X161043480Y-92412000D01*
X161043475Y-92412000D01*
X160949697Y-92426852D01*
X160874336Y-92465251D01*
X160836657Y-92484450D01*
X160836656Y-92484451D01*
X160836651Y-92484454D01*
X160746954Y-92574151D01*
X160746951Y-92574156D01*
X160689352Y-92687197D01*
X160674500Y-92780974D01*
X156814358Y-92780974D01*
X156824269Y-92718397D01*
X156840500Y-92615922D01*
X156840500Y-91196420D01*
X163714499Y-91196420D01*
X163743340Y-91341407D01*
X163743343Y-91341417D01*
X163799912Y-91477988D01*
X163799919Y-91478001D01*
X163882048Y-91600915D01*
X163882051Y-91600919D01*
X163986580Y-91705448D01*
X163986584Y-91705451D01*
X164109498Y-91787580D01*
X164109511Y-91787587D01*
X164246082Y-91844156D01*
X164246087Y-91844158D01*
X164246091Y-91844158D01*
X164246092Y-91844159D01*
X164391079Y-91873000D01*
X164391082Y-91873000D01*
X164538920Y-91873000D01*
X164636462Y-91853596D01*
X164683913Y-91844158D01*
X164820495Y-91787584D01*
X164943416Y-91705451D01*
X165047951Y-91600916D01*
X165130084Y-91477995D01*
X165186658Y-91341413D01*
X165207805Y-91235102D01*
X165215500Y-91196420D01*
X165215500Y-91048579D01*
X165186659Y-90903592D01*
X165186658Y-90903591D01*
X165186658Y-90903587D01*
X165166184Y-90854158D01*
X165130087Y-90767011D01*
X165130080Y-90766998D01*
X165047951Y-90644084D01*
X165047948Y-90644080D01*
X164943419Y-90539551D01*
X164943415Y-90539548D01*
X164820501Y-90457419D01*
X164820488Y-90457412D01*
X164683917Y-90400843D01*
X164683907Y-90400840D01*
X164538920Y-90372000D01*
X164538918Y-90372000D01*
X164391082Y-90372000D01*
X164391080Y-90372000D01*
X164246092Y-90400840D01*
X164246082Y-90400843D01*
X164109511Y-90457412D01*
X164109498Y-90457419D01*
X163986584Y-90539548D01*
X163986580Y-90539551D01*
X163882051Y-90644080D01*
X163882048Y-90644084D01*
X163799919Y-90766998D01*
X163799912Y-90767011D01*
X163743343Y-90903582D01*
X163743340Y-90903592D01*
X163714500Y-91048579D01*
X163714500Y-91048582D01*
X163714500Y-91196418D01*
X163714500Y-91196420D01*
X163714499Y-91196420D01*
X156840500Y-91196420D01*
X156840500Y-91119077D01*
X156831442Y-91061888D01*
X156809709Y-90924673D01*
X156758479Y-90767005D01*
X156748884Y-90737475D01*
X156748882Y-90737472D01*
X156748882Y-90737470D01*
X156701297Y-90644080D01*
X156659524Y-90562095D01*
X156543828Y-90402854D01*
X156404646Y-90263672D01*
X156245405Y-90147976D01*
X156233943Y-90142136D01*
X156070029Y-90058617D01*
X155882826Y-89997790D01*
X155688422Y-89967000D01*
X155688417Y-89967000D01*
X155491583Y-89967000D01*
X155491578Y-89967000D01*
X155297173Y-89997790D01*
X155109970Y-90058617D01*
X154934594Y-90147976D01*
X154907966Y-90167323D01*
X154775354Y-90263672D01*
X154775352Y-90263674D01*
X154775351Y-90263674D01*
X154636174Y-90402851D01*
X154636174Y-90402852D01*
X154636172Y-90402854D01*
X154611062Y-90437415D01*
X154520476Y-90562094D01*
X154431115Y-90737474D01*
X154418812Y-90775340D01*
X154379374Y-90833015D01*
X154315015Y-90860212D01*
X154246168Y-90848296D01*
X154197780Y-90805910D01*
X154189464Y-90793465D01*
X154189462Y-90793463D01*
X154189460Y-90793460D01*
X154064038Y-90668038D01*
X154064034Y-90668035D01*
X153916553Y-90569490D01*
X153916540Y-90569483D01*
X153752667Y-90501606D01*
X153752658Y-90501603D01*
X153578694Y-90467000D01*
X153578691Y-90467000D01*
X153401309Y-90467000D01*
X153401306Y-90467000D01*
X153227341Y-90501603D01*
X153227332Y-90501606D01*
X153063459Y-90569483D01*
X153063446Y-90569490D01*
X152915965Y-90668035D01*
X152915961Y-90668038D01*
X152790538Y-90793461D01*
X152790535Y-90793465D01*
X152691990Y-90940946D01*
X152691983Y-90940959D01*
X152624106Y-91104832D01*
X152624104Y-91104840D01*
X152611617Y-91167618D01*
X152579232Y-91229528D01*
X152518516Y-91264103D01*
X152448747Y-91260363D01*
X152392075Y-91219496D01*
X152368383Y-91167618D01*
X152355895Y-91104840D01*
X152355894Y-91104834D01*
X152307091Y-90987011D01*
X152288016Y-90940959D01*
X152288009Y-90940946D01*
X152189464Y-90793465D01*
X152189461Y-90793461D01*
X152064038Y-90668038D01*
X152064034Y-90668035D01*
X151985409Y-90615499D01*
X151946914Y-90574398D01*
X151890500Y-90476686D01*
X151797314Y-90383500D01*
X150421314Y-89007500D01*
X150350293Y-88966496D01*
X150307187Y-88941608D01*
X150243539Y-88924554D01*
X150179892Y-88907500D01*
X147939108Y-88907500D01*
X147811812Y-88941608D01*
X147697686Y-89007500D01*
X147697683Y-89007502D01*
X147604502Y-89100683D01*
X147604500Y-89100686D01*
X147538608Y-89214812D01*
X147524770Y-89266459D01*
X147504500Y-89342108D01*
X147504500Y-89473892D01*
X147517761Y-89523384D01*
X147538608Y-89601187D01*
X147553000Y-89626114D01*
X147604500Y-89715314D01*
X147604502Y-89715316D01*
X147655541Y-89766355D01*
X147689026Y-89827678D01*
X147684042Y-89897370D01*
X147642170Y-89953303D01*
X147576706Y-89977720D01*
X147548463Y-89976509D01*
X147488424Y-89967000D01*
X147488417Y-89967000D01*
X147291583Y-89967000D01*
X147291578Y-89967000D01*
X147097173Y-89997790D01*
X146909970Y-90058617D01*
X146734594Y-90147976D01*
X146707966Y-90167323D01*
X146575354Y-90263672D01*
X146575352Y-90263674D01*
X146575351Y-90263674D01*
X146436174Y-90402851D01*
X146436174Y-90402852D01*
X146436172Y-90402854D01*
X146411062Y-90437415D01*
X146320476Y-90562094D01*
X146231117Y-90737470D01*
X146170290Y-90924673D01*
X146139500Y-91119077D01*
X146139500Y-92615922D01*
X146170290Y-92810326D01*
X146231117Y-92997529D01*
X146311198Y-93154696D01*
X146320476Y-93172905D01*
X146436172Y-93332146D01*
X146575354Y-93471328D01*
X146734595Y-93587024D01*
X146817455Y-93629243D01*
X146909970Y-93676382D01*
X146909972Y-93676382D01*
X146909975Y-93676384D01*
X147008660Y-93708449D01*
X147097173Y-93737209D01*
X147291578Y-93768000D01*
X147291583Y-93768000D01*
X147488422Y-93768000D01*
X147682826Y-93737209D01*
X147711276Y-93727965D01*
X147870025Y-93676384D01*
X148045405Y-93587024D01*
X148204646Y-93471328D01*
X148343828Y-93332146D01*
X148459524Y-93172905D01*
X148548884Y-92997525D01*
X148609709Y-92810326D01*
X148624269Y-92718397D01*
X148640500Y-92615922D01*
X148640500Y-91119077D01*
X148609709Y-90924673D01*
X148558479Y-90767005D01*
X148548884Y-90737475D01*
X148548882Y-90737472D01*
X148548882Y-90737470D01*
X148501297Y-90644080D01*
X148459524Y-90562095D01*
X148343828Y-90402854D01*
X148204646Y-90263672D01*
X148072034Y-90167323D01*
X148045403Y-90147974D01*
X148035610Y-90142985D01*
X147984814Y-90095011D01*
X147968018Y-90027191D01*
X147990555Y-89961055D01*
X148045269Y-89917603D01*
X148091904Y-89908500D01*
X149855324Y-89908500D01*
X149922363Y-89928185D01*
X149943005Y-89944819D01*
X150719024Y-90720838D01*
X150752509Y-90782161D01*
X150747525Y-90851853D01*
X150734445Y-90877410D01*
X150691990Y-90940947D01*
X150691983Y-90940959D01*
X150624106Y-91104832D01*
X150624103Y-91104841D01*
X150589500Y-91278804D01*
X150589500Y-92456195D01*
X150624103Y-92630158D01*
X150624106Y-92630167D01*
X150691983Y-92794040D01*
X150691990Y-92794053D01*
X150790535Y-92941534D01*
X150790538Y-92941538D01*
X150915961Y-93066961D01*
X150915965Y-93066964D01*
X151063446Y-93165509D01*
X151063459Y-93165516D01*
X151186363Y-93216423D01*
X151227334Y-93233394D01*
X151227336Y-93233394D01*
X151227341Y-93233396D01*
X151401304Y-93267999D01*
X151401307Y-93268000D01*
X151401309Y-93268000D01*
X151578693Y-93268000D01*
X151578694Y-93267999D01*
X151636682Y-93256464D01*
X151752658Y-93233396D01*
X151752661Y-93233394D01*
X151752666Y-93233394D01*
X151916547Y-93165513D01*
X152064035Y-93066964D01*
X152189464Y-92941535D01*
X152288013Y-92794047D01*
X152293426Y-92780980D01*
X152329462Y-92693979D01*
X152355894Y-92630166D01*
X152358728Y-92615922D01*
X152368383Y-92567382D01*
X152400768Y-92505471D01*
X152461483Y-92470897D01*
X152531253Y-92474636D01*
X152587925Y-92515503D01*
X152611617Y-92567382D01*
X152624103Y-92630158D01*
X152624106Y-92630167D01*
X152691983Y-92794040D01*
X152691990Y-92794053D01*
X152790534Y-92941533D01*
X152790535Y-92941534D01*
X152790536Y-92941535D01*
X152803180Y-92954179D01*
X152836665Y-93015499D01*
X152839500Y-93041861D01*
X152839500Y-93966192D01*
X152819815Y-94033231D01*
X152803181Y-94053873D01*
X151631373Y-95225681D01*
X151570050Y-95259166D01*
X151543692Y-95262000D01*
X143520745Y-95262000D01*
X143490289Y-95253057D01*
X143459386Y-95245755D01*
X143456999Y-95243282D01*
X143453706Y-95242315D01*
X143432924Y-95218332D01*
X143410870Y-95195476D01*
X143409325Y-95191096D01*
X143407951Y-95189511D01*
X143399128Y-95162192D01*
X143383520Y-95083728D01*
X143389747Y-95014136D01*
X143418247Y-94971069D01*
X143708460Y-94686041D01*
X143734167Y-94652850D01*
X143755000Y-94575100D01*
X143755000Y-91785100D01*
X143749333Y-91743502D01*
X143708460Y-91674159D01*
X143148460Y-91124159D01*
X143117250Y-91100433D01*
X143039500Y-91079600D01*
X142149500Y-91079600D01*
X142071748Y-91100433D01*
X142014833Y-91157348D01*
X141994000Y-91235100D01*
X141994000Y-92010102D01*
X141998796Y-92048424D01*
X142038150Y-92118644D01*
X142367192Y-92456195D01*
X142475576Y-92567382D01*
X142538793Y-92632233D01*
X142571493Y-92693979D01*
X142574000Y-92718788D01*
X142574000Y-93641410D01*
X142554315Y-93708449D01*
X142538793Y-93727965D01*
X142038153Y-94241552D01*
X142014833Y-94272349D01*
X142014832Y-94272350D01*
X141994000Y-94350100D01*
X141994000Y-95125099D01*
X142007604Y-95175871D01*
X142005941Y-95245721D01*
X141966778Y-95303583D01*
X141902549Y-95331087D01*
X141833647Y-95319500D01*
X141818939Y-95311067D01*
X141758431Y-95270637D01*
X141758424Y-95270633D01*
X141640044Y-95221599D01*
X141640038Y-95221597D01*
X141514371Y-95196600D01*
X141514369Y-95196600D01*
X141386231Y-95196600D01*
X141386229Y-95196600D01*
X141260561Y-95221597D01*
X141260555Y-95221599D01*
X141142175Y-95270633D01*
X141142166Y-95270638D01*
X141035631Y-95341823D01*
X141035627Y-95341826D01*
X140945026Y-95432427D01*
X140945021Y-95432433D01*
X140925101Y-95462246D01*
X140899090Y-95483982D01*
X140873511Y-95506148D01*
X140872372Y-95506311D01*
X140871489Y-95507050D01*
X140837884Y-95511270D01*
X140804353Y-95516092D01*
X140803305Y-95515613D01*
X140802164Y-95515757D01*
X140771609Y-95501138D01*
X140740797Y-95487067D01*
X140740174Y-95486099D01*
X140739136Y-95485602D01*
X140721333Y-95456781D01*
X140703023Y-95428289D01*
X140702807Y-95426788D01*
X140702418Y-95426158D01*
X140698000Y-95393354D01*
X140698000Y-95340379D01*
X140717685Y-95273340D01*
X140734314Y-95252702D01*
X140784167Y-95202850D01*
X140805000Y-95125100D01*
X140805000Y-94350100D01*
X140800203Y-94311774D01*
X140760850Y-94241557D01*
X140760849Y-94241555D01*
X140260207Y-93727965D01*
X140227507Y-93666219D01*
X140225000Y-93641410D01*
X140225000Y-92718788D01*
X140244685Y-92651749D01*
X140260207Y-92632233D01*
X140323424Y-92567382D01*
X140760850Y-92118643D01*
X140784167Y-92087850D01*
X140805000Y-92010100D01*
X140805000Y-91235100D01*
X140784167Y-91157350D01*
X140784166Y-91157349D01*
X140784166Y-91157348D01*
X140727251Y-91100433D01*
X140688375Y-91090016D01*
X140649500Y-91079600D01*
X139759500Y-91079600D01*
X139759495Y-91079600D01*
X139720607Y-91084542D01*
X139650542Y-91124157D01*
X139090536Y-91674162D01*
X139064834Y-91707347D01*
X139064833Y-91707349D01*
X139052551Y-91753186D01*
X139044000Y-91785100D01*
X139044000Y-94575100D01*
X139049667Y-94616698D01*
X139049668Y-94616699D01*
X139055587Y-94626741D01*
X139072670Y-94694490D01*
X139050413Y-94760720D01*
X138995882Y-94804403D01*
X138926392Y-94811670D01*
X138886762Y-94797092D01*
X138857889Y-94780422D01*
X138857890Y-94780422D01*
X138848494Y-94777904D01*
X138743309Y-94749720D01*
X138624691Y-94749720D01*
X138510114Y-94780421D01*
X138510112Y-94780421D01*
X138510112Y-94780422D01*
X138407387Y-94839731D01*
X138407384Y-94839733D01*
X138323513Y-94923604D01*
X138323511Y-94923607D01*
X138271244Y-95014136D01*
X138264201Y-95026334D01*
X138233500Y-95140911D01*
X138233500Y-95140913D01*
X138233500Y-95217910D01*
X138213815Y-95284949D01*
X138161011Y-95330704D01*
X138091853Y-95340648D01*
X138059414Y-95331344D01*
X137987324Y-95299513D01*
X137987321Y-95299512D01*
X137961357Y-95296500D01*
X137473651Y-95296500D01*
X137473627Y-95296502D01*
X137447685Y-95299510D01*
X137447675Y-95299513D01*
X137341486Y-95346400D01*
X137259402Y-95428484D01*
X137233433Y-95487297D01*
X137188346Y-95540672D01*
X137121560Y-95561199D01*
X137054278Y-95542360D01*
X137007862Y-95490136D01*
X137006598Y-95487369D01*
X136980599Y-95428486D01*
X136898514Y-95346401D01*
X136885485Y-95340648D01*
X136792321Y-95299512D01*
X136766357Y-95296500D01*
X136278651Y-95296500D01*
X136278627Y-95296502D01*
X136252685Y-95299510D01*
X136252675Y-95299513D01*
X136146486Y-95346400D01*
X136064402Y-95428484D01*
X136064401Y-95428485D01*
X136064401Y-95428486D01*
X136054641Y-95450588D01*
X136042645Y-95464790D01*
X136034922Y-95481703D01*
X136020567Y-95490927D01*
X136009558Y-95503962D01*
X135991786Y-95509424D01*
X135976144Y-95519477D01*
X135944084Y-95524086D01*
X135942772Y-95524490D01*
X135941209Y-95524500D01*
X135901313Y-95524500D01*
X135834274Y-95504815D01*
X135799012Y-95470575D01*
X135793814Y-95462987D01*
X135793813Y-95462984D01*
X135717016Y-95386187D01*
X135717014Y-95386186D01*
X135617663Y-95342318D01*
X135593373Y-95339500D01*
X135226634Y-95339500D01*
X135226611Y-95339502D01*
X135202340Y-95342317D01*
X135202337Y-95342318D01*
X135102984Y-95386186D01*
X135026187Y-95462983D01*
X134982318Y-95562335D01*
X134982318Y-95562337D01*
X134979500Y-95586625D01*
X134979500Y-96013365D01*
X134979502Y-96013388D01*
X134982317Y-96037659D01*
X134982318Y-96037662D01*
X135026186Y-96137015D01*
X135102983Y-96213812D01*
X135102986Y-96213814D01*
X135108656Y-96216318D01*
X135162032Y-96261405D01*
X135182558Y-96328191D01*
X135163719Y-96395473D01*
X135111494Y-96441888D01*
X135108655Y-96443185D01*
X135003985Y-96489401D01*
X134921902Y-96571484D01*
X134921901Y-96571485D01*
X134921901Y-96571486D01*
X134919694Y-96576485D01*
X134895933Y-96630297D01*
X134850846Y-96683672D01*
X134784060Y-96704199D01*
X134716778Y-96685360D01*
X134670362Y-96633136D01*
X134669098Y-96630369D01*
X134643099Y-96571486D01*
X134561014Y-96489401D01*
X134540737Y-96480448D01*
X134454821Y-96442512D01*
X134428857Y-96439500D01*
X133941151Y-96439500D01*
X133941127Y-96439502D01*
X133915185Y-96442510D01*
X133915175Y-96442513D01*
X133808986Y-96489400D01*
X133808985Y-96489401D01*
X133735206Y-96563181D01*
X133673883Y-96596666D01*
X133647525Y-96599500D01*
X131607964Y-96599500D01*
X131540925Y-96579815D01*
X131520283Y-96563181D01*
X131506615Y-96549513D01*
X131506613Y-96549511D01*
X131403886Y-96490201D01*
X131289309Y-96459500D01*
X131170691Y-96459500D01*
X131056114Y-96490201D01*
X131056112Y-96490201D01*
X131056112Y-96490202D01*
X130953387Y-96549511D01*
X130953384Y-96549513D01*
X130869513Y-96633384D01*
X130869511Y-96633387D01*
X130824398Y-96711525D01*
X130810201Y-96736114D01*
X130779500Y-96850691D01*
X130779500Y-96969309D01*
X130810201Y-97083886D01*
X130869511Y-97186613D01*
X130953387Y-97270489D01*
X131056114Y-97329799D01*
X131170691Y-97360500D01*
X131170694Y-97360500D01*
X131289306Y-97360500D01*
X131289309Y-97360500D01*
X131403886Y-97329799D01*
X131506613Y-97270489D01*
X131540283Y-97236819D01*
X131601606Y-97203334D01*
X131627964Y-97200500D01*
X132294259Y-97200500D01*
X132361298Y-97220185D01*
X132407053Y-97272989D01*
X132416997Y-97342147D01*
X132414034Y-97356593D01*
X132400274Y-97407947D01*
X132391500Y-97440691D01*
X132391500Y-97559309D01*
X132421026Y-97669500D01*
X132422202Y-97673889D01*
X132468166Y-97753500D01*
X132484639Y-97821400D01*
X132461787Y-97887427D01*
X132406866Y-97930617D01*
X132360779Y-97939500D01*
X125736920Y-97939500D01*
X125669881Y-97919815D01*
X125633818Y-97884391D01*
X125532139Y-97732218D01*
X125532136Y-97732214D01*
X125392785Y-97592863D01*
X125392781Y-97592860D01*
X125228920Y-97483371D01*
X125228907Y-97483364D01*
X125046839Y-97407950D01*
X125046829Y-97407947D01*
X124853543Y-97369500D01*
X124853541Y-97369500D01*
X124656459Y-97369500D01*
X124656457Y-97369500D01*
X124463170Y-97407947D01*
X124463160Y-97407950D01*
X124281092Y-97483364D01*
X124281079Y-97483371D01*
X124134816Y-97581102D01*
X124068138Y-97601980D01*
X124065925Y-97602000D01*
X120130833Y-97602000D01*
X120063794Y-97582315D01*
X120036551Y-97558541D01*
X120033831Y-97555357D01*
X119894648Y-97416174D01*
X119894646Y-97416172D01*
X119741380Y-97304817D01*
X119698716Y-97249488D01*
X119692737Y-97179874D01*
X119725343Y-97118079D01*
X119786182Y-97083722D01*
X119814267Y-97080500D01*
X119961525Y-97080500D01*
X120055302Y-97065647D01*
X120055303Y-97065646D01*
X120055305Y-97065646D01*
X120168343Y-97008050D01*
X120258050Y-96918343D01*
X120315646Y-96805305D01*
X120315646Y-96805303D01*
X120315647Y-96805302D01*
X120330500Y-96711525D01*
X120330500Y-96495000D01*
X120350185Y-96427961D01*
X120402989Y-96382206D01*
X120454500Y-96371000D01*
X123630500Y-96371000D01*
X123697539Y-96390685D01*
X123743294Y-96443489D01*
X123754500Y-96495000D01*
X123754500Y-96694820D01*
X123754500Y-96694822D01*
X123754499Y-96694822D01*
X123763231Y-96738717D01*
X123763234Y-96738724D01*
X123775723Y-96757415D01*
X123796496Y-96788504D01*
X123846278Y-96821767D01*
X123846281Y-96821767D01*
X123846282Y-96821768D01*
X123890177Y-96830500D01*
X123890180Y-96830500D01*
X125619822Y-96830500D01*
X125663717Y-96821768D01*
X125663717Y-96821767D01*
X125663722Y-96821767D01*
X125713504Y-96788504D01*
X125746767Y-96738722D01*
X125752750Y-96708644D01*
X125755500Y-96694822D01*
X125755500Y-94965177D01*
X125746768Y-94921282D01*
X125746767Y-94921281D01*
X125746767Y-94921278D01*
X125713504Y-94871496D01*
X125705960Y-94866455D01*
X125663724Y-94838234D01*
X125663717Y-94838231D01*
X125619822Y-94829500D01*
X125619820Y-94829500D01*
X123890180Y-94829500D01*
X123890178Y-94829500D01*
X123846282Y-94838231D01*
X123846275Y-94838234D01*
X123796496Y-94871495D01*
X123796495Y-94871496D01*
X123763234Y-94921275D01*
X123763231Y-94921282D01*
X123756685Y-94954192D01*
X123724300Y-95016103D01*
X123663583Y-95050677D01*
X123635068Y-95054000D01*
X120453119Y-95054000D01*
X120386080Y-95034315D01*
X120340325Y-94981511D01*
X120330646Y-94949398D01*
X120315647Y-94854697D01*
X120308021Y-94839731D01*
X120258050Y-94741657D01*
X120258046Y-94741653D01*
X120258045Y-94741651D01*
X120168348Y-94651954D01*
X120168345Y-94651952D01*
X120168343Y-94651950D01*
X120091518Y-94612805D01*
X120055302Y-94594352D01*
X119961525Y-94579500D01*
X119961520Y-94579500D01*
X119955000Y-94579500D01*
X119887961Y-94559815D01*
X119842206Y-94507011D01*
X119831000Y-94455500D01*
X119831000Y-92529122D01*
X119850685Y-92462083D01*
X119867319Y-92441441D01*
X120053941Y-92254819D01*
X120115264Y-92221334D01*
X120141622Y-92218500D01*
X121573001Y-92218500D01*
X121640040Y-92238185D01*
X121685795Y-92290989D01*
X121697001Y-92342500D01*
X121697001Y-92429856D01*
X121697002Y-92429882D01*
X121699913Y-92454987D01*
X121699915Y-92454991D01*
X121745293Y-92557764D01*
X121745294Y-92557765D01*
X121824735Y-92637206D01*
X121927509Y-92682585D01*
X121952635Y-92685500D01*
X122342364Y-92685499D01*
X122342379Y-92685497D01*
X122342382Y-92685497D01*
X122367487Y-92682586D01*
X122367488Y-92682585D01*
X122367491Y-92682585D01*
X122470265Y-92637206D01*
X122549706Y-92557765D01*
X122595085Y-92454991D01*
X122598000Y-92429865D01*
X122597999Y-90690136D01*
X122597997Y-90690117D01*
X122595086Y-90665012D01*
X122595085Y-90665010D01*
X122595085Y-90665009D01*
X122549706Y-90562235D01*
X122470265Y-90482794D01*
X122470263Y-90482793D01*
X122367492Y-90437415D01*
X122342365Y-90434500D01*
X121952643Y-90434500D01*
X121952617Y-90434502D01*
X121927512Y-90437413D01*
X121927508Y-90437415D01*
X121824735Y-90482793D01*
X121745294Y-90562234D01*
X121699915Y-90665006D01*
X121699915Y-90665008D01*
X121697000Y-90690131D01*
X121697000Y-90777500D01*
X121677315Y-90844539D01*
X121624511Y-90890294D01*
X121573000Y-90901500D01*
X119752639Y-90901500D01*
X119731533Y-90905698D01*
X119731532Y-90905697D01*
X119625430Y-90926803D01*
X119625422Y-90926805D01*
X119505586Y-90976443D01*
X119505576Y-90976448D01*
X119397731Y-91048508D01*
X119397727Y-91048511D01*
X118661008Y-91785230D01*
X118606162Y-91867315D01*
X118588950Y-91893074D01*
X118588943Y-91893086D01*
X118539306Y-92012922D01*
X118539304Y-92012928D01*
X118514000Y-92140140D01*
X118514000Y-94455500D01*
X118494315Y-94522539D01*
X118441511Y-94568294D01*
X118390000Y-94579500D01*
X118198475Y-94579500D01*
X118104697Y-94594352D01*
X118041132Y-94626741D01*
X117991657Y-94651950D01*
X117991656Y-94651951D01*
X117991651Y-94651954D01*
X117901954Y-94741651D01*
X117901951Y-94741656D01*
X117901950Y-94741657D01*
X117897267Y-94750848D01*
X117844352Y-94854697D01*
X117829500Y-94948474D01*
X109595500Y-94948474D01*
X109595500Y-88903475D01*
X118847000Y-88903475D01*
X118847000Y-89641517D01*
X118857792Y-89709657D01*
X118861854Y-89735304D01*
X118919450Y-89848342D01*
X118919452Y-89848344D01*
X118919454Y-89848347D01*
X119009152Y-89938045D01*
X119009154Y-89938046D01*
X119009158Y-89938050D01*
X119122194Y-89995645D01*
X119122198Y-89995647D01*
X119215975Y-90010499D01*
X119215981Y-90010500D01*
X120229018Y-90010499D01*
X120322804Y-89995646D01*
X120435842Y-89938050D01*
X120525550Y-89848342D01*
X120554918Y-89790703D01*
X120602892Y-89739909D01*
X120665402Y-89723000D01*
X122652035Y-89723000D01*
X122719074Y-89742685D01*
X122739716Y-89759319D01*
X122930681Y-89950284D01*
X122964166Y-90011607D01*
X122967000Y-90037965D01*
X122967000Y-92429856D01*
X122967002Y-92429882D01*
X122969913Y-92454987D01*
X122969915Y-92454991D01*
X123015293Y-92557764D01*
X123015294Y-92557765D01*
X123094735Y-92637206D01*
X123197509Y-92682585D01*
X123222635Y-92685500D01*
X123612364Y-92685499D01*
X123612379Y-92685497D01*
X123612382Y-92685497D01*
X123637487Y-92682586D01*
X123637488Y-92682585D01*
X123637491Y-92682585D01*
X123740265Y-92637206D01*
X123819706Y-92557765D01*
X123865085Y-92454991D01*
X123868000Y-92429865D01*
X123868000Y-91571806D01*
X123868000Y-90690135D01*
X124237000Y-90690135D01*
X124237000Y-91500689D01*
X124237000Y-91500691D01*
X124237000Y-92964309D01*
X124257726Y-93041658D01*
X124257725Y-93041658D01*
X124257726Y-93041660D01*
X124267699Y-93078883D01*
X124267700Y-93078885D01*
X124267701Y-93078887D01*
X124327011Y-93181614D01*
X125080886Y-93935489D01*
X125183613Y-93994799D01*
X125207821Y-94001284D01*
X125207824Y-94001286D01*
X125207825Y-94001286D01*
X125237947Y-94009357D01*
X125298191Y-94025500D01*
X126810501Y-94025500D01*
X126877540Y-94045185D01*
X126923295Y-94097989D01*
X126934501Y-94149500D01*
X126934501Y-94261518D01*
X126949354Y-94355304D01*
X127006950Y-94468342D01*
X127006952Y-94468344D01*
X127006954Y-94468347D01*
X127096652Y-94558045D01*
X127096654Y-94558046D01*
X127096658Y-94558050D01*
X127209694Y-94615645D01*
X127209698Y-94615647D01*
X127303475Y-94630499D01*
X127303481Y-94630500D01*
X128041518Y-94630499D01*
X128135304Y-94615646D01*
X128248342Y-94558050D01*
X128338050Y-94468342D01*
X128395646Y-94355304D01*
X128395646Y-94355302D01*
X128395647Y-94355301D01*
X128406282Y-94288147D01*
X128410500Y-94261519D01*
X128410499Y-93248482D01*
X128395646Y-93154696D01*
X128338050Y-93041658D01*
X128338046Y-93041654D01*
X128338045Y-93041652D01*
X128248347Y-92951954D01*
X128248344Y-92951952D01*
X128248342Y-92951950D01*
X128157625Y-92905727D01*
X128135301Y-92894352D01*
X128041524Y-92879500D01*
X127303482Y-92879500D01*
X127222519Y-92892323D01*
X127209696Y-92894354D01*
X127096658Y-92951950D01*
X127096657Y-92951951D01*
X127096652Y-92951954D01*
X127006954Y-93041652D01*
X127006951Y-93041656D01*
X127006950Y-93041658D01*
X126999236Y-93056796D01*
X126951263Y-93107591D01*
X126888753Y-93124500D01*
X125595465Y-93124500D01*
X125528426Y-93104815D01*
X125507784Y-93088181D01*
X125174319Y-92754716D01*
X125140834Y-92693393D01*
X125138000Y-92667035D01*
X125138000Y-91494104D01*
X125457000Y-91494104D01*
X125457000Y-91494108D01*
X125457000Y-91625892D01*
X125488514Y-91743503D01*
X125491108Y-91753185D01*
X125494219Y-91760696D01*
X125492881Y-91761249D01*
X125507000Y-91813937D01*
X125507000Y-92429856D01*
X125507002Y-92429882D01*
X125509913Y-92454987D01*
X125509915Y-92454991D01*
X125555293Y-92557764D01*
X125555294Y-92557765D01*
X125634735Y-92637206D01*
X125737509Y-92682585D01*
X125762635Y-92685500D01*
X126152364Y-92685499D01*
X126152379Y-92685497D01*
X126152382Y-92685497D01*
X126177487Y-92682586D01*
X126177488Y-92682585D01*
X126177491Y-92682585D01*
X126280265Y-92637206D01*
X126359706Y-92557765D01*
X126405085Y-92454991D01*
X126408000Y-92429865D01*
X126408000Y-92184500D01*
X126427685Y-92117461D01*
X126480489Y-92071706D01*
X126532000Y-92060500D01*
X126881453Y-92060500D01*
X126948492Y-92080185D01*
X126994247Y-92132989D01*
X127003927Y-92165107D01*
X127004353Y-92167801D01*
X127004353Y-92167802D01*
X127004354Y-92167804D01*
X127061950Y-92280842D01*
X127061952Y-92280844D01*
X127061954Y-92280847D01*
X127151652Y-92370545D01*
X127151654Y-92370546D01*
X127151658Y-92370550D01*
X127262156Y-92426852D01*
X127264698Y-92428147D01*
X127358475Y-92442999D01*
X127358481Y-92443000D01*
X128096518Y-92442999D01*
X128190304Y-92428146D01*
X128303342Y-92370550D01*
X128393050Y-92280842D01*
X128450646Y-92167804D01*
X128450646Y-92167802D01*
X128450647Y-92167801D01*
X128463309Y-92087850D01*
X128465500Y-92074019D01*
X128465499Y-91060982D01*
X128450646Y-90967196D01*
X128393050Y-90854158D01*
X128393046Y-90854154D01*
X128393045Y-90854152D01*
X128303347Y-90764454D01*
X128303344Y-90764452D01*
X128303342Y-90764450D01*
X128217749Y-90720838D01*
X128190301Y-90706852D01*
X128096524Y-90692000D01*
X127358482Y-90692000D01*
X127277519Y-90704823D01*
X127264696Y-90706854D01*
X127151658Y-90764450D01*
X127151657Y-90764451D01*
X127151652Y-90764454D01*
X127061954Y-90854152D01*
X127061951Y-90854157D01*
X127061950Y-90854158D01*
X127004354Y-90967196D01*
X127004351Y-90967202D01*
X127002200Y-90973823D01*
X126962760Y-91031497D01*
X126898400Y-91058692D01*
X126884271Y-91059500D01*
X126594500Y-91059500D01*
X126527461Y-91039815D01*
X126481706Y-90987011D01*
X126470500Y-90935500D01*
X126470500Y-89811610D01*
X126470500Y-89811608D01*
X126436392Y-89684314D01*
X126370500Y-89570186D01*
X126277314Y-89477000D01*
X126220250Y-89444054D01*
X126163187Y-89411108D01*
X126099539Y-89394054D01*
X126035892Y-89377000D01*
X125904108Y-89377000D01*
X125776812Y-89411108D01*
X125662686Y-89477000D01*
X125662683Y-89477002D01*
X125569502Y-89570183D01*
X125569500Y-89570186D01*
X125503608Y-89684312D01*
X125469500Y-89811608D01*
X125469500Y-91431132D01*
X125465275Y-91463223D01*
X125457000Y-91494104D01*
X125138000Y-91494104D01*
X125138000Y-91486258D01*
X125137999Y-91486248D01*
X125137999Y-90690143D01*
X125137999Y-90690136D01*
X125137997Y-90690117D01*
X125135086Y-90665012D01*
X125135085Y-90665010D01*
X125135085Y-90665009D01*
X125089706Y-90562235D01*
X125010265Y-90482794D01*
X125010263Y-90482793D01*
X124907492Y-90437415D01*
X124882365Y-90434500D01*
X124492643Y-90434500D01*
X124492617Y-90434502D01*
X124467512Y-90437413D01*
X124467508Y-90437415D01*
X124364735Y-90482793D01*
X124285294Y-90562234D01*
X124239915Y-90665006D01*
X124239915Y-90665008D01*
X124239564Y-90668038D01*
X124237000Y-90690135D01*
X123868000Y-90690135D01*
X123868000Y-89740691D01*
X123837299Y-89626114D01*
X123837299Y-89626113D01*
X123837299Y-89626112D01*
X123777992Y-89523389D01*
X123777988Y-89523384D01*
X123567577Y-89312973D01*
X123485983Y-89231379D01*
X128639500Y-89231379D01*
X128639500Y-89418620D01*
X128676025Y-89602243D01*
X128676027Y-89602251D01*
X128747676Y-89775228D01*
X128747681Y-89775237D01*
X128851697Y-89930907D01*
X128851700Y-89930911D01*
X128984088Y-90063299D01*
X128984092Y-90063302D01*
X129139762Y-90167318D01*
X129139768Y-90167321D01*
X129139769Y-90167322D01*
X129312749Y-90238973D01*
X129496379Y-90275499D01*
X129496383Y-90275500D01*
X129496384Y-90275500D01*
X129683617Y-90275500D01*
X129683618Y-90275499D01*
X129867251Y-90238973D01*
X130040231Y-90167322D01*
X130195908Y-90063302D01*
X130328302Y-89930908D01*
X130432322Y-89775231D01*
X130503973Y-89602251D01*
X130531564Y-89463543D01*
X131619499Y-89463543D01*
X131657947Y-89656829D01*
X131657950Y-89656839D01*
X131733364Y-89838907D01*
X131733371Y-89838920D01*
X131842860Y-90002781D01*
X131842863Y-90002785D01*
X131982214Y-90142136D01*
X131982218Y-90142139D01*
X132146079Y-90251628D01*
X132146092Y-90251635D01*
X132328160Y-90327049D01*
X132328165Y-90327051D01*
X132328169Y-90327051D01*
X132328170Y-90327052D01*
X132521456Y-90365500D01*
X132521459Y-90365500D01*
X132718543Y-90365500D01*
X132848582Y-90339632D01*
X132911835Y-90327051D01*
X133093914Y-90251632D01*
X133257782Y-90142139D01*
X133397139Y-90002782D01*
X133506632Y-89838914D01*
X133582051Y-89656835D01*
X133599287Y-89570183D01*
X133620500Y-89463543D01*
X133620500Y-89266456D01*
X133582052Y-89073170D01*
X133582051Y-89073169D01*
X133582051Y-89073165D01*
X133571526Y-89047756D01*
X133506635Y-88891092D01*
X133506628Y-88891079D01*
X133397139Y-88727218D01*
X133397136Y-88727214D01*
X133257785Y-88587863D01*
X133257781Y-88587860D01*
X133093920Y-88478371D01*
X133093907Y-88478364D01*
X132911839Y-88402950D01*
X132911829Y-88402947D01*
X132718543Y-88364500D01*
X132718541Y-88364500D01*
X132521459Y-88364500D01*
X132521457Y-88364500D01*
X132328170Y-88402947D01*
X132328160Y-88402950D01*
X132146092Y-88478364D01*
X132146079Y-88478371D01*
X131982218Y-88587860D01*
X131982214Y-88587863D01*
X131842863Y-88727214D01*
X131842860Y-88727218D01*
X131733371Y-88891079D01*
X131733364Y-88891092D01*
X131657950Y-89073160D01*
X131657947Y-89073170D01*
X131619500Y-89266456D01*
X131619500Y-89266459D01*
X131619500Y-89463541D01*
X131619500Y-89463543D01*
X131619499Y-89463543D01*
X130531564Y-89463543D01*
X130540500Y-89418616D01*
X130540500Y-89231384D01*
X130503973Y-89047749D01*
X130444215Y-88903481D01*
X130432323Y-88874771D01*
X130432318Y-88874762D01*
X130328302Y-88719092D01*
X130328299Y-88719088D01*
X130195911Y-88586700D01*
X130195907Y-88586697D01*
X130040237Y-88482681D01*
X130040228Y-88482676D01*
X129867251Y-88411027D01*
X129867243Y-88411025D01*
X129683620Y-88374500D01*
X129683616Y-88374500D01*
X129496384Y-88374500D01*
X129496379Y-88374500D01*
X129312756Y-88411025D01*
X129312748Y-88411027D01*
X129139771Y-88482676D01*
X129139762Y-88482681D01*
X128984092Y-88586697D01*
X128984088Y-88586700D01*
X128851700Y-88719088D01*
X128851697Y-88719092D01*
X128747681Y-88874762D01*
X128747676Y-88874771D01*
X128676027Y-89047748D01*
X128676025Y-89047756D01*
X128639500Y-89231379D01*
X123485983Y-89231379D01*
X123166616Y-88912013D01*
X123166614Y-88912011D01*
X123063887Y-88852701D01*
X123033205Y-88844480D01*
X123033202Y-88844479D01*
X122997744Y-88834978D01*
X122949309Y-88822000D01*
X122949308Y-88822000D01*
X120665402Y-88822000D01*
X120598363Y-88802315D01*
X120554918Y-88754296D01*
X120525550Y-88696658D01*
X120525546Y-88696654D01*
X120525545Y-88696652D01*
X120435847Y-88606954D01*
X120435844Y-88606952D01*
X120435842Y-88606950D01*
X120359017Y-88567805D01*
X120322801Y-88549352D01*
X120229024Y-88534500D01*
X119215982Y-88534500D01*
X119135019Y-88547323D01*
X119122196Y-88549354D01*
X119009158Y-88606950D01*
X119009157Y-88606951D01*
X119009152Y-88606954D01*
X118919454Y-88696652D01*
X118919451Y-88696657D01*
X118861852Y-88809698D01*
X118847000Y-88903475D01*
X109595500Y-88903475D01*
X109595500Y-88178475D01*
X134749500Y-88178475D01*
X134749500Y-88891517D01*
X134757434Y-88941608D01*
X134764354Y-88985304D01*
X134821950Y-89098342D01*
X134821952Y-89098344D01*
X134821954Y-89098347D01*
X134911652Y-89188045D01*
X134911654Y-89188046D01*
X134911658Y-89188050D01*
X135024694Y-89245645D01*
X135024698Y-89245647D01*
X135118475Y-89260499D01*
X135118481Y-89260500D01*
X136481518Y-89260499D01*
X136575304Y-89245646D01*
X136688342Y-89188050D01*
X136778050Y-89098342D01*
X136831306Y-88993820D01*
X136879279Y-88943025D01*
X136879578Y-88942851D01*
X136937359Y-88909493D01*
X137301104Y-88545746D01*
X137339172Y-88519787D01*
X137347700Y-88516063D01*
X137352836Y-88514688D01*
X137358986Y-88511137D01*
X137365355Y-88508357D01*
X137386138Y-88505724D01*
X137414965Y-88498000D01*
X138005501Y-88498000D01*
X138072540Y-88517685D01*
X138118295Y-88570489D01*
X138129501Y-88622000D01*
X138129501Y-88811518D01*
X138144354Y-88905304D01*
X138201950Y-89018342D01*
X138201952Y-89018344D01*
X138201954Y-89018347D01*
X138291652Y-89108045D01*
X138291654Y-89108046D01*
X138291658Y-89108050D01*
X138404694Y-89165645D01*
X138404698Y-89165647D01*
X138498475Y-89180499D01*
X138498481Y-89180500D01*
X139211518Y-89180499D01*
X139305304Y-89165646D01*
X139418342Y-89108050D01*
X139508050Y-89018342D01*
X139565646Y-88905304D01*
X139565646Y-88905302D01*
X139565647Y-88905301D01*
X139580499Y-88811524D01*
X139580500Y-88811519D01*
X139580499Y-87448482D01*
X139565646Y-87354696D01*
X139508050Y-87241658D01*
X139508046Y-87241654D01*
X139508045Y-87241652D01*
X139418347Y-87151954D01*
X139418344Y-87151952D01*
X139418342Y-87151950D01*
X139336992Y-87110500D01*
X139305301Y-87094352D01*
X139211524Y-87079500D01*
X138498482Y-87079500D01*
X138417519Y-87092323D01*
X138404696Y-87094354D01*
X138291658Y-87151950D01*
X138291657Y-87151951D01*
X138291652Y-87151954D01*
X138201954Y-87241652D01*
X138201951Y-87241657D01*
X138144352Y-87354698D01*
X138128737Y-87453293D01*
X138128331Y-87453228D01*
X138128679Y-87455647D01*
X138115754Y-87483947D01*
X138104676Y-87513016D01*
X138101363Y-87515458D01*
X138099654Y-87519203D01*
X138073479Y-87536024D01*
X138048446Y-87554487D01*
X138043348Y-87555388D01*
X138040876Y-87556977D01*
X138005941Y-87562000D01*
X137799500Y-87562000D01*
X137732461Y-87542315D01*
X137686706Y-87489511D01*
X137675500Y-87438000D01*
X137675500Y-86667015D01*
X137695185Y-86599976D01*
X137696328Y-86598228D01*
X137726465Y-86553127D01*
X137775501Y-86434744D01*
X137800500Y-86309069D01*
X137800500Y-86180931D01*
X137800500Y-86180928D01*
X137775502Y-86055261D01*
X137775501Y-86055260D01*
X137775501Y-86055256D01*
X137726465Y-85936873D01*
X137726464Y-85936872D01*
X137726461Y-85936866D01*
X137655276Y-85830331D01*
X137655273Y-85830327D01*
X137586819Y-85761873D01*
X137572115Y-85734945D01*
X137555523Y-85709127D01*
X137554631Y-85702926D01*
X137553334Y-85700550D01*
X137550500Y-85674192D01*
X137550500Y-85533475D01*
X146827000Y-85533475D01*
X146827000Y-86846517D01*
X146837792Y-86914657D01*
X146841854Y-86940304D01*
X146899450Y-87053342D01*
X146899452Y-87053344D01*
X146899454Y-87053347D01*
X146989152Y-87143045D01*
X146989154Y-87143046D01*
X146989158Y-87143050D01*
X147102098Y-87200596D01*
X147102198Y-87200647D01*
X147195975Y-87215499D01*
X147195981Y-87215500D01*
X147959018Y-87215499D01*
X148052804Y-87200646D01*
X148165842Y-87143050D01*
X148255550Y-87053342D01*
X148313146Y-86940304D01*
X148313146Y-86940302D01*
X148313147Y-86940301D01*
X148327999Y-86846524D01*
X148328000Y-86846519D01*
X148327999Y-85533482D01*
X148313146Y-85439696D01*
X148255550Y-85326658D01*
X148255546Y-85326654D01*
X148255545Y-85326652D01*
X148165847Y-85236954D01*
X148165844Y-85236952D01*
X148165842Y-85236950D01*
X148089017Y-85197805D01*
X148052801Y-85179352D01*
X147959024Y-85164500D01*
X147195982Y-85164500D01*
X147115019Y-85177323D01*
X147102196Y-85179354D01*
X146989158Y-85236950D01*
X146989157Y-85236951D01*
X146989152Y-85236954D01*
X146899454Y-85326652D01*
X146899451Y-85326657D01*
X146841852Y-85439698D01*
X146827000Y-85533475D01*
X137550500Y-85533475D01*
X137550500Y-85318307D01*
X137570185Y-85251268D01*
X137586814Y-85230630D01*
X137655276Y-85162169D01*
X137726465Y-85055627D01*
X137775501Y-84937244D01*
X137783682Y-84896115D01*
X137800500Y-84811571D01*
X137800500Y-84683428D01*
X137775502Y-84557761D01*
X137775501Y-84557760D01*
X137775501Y-84557756D01*
X137737417Y-84465813D01*
X137726466Y-84439375D01*
X137726461Y-84439366D01*
X137655277Y-84332832D01*
X137655276Y-84332831D01*
X137564669Y-84242224D01*
X137564665Y-84242221D01*
X137564507Y-84242063D01*
X137558610Y-84232861D01*
X137552729Y-84228435D01*
X137543319Y-84208999D01*
X137535895Y-84197414D01*
X137533902Y-84192028D01*
X137523207Y-84152113D01*
X137511857Y-84132454D01*
X137508207Y-84122590D01*
X137506882Y-84103377D01*
X137500500Y-84079557D01*
X137500500Y-82994723D01*
X137500499Y-82994721D01*
X137485967Y-82921664D01*
X137485966Y-82921660D01*
X137474999Y-82905247D01*
X137430601Y-82838799D01*
X137347740Y-82783434D01*
X137347739Y-82783433D01*
X137347735Y-82783432D01*
X137274677Y-82768900D01*
X137274674Y-82768900D01*
X137025326Y-82768900D01*
X137025323Y-82768900D01*
X136952264Y-82783432D01*
X136952261Y-82783433D01*
X136893889Y-82822435D01*
X136827211Y-82843311D01*
X136759831Y-82824825D01*
X136756111Y-82822435D01*
X136719024Y-82797655D01*
X136697740Y-82783434D01*
X136697739Y-82783433D01*
X136697738Y-82783433D01*
X136697735Y-82783432D01*
X136624677Y-82768900D01*
X136624674Y-82768900D01*
X136375326Y-82768900D01*
X136375323Y-82768900D01*
X136302264Y-82783432D01*
X136302261Y-82783433D01*
X136243889Y-82822435D01*
X136177211Y-82843311D01*
X136109831Y-82824825D01*
X136106111Y-82822435D01*
X136069024Y-82797655D01*
X136047740Y-82783434D01*
X136047739Y-82783433D01*
X136047738Y-82783433D01*
X136047735Y-82783432D01*
X135974677Y-82768900D01*
X135974674Y-82768900D01*
X135725326Y-82768900D01*
X135725323Y-82768900D01*
X135652264Y-82783432D01*
X135652261Y-82783433D01*
X135593889Y-82822435D01*
X135527211Y-82843311D01*
X135459831Y-82824825D01*
X135456111Y-82822435D01*
X135419024Y-82797655D01*
X135397740Y-82783434D01*
X135397739Y-82783433D01*
X135397738Y-82783433D01*
X135397735Y-82783432D01*
X135324677Y-82768900D01*
X135324674Y-82768900D01*
X135075326Y-82768900D01*
X135075323Y-82768900D01*
X135002264Y-82783432D01*
X135002260Y-82783433D01*
X134919399Y-82838799D01*
X134864033Y-82921660D01*
X134864032Y-82921664D01*
X134849500Y-82994721D01*
X134849500Y-84194078D01*
X134864032Y-84267135D01*
X134864033Y-84267139D01*
X134864034Y-84267140D01*
X134919399Y-84350001D01*
X135002259Y-84405365D01*
X135002260Y-84405366D01*
X135002264Y-84405367D01*
X135075321Y-84419899D01*
X135075324Y-84419900D01*
X135075326Y-84419900D01*
X135324676Y-84419900D01*
X135324677Y-84419899D01*
X135397740Y-84405366D01*
X135456111Y-84366364D01*
X135522787Y-84345487D01*
X135590167Y-84363972D01*
X135593861Y-84366346D01*
X135652260Y-84405366D01*
X135652262Y-84405366D01*
X135652264Y-84405367D01*
X135725321Y-84419899D01*
X135725324Y-84419900D01*
X135725326Y-84419900D01*
X135974676Y-84419900D01*
X135974677Y-84419899D01*
X136047740Y-84405366D01*
X136106111Y-84366364D01*
X136172787Y-84345487D01*
X136213817Y-84351699D01*
X136229848Y-84356983D01*
X136302260Y-84405366D01*
X136375326Y-84419900D01*
X136420735Y-84419900D01*
X136439643Y-84426132D01*
X136452676Y-84435125D01*
X136467865Y-84439585D01*
X136480838Y-84454557D01*
X136497151Y-84465813D01*
X136503253Y-84480425D01*
X136513620Y-84492389D01*
X136516439Y-84512001D01*
X136524076Y-84530286D01*
X136521310Y-84545874D01*
X136523564Y-84561547D01*
X136522443Y-84568092D01*
X136499500Y-84683428D01*
X136499500Y-84683431D01*
X136499500Y-84811569D01*
X136499500Y-84811571D01*
X136499499Y-84811571D01*
X136524497Y-84937238D01*
X136524499Y-84937244D01*
X136573533Y-85055624D01*
X136573538Y-85055633D01*
X136644722Y-85162167D01*
X136644723Y-85162168D01*
X136644724Y-85162169D01*
X136713182Y-85230627D01*
X136746666Y-85291948D01*
X136749500Y-85318307D01*
X136749500Y-85674192D01*
X136729815Y-85741231D01*
X136713181Y-85761873D01*
X136644726Y-85830327D01*
X136644723Y-85830331D01*
X136573538Y-85936866D01*
X136573533Y-85936875D01*
X136524499Y-86055255D01*
X136524497Y-86055261D01*
X136499500Y-86180928D01*
X136499500Y-86180931D01*
X136499500Y-86309069D01*
X136499500Y-86309071D01*
X136499499Y-86309071D01*
X136524497Y-86434738D01*
X136524499Y-86434744D01*
X136573532Y-86553122D01*
X136573534Y-86553125D01*
X136573535Y-86553127D01*
X136603603Y-86598127D01*
X136624480Y-86664801D01*
X136624500Y-86667015D01*
X136624500Y-87686960D01*
X136604815Y-87753999D01*
X136552011Y-87799754D01*
X136486438Y-87809182D01*
X136486383Y-87809882D01*
X136483273Y-87809637D01*
X136482853Y-87809698D01*
X136481559Y-87809502D01*
X136481526Y-87809500D01*
X135118482Y-87809500D01*
X135037519Y-87822323D01*
X135024696Y-87824354D01*
X134911658Y-87881950D01*
X134911657Y-87881951D01*
X134911652Y-87881954D01*
X134821954Y-87971652D01*
X134821951Y-87971657D01*
X134764352Y-88084698D01*
X134749500Y-88178475D01*
X109595500Y-88178475D01*
X109595500Y-83668475D01*
X120677000Y-83668475D01*
X120677000Y-84681517D01*
X120687792Y-84749657D01*
X120691854Y-84775304D01*
X120749450Y-84888342D01*
X120749452Y-84888344D01*
X120749454Y-84888347D01*
X120839152Y-84978045D01*
X120839154Y-84978046D01*
X120839158Y-84978050D01*
X120896796Y-85007418D01*
X120947591Y-85055392D01*
X120964500Y-85117902D01*
X120964500Y-86379309D01*
X120979354Y-86434744D01*
X120995201Y-86493887D01*
X121054511Y-86596614D01*
X121054513Y-86596616D01*
X121206887Y-86748990D01*
X121234163Y-86796233D01*
X121235499Y-86795680D01*
X121238607Y-86803185D01*
X121238608Y-86803186D01*
X121304500Y-86917314D01*
X121397686Y-87010500D01*
X121511814Y-87076392D01*
X121605095Y-87101386D01*
X121664754Y-87137749D01*
X121695284Y-87200596D01*
X121697001Y-87221160D01*
X121697001Y-87479856D01*
X121697002Y-87479882D01*
X121699913Y-87504987D01*
X121699915Y-87504991D01*
X121745293Y-87607764D01*
X121745294Y-87607765D01*
X121824735Y-87687206D01*
X121927509Y-87732585D01*
X121952635Y-87735500D01*
X122342364Y-87735499D01*
X122342379Y-87735497D01*
X122342382Y-87735497D01*
X122367487Y-87732586D01*
X122367488Y-87732585D01*
X122367491Y-87732585D01*
X122470265Y-87687206D01*
X122549706Y-87607765D01*
X122595085Y-87504991D01*
X122598000Y-87479865D01*
X122597999Y-86685223D01*
X122600500Y-86675892D01*
X122600500Y-86544108D01*
X122597999Y-86534775D01*
X122597999Y-85740136D01*
X122597397Y-85734945D01*
X122595086Y-85715012D01*
X122595085Y-85715010D01*
X122595085Y-85715009D01*
X122549706Y-85612235D01*
X122470265Y-85532794D01*
X122429499Y-85514794D01*
X122367492Y-85487415D01*
X122342368Y-85484500D01*
X121989500Y-85484500D01*
X121980814Y-85481949D01*
X121971853Y-85483238D01*
X121947812Y-85472259D01*
X121922461Y-85464815D01*
X121916533Y-85457974D01*
X121908297Y-85454213D01*
X121894007Y-85431978D01*
X121876706Y-85412011D01*
X121874418Y-85401496D01*
X121870523Y-85395435D01*
X121865500Y-85360500D01*
X121865500Y-85117902D01*
X121885185Y-85050863D01*
X121933203Y-85007418D01*
X121990842Y-84978050D01*
X122080550Y-84888342D01*
X122138146Y-84775304D01*
X122138146Y-84775302D01*
X122138147Y-84775301D01*
X122152697Y-84683431D01*
X122153000Y-84681519D01*
X122152999Y-83668482D01*
X122152998Y-83668475D01*
X122752000Y-83668475D01*
X122752000Y-84681517D01*
X122762792Y-84749657D01*
X122766854Y-84775304D01*
X122824450Y-84888342D01*
X122824452Y-84888344D01*
X122824454Y-84888347D01*
X122914152Y-84978045D01*
X122914154Y-84978046D01*
X122914158Y-84978050D01*
X123027194Y-85035645D01*
X123027198Y-85035647D01*
X123120975Y-85050499D01*
X123120981Y-85050500D01*
X123859018Y-85050499D01*
X123952804Y-85035646D01*
X124056707Y-84982704D01*
X124125374Y-84969808D01*
X124190114Y-84996084D01*
X124230372Y-85053190D01*
X124237000Y-85093189D01*
X124237000Y-87479856D01*
X124237002Y-87479882D01*
X124239913Y-87504987D01*
X124239915Y-87504991D01*
X124285293Y-87607764D01*
X124285294Y-87607765D01*
X124364735Y-87687206D01*
X124467509Y-87732585D01*
X124492635Y-87735500D01*
X124882364Y-87735499D01*
X124882379Y-87735497D01*
X124882382Y-87735497D01*
X124907487Y-87732586D01*
X124907488Y-87732585D01*
X124907491Y-87732585D01*
X125010265Y-87687206D01*
X125089706Y-87607765D01*
X125135085Y-87504991D01*
X125138000Y-87479865D01*
X125138000Y-86618207D01*
X125138000Y-85740131D01*
X125507000Y-85740131D01*
X125507000Y-87479856D01*
X125507002Y-87479882D01*
X125509913Y-87504987D01*
X125509915Y-87504991D01*
X125555293Y-87607764D01*
X125555294Y-87607765D01*
X125634735Y-87687206D01*
X125737509Y-87732585D01*
X125762635Y-87735500D01*
X126152364Y-87735499D01*
X126152379Y-87735497D01*
X126152382Y-87735497D01*
X126177487Y-87732586D01*
X126177488Y-87732585D01*
X126177491Y-87732585D01*
X126280265Y-87687206D01*
X126359706Y-87607765D01*
X126405085Y-87504991D01*
X126408000Y-87479865D01*
X126407999Y-85740136D01*
X126407397Y-85734945D01*
X126405086Y-85715012D01*
X126405085Y-85715010D01*
X126405085Y-85715009D01*
X126359706Y-85612235D01*
X126280265Y-85532794D01*
X126239499Y-85514794D01*
X126177492Y-85487415D01*
X126152365Y-85484500D01*
X125762643Y-85484500D01*
X125762617Y-85484502D01*
X125737512Y-85487413D01*
X125737508Y-85487415D01*
X125634735Y-85532793D01*
X125555294Y-85612234D01*
X125509915Y-85715006D01*
X125509915Y-85715008D01*
X125507000Y-85740131D01*
X125138000Y-85740131D01*
X125138000Y-84553191D01*
X125107299Y-84438614D01*
X125055494Y-84348886D01*
X125047989Y-84335886D01*
X125047987Y-84335884D01*
X125047986Y-84335882D01*
X124526616Y-83814513D01*
X124526614Y-83814511D01*
X124475250Y-83784856D01*
X124423888Y-83755201D01*
X124411780Y-83751957D01*
X124399673Y-83748713D01*
X124311444Y-83725072D01*
X124251784Y-83688707D01*
X124244297Y-83673294D01*
X124221255Y-83625860D01*
X124221064Y-83624694D01*
X124213146Y-83574696D01*
X124155550Y-83461658D01*
X124155546Y-83461654D01*
X124155545Y-83461652D01*
X124065847Y-83371954D01*
X124065844Y-83371952D01*
X124065842Y-83371950D01*
X123989017Y-83332805D01*
X123952801Y-83314352D01*
X123859024Y-83299500D01*
X123120982Y-83299500D01*
X123040019Y-83312323D01*
X123027196Y-83314354D01*
X122914158Y-83371950D01*
X122914157Y-83371951D01*
X122914152Y-83371954D01*
X122824454Y-83461652D01*
X122824451Y-83461657D01*
X122766852Y-83574698D01*
X122752000Y-83668475D01*
X122152998Y-83668475D01*
X122138146Y-83574696D01*
X122080550Y-83461658D01*
X122080546Y-83461654D01*
X122080545Y-83461652D01*
X121990847Y-83371954D01*
X121990844Y-83371952D01*
X121990842Y-83371950D01*
X121914017Y-83332805D01*
X121877801Y-83314352D01*
X121784024Y-83299500D01*
X121045982Y-83299500D01*
X120965019Y-83312323D01*
X120952196Y-83314354D01*
X120839158Y-83371950D01*
X120839157Y-83371951D01*
X120839152Y-83371954D01*
X120749454Y-83461652D01*
X120749451Y-83461657D01*
X120691852Y-83574698D01*
X120677000Y-83668475D01*
X109595500Y-83668475D01*
X109595500Y-80044500D01*
X109615185Y-79977461D01*
X109667989Y-79931706D01*
X109719500Y-79920500D01*
X171970500Y-79920500D01*
X172037539Y-79940185D01*
G37*
%TD.AperFunction*%
%TD*%
M02*
