%TF.GenerationSoftware,KiCad,Pcbnew,9.0.0-rc3*%
%TF.CreationDate,2025-02-21T17:02:01-08:00*%
%TF.ProjectId,LTC3556_v2.4,4c544333-3535-4365-9f76-322e342e6b69,rev?*%
%TF.SameCoordinates,Original*%
%TF.FileFunction,Soldermask,Bot*%
%TF.FilePolarity,Negative*%
%FSLAX46Y46*%
G04 Gerber Fmt 4.6, Leading zero omitted, Abs format (unit mm)*
G04 Created by KiCad (PCBNEW 9.0.0-rc3) date 2025-02-21 17:02:01*
%MOMM*%
%LPD*%
G01*
G04 APERTURE LIST*
G04 Aperture macros list*
%AMRoundRect*
0 Rectangle with rounded corners*
0 $1 Rounding radius*
0 $2 $3 $4 $5 $6 $7 $8 $9 X,Y pos of 4 corners*
0 Add a 4 corners polygon primitive as box body*
4,1,4,$2,$3,$4,$5,$6,$7,$8,$9,$2,$3,0*
0 Add four circle primitives for the rounded corners*
1,1,$1+$1,$2,$3*
1,1,$1+$1,$4,$5*
1,1,$1+$1,$6,$7*
1,1,$1+$1,$8,$9*
0 Add four rect primitives between the rounded corners*
20,1,$1+$1,$2,$3,$4,$5,0*
20,1,$1+$1,$4,$5,$6,$7,0*
20,1,$1+$1,$6,$7,$8,$9,0*
20,1,$1+$1,$8,$9,$2,$3,0*%
G04 Aperture macros list end*
%ADD10C,1.100000*%
%ADD11RoundRect,0.249999X-0.850001X0.850001X-0.850001X-0.850001X0.850001X-0.850001X0.850001X0.850001X0*%
%ADD12C,2.200000*%
%ADD13R,1.700000X1.700000*%
%ADD14O,1.700000X1.700000*%
%ADD15C,3.900000*%
%ADD16C,7.000000*%
%ADD17O,0.890000X1.550000*%
%ADD18O,1.250000X0.950000*%
%ADD19C,1.600000*%
%ADD20O,2.200000X3.500000*%
%ADD21R,1.500000X2.500000*%
%ADD22O,1.500000X2.500000*%
%ADD23RoundRect,0.249999X0.850001X-0.850001X0.850001X0.850001X-0.850001X0.850001X-0.850001X-0.850001X0*%
%ADD24RoundRect,0.250000X0.350000X0.625000X-0.350000X0.625000X-0.350000X-0.625000X0.350000X-0.625000X0*%
%ADD25O,1.200000X1.750000*%
G04 APERTURE END LIST*
D10*
%TO.C,J18*%
X116540000Y-111020000D03*
X116540000Y-113560000D03*
D11*
X119080000Y-111020000D03*
D12*
X119080000Y-113560000D03*
%TD*%
D13*
%TO.C,J19*%
X132620000Y-86825000D03*
D14*
X132620000Y-89365000D03*
%TD*%
D15*
%TO.C,H4*%
X168580000Y-119540000D03*
D16*
X168580000Y-119540000D03*
%TD*%
D15*
%TO.C,H1*%
X113320000Y-83647500D03*
D16*
X113320000Y-83647500D03*
%TD*%
D13*
%TO.C,J23*%
X124755000Y-95830000D03*
D14*
X124755000Y-98370000D03*
X124755000Y-100910000D03*
X124755000Y-103450000D03*
%TD*%
D13*
%TO.C,J24*%
X124905000Y-111020000D03*
D14*
X124905000Y-113560000D03*
%TD*%
D13*
%TO.C,J13*%
X155940000Y-114255000D03*
D14*
X155940000Y-111715000D03*
X155940000Y-109175000D03*
%TD*%
D17*
%TO.C,J1*%
X139350000Y-80894400D03*
D18*
X138350000Y-83594400D03*
X133350000Y-83594400D03*
D17*
X132350000Y-80894400D03*
%TD*%
D19*
%TO.C,TH1*%
X129590000Y-86825000D03*
X129590000Y-89325000D03*
%TD*%
D15*
%TO.C,H2*%
X168580000Y-83720000D03*
D16*
X168580000Y-83720000D03*
%TD*%
D13*
%TO.C,J14*%
X124905000Y-118760000D03*
%TD*%
D20*
%TO.C,SW1*%
X147390000Y-91867500D03*
X155590000Y-91867500D03*
D21*
X149490000Y-91867500D03*
D22*
X151490000Y-91867500D03*
X153490000Y-91867500D03*
%TD*%
D10*
%TO.C,J21*%
X164465000Y-93662500D03*
X164465000Y-91122500D03*
D23*
X161925000Y-93662500D03*
D12*
X161925000Y-91122500D03*
%TD*%
D13*
%TO.C,J22*%
X161130000Y-99070000D03*
D14*
X161130000Y-101610000D03*
X161130000Y-104150000D03*
X161130000Y-106690000D03*
X161130000Y-109230000D03*
X161130000Y-111770000D03*
X161130000Y-114310000D03*
%TD*%
D11*
%TO.C,J20*%
X119080000Y-95830000D03*
D12*
X119080000Y-98370000D03*
X119080000Y-100910000D03*
X119080000Y-103450000D03*
%TD*%
D24*
%TO.C,J12*%
X147577500Y-86190000D03*
D25*
X145577500Y-86190000D03*
%TD*%
D15*
%TO.C,H3*%
X113407500Y-119505000D03*
D16*
X113407500Y-119505000D03*
%TD*%
M02*
