M48
; DRILL file {KiCad 9.0.0-rc3} date 2025-02-21T17:01:55-0800
; FORMAT={-:-/ absolute / inch / decimal}
; #@! TF.CreationDate,2025-02-21T17:01:55-08:00
; #@! TF.GenerationSoftware,Kicad,Pcbnew,9.0.0-rc3
; #@! TF.FileFunction,Plated,1,4,PTH
FMAT,2
INCH
; #@! TA.AperFunction,Plated,PTH,ViaDrill
T1C0.0079
; #@! TA.AperFunction,Plated,PTH,ComponentDrill
T2C0.0079
; #@! TA.AperFunction,Plated,PTH,ViaDrill
T3C0.0098
; #@! TA.AperFunction,Plated,PTH,ViaDrill
T4C0.0118
; #@! TA.AperFunction,Plated,PTH,ViaDrill
T5C0.0157
; #@! TA.AperFunction,Plated,PTH,ViaDrill
T6C0.0197
; #@! TA.AperFunction,Plated,PTH,ComponentDrill
T7C0.0197
; #@! TA.AperFunction,Plated,PTH,ComponentDrill
T8C0.0217
; #@! TA.AperFunction,Plated,PTH,ViaDrill
T9C0.0236
; #@! TA.AperFunction,Plated,PTH,ComponentDrill
T10C0.0295
; #@! TA.AperFunction,Plated,PTH,ComponentDrill
T11C0.0315
; #@! TA.AperFunction,Plated,PTH,ComponentDrill
T12C0.0394
; #@! TA.AperFunction,Plated,PTH,ComponentDrill
T13C0.0433
; #@! TA.AperFunction,Plated,PTH,ComponentDrill
T14C0.0591
; #@! TA.AperFunction,Plated,PTH,ComponentDrill
T15C0.1378
%
G90
G05
T1
X5.6038Y-4.0612
X5.6173Y-4.0866
X5.6881Y-3.8942
X5.7441Y-3.8756
T2
X5.5163Y-3.8719
X5.5163Y-3.9132
X5.5163Y-3.9545
X5.5163Y-3.9959
X5.5587Y-3.8719
X5.5587Y-3.9132
X5.5587Y-3.9545
X5.5587Y-3.9959
X5.601Y-3.8719
X5.601Y-3.9132
X5.601Y-3.9545
X5.601Y-3.9959
T3
X5.424Y-3.8906
T4
X4.9594Y-3.5385
X5.1665Y-3.8154
X5.23Y-3.8386
X5.2433Y-4.1972
X5.3575Y-3.7976
X5.3622Y-4.0102
X5.4043Y-4.2606
X5.4146Y-4.1083
X5.4445Y-4.2622
X5.4472Y-4.1114
X5.4487Y-4.0743
X5.46Y-3.748
X5.4617Y-3.84
X5.5184Y-4.5733
X5.519Y-4.0635
X5.5209Y-4.1457
X5.5618Y-4.1457
X5.6704Y-3.8282
X5.6713Y-4.0059
X5.695Y-3.8282
X5.7031Y-3.957
X5.7503Y-4.0639
X5.7623Y-4.2123
X5.782Y-4.3251
X5.7859Y-4.4961
X5.827Y-3.52
X5.8444Y-4.0639
X5.9861Y-3.8643
X6.0246Y-4.2335
X6.0827Y-3.8146
X6.195Y-3.782
X6.2457Y-4.1
X6.2461Y-3.8461
X6.5589Y-4.2
T5
X5.5089Y-4.3514
X5.711Y-4.161
X5.8646Y-4.0245
X6.0648Y-4.104
T6
X5.5689Y-3.7735
X5.6169Y-4.1394
T9
X5.3996Y-3.3365
X5.3996Y-3.3955
T10
X5.7314Y-3.3933
X5.8101Y-3.3933
T11
X5.102Y-3.4183
X5.102Y-3.5167
X5.8854Y-3.6168
X5.9642Y-3.6168
X6.0429Y-3.6168
T12
X4.9116Y-3.7728
X4.9116Y-3.8728
X4.9116Y-3.9728
X4.9116Y-4.0728
X4.9175Y-4.3709
X4.9175Y-4.4709
X4.9175Y-4.6756
X5.2213Y-3.4183
X5.2213Y-3.5183
X6.1394Y-4.2982
X6.1394Y-4.3982
X6.1394Y-4.4982
X6.3437Y-3.9004
X6.3437Y-4.0004
X6.3437Y-4.1004
X6.3437Y-4.2004
X6.3437Y-4.3004
X6.3437Y-4.4004
X6.3437Y-4.5004
T13
X4.6882Y-3.7728
X4.6882Y-3.8728
X4.6882Y-3.9728
X4.6882Y-4.0728
X4.6882Y-4.3709
X4.6882Y-4.4709
X6.375Y-3.5875
X6.375Y-3.6875
T14
X5.8028Y-3.6168
X6.1256Y-3.6168
T15
X4.4614Y-3.2932
X4.4649Y-4.7049
X6.637Y-3.2961
X6.637Y-4.7063
T7
G00X5.2106Y-3.1976
M15
G01X5.2106Y-3.172
M16
G05
G00X5.4862Y-3.1976
M15
G01X5.4862Y-3.172
M16
G05
T8
G00X5.2559Y-3.2911
M15
G01X5.2441Y-3.2911
M16
G05
G00X5.4528Y-3.2911
M15
G01X5.4409Y-3.2911
M16
G05
M30
