%TF.GenerationSoftware,KiCad,Pcbnew,9.0.0-rc3*%
%TF.CreationDate,2025-02-21T17:02:01-08:00*%
%TF.ProjectId,LTC3556_v2.4,4c544333-3535-4365-9f76-322e342e6b69,rev?*%
%TF.SameCoordinates,Original*%
%TF.FileFunction,Copper,L2,Inr*%
%TF.FilePolarity,Positive*%
%FSLAX46Y46*%
G04 Gerber Fmt 4.6, Leading zero omitted, Abs format (unit mm)*
G04 Created by KiCad (PCBNEW 9.0.0-rc3) date 2025-02-21 17:02:01*
%MOMM*%
%LPD*%
G01*
G04 APERTURE LIST*
G04 Aperture macros list*
%AMRoundRect*
0 Rectangle with rounded corners*
0 $1 Rounding radius*
0 $2 $3 $4 $5 $6 $7 $8 $9 X,Y pos of 4 corners*
0 Add a 4 corners polygon primitive as box body*
4,1,4,$2,$3,$4,$5,$6,$7,$8,$9,$2,$3,0*
0 Add four circle primitives for the rounded corners*
1,1,$1+$1,$2,$3*
1,1,$1+$1,$4,$5*
1,1,$1+$1,$6,$7*
1,1,$1+$1,$8,$9*
0 Add four rect primitives between the rounded corners*
20,1,$1+$1,$2,$3,$4,$5,0*
20,1,$1+$1,$4,$5,$6,$7,0*
20,1,$1+$1,$6,$7,$8,$9,0*
20,1,$1+$1,$8,$9,$2,$3,0*%
G04 Aperture macros list end*
%TA.AperFunction,ComponentPad*%
%ADD10RoundRect,0.249999X-0.850001X0.850001X-0.850001X-0.850001X0.850001X-0.850001X0.850001X0.850001X0*%
%TD*%
%TA.AperFunction,ComponentPad*%
%ADD11C,2.200000*%
%TD*%
%TA.AperFunction,ComponentPad*%
%ADD12R,1.700000X1.700000*%
%TD*%
%TA.AperFunction,ComponentPad*%
%ADD13O,1.700000X1.700000*%
%TD*%
%TA.AperFunction,ComponentPad*%
%ADD14C,3.900000*%
%TD*%
%TA.AperFunction,HeatsinkPad*%
%ADD15O,0.890000X1.550000*%
%TD*%
%TA.AperFunction,HeatsinkPad*%
%ADD16O,1.250000X0.950000*%
%TD*%
%TA.AperFunction,ComponentPad*%
%ADD17C,1.600000*%
%TD*%
%TA.AperFunction,HeatsinkPad*%
%ADD18C,0.500000*%
%TD*%
%TA.AperFunction,ComponentPad*%
%ADD19O,2.200000X3.500000*%
%TD*%
%TA.AperFunction,ComponentPad*%
%ADD20R,1.500000X2.500000*%
%TD*%
%TA.AperFunction,ComponentPad*%
%ADD21O,1.500000X2.500000*%
%TD*%
%TA.AperFunction,ComponentPad*%
%ADD22RoundRect,0.249999X0.850001X-0.850001X0.850001X0.850001X-0.850001X0.850001X-0.850001X-0.850001X0*%
%TD*%
%TA.AperFunction,ComponentPad*%
%ADD23RoundRect,0.250000X0.350000X0.625000X-0.350000X0.625000X-0.350000X-0.625000X0.350000X-0.625000X0*%
%TD*%
%TA.AperFunction,ComponentPad*%
%ADD24O,1.200000X1.750000*%
%TD*%
%TA.AperFunction,ViaPad*%
%ADD25C,0.600000*%
%TD*%
%TA.AperFunction,ViaPad*%
%ADD26C,0.500000*%
%TD*%
%TA.AperFunction,ViaPad*%
%ADD27C,1.000000*%
%TD*%
%TA.AperFunction,ViaPad*%
%ADD28C,0.400000*%
%TD*%
%TA.AperFunction,ViaPad*%
%ADD29C,0.800000*%
%TD*%
%TA.AperFunction,ViaPad*%
%ADD30C,0.700000*%
%TD*%
G04 APERTURE END LIST*
D10*
%TO.N,/3V3*%
%TO.C,J18*%
X119080000Y-111020000D03*
D11*
%TO.N,GND*%
X119080000Y-113560000D03*
%TD*%
D12*
%TO.N,GND*%
%TO.C,J19*%
X132620000Y-86825000D03*
D13*
%TO.N,Net-(J19-Pin_2)*%
X132620000Y-89365000D03*
%TD*%
D14*
%TO.N,GND*%
%TO.C,H4*%
X168580000Y-119540000D03*
%TD*%
%TO.N,GND*%
%TO.C,H1*%
X113320000Y-83647500D03*
%TD*%
D12*
%TO.N,/N2V5*%
%TO.C,J23*%
X124755000Y-95830000D03*
D13*
%TO.N,/P2V5*%
X124755000Y-98370000D03*
%TO.N,/3V3*%
X124755000Y-100910000D03*
%TO.N,GND*%
X124755000Y-103450000D03*
%TD*%
D12*
%TO.N,/3V3*%
%TO.C,J24*%
X124905000Y-111020000D03*
D13*
%TO.N,GND*%
X124905000Y-113560000D03*
%TD*%
D12*
%TO.N,/DVCC*%
%TO.C,J13*%
X155940000Y-114255000D03*
D13*
%TO.N,Net-(J13-Pin_2)*%
X155940000Y-111715000D03*
%TO.N,Net-(J13-Pin_3)*%
X155940000Y-109175000D03*
%TD*%
D15*
%TO.N,GND*%
%TO.C,J1*%
X139350000Y-80894400D03*
D16*
X138350000Y-83594400D03*
X133350000Y-83594400D03*
D15*
X132350000Y-80894400D03*
%TD*%
D17*
%TO.N,GND*%
%TO.C,TH1*%
X129590000Y-86825000D03*
%TO.N,Net-(J19-Pin_2)*%
X129590000Y-89325000D03*
%TD*%
D14*
%TO.N,GND*%
%TO.C,H2*%
X168580000Y-83720000D03*
%TD*%
D18*
%TO.N,GND*%
%TO.C,U1*%
X140115000Y-98345000D03*
X140115000Y-99395000D03*
X140115000Y-100445000D03*
X140115000Y-101495000D03*
X141190000Y-98345000D03*
X141190000Y-99395000D03*
X141190000Y-100445000D03*
X141190000Y-101495000D03*
X142265000Y-98345000D03*
X142265000Y-99395000D03*
X142265000Y-100445000D03*
X142265000Y-101495000D03*
%TD*%
D12*
%TO.N,GND*%
%TO.C,J14*%
X124905000Y-118760000D03*
%TD*%
D19*
%TO.N,*%
%TO.C,SW1*%
X147390000Y-91867500D03*
X155590000Y-91867500D03*
D20*
%TO.N,GND*%
X149490000Y-91867500D03*
D21*
%TO.N,/VOUT0*%
X151490000Y-91867500D03*
%TO.N,Net-(J13-Pin_3)*%
X153490000Y-91867500D03*
%TD*%
D22*
%TO.N,/VOUT0*%
%TO.C,J21*%
X161925000Y-93662500D03*
D11*
%TO.N,GND*%
X161925000Y-91122500D03*
%TD*%
D12*
%TO.N,/3V56*%
%TO.C,J22*%
X161130000Y-99070000D03*
D13*
%TO.N,/PGOOD*%
X161130000Y-101610000D03*
%TO.N,/CHRG*%
X161130000Y-104150000D03*
%TO.N,/ENALL*%
X161130000Y-106690000D03*
%TO.N,/SDA*%
X161130000Y-109230000D03*
%TO.N,/SCL*%
X161130000Y-111770000D03*
%TO.N,/DVCC*%
X161130000Y-114310000D03*
%TD*%
D10*
%TO.N,/N2V5*%
%TO.C,J20*%
X119080000Y-95830000D03*
D11*
%TO.N,/P2V5*%
X119080000Y-98370000D03*
%TO.N,/3V3*%
X119080000Y-100910000D03*
%TO.N,GND*%
X119080000Y-103450000D03*
%TD*%
D23*
%TO.N,VBAT*%
%TO.C,J12*%
X147577500Y-86190000D03*
D24*
%TO.N,GND*%
X145577500Y-86190000D03*
%TD*%
D14*
%TO.N,GND*%
%TO.C,H3*%
X113407500Y-119505000D03*
%TD*%
D25*
%TO.N,GND*%
X141270000Y-105300000D03*
X146362500Y-106992500D03*
X140230000Y-105300000D03*
D26*
X136080000Y-96460000D03*
D25*
X138360000Y-104430000D03*
D27*
%TO.N,Net-(J1-VBUS)*%
X137150000Y-84747500D03*
X141450300Y-95847100D03*
X137150000Y-86245000D03*
D25*
X132842000Y-97500000D03*
%TO.N,Net-(U1-FB3)*%
X137530000Y-104350000D03*
X137270000Y-108220000D03*
%TO.N,Net-(U1-VC3)*%
X133180000Y-106610000D03*
X138397499Y-103486002D03*
%TO.N,Net-(U1-FB2)*%
X146057500Y-103222500D03*
X148447500Y-103222500D03*
%TO.N,VBAT*%
X144027500Y-97237500D03*
X144652500Y-97237500D03*
%TO.N,Net-(U1-PROG)*%
X152047500Y-98152500D03*
D28*
X144477500Y-98912500D03*
D25*
%TO.N,Net-(J13-Pin_3)*%
X157353000Y-96062500D03*
%TO.N,Net-(J13-Pin_2)*%
X138726000Y-97536000D03*
X146962500Y-114200000D03*
D26*
%TO.N,Net-(J19-Pin_2)*%
X137770000Y-98820000D03*
D25*
X131230000Y-96910000D03*
%TO.N,/VOUT0*%
X148005000Y-89408000D03*
X125970000Y-89877500D03*
X146862837Y-109857163D03*
D29*
X142670000Y-105140000D03*
D25*
%TO.N,/DVCC*%
X140182389Y-103213652D03*
X140167500Y-116162500D03*
D28*
%TO.N,/3V56*%
X142680000Y-103800000D03*
D29*
X139924989Y-110524989D03*
D25*
X138290000Y-108260000D03*
D29*
X145060000Y-105690000D03*
D25*
X136200000Y-101860000D03*
X144860000Y-100507500D03*
D29*
%TO.N,/3V3*%
X154045000Y-104242500D03*
D30*
X148960000Y-102222500D03*
D25*
%TO.N,/CHRG*%
X154500000Y-96890000D03*
X158650000Y-97690000D03*
D28*
X145900000Y-98440000D03*
D25*
X158640000Y-104140000D03*
D26*
%TO.N,/SDA*%
X144050000Y-101750000D03*
D25*
X153025000Y-107530000D03*
%TO.N,/ENALL*%
X166595000Y-106680000D03*
X138684000Y-95200220D03*
D28*
%TO.N,/SCL*%
X142336195Y-103153313D03*
%TD*%
%TA.AperFunction,Conductor*%
%TO.N,GND*%
G36*
X172037539Y-79940185D02*
G01*
X172083294Y-79992989D01*
X172094500Y-80044500D01*
X172094500Y-123245500D01*
X172074815Y-123312539D01*
X172022011Y-123358294D01*
X171970500Y-123369500D01*
X109719500Y-123369500D01*
X109652461Y-123349815D01*
X109606706Y-123297011D01*
X109595500Y-123245500D01*
X109595500Y-116103191D01*
X139717000Y-116103191D01*
X139717000Y-116221809D01*
X139747701Y-116336386D01*
X139807011Y-116439113D01*
X139890887Y-116522989D01*
X139993614Y-116582299D01*
X140108191Y-116613000D01*
X140108194Y-116613000D01*
X140226806Y-116613000D01*
X140226809Y-116613000D01*
X140341386Y-116582299D01*
X140444113Y-116522989D01*
X140527989Y-116439113D01*
X140587299Y-116336386D01*
X140618000Y-116221809D01*
X140618000Y-116103191D01*
X140587299Y-115988614D01*
X140527989Y-115885887D01*
X140444113Y-115802011D01*
X140341386Y-115742701D01*
X140226809Y-115712000D01*
X140108191Y-115712000D01*
X139993614Y-115742701D01*
X139993612Y-115742701D01*
X139993612Y-115742702D01*
X139890887Y-115802011D01*
X139890884Y-115802013D01*
X139807013Y-115885884D01*
X139807011Y-115885887D01*
X139747701Y-115988614D01*
X139717000Y-116103191D01*
X109595500Y-116103191D01*
X109595500Y-115119822D01*
X154939499Y-115119822D01*
X154948231Y-115163717D01*
X154948234Y-115163724D01*
X154981495Y-115213503D01*
X154981496Y-115213504D01*
X155031278Y-115246767D01*
X155031281Y-115246767D01*
X155031282Y-115246768D01*
X155075177Y-115255500D01*
X155075180Y-115255500D01*
X156804822Y-115255500D01*
X156848717Y-115246768D01*
X156848717Y-115246767D01*
X156848722Y-115246767D01*
X156898504Y-115213504D01*
X156931767Y-115163722D01*
X156940500Y-115119820D01*
X156940500Y-114408543D01*
X160129499Y-114408543D01*
X160167947Y-114601829D01*
X160167950Y-114601839D01*
X160243364Y-114783907D01*
X160243371Y-114783920D01*
X160352860Y-114947781D01*
X160352863Y-114947785D01*
X160492214Y-115087136D01*
X160492218Y-115087139D01*
X160656079Y-115196628D01*
X160656092Y-115196635D01*
X160798207Y-115255500D01*
X160838165Y-115272051D01*
X160838169Y-115272051D01*
X160838170Y-115272052D01*
X161031456Y-115310500D01*
X161031459Y-115310500D01*
X161228543Y-115310500D01*
X161358582Y-115284632D01*
X161421835Y-115272051D01*
X161603914Y-115196632D01*
X161767782Y-115087139D01*
X161907139Y-114947782D01*
X162016632Y-114783914D01*
X162092051Y-114601835D01*
X162116959Y-114476615D01*
X162130500Y-114408543D01*
X162130500Y-114211456D01*
X162092052Y-114018170D01*
X162092051Y-114018169D01*
X162092051Y-114018165D01*
X162049521Y-113915488D01*
X162016635Y-113836092D01*
X162016628Y-113836079D01*
X161907139Y-113672218D01*
X161907136Y-113672214D01*
X161767785Y-113532863D01*
X161767781Y-113532860D01*
X161603920Y-113423371D01*
X161603907Y-113423364D01*
X161421839Y-113347950D01*
X161421829Y-113347947D01*
X161228543Y-113309500D01*
X161228541Y-113309500D01*
X161031459Y-113309500D01*
X161031457Y-113309500D01*
X160838170Y-113347947D01*
X160838160Y-113347950D01*
X160656092Y-113423364D01*
X160656079Y-113423371D01*
X160492218Y-113532860D01*
X160492214Y-113532863D01*
X160352863Y-113672214D01*
X160352860Y-113672218D01*
X160243371Y-113836079D01*
X160243364Y-113836092D01*
X160167950Y-114018160D01*
X160167947Y-114018170D01*
X160129500Y-114211456D01*
X160129500Y-114211459D01*
X160129500Y-114408541D01*
X160129500Y-114408543D01*
X160129499Y-114408543D01*
X156940500Y-114408543D01*
X156940500Y-113390180D01*
X156940500Y-113390177D01*
X156931768Y-113346282D01*
X156931767Y-113346281D01*
X156931767Y-113346278D01*
X156898504Y-113296496D01*
X156898503Y-113296495D01*
X156848724Y-113263234D01*
X156848717Y-113263231D01*
X156804822Y-113254500D01*
X156804820Y-113254500D01*
X155075180Y-113254500D01*
X155075178Y-113254500D01*
X155031282Y-113263231D01*
X155031275Y-113263234D01*
X154981496Y-113296495D01*
X154981495Y-113296496D01*
X154948234Y-113346275D01*
X154948231Y-113346282D01*
X154939500Y-113390177D01*
X154939500Y-113390180D01*
X154939500Y-115119820D01*
X154939500Y-115119822D01*
X154939499Y-115119822D01*
X109595500Y-115119822D01*
X109595500Y-113633920D01*
X115789499Y-113633920D01*
X115818340Y-113778907D01*
X115818343Y-113778917D01*
X115874912Y-113915488D01*
X115874919Y-113915501D01*
X115957048Y-114038415D01*
X115957051Y-114038419D01*
X116061580Y-114142948D01*
X116061584Y-114142951D01*
X116184498Y-114225080D01*
X116184511Y-114225087D01*
X116321082Y-114281656D01*
X116321087Y-114281658D01*
X116321091Y-114281658D01*
X116321092Y-114281659D01*
X116466079Y-114310500D01*
X116466082Y-114310500D01*
X116613920Y-114310500D01*
X116711462Y-114291096D01*
X116758913Y-114281658D01*
X116895495Y-114225084D01*
X117018416Y-114142951D01*
X117020676Y-114140691D01*
X146512000Y-114140691D01*
X146512000Y-114259309D01*
X146542701Y-114373886D01*
X146602011Y-114476613D01*
X146685887Y-114560489D01*
X146788614Y-114619799D01*
X146903191Y-114650500D01*
X146903194Y-114650500D01*
X147021806Y-114650500D01*
X147021809Y-114650500D01*
X147136386Y-114619799D01*
X147239113Y-114560489D01*
X147322989Y-114476613D01*
X147382299Y-114373886D01*
X147413000Y-114259309D01*
X147413000Y-114140691D01*
X147382299Y-114026114D01*
X147322989Y-113923387D01*
X147239113Y-113839511D01*
X147136386Y-113780201D01*
X147021809Y-113749500D01*
X146903191Y-113749500D01*
X146788614Y-113780201D01*
X146788612Y-113780201D01*
X146788612Y-113780202D01*
X146685887Y-113839511D01*
X146685884Y-113839513D01*
X146602013Y-113923384D01*
X146602011Y-113923387D01*
X146547288Y-114018170D01*
X146542701Y-114026114D01*
X146512000Y-114140691D01*
X117020676Y-114140691D01*
X117116485Y-114044883D01*
X117122948Y-114038419D01*
X117122951Y-114038416D01*
X117205084Y-113915495D01*
X117261658Y-113778913D01*
X117271096Y-113731462D01*
X117290500Y-113633920D01*
X117290500Y-113486079D01*
X117275024Y-113408280D01*
X117275024Y-113408279D01*
X117263023Y-113347949D01*
X117261658Y-113341087D01*
X117243188Y-113296496D01*
X117205087Y-113204511D01*
X117205080Y-113204498D01*
X117122951Y-113081584D01*
X117122948Y-113081580D01*
X117018419Y-112977051D01*
X117018415Y-112977048D01*
X116895501Y-112894919D01*
X116895488Y-112894912D01*
X116758917Y-112838343D01*
X116758907Y-112838340D01*
X116613920Y-112809500D01*
X116613918Y-112809500D01*
X116466082Y-112809500D01*
X116466080Y-112809500D01*
X116321092Y-112838340D01*
X116321082Y-112838343D01*
X116184511Y-112894912D01*
X116184498Y-112894919D01*
X116061584Y-112977048D01*
X116061580Y-112977051D01*
X115957051Y-113081580D01*
X115957048Y-113081584D01*
X115874919Y-113204498D01*
X115874912Y-113204511D01*
X115818343Y-113341082D01*
X115818340Y-113341092D01*
X115789500Y-113486079D01*
X115789500Y-113486082D01*
X115789500Y-113633918D01*
X115789500Y-113633920D01*
X115789499Y-113633920D01*
X109595500Y-113633920D01*
X109595500Y-111093920D01*
X115789499Y-111093920D01*
X115818340Y-111238907D01*
X115818343Y-111238917D01*
X115874912Y-111375488D01*
X115874919Y-111375501D01*
X115957048Y-111498415D01*
X115957051Y-111498419D01*
X116061580Y-111602948D01*
X116061584Y-111602951D01*
X116184498Y-111685080D01*
X116184511Y-111685087D01*
X116321082Y-111741656D01*
X116321087Y-111741658D01*
X116321091Y-111741658D01*
X116321092Y-111741659D01*
X116466079Y-111770500D01*
X116466082Y-111770500D01*
X116613920Y-111770500D01*
X116711462Y-111751096D01*
X116758913Y-111741658D01*
X116895495Y-111685084D01*
X117018416Y-111602951D01*
X117122951Y-111498416D01*
X117205084Y-111375495D01*
X117261658Y-111238913D01*
X117271096Y-111191462D01*
X117290500Y-111093920D01*
X117290500Y-110946079D01*
X117261659Y-110801092D01*
X117261658Y-110801091D01*
X117261658Y-110801087D01*
X117225793Y-110714500D01*
X117205087Y-110664511D01*
X117205080Y-110664498D01*
X117122951Y-110541584D01*
X117122948Y-110541580D01*
X117018419Y-110437051D01*
X117018415Y-110437048D01*
X116895501Y-110354919D01*
X116895488Y-110354912D01*
X116758917Y-110298343D01*
X116758907Y-110298340D01*
X116613920Y-110269500D01*
X116613918Y-110269500D01*
X116466082Y-110269500D01*
X116466080Y-110269500D01*
X116321092Y-110298340D01*
X116321082Y-110298343D01*
X116184511Y-110354912D01*
X116184498Y-110354919D01*
X116061584Y-110437048D01*
X116061580Y-110437051D01*
X115957051Y-110541580D01*
X115957048Y-110541584D01*
X115874919Y-110664498D01*
X115874912Y-110664511D01*
X115818343Y-110801082D01*
X115818340Y-110801092D01*
X115789500Y-110946079D01*
X115789500Y-110946082D01*
X115789500Y-111093918D01*
X115789500Y-111093920D01*
X115789499Y-111093920D01*
X109595500Y-111093920D01*
X109595500Y-110138474D01*
X117829500Y-110138474D01*
X117829500Y-111901525D01*
X117844352Y-111995302D01*
X117862805Y-112031518D01*
X117901950Y-112108343D01*
X117901952Y-112108345D01*
X117901954Y-112108348D01*
X117991651Y-112198045D01*
X117991653Y-112198046D01*
X117991657Y-112198050D01*
X118081670Y-112243914D01*
X118104697Y-112255647D01*
X118198475Y-112270500D01*
X118198480Y-112270500D01*
X119961525Y-112270500D01*
X120055302Y-112255647D01*
X120055303Y-112255646D01*
X120055305Y-112255646D01*
X120168343Y-112198050D01*
X120258050Y-112108343D01*
X120315646Y-111995305D01*
X120315646Y-111995303D01*
X120315647Y-111995302D01*
X120330500Y-111901525D01*
X120330500Y-111884822D01*
X123904499Y-111884822D01*
X123913231Y-111928717D01*
X123913232Y-111928721D01*
X123913233Y-111928722D01*
X123946496Y-111978504D01*
X123996278Y-112011767D01*
X123996281Y-112011767D01*
X123996282Y-112011768D01*
X124040177Y-112020500D01*
X124040180Y-112020500D01*
X125769822Y-112020500D01*
X125813717Y-112011768D01*
X125813717Y-112011767D01*
X125813722Y-112011767D01*
X125863504Y-111978504D01*
X125896767Y-111928722D01*
X125905500Y-111884820D01*
X125905500Y-111813543D01*
X154939499Y-111813543D01*
X154977947Y-112006829D01*
X154977950Y-112006839D01*
X155053364Y-112188907D01*
X155053371Y-112188920D01*
X155162860Y-112352781D01*
X155162863Y-112352785D01*
X155302214Y-112492136D01*
X155302218Y-112492139D01*
X155466079Y-112601628D01*
X155466092Y-112601635D01*
X155598876Y-112656635D01*
X155648165Y-112677051D01*
X155648169Y-112677051D01*
X155648170Y-112677052D01*
X155841456Y-112715500D01*
X155841459Y-112715500D01*
X156038543Y-112715500D01*
X156168582Y-112689632D01*
X156231835Y-112677051D01*
X156413914Y-112601632D01*
X156577782Y-112492139D01*
X156717139Y-112352782D01*
X156826632Y-112188914D01*
X156902051Y-112006835D01*
X156926322Y-111884820D01*
X156929560Y-111868543D01*
X160129499Y-111868543D01*
X160167947Y-112061829D01*
X160167950Y-112061839D01*
X160243364Y-112243907D01*
X160243371Y-112243920D01*
X160352860Y-112407781D01*
X160352863Y-112407785D01*
X160492214Y-112547136D01*
X160492218Y-112547139D01*
X160656079Y-112656628D01*
X160656092Y-112656635D01*
X160798207Y-112715500D01*
X160838165Y-112732051D01*
X160838169Y-112732051D01*
X160838170Y-112732052D01*
X161031456Y-112770500D01*
X161031459Y-112770500D01*
X161228543Y-112770500D01*
X161358582Y-112744632D01*
X161421835Y-112732051D01*
X161603914Y-112656632D01*
X161767782Y-112547139D01*
X161907139Y-112407782D01*
X162016632Y-112243914D01*
X162092051Y-112061835D01*
X162123940Y-111901520D01*
X162130500Y-111868543D01*
X162130500Y-111671456D01*
X162092052Y-111478170D01*
X162092051Y-111478169D01*
X162092051Y-111478165D01*
X162069272Y-111423170D01*
X162016635Y-111296092D01*
X162016628Y-111296079D01*
X161907139Y-111132218D01*
X161907136Y-111132214D01*
X161767785Y-110992863D01*
X161767781Y-110992860D01*
X161603920Y-110883371D01*
X161603907Y-110883364D01*
X161421839Y-110807950D01*
X161421829Y-110807947D01*
X161228543Y-110769500D01*
X161228541Y-110769500D01*
X161031459Y-110769500D01*
X161031457Y-110769500D01*
X160838170Y-110807947D01*
X160838160Y-110807950D01*
X160656092Y-110883364D01*
X160656079Y-110883371D01*
X160492218Y-110992860D01*
X160492214Y-110992863D01*
X160352863Y-111132214D01*
X160352860Y-111132218D01*
X160243371Y-111296079D01*
X160243364Y-111296092D01*
X160167950Y-111478160D01*
X160167947Y-111478170D01*
X160129500Y-111671456D01*
X160129500Y-111671459D01*
X160129500Y-111868541D01*
X160129500Y-111868543D01*
X160129499Y-111868543D01*
X156929560Y-111868543D01*
X156940500Y-111813543D01*
X156940500Y-111616456D01*
X156902052Y-111423170D01*
X156902051Y-111423169D01*
X156902051Y-111423165D01*
X156849411Y-111296079D01*
X156826635Y-111241092D01*
X156826628Y-111241079D01*
X156717139Y-111077218D01*
X156717136Y-111077214D01*
X156577785Y-110937863D01*
X156577781Y-110937860D01*
X156413920Y-110828371D01*
X156413907Y-110828364D01*
X156231839Y-110752950D01*
X156231829Y-110752947D01*
X156038543Y-110714500D01*
X156038541Y-110714500D01*
X155841459Y-110714500D01*
X155841457Y-110714500D01*
X155648170Y-110752947D01*
X155648160Y-110752950D01*
X155466092Y-110828364D01*
X155466079Y-110828371D01*
X155302218Y-110937860D01*
X155302214Y-110937863D01*
X155162863Y-111077214D01*
X155162860Y-111077218D01*
X155053371Y-111241079D01*
X155053364Y-111241092D01*
X154977950Y-111423160D01*
X154977947Y-111423170D01*
X154939500Y-111616456D01*
X154939500Y-111616459D01*
X154939500Y-111813541D01*
X154939500Y-111813543D01*
X154939499Y-111813543D01*
X125905500Y-111813543D01*
X125905500Y-110452514D01*
X139374489Y-110452514D01*
X139374489Y-110597464D01*
X139405849Y-110714500D01*
X139412006Y-110737477D01*
X139484477Y-110863000D01*
X139484479Y-110863002D01*
X139484480Y-110863004D01*
X139586974Y-110965498D01*
X139586975Y-110965499D01*
X139586977Y-110965500D01*
X139712500Y-111037971D01*
X139712501Y-111037971D01*
X139712504Y-111037973D01*
X139852514Y-111075489D01*
X139852517Y-111075489D01*
X139997461Y-111075489D01*
X139997464Y-111075489D01*
X140137474Y-111037973D01*
X140263004Y-110965498D01*
X140365498Y-110863004D01*
X140437973Y-110737474D01*
X140475489Y-110597464D01*
X140475489Y-110452514D01*
X140437973Y-110312504D01*
X140429795Y-110298340D01*
X140365500Y-110186977D01*
X140365495Y-110186971D01*
X140263006Y-110084482D01*
X140263000Y-110084477D01*
X140137477Y-110012006D01*
X140137478Y-110012006D01*
X140119303Y-110007136D01*
X139997464Y-109974489D01*
X139852514Y-109974489D01*
X139730675Y-110007136D01*
X139712500Y-110012006D01*
X139586977Y-110084477D01*
X139586971Y-110084482D01*
X139484482Y-110186971D01*
X139484477Y-110186977D01*
X139412006Y-110312500D01*
X139412005Y-110312504D01*
X139374489Y-110452514D01*
X125905500Y-110452514D01*
X125905500Y-110155180D01*
X125905500Y-110155177D01*
X125896768Y-110111282D01*
X125896767Y-110111281D01*
X125896767Y-110111278D01*
X125863504Y-110061496D01*
X125863503Y-110061495D01*
X125813724Y-110028234D01*
X125813717Y-110028231D01*
X125769822Y-110019500D01*
X125769820Y-110019500D01*
X124040180Y-110019500D01*
X124040178Y-110019500D01*
X123996282Y-110028231D01*
X123996275Y-110028234D01*
X123946496Y-110061495D01*
X123946495Y-110061496D01*
X123913234Y-110111275D01*
X123913231Y-110111282D01*
X123904500Y-110155177D01*
X123904500Y-110155180D01*
X123904500Y-111884820D01*
X123904500Y-111884822D01*
X123904499Y-111884822D01*
X120330500Y-111884822D01*
X120330500Y-110138474D01*
X120315647Y-110044697D01*
X120308693Y-110031049D01*
X120258050Y-109931657D01*
X120258046Y-109931653D01*
X120258045Y-109931651D01*
X120168348Y-109841954D01*
X120168345Y-109841952D01*
X120168343Y-109841950D01*
X120081800Y-109797854D01*
X146412337Y-109797854D01*
X146412337Y-109916472D01*
X146443038Y-110031049D01*
X146502348Y-110133776D01*
X146586224Y-110217652D01*
X146688951Y-110276962D01*
X146803528Y-110307663D01*
X146803531Y-110307663D01*
X146922143Y-110307663D01*
X146922146Y-110307663D01*
X147036723Y-110276962D01*
X147139450Y-110217652D01*
X147223326Y-110133776D01*
X147282636Y-110031049D01*
X147313337Y-109916472D01*
X147313337Y-109797854D01*
X147282636Y-109683277D01*
X147223326Y-109580550D01*
X147139450Y-109496674D01*
X147036723Y-109437364D01*
X146922146Y-109406663D01*
X146803528Y-109406663D01*
X146688951Y-109437364D01*
X146688949Y-109437364D01*
X146688949Y-109437365D01*
X146586224Y-109496674D01*
X146586221Y-109496676D01*
X146502350Y-109580547D01*
X146502348Y-109580550D01*
X146443038Y-109683277D01*
X146412337Y-109797854D01*
X120081800Y-109797854D01*
X120055302Y-109784352D01*
X119961525Y-109769500D01*
X119961520Y-109769500D01*
X118198480Y-109769500D01*
X118198475Y-109769500D01*
X118104697Y-109784352D01*
X118048904Y-109812781D01*
X117991657Y-109841950D01*
X117991656Y-109841951D01*
X117991651Y-109841954D01*
X117901954Y-109931651D01*
X117901951Y-109931656D01*
X117901950Y-109931657D01*
X117891514Y-109952139D01*
X117844352Y-110044697D01*
X117829500Y-110138474D01*
X109595500Y-110138474D01*
X109595500Y-109273543D01*
X154939499Y-109273543D01*
X154977947Y-109466829D01*
X154977950Y-109466839D01*
X155053364Y-109648907D01*
X155053371Y-109648920D01*
X155162860Y-109812781D01*
X155162863Y-109812785D01*
X155302214Y-109952136D01*
X155302218Y-109952139D01*
X155466079Y-110061628D01*
X155466092Y-110061635D01*
X155598876Y-110116635D01*
X155648165Y-110137051D01*
X155648169Y-110137051D01*
X155648170Y-110137052D01*
X155841456Y-110175500D01*
X155841459Y-110175500D01*
X156038543Y-110175500D01*
X156168582Y-110149632D01*
X156231835Y-110137051D01*
X156413914Y-110061632D01*
X156577782Y-109952139D01*
X156717139Y-109812782D01*
X156826632Y-109648914D01*
X156902051Y-109466835D01*
X156914632Y-109403582D01*
X156929559Y-109328543D01*
X160129499Y-109328543D01*
X160167947Y-109521829D01*
X160167950Y-109521839D01*
X160243364Y-109703907D01*
X160243371Y-109703920D01*
X160352860Y-109867781D01*
X160352863Y-109867785D01*
X160492214Y-110007136D01*
X160492218Y-110007139D01*
X160656079Y-110116628D01*
X160656092Y-110116635D01*
X160825908Y-110186974D01*
X160838165Y-110192051D01*
X160838169Y-110192051D01*
X160838170Y-110192052D01*
X161031456Y-110230500D01*
X161031459Y-110230500D01*
X161228543Y-110230500D01*
X161358582Y-110204632D01*
X161421835Y-110192051D01*
X161603914Y-110116632D01*
X161767782Y-110007139D01*
X161907139Y-109867782D01*
X162016632Y-109703914D01*
X162092051Y-109521835D01*
X162108854Y-109437364D01*
X162130500Y-109328543D01*
X162130500Y-109131456D01*
X162092052Y-108938170D01*
X162092051Y-108938169D01*
X162092051Y-108938165D01*
X162069272Y-108883170D01*
X162016635Y-108756092D01*
X162016628Y-108756079D01*
X161907139Y-108592218D01*
X161907136Y-108592214D01*
X161767785Y-108452863D01*
X161767781Y-108452860D01*
X161603920Y-108343371D01*
X161603907Y-108343364D01*
X161421839Y-108267950D01*
X161421829Y-108267947D01*
X161228543Y-108229500D01*
X161228541Y-108229500D01*
X161031459Y-108229500D01*
X161031457Y-108229500D01*
X160838170Y-108267947D01*
X160838160Y-108267950D01*
X160656092Y-108343364D01*
X160656079Y-108343371D01*
X160492218Y-108452860D01*
X160492214Y-108452863D01*
X160352863Y-108592214D01*
X160352860Y-108592218D01*
X160243371Y-108756079D01*
X160243364Y-108756092D01*
X160167950Y-108938160D01*
X160167947Y-108938170D01*
X160129500Y-109131456D01*
X160129500Y-109131459D01*
X160129500Y-109328541D01*
X160129500Y-109328543D01*
X160129499Y-109328543D01*
X156929559Y-109328543D01*
X156940500Y-109273543D01*
X156940500Y-109076456D01*
X156902052Y-108883170D01*
X156902051Y-108883169D01*
X156902051Y-108883165D01*
X156849411Y-108756079D01*
X156826635Y-108701092D01*
X156826628Y-108701079D01*
X156717139Y-108537218D01*
X156717136Y-108537214D01*
X156577785Y-108397863D01*
X156577781Y-108397860D01*
X156413920Y-108288371D01*
X156413907Y-108288364D01*
X156231839Y-108212950D01*
X156231829Y-108212947D01*
X156038543Y-108174500D01*
X156038541Y-108174500D01*
X155841459Y-108174500D01*
X155841457Y-108174500D01*
X155648170Y-108212947D01*
X155648160Y-108212950D01*
X155466092Y-108288364D01*
X155466079Y-108288371D01*
X155302218Y-108397860D01*
X155302214Y-108397863D01*
X155162863Y-108537214D01*
X155162860Y-108537218D01*
X155053371Y-108701079D01*
X155053364Y-108701092D01*
X154977950Y-108883160D01*
X154977947Y-108883170D01*
X154939500Y-109076456D01*
X154939500Y-109076459D01*
X154939500Y-109273541D01*
X154939500Y-109273543D01*
X154939499Y-109273543D01*
X109595500Y-109273543D01*
X109595500Y-108160691D01*
X136819500Y-108160691D01*
X136819500Y-108279309D01*
X136850201Y-108393886D01*
X136909511Y-108496613D01*
X136993387Y-108580489D01*
X137096114Y-108639799D01*
X137210691Y-108670500D01*
X137210694Y-108670500D01*
X137329306Y-108670500D01*
X137329309Y-108670500D01*
X137443886Y-108639799D01*
X137546613Y-108580489D01*
X137630489Y-108496613D01*
X137661065Y-108443653D01*
X137711631Y-108395438D01*
X137780238Y-108382214D01*
X137845103Y-108408182D01*
X137875838Y-108443652D01*
X137928018Y-108534027D01*
X137929511Y-108536613D01*
X138013387Y-108620489D01*
X138116114Y-108679799D01*
X138230691Y-108710500D01*
X138230694Y-108710500D01*
X138349306Y-108710500D01*
X138349309Y-108710500D01*
X138463886Y-108679799D01*
X138566613Y-108620489D01*
X138650489Y-108536613D01*
X138709799Y-108433886D01*
X138740500Y-108319309D01*
X138740500Y-108200691D01*
X138709799Y-108086114D01*
X138650489Y-107983387D01*
X138566613Y-107899511D01*
X138463886Y-107840201D01*
X138349309Y-107809500D01*
X138230691Y-107809500D01*
X138116114Y-107840201D01*
X138116112Y-107840201D01*
X138116112Y-107840202D01*
X138013387Y-107899511D01*
X138013384Y-107899513D01*
X137929513Y-107983384D01*
X137929509Y-107983390D01*
X137898933Y-108036348D01*
X137848366Y-108084562D01*
X137779758Y-108097784D01*
X137714894Y-108071815D01*
X137684160Y-108036347D01*
X137682530Y-108033524D01*
X137630489Y-107943387D01*
X137546613Y-107859511D01*
X137443886Y-107800201D01*
X137329309Y-107769500D01*
X137210691Y-107769500D01*
X137096114Y-107800201D01*
X137096112Y-107800201D01*
X137096112Y-107800202D01*
X136993387Y-107859511D01*
X136993384Y-107859513D01*
X136909513Y-107943384D01*
X136909511Y-107943387D01*
X136886419Y-107983384D01*
X136850201Y-108046114D01*
X136819500Y-108160691D01*
X109595500Y-108160691D01*
X109595500Y-107470691D01*
X152574500Y-107470691D01*
X152574500Y-107589309D01*
X152605201Y-107703886D01*
X152664511Y-107806613D01*
X152748387Y-107890489D01*
X152851114Y-107949799D01*
X152965691Y-107980500D01*
X152965694Y-107980500D01*
X153084306Y-107980500D01*
X153084309Y-107980500D01*
X153198886Y-107949799D01*
X153301613Y-107890489D01*
X153385489Y-107806613D01*
X153444799Y-107703886D01*
X153475500Y-107589309D01*
X153475500Y-107470691D01*
X153444799Y-107356114D01*
X153385489Y-107253387D01*
X153301613Y-107169511D01*
X153198886Y-107110201D01*
X153084309Y-107079500D01*
X152965691Y-107079500D01*
X152851114Y-107110201D01*
X152851112Y-107110201D01*
X152851112Y-107110202D01*
X152748387Y-107169511D01*
X152748384Y-107169513D01*
X152664513Y-107253384D01*
X152664511Y-107253387D01*
X152605201Y-107356114D01*
X152574500Y-107470691D01*
X109595500Y-107470691D01*
X109595500Y-106550691D01*
X132729500Y-106550691D01*
X132729500Y-106669309D01*
X132760201Y-106783886D01*
X132819511Y-106886613D01*
X132903387Y-106970489D01*
X133006114Y-107029799D01*
X133120691Y-107060500D01*
X133120694Y-107060500D01*
X133239306Y-107060500D01*
X133239309Y-107060500D01*
X133353886Y-107029799D01*
X133456613Y-106970489D01*
X133540489Y-106886613D01*
X133597110Y-106788543D01*
X160129499Y-106788543D01*
X160167947Y-106981829D01*
X160167950Y-106981839D01*
X160243364Y-107163907D01*
X160243371Y-107163920D01*
X160352860Y-107327781D01*
X160352863Y-107327785D01*
X160492214Y-107467136D01*
X160492218Y-107467139D01*
X160656079Y-107576628D01*
X160656092Y-107576635D01*
X160838160Y-107652049D01*
X160838165Y-107652051D01*
X160838169Y-107652051D01*
X160838170Y-107652052D01*
X161031456Y-107690500D01*
X161031459Y-107690500D01*
X161228543Y-107690500D01*
X161358582Y-107664632D01*
X161421835Y-107652051D01*
X161603914Y-107576632D01*
X161767782Y-107467139D01*
X161907139Y-107327782D01*
X162016632Y-107163914D01*
X162092051Y-106981835D01*
X162130500Y-106788541D01*
X162130500Y-106620691D01*
X166144500Y-106620691D01*
X166144500Y-106739309D01*
X166175201Y-106853886D01*
X166234511Y-106956613D01*
X166318387Y-107040489D01*
X166421114Y-107099799D01*
X166535691Y-107130500D01*
X166535694Y-107130500D01*
X166654306Y-107130500D01*
X166654309Y-107130500D01*
X166768886Y-107099799D01*
X166871613Y-107040489D01*
X166955489Y-106956613D01*
X167014799Y-106853886D01*
X167045500Y-106739309D01*
X167045500Y-106620691D01*
X167014799Y-106506114D01*
X166955489Y-106403387D01*
X166871613Y-106319511D01*
X166768886Y-106260201D01*
X166654309Y-106229500D01*
X166535691Y-106229500D01*
X166421114Y-106260201D01*
X166421112Y-106260201D01*
X166421112Y-106260202D01*
X166318387Y-106319511D01*
X166318384Y-106319513D01*
X166234513Y-106403384D01*
X166234511Y-106403387D01*
X166175201Y-106506114D01*
X166144500Y-106620691D01*
X162130500Y-106620691D01*
X162130500Y-106591459D01*
X162130500Y-106591456D01*
X162092052Y-106398170D01*
X162092051Y-106398169D01*
X162092051Y-106398165D01*
X162092049Y-106398160D01*
X162016635Y-106216092D01*
X162016628Y-106216079D01*
X161907139Y-106052218D01*
X161907136Y-106052214D01*
X161767785Y-105912863D01*
X161767781Y-105912860D01*
X161603920Y-105803371D01*
X161603907Y-105803364D01*
X161421839Y-105727950D01*
X161421829Y-105727947D01*
X161228543Y-105689500D01*
X161228541Y-105689500D01*
X161031459Y-105689500D01*
X161031457Y-105689500D01*
X160838170Y-105727947D01*
X160838160Y-105727950D01*
X160656092Y-105803364D01*
X160656079Y-105803371D01*
X160492218Y-105912860D01*
X160492214Y-105912863D01*
X160352863Y-106052214D01*
X160352860Y-106052218D01*
X160243371Y-106216079D01*
X160243364Y-106216092D01*
X160167950Y-106398160D01*
X160167947Y-106398170D01*
X160129500Y-106591456D01*
X160129500Y-106591459D01*
X160129500Y-106788541D01*
X160129500Y-106788543D01*
X160129499Y-106788543D01*
X133597110Y-106788543D01*
X133599799Y-106783886D01*
X133630500Y-106669309D01*
X133630500Y-106550691D01*
X133599799Y-106436114D01*
X133540489Y-106333387D01*
X133456613Y-106249511D01*
X133353886Y-106190201D01*
X133239309Y-106159500D01*
X133120691Y-106159500D01*
X133006114Y-106190201D01*
X133006112Y-106190201D01*
X133006112Y-106190202D01*
X132903387Y-106249511D01*
X132903384Y-106249513D01*
X132819513Y-106333384D01*
X132819511Y-106333387D01*
X132760201Y-106436114D01*
X132729500Y-106550691D01*
X109595500Y-106550691D01*
X109595500Y-105067525D01*
X142119500Y-105067525D01*
X142119500Y-105212475D01*
X142156881Y-105351982D01*
X142157017Y-105352488D01*
X142229488Y-105478011D01*
X142229490Y-105478013D01*
X142229491Y-105478015D01*
X142331985Y-105580509D01*
X142331986Y-105580510D01*
X142331988Y-105580511D01*
X142457511Y-105652982D01*
X142457512Y-105652982D01*
X142457515Y-105652984D01*
X142597525Y-105690500D01*
X142597528Y-105690500D01*
X142742472Y-105690500D01*
X142742475Y-105690500D01*
X142882485Y-105652984D01*
X142943902Y-105617525D01*
X144509500Y-105617525D01*
X144509500Y-105762475D01*
X144547016Y-105902485D01*
X144547017Y-105902488D01*
X144619488Y-106028011D01*
X144619490Y-106028013D01*
X144619491Y-106028015D01*
X144721985Y-106130509D01*
X144721986Y-106130510D01*
X144721988Y-106130511D01*
X144847511Y-106202982D01*
X144847512Y-106202982D01*
X144847515Y-106202984D01*
X144987525Y-106240500D01*
X144987528Y-106240500D01*
X145132472Y-106240500D01*
X145132475Y-106240500D01*
X145272485Y-106202984D01*
X145398015Y-106130509D01*
X145500509Y-106028015D01*
X145572984Y-105902485D01*
X145610500Y-105762475D01*
X145610500Y-105617525D01*
X145572984Y-105477515D01*
X145500799Y-105352488D01*
X145500511Y-105351988D01*
X145500506Y-105351982D01*
X145398017Y-105249493D01*
X145398011Y-105249488D01*
X145272488Y-105177017D01*
X145272489Y-105177017D01*
X145261006Y-105173940D01*
X145132475Y-105139500D01*
X144987525Y-105139500D01*
X144858993Y-105173940D01*
X144847511Y-105177017D01*
X144721988Y-105249488D01*
X144721982Y-105249493D01*
X144619493Y-105351982D01*
X144619488Y-105351988D01*
X144547017Y-105477511D01*
X144547016Y-105477515D01*
X144509500Y-105617525D01*
X142943902Y-105617525D01*
X143008015Y-105580509D01*
X143110509Y-105478015D01*
X143182984Y-105352485D01*
X143220500Y-105212475D01*
X143220500Y-105067525D01*
X143182984Y-104927515D01*
X143110509Y-104801985D01*
X143008015Y-104699491D01*
X143008013Y-104699490D01*
X143008011Y-104699488D01*
X142882488Y-104627017D01*
X142882489Y-104627017D01*
X142870882Y-104623907D01*
X142742475Y-104589500D01*
X142597525Y-104589500D01*
X142469118Y-104623907D01*
X142457511Y-104627017D01*
X142331988Y-104699488D01*
X142331982Y-104699493D01*
X142229493Y-104801982D01*
X142229488Y-104801988D01*
X142157017Y-104927511D01*
X142157016Y-104927515D01*
X142119500Y-105067525D01*
X109595500Y-105067525D01*
X109595500Y-104290691D01*
X137079500Y-104290691D01*
X137079500Y-104409309D01*
X137110201Y-104523886D01*
X137169511Y-104626613D01*
X137253387Y-104710489D01*
X137356114Y-104769799D01*
X137470691Y-104800500D01*
X137470694Y-104800500D01*
X137589306Y-104800500D01*
X137589309Y-104800500D01*
X137703886Y-104769799D01*
X137806613Y-104710489D01*
X137890489Y-104626613D01*
X137949799Y-104523886D01*
X137980500Y-104409309D01*
X137980500Y-104290691D01*
X137949799Y-104176114D01*
X137946283Y-104170025D01*
X153494500Y-104170025D01*
X153494500Y-104314975D01*
X153532016Y-104454985D01*
X153532017Y-104454988D01*
X153604488Y-104580511D01*
X153604490Y-104580513D01*
X153604491Y-104580515D01*
X153706985Y-104683009D01*
X153706986Y-104683010D01*
X153706988Y-104683011D01*
X153832511Y-104755482D01*
X153832512Y-104755482D01*
X153832515Y-104755484D01*
X153972525Y-104793000D01*
X153972528Y-104793000D01*
X154117472Y-104793000D01*
X154117475Y-104793000D01*
X154257485Y-104755484D01*
X154383015Y-104683009D01*
X154485509Y-104580515D01*
X154557984Y-104454985D01*
X154595500Y-104314975D01*
X154595500Y-104170025D01*
X154571563Y-104080691D01*
X158189500Y-104080691D01*
X158189500Y-104199309D01*
X158220201Y-104313886D01*
X158279511Y-104416613D01*
X158363387Y-104500489D01*
X158466114Y-104559799D01*
X158580691Y-104590500D01*
X158580694Y-104590500D01*
X158699306Y-104590500D01*
X158699309Y-104590500D01*
X158813886Y-104559799D01*
X158916613Y-104500489D01*
X159000489Y-104416613D01*
X159059799Y-104313886D01*
X159077308Y-104248543D01*
X160129499Y-104248543D01*
X160167947Y-104441829D01*
X160167950Y-104441839D01*
X160243364Y-104623907D01*
X160243371Y-104623920D01*
X160352860Y-104787781D01*
X160352863Y-104787785D01*
X160492214Y-104927136D01*
X160492218Y-104927139D01*
X160656079Y-105036628D01*
X160656092Y-105036635D01*
X160838160Y-105112049D01*
X160838165Y-105112051D01*
X160838169Y-105112051D01*
X160838170Y-105112052D01*
X161031456Y-105150500D01*
X161031459Y-105150500D01*
X161228543Y-105150500D01*
X161358582Y-105124632D01*
X161421835Y-105112051D01*
X161603914Y-105036632D01*
X161767782Y-104927139D01*
X161907139Y-104787782D01*
X162016632Y-104623914D01*
X162092051Y-104441835D01*
X162104632Y-104378582D01*
X162130500Y-104248543D01*
X162130500Y-104051456D01*
X162092052Y-103858170D01*
X162092051Y-103858169D01*
X162092051Y-103858165D01*
X162052474Y-103762617D01*
X162016635Y-103676092D01*
X162016628Y-103676079D01*
X161907139Y-103512218D01*
X161907136Y-103512214D01*
X161767785Y-103372863D01*
X161767781Y-103372860D01*
X161603920Y-103263371D01*
X161603907Y-103263364D01*
X161421839Y-103187950D01*
X161421829Y-103187947D01*
X161228543Y-103149500D01*
X161228541Y-103149500D01*
X161031459Y-103149500D01*
X161031457Y-103149500D01*
X160838170Y-103187947D01*
X160838160Y-103187950D01*
X160656092Y-103263364D01*
X160656079Y-103263371D01*
X160492218Y-103372860D01*
X160492214Y-103372863D01*
X160352863Y-103512214D01*
X160352860Y-103512218D01*
X160243371Y-103676079D01*
X160243364Y-103676092D01*
X160167950Y-103858160D01*
X160167947Y-103858170D01*
X160129500Y-104051456D01*
X160129500Y-104051459D01*
X160129500Y-104248541D01*
X160129500Y-104248543D01*
X160129499Y-104248543D01*
X159077308Y-104248543D01*
X159090500Y-104199309D01*
X159090500Y-104080691D01*
X159059799Y-103966114D01*
X159000489Y-103863387D01*
X158916613Y-103779511D01*
X158813886Y-103720201D01*
X158699309Y-103689500D01*
X158580691Y-103689500D01*
X158466114Y-103720201D01*
X158466112Y-103720201D01*
X158466112Y-103720202D01*
X158363387Y-103779511D01*
X158363384Y-103779513D01*
X158279513Y-103863384D01*
X158279511Y-103863387D01*
X158237999Y-103935288D01*
X158220201Y-103966114D01*
X158189500Y-104080691D01*
X154571563Y-104080691D01*
X154557984Y-104030015D01*
X154549437Y-104015212D01*
X154485511Y-103904488D01*
X154485506Y-103904482D01*
X154383017Y-103801993D01*
X154383011Y-103801988D01*
X154257488Y-103729517D01*
X154257489Y-103729517D01*
X154222721Y-103720201D01*
X154117475Y-103692000D01*
X153972525Y-103692000D01*
X153867279Y-103720201D01*
X153832511Y-103729517D01*
X153706988Y-103801988D01*
X153706982Y-103801993D01*
X153604493Y-103904482D01*
X153604488Y-103904488D01*
X153532017Y-104030011D01*
X153532016Y-104030015D01*
X153494500Y-104170025D01*
X137946283Y-104170025D01*
X137890489Y-104073387D01*
X137806613Y-103989511D01*
X137703886Y-103930201D01*
X137589309Y-103899500D01*
X137470691Y-103899500D01*
X137356114Y-103930201D01*
X137356112Y-103930201D01*
X137356112Y-103930202D01*
X137253387Y-103989511D01*
X137253384Y-103989513D01*
X137169513Y-104073384D01*
X137169511Y-104073387D01*
X137113717Y-104170025D01*
X137110201Y-104176114D01*
X137079500Y-104290691D01*
X109595500Y-104290691D01*
X109595500Y-103426693D01*
X137946999Y-103426693D01*
X137946999Y-103545311D01*
X137977700Y-103659888D01*
X138037010Y-103762615D01*
X138120886Y-103846491D01*
X138223613Y-103905801D01*
X138338190Y-103936502D01*
X138338193Y-103936502D01*
X138456805Y-103936502D01*
X138456808Y-103936502D01*
X138571385Y-103905801D01*
X138674112Y-103846491D01*
X138757988Y-103762615D01*
X138817298Y-103659888D01*
X138847999Y-103545311D01*
X138847999Y-103426693D01*
X138817298Y-103312116D01*
X138757988Y-103209389D01*
X138702942Y-103154343D01*
X139731889Y-103154343D01*
X139731889Y-103272961D01*
X139762590Y-103387538D01*
X139821900Y-103490265D01*
X139905776Y-103574141D01*
X140008503Y-103633451D01*
X140123080Y-103664152D01*
X140123083Y-103664152D01*
X140241695Y-103664152D01*
X140241698Y-103664152D01*
X140356275Y-103633451D01*
X140459002Y-103574141D01*
X140542878Y-103490265D01*
X140602188Y-103387538D01*
X140632889Y-103272961D01*
X140632889Y-103154343D01*
X140620249Y-103107169D01*
X141985695Y-103107169D01*
X141985695Y-103199457D01*
X142007761Y-103281809D01*
X142009582Y-103288603D01*
X142009583Y-103288606D01*
X142055721Y-103368518D01*
X142055724Y-103368522D01*
X142055726Y-103368525D01*
X142120983Y-103433782D01*
X142120986Y-103433783D01*
X142120989Y-103433786D01*
X142200901Y-103479924D01*
X142200905Y-103479926D01*
X142200907Y-103479927D01*
X142270470Y-103498566D01*
X142330129Y-103534929D01*
X142360659Y-103597776D01*
X142354002Y-103656462D01*
X142355490Y-103656861D01*
X142353386Y-103664711D01*
X142353386Y-103664712D01*
X142329500Y-103753856D01*
X142329500Y-103846144D01*
X142352023Y-103930202D01*
X142353387Y-103935290D01*
X142353388Y-103935293D01*
X142399526Y-104015205D01*
X142399529Y-104015209D01*
X142399531Y-104015212D01*
X142464788Y-104080469D01*
X142464791Y-104080470D01*
X142464794Y-104080473D01*
X142544706Y-104126611D01*
X142544707Y-104126611D01*
X142544712Y-104126614D01*
X142633856Y-104150500D01*
X142633858Y-104150500D01*
X142726142Y-104150500D01*
X142726144Y-104150500D01*
X142815288Y-104126614D01*
X142895212Y-104080469D01*
X142960469Y-104015212D01*
X143006614Y-103935288D01*
X143030500Y-103846144D01*
X143030500Y-103753856D01*
X143006614Y-103664712D01*
X143006291Y-103664152D01*
X142960473Y-103584794D01*
X142960470Y-103584791D01*
X142960469Y-103584788D01*
X142895212Y-103519531D01*
X142895209Y-103519529D01*
X142895205Y-103519526D01*
X142815293Y-103473388D01*
X142815292Y-103473387D01*
X142807492Y-103471297D01*
X142745722Y-103454745D01*
X142686064Y-103418382D01*
X142655535Y-103355535D01*
X142655838Y-103312681D01*
X142659048Y-103295115D01*
X142662809Y-103288601D01*
X142686695Y-103199457D01*
X142686695Y-103163191D01*
X145607000Y-103163191D01*
X145607000Y-103281809D01*
X145637701Y-103396386D01*
X145697011Y-103499113D01*
X145780887Y-103582989D01*
X145883614Y-103642299D01*
X145998191Y-103673000D01*
X145998194Y-103673000D01*
X146116806Y-103673000D01*
X146116809Y-103673000D01*
X146231386Y-103642299D01*
X146334113Y-103582989D01*
X146417989Y-103499113D01*
X146477299Y-103396386D01*
X146508000Y-103281809D01*
X146508000Y-103163191D01*
X147997000Y-103163191D01*
X147997000Y-103281809D01*
X148027701Y-103396386D01*
X148087011Y-103499113D01*
X148170887Y-103582989D01*
X148273614Y-103642299D01*
X148388191Y-103673000D01*
X148388194Y-103673000D01*
X148506806Y-103673000D01*
X148506809Y-103673000D01*
X148621386Y-103642299D01*
X148724113Y-103582989D01*
X148807989Y-103499113D01*
X148867299Y-103396386D01*
X148898000Y-103281809D01*
X148898000Y-103163191D01*
X148867299Y-103048614D01*
X148807989Y-102945887D01*
X148796552Y-102934450D01*
X148763067Y-102873127D01*
X148768051Y-102803435D01*
X148809923Y-102747502D01*
X148875387Y-102723085D01*
X148885981Y-102723402D01*
X148885981Y-102723000D01*
X149025890Y-102723000D01*
X149025892Y-102723000D01*
X149153186Y-102688892D01*
X149267314Y-102623000D01*
X149360500Y-102529814D01*
X149426392Y-102415686D01*
X149460500Y-102288392D01*
X149460500Y-102156608D01*
X149426392Y-102029314D01*
X149360500Y-101915186D01*
X149267314Y-101822000D01*
X149210250Y-101789054D01*
X149153187Y-101756108D01*
X149089539Y-101739054D01*
X149025892Y-101722000D01*
X148894108Y-101722000D01*
X148766812Y-101756108D01*
X148652686Y-101822000D01*
X148652683Y-101822002D01*
X148559502Y-101915183D01*
X148559500Y-101915186D01*
X148493608Y-102029312D01*
X148459500Y-102156608D01*
X148459500Y-102288391D01*
X148493608Y-102415687D01*
X148526554Y-102472750D01*
X148559500Y-102529814D01*
X148559502Y-102529816D01*
X148590005Y-102560319D01*
X148623490Y-102621642D01*
X148618506Y-102691334D01*
X148576634Y-102747267D01*
X148511170Y-102771684D01*
X148502324Y-102772000D01*
X148388191Y-102772000D01*
X148273614Y-102802701D01*
X148273612Y-102802701D01*
X148273612Y-102802702D01*
X148170887Y-102862011D01*
X148170884Y-102862013D01*
X148087013Y-102945884D01*
X148087011Y-102945887D01*
X148032811Y-103039764D01*
X148027701Y-103048614D01*
X147997000Y-103163191D01*
X146508000Y-103163191D01*
X146477299Y-103048614D01*
X146417989Y-102945887D01*
X146334113Y-102862011D01*
X146231386Y-102802701D01*
X146116809Y-102772000D01*
X145998191Y-102772000D01*
X145883614Y-102802701D01*
X145883612Y-102802701D01*
X145883612Y-102802702D01*
X145780887Y-102862011D01*
X145780884Y-102862013D01*
X145697013Y-102945884D01*
X145697011Y-102945887D01*
X145642811Y-103039764D01*
X145637701Y-103048614D01*
X145607000Y-103163191D01*
X142686695Y-103163191D01*
X142686695Y-103107169D01*
X142662809Y-103018025D01*
X142662806Y-103018019D01*
X142616668Y-102938107D01*
X142616665Y-102938104D01*
X142616664Y-102938101D01*
X142551407Y-102872844D01*
X142551404Y-102872842D01*
X142551400Y-102872839D01*
X142471488Y-102826701D01*
X142471485Y-102826700D01*
X142471484Y-102826699D01*
X142471483Y-102826699D01*
X142382339Y-102802813D01*
X142290051Y-102802813D01*
X142200907Y-102826699D01*
X142200906Y-102826699D01*
X142200904Y-102826700D01*
X142200901Y-102826701D01*
X142120989Y-102872839D01*
X142120980Y-102872846D01*
X142055728Y-102938098D01*
X142055721Y-102938107D01*
X142009583Y-103018019D01*
X142009582Y-103018022D01*
X142009581Y-103018024D01*
X142009581Y-103018025D01*
X141985695Y-103107169D01*
X140620249Y-103107169D01*
X140602188Y-103039766D01*
X140542878Y-102937039D01*
X140459002Y-102853163D01*
X140356275Y-102793853D01*
X140241698Y-102763152D01*
X140123080Y-102763152D01*
X140008503Y-102793853D01*
X140008501Y-102793853D01*
X140008501Y-102793854D01*
X139905776Y-102853163D01*
X139905773Y-102853165D01*
X139821902Y-102937036D01*
X139821900Y-102937039D01*
X139762590Y-103039766D01*
X139731889Y-103154343D01*
X138702942Y-103154343D01*
X138674112Y-103125513D01*
X138571385Y-103066203D01*
X138456808Y-103035502D01*
X138338190Y-103035502D01*
X138223613Y-103066203D01*
X138223611Y-103066203D01*
X138223611Y-103066204D01*
X138120886Y-103125513D01*
X138120883Y-103125515D01*
X138037012Y-103209386D01*
X138037010Y-103209389D01*
X137991277Y-103288601D01*
X137977700Y-103312116D01*
X137946999Y-103426693D01*
X109595500Y-103426693D01*
X109595500Y-94948474D01*
X117829500Y-94948474D01*
X117829500Y-96711525D01*
X117844352Y-96805302D01*
X117857289Y-96830691D01*
X117901950Y-96918343D01*
X117901952Y-96918345D01*
X117901954Y-96918348D01*
X117991651Y-97008045D01*
X117991653Y-97008046D01*
X117991657Y-97008050D01*
X118100703Y-97063612D01*
X118104697Y-97065647D01*
X118198475Y-97080500D01*
X118345733Y-97080500D01*
X118412772Y-97100185D01*
X118458527Y-97152989D01*
X118468471Y-97222147D01*
X118439446Y-97285703D01*
X118418619Y-97304817D01*
X118265354Y-97416172D01*
X118265352Y-97416174D01*
X118265351Y-97416174D01*
X118126174Y-97555351D01*
X118126174Y-97555352D01*
X118126172Y-97555354D01*
X118095196Y-97597989D01*
X118010476Y-97714594D01*
X117921117Y-97889970D01*
X117860290Y-98077173D01*
X117829500Y-98271577D01*
X117829500Y-98468422D01*
X117860290Y-98662826D01*
X117921117Y-98850029D01*
X117984583Y-98974587D01*
X118010476Y-99025405D01*
X118126172Y-99184646D01*
X118265354Y-99323828D01*
X118424595Y-99439524D01*
X118547992Y-99502397D01*
X118601213Y-99529515D01*
X118652009Y-99577489D01*
X118668804Y-99645310D01*
X118646267Y-99711445D01*
X118601213Y-99750485D01*
X118424594Y-99840476D01*
X118333741Y-99906485D01*
X118265354Y-99956172D01*
X118265352Y-99956174D01*
X118265351Y-99956174D01*
X118126174Y-100095351D01*
X118126174Y-100095352D01*
X118126172Y-100095354D01*
X118098920Y-100132863D01*
X118010476Y-100254594D01*
X117921117Y-100429970D01*
X117860290Y-100617173D01*
X117829500Y-100811577D01*
X117829500Y-101008422D01*
X117860290Y-101202826D01*
X117921117Y-101390029D01*
X117982989Y-101511459D01*
X118010476Y-101565405D01*
X118126172Y-101724646D01*
X118265354Y-101863828D01*
X118424595Y-101979524D01*
X118507455Y-102021743D01*
X118599970Y-102068882D01*
X118599972Y-102068882D01*
X118599975Y-102068884D01*
X118646251Y-102083920D01*
X118787173Y-102129709D01*
X118981578Y-102160500D01*
X118981583Y-102160500D01*
X119178422Y-102160500D01*
X119372826Y-102129709D01*
X119392843Y-102123205D01*
X119560025Y-102068884D01*
X119735405Y-101979524D01*
X119894646Y-101863828D01*
X120033828Y-101724646D01*
X120149524Y-101565405D01*
X120238884Y-101390025D01*
X120299709Y-101202826D01*
X120310279Y-101136092D01*
X120330481Y-101008543D01*
X123754499Y-101008543D01*
X123792947Y-101201829D01*
X123792950Y-101201839D01*
X123868364Y-101383907D01*
X123868371Y-101383920D01*
X123977860Y-101547781D01*
X123977863Y-101547785D01*
X124117214Y-101687136D01*
X124117218Y-101687139D01*
X124281079Y-101796628D01*
X124281092Y-101796635D01*
X124463160Y-101872049D01*
X124463165Y-101872051D01*
X124463169Y-101872051D01*
X124463170Y-101872052D01*
X124656456Y-101910500D01*
X124656459Y-101910500D01*
X124853543Y-101910500D01*
X124983582Y-101884632D01*
X125046835Y-101872051D01*
X125219115Y-101800691D01*
X135749500Y-101800691D01*
X135749500Y-101919309D01*
X135780201Y-102033886D01*
X135839511Y-102136613D01*
X135923387Y-102220489D01*
X136026114Y-102279799D01*
X136140691Y-102310500D01*
X136140694Y-102310500D01*
X136259306Y-102310500D01*
X136259309Y-102310500D01*
X136373886Y-102279799D01*
X136476613Y-102220489D01*
X136560489Y-102136613D01*
X136619799Y-102033886D01*
X136650500Y-101919309D01*
X136650500Y-101800691D01*
X136622789Y-101697273D01*
X143649500Y-101697273D01*
X143649500Y-101802727D01*
X143676793Y-101904587D01*
X143729520Y-101995913D01*
X143804087Y-102070480D01*
X143895413Y-102123207D01*
X143997273Y-102150500D01*
X143997275Y-102150500D01*
X144102725Y-102150500D01*
X144102727Y-102150500D01*
X144204587Y-102123207D01*
X144295913Y-102070480D01*
X144370480Y-101995913D01*
X144423207Y-101904587D01*
X144450500Y-101802727D01*
X144450500Y-101708543D01*
X160129499Y-101708543D01*
X160167947Y-101901829D01*
X160167950Y-101901839D01*
X160243364Y-102083907D01*
X160243371Y-102083920D01*
X160352860Y-102247781D01*
X160352863Y-102247785D01*
X160492214Y-102387136D01*
X160492218Y-102387139D01*
X160656079Y-102496628D01*
X160656092Y-102496635D01*
X160809841Y-102560319D01*
X160838165Y-102572051D01*
X160838169Y-102572051D01*
X160838170Y-102572052D01*
X161031456Y-102610500D01*
X161031459Y-102610500D01*
X161228543Y-102610500D01*
X161358582Y-102584632D01*
X161421835Y-102572051D01*
X161603914Y-102496632D01*
X161767782Y-102387139D01*
X161907139Y-102247782D01*
X162016632Y-102083914D01*
X162092051Y-101901835D01*
X162111765Y-101802726D01*
X162130500Y-101708543D01*
X162130500Y-101511456D01*
X162092052Y-101318170D01*
X162092051Y-101318169D01*
X162092051Y-101318165D01*
X162092049Y-101318160D01*
X162016635Y-101136092D01*
X162016628Y-101136079D01*
X161907139Y-100972218D01*
X161907136Y-100972214D01*
X161767785Y-100832863D01*
X161767781Y-100832860D01*
X161603920Y-100723371D01*
X161603907Y-100723364D01*
X161421839Y-100647950D01*
X161421829Y-100647947D01*
X161228543Y-100609500D01*
X161228541Y-100609500D01*
X161031459Y-100609500D01*
X161031457Y-100609500D01*
X160838170Y-100647947D01*
X160838160Y-100647950D01*
X160656092Y-100723364D01*
X160656079Y-100723371D01*
X160492218Y-100832860D01*
X160492214Y-100832863D01*
X160352863Y-100972214D01*
X160352860Y-100972218D01*
X160243371Y-101136079D01*
X160243364Y-101136092D01*
X160167950Y-101318160D01*
X160167947Y-101318170D01*
X160129500Y-101511456D01*
X160129500Y-101511459D01*
X160129500Y-101708541D01*
X160129500Y-101708543D01*
X160129499Y-101708543D01*
X144450500Y-101708543D01*
X144450500Y-101697273D01*
X144423207Y-101595413D01*
X144370480Y-101504087D01*
X144295913Y-101429520D01*
X144204587Y-101376793D01*
X144102727Y-101349500D01*
X143997273Y-101349500D01*
X143895413Y-101376793D01*
X143895410Y-101376794D01*
X143804085Y-101429521D01*
X143729521Y-101504085D01*
X143676794Y-101595410D01*
X143676793Y-101595413D01*
X143649500Y-101697273D01*
X136622789Y-101697273D01*
X136619799Y-101686114D01*
X136560489Y-101583387D01*
X136476613Y-101499511D01*
X136373886Y-101440201D01*
X136259309Y-101409500D01*
X136140691Y-101409500D01*
X136026114Y-101440201D01*
X136026112Y-101440201D01*
X136026112Y-101440202D01*
X135923387Y-101499511D01*
X135923384Y-101499513D01*
X135839513Y-101583384D01*
X135839511Y-101583387D01*
X135780201Y-101686114D01*
X135749500Y-101800691D01*
X125219115Y-101800691D01*
X125228914Y-101796632D01*
X125336646Y-101724648D01*
X125389306Y-101689462D01*
X125390633Y-101688574D01*
X125392782Y-101687139D01*
X125532139Y-101547782D01*
X125641632Y-101383914D01*
X125717051Y-101201835D01*
X125755500Y-101008541D01*
X125755500Y-100811459D01*
X125755500Y-100811456D01*
X125717052Y-100618170D01*
X125717051Y-100618169D01*
X125717051Y-100618165D01*
X125646646Y-100448191D01*
X144409500Y-100448191D01*
X144409500Y-100566809D01*
X144440201Y-100681386D01*
X144499511Y-100784113D01*
X144583387Y-100867989D01*
X144686114Y-100927299D01*
X144800691Y-100958000D01*
X144800694Y-100958000D01*
X144919306Y-100958000D01*
X144919309Y-100958000D01*
X145033886Y-100927299D01*
X145136613Y-100867989D01*
X145220489Y-100784113D01*
X145279799Y-100681386D01*
X145310500Y-100566809D01*
X145310500Y-100448191D01*
X145279799Y-100333614D01*
X145220489Y-100230887D01*
X145136613Y-100147011D01*
X145033886Y-100087701D01*
X144919309Y-100057000D01*
X144800691Y-100057000D01*
X144686114Y-100087701D01*
X144686112Y-100087701D01*
X144686112Y-100087702D01*
X144583387Y-100147011D01*
X144583384Y-100147013D01*
X144499513Y-100230884D01*
X144499511Y-100230887D01*
X144440201Y-100333614D01*
X144409500Y-100448191D01*
X125646646Y-100448191D01*
X125641632Y-100436086D01*
X125641630Y-100436083D01*
X125641628Y-100436079D01*
X125532139Y-100272218D01*
X125532136Y-100272214D01*
X125392785Y-100132863D01*
X125392781Y-100132860D01*
X125228920Y-100023371D01*
X125228907Y-100023364D01*
X125046839Y-99947950D01*
X125046829Y-99947947D01*
X124980845Y-99934822D01*
X160129499Y-99934822D01*
X160138231Y-99978717D01*
X160138234Y-99978724D01*
X160168064Y-100023368D01*
X160171496Y-100028504D01*
X160221278Y-100061767D01*
X160221281Y-100061767D01*
X160221282Y-100061768D01*
X160265177Y-100070500D01*
X160265180Y-100070500D01*
X161994822Y-100070500D01*
X162038717Y-100061768D01*
X162038717Y-100061767D01*
X162038722Y-100061767D01*
X162088504Y-100028504D01*
X162121767Y-99978722D01*
X162127888Y-99947950D01*
X162130500Y-99934822D01*
X162130500Y-98205177D01*
X162121768Y-98161282D01*
X162121767Y-98161281D01*
X162121767Y-98161278D01*
X162088504Y-98111496D01*
X162088503Y-98111495D01*
X162038724Y-98078234D01*
X162038717Y-98078231D01*
X161994822Y-98069500D01*
X161994820Y-98069500D01*
X160265180Y-98069500D01*
X160265178Y-98069500D01*
X160221282Y-98078231D01*
X160221275Y-98078234D01*
X160171496Y-98111495D01*
X160171495Y-98111496D01*
X160138234Y-98161275D01*
X160138231Y-98161282D01*
X160129500Y-98205177D01*
X160129500Y-98205180D01*
X160129500Y-99934820D01*
X160129500Y-99934822D01*
X160129499Y-99934822D01*
X124980845Y-99934822D01*
X124853543Y-99909500D01*
X124853541Y-99909500D01*
X124656459Y-99909500D01*
X124656457Y-99909500D01*
X124463170Y-99947947D01*
X124463160Y-99947950D01*
X124281092Y-100023364D01*
X124281079Y-100023371D01*
X124117218Y-100132860D01*
X124117214Y-100132863D01*
X123977863Y-100272214D01*
X123977860Y-100272218D01*
X123868371Y-100436079D01*
X123868364Y-100436092D01*
X123792950Y-100618160D01*
X123792947Y-100618170D01*
X123754500Y-100811456D01*
X123754500Y-100811459D01*
X123754500Y-101008541D01*
X123754500Y-101008543D01*
X123754499Y-101008543D01*
X120330481Y-101008543D01*
X120330500Y-101008422D01*
X120330500Y-100811586D01*
X120330498Y-100811568D01*
X120299709Y-100617173D01*
X120244803Y-100448193D01*
X120238884Y-100429975D01*
X120238882Y-100429972D01*
X120238882Y-100429970D01*
X120149523Y-100254594D01*
X120132299Y-100230887D01*
X120033828Y-100095354D01*
X119894646Y-99956172D01*
X119815025Y-99898324D01*
X119735403Y-99840474D01*
X119558787Y-99750485D01*
X119507990Y-99702511D01*
X119491195Y-99634690D01*
X119513732Y-99568555D01*
X119558787Y-99529515D01*
X119735403Y-99439525D01*
X119735402Y-99439525D01*
X119735405Y-99439524D01*
X119894646Y-99323828D01*
X120033828Y-99184646D01*
X120149524Y-99025405D01*
X120238884Y-98850025D01*
X120299709Y-98662826D01*
X120304586Y-98632033D01*
X120330481Y-98468543D01*
X123754499Y-98468543D01*
X123792947Y-98661829D01*
X123792950Y-98661839D01*
X123868364Y-98843907D01*
X123868371Y-98843920D01*
X123977860Y-99007781D01*
X123977863Y-99007785D01*
X124117214Y-99147136D01*
X124117218Y-99147139D01*
X124281079Y-99256628D01*
X124281092Y-99256635D01*
X124463160Y-99332049D01*
X124463165Y-99332051D01*
X124463169Y-99332051D01*
X124463170Y-99332052D01*
X124656456Y-99370500D01*
X124656459Y-99370500D01*
X124853543Y-99370500D01*
X124983582Y-99344632D01*
X125046835Y-99332051D01*
X125228914Y-99256632D01*
X125392782Y-99147139D01*
X125532139Y-99007782D01*
X125641632Y-98843914D01*
X125673377Y-98767275D01*
X125673378Y-98767273D01*
X137369500Y-98767273D01*
X137369500Y-98872727D01*
X137396793Y-98974587D01*
X137449520Y-99065913D01*
X137524087Y-99140480D01*
X137615413Y-99193207D01*
X137717273Y-99220500D01*
X137717275Y-99220500D01*
X137822725Y-99220500D01*
X137822727Y-99220500D01*
X137924587Y-99193207D01*
X138015913Y-99140480D01*
X138090480Y-99065913D01*
X138143207Y-98974587D01*
X138170500Y-98872727D01*
X138170500Y-98866356D01*
X144127000Y-98866356D01*
X144127000Y-98958644D01*
X144140167Y-99007785D01*
X144150887Y-99047790D01*
X144150888Y-99047793D01*
X144197026Y-99127705D01*
X144197029Y-99127709D01*
X144197031Y-99127712D01*
X144262288Y-99192969D01*
X144262291Y-99192970D01*
X144262294Y-99192973D01*
X144342206Y-99239111D01*
X144342207Y-99239111D01*
X144342212Y-99239114D01*
X144431356Y-99263000D01*
X144431358Y-99263000D01*
X144523642Y-99263000D01*
X144523644Y-99263000D01*
X144612788Y-99239114D01*
X144692712Y-99192969D01*
X144757969Y-99127712D01*
X144804114Y-99047788D01*
X144828000Y-98958644D01*
X144828000Y-98866356D01*
X144804114Y-98777212D01*
X144798376Y-98767273D01*
X144757973Y-98697294D01*
X144757970Y-98697291D01*
X144757969Y-98697288D01*
X144692712Y-98632031D01*
X144692709Y-98632029D01*
X144692705Y-98632026D01*
X144612793Y-98585888D01*
X144612790Y-98585887D01*
X144612789Y-98585886D01*
X144612788Y-98585886D01*
X144523644Y-98562000D01*
X144431356Y-98562000D01*
X144342212Y-98585886D01*
X144342211Y-98585886D01*
X144342209Y-98585887D01*
X144342206Y-98585888D01*
X144262294Y-98632026D01*
X144262285Y-98632033D01*
X144197033Y-98697285D01*
X144197026Y-98697294D01*
X144150888Y-98777206D01*
X144150887Y-98777209D01*
X144150886Y-98777211D01*
X144150886Y-98777212D01*
X144127000Y-98866356D01*
X138170500Y-98866356D01*
X138170500Y-98767273D01*
X138143207Y-98665413D01*
X138090480Y-98574087D01*
X138015913Y-98499520D01*
X137924587Y-98446793D01*
X137822727Y-98419500D01*
X137717273Y-98419500D01*
X137615413Y-98446793D01*
X137615410Y-98446794D01*
X137524085Y-98499521D01*
X137449521Y-98574085D01*
X137396794Y-98665410D01*
X137396793Y-98665413D01*
X137369500Y-98767273D01*
X125673378Y-98767273D01*
X125696399Y-98711694D01*
X125696399Y-98711693D01*
X125717051Y-98661835D01*
X125732158Y-98585886D01*
X125755500Y-98468543D01*
X125755500Y-98393856D01*
X145549500Y-98393856D01*
X145549500Y-98486144D01*
X145573064Y-98574087D01*
X145573387Y-98575290D01*
X145573388Y-98575293D01*
X145619526Y-98655205D01*
X145619529Y-98655209D01*
X145619531Y-98655212D01*
X145684788Y-98720469D01*
X145684791Y-98720470D01*
X145684794Y-98720473D01*
X145764706Y-98766611D01*
X145764707Y-98766611D01*
X145764712Y-98766614D01*
X145853856Y-98790500D01*
X145853858Y-98790500D01*
X145946142Y-98790500D01*
X145946144Y-98790500D01*
X146035288Y-98766614D01*
X146115212Y-98720469D01*
X146180469Y-98655212D01*
X146226614Y-98575288D01*
X146250500Y-98486144D01*
X146250500Y-98393856D01*
X146226614Y-98304712D01*
X146226611Y-98304706D01*
X146180473Y-98224794D01*
X146180470Y-98224791D01*
X146180469Y-98224788D01*
X146115212Y-98159531D01*
X146115209Y-98159529D01*
X146115205Y-98159526D01*
X146035293Y-98113388D01*
X146035290Y-98113387D01*
X146035289Y-98113386D01*
X146035288Y-98113386D01*
X145959919Y-98093191D01*
X151597000Y-98093191D01*
X151597000Y-98211809D01*
X151627701Y-98326386D01*
X151687011Y-98429113D01*
X151770887Y-98512989D01*
X151873614Y-98572299D01*
X151988191Y-98603000D01*
X151988194Y-98603000D01*
X152106806Y-98603000D01*
X152106809Y-98603000D01*
X152221386Y-98572299D01*
X152324113Y-98512989D01*
X152407989Y-98429113D01*
X152467299Y-98326386D01*
X152498000Y-98211809D01*
X152498000Y-98093191D01*
X152467299Y-97978614D01*
X152407989Y-97875887D01*
X152324113Y-97792011D01*
X152221386Y-97732701D01*
X152106809Y-97702000D01*
X151988191Y-97702000D01*
X151873614Y-97732701D01*
X151873612Y-97732701D01*
X151873612Y-97732702D01*
X151770887Y-97792011D01*
X151770884Y-97792013D01*
X151687013Y-97875884D01*
X151687011Y-97875887D01*
X151640875Y-97955797D01*
X151627701Y-97978614D01*
X151597000Y-98093191D01*
X145959919Y-98093191D01*
X145946144Y-98089500D01*
X145853856Y-98089500D01*
X145764712Y-98113386D01*
X145764711Y-98113386D01*
X145764709Y-98113387D01*
X145764706Y-98113388D01*
X145684794Y-98159526D01*
X145684785Y-98159533D01*
X145619533Y-98224785D01*
X145619526Y-98224794D01*
X145573388Y-98304706D01*
X145573387Y-98304709D01*
X145573386Y-98304711D01*
X145573386Y-98304712D01*
X145549500Y-98393856D01*
X125755500Y-98393856D01*
X125755500Y-98271456D01*
X125717052Y-98078170D01*
X125717051Y-98078169D01*
X125717051Y-98078165D01*
X125705586Y-98050486D01*
X125641635Y-97896092D01*
X125641628Y-97896079D01*
X125532139Y-97732218D01*
X125532136Y-97732214D01*
X125392785Y-97592863D01*
X125392781Y-97592860D01*
X125228920Y-97483371D01*
X125228907Y-97483364D01*
X125125884Y-97440691D01*
X132391500Y-97440691D01*
X132391500Y-97559309D01*
X132422201Y-97673886D01*
X132481511Y-97776613D01*
X132565387Y-97860489D01*
X132668114Y-97919799D01*
X132782691Y-97950500D01*
X132782694Y-97950500D01*
X132901306Y-97950500D01*
X132901309Y-97950500D01*
X133015886Y-97919799D01*
X133118613Y-97860489D01*
X133202489Y-97776613D01*
X133261799Y-97673886D01*
X133292500Y-97559309D01*
X133292500Y-97476691D01*
X138275500Y-97476691D01*
X138275500Y-97595309D01*
X138306201Y-97709886D01*
X138365511Y-97812613D01*
X138449387Y-97896489D01*
X138552114Y-97955799D01*
X138666691Y-97986500D01*
X138666694Y-97986500D01*
X138785306Y-97986500D01*
X138785309Y-97986500D01*
X138899886Y-97955799D01*
X139002613Y-97896489D01*
X139086489Y-97812613D01*
X139145799Y-97709886D01*
X139176500Y-97595309D01*
X139176500Y-97476691D01*
X139145799Y-97362114D01*
X139086489Y-97259387D01*
X139005293Y-97178191D01*
X143577000Y-97178191D01*
X143577000Y-97296809D01*
X143607701Y-97411386D01*
X143667011Y-97514113D01*
X143750887Y-97597989D01*
X143853614Y-97657299D01*
X143968191Y-97688000D01*
X143968194Y-97688000D01*
X144086806Y-97688000D01*
X144086809Y-97688000D01*
X144201386Y-97657299D01*
X144201388Y-97657297D01*
X144201390Y-97657297D01*
X144201391Y-97657296D01*
X144247469Y-97630693D01*
X144277999Y-97613065D01*
X144345898Y-97596592D01*
X144402001Y-97613066D01*
X144478608Y-97657296D01*
X144478609Y-97657297D01*
X144478611Y-97657297D01*
X144478614Y-97657299D01*
X144593191Y-97688000D01*
X144593194Y-97688000D01*
X144711806Y-97688000D01*
X144711809Y-97688000D01*
X144826386Y-97657299D01*
X144872472Y-97630691D01*
X158199500Y-97630691D01*
X158199500Y-97749309D01*
X158230201Y-97863886D01*
X158289511Y-97966613D01*
X158373387Y-98050489D01*
X158476114Y-98109799D01*
X158590691Y-98140500D01*
X158590694Y-98140500D01*
X158709306Y-98140500D01*
X158709309Y-98140500D01*
X158823886Y-98109799D01*
X158926613Y-98050489D01*
X159010489Y-97966613D01*
X159069799Y-97863886D01*
X159100500Y-97749309D01*
X159100500Y-97630691D01*
X159069799Y-97516114D01*
X159010489Y-97413387D01*
X158926613Y-97329511D01*
X158823886Y-97270201D01*
X158709309Y-97239500D01*
X158590691Y-97239500D01*
X158476114Y-97270201D01*
X158476112Y-97270201D01*
X158476112Y-97270202D01*
X158373387Y-97329511D01*
X158373384Y-97329513D01*
X158289513Y-97413384D01*
X158289511Y-97413387D01*
X158230201Y-97516114D01*
X158199500Y-97630691D01*
X144872472Y-97630691D01*
X144929113Y-97597989D01*
X145012989Y-97514113D01*
X145072299Y-97411386D01*
X145103000Y-97296809D01*
X145103000Y-97178191D01*
X145072299Y-97063614D01*
X145012989Y-96960887D01*
X144929113Y-96877011D01*
X144848885Y-96830691D01*
X154049500Y-96830691D01*
X154049500Y-96949309D01*
X154080201Y-97063886D01*
X154139511Y-97166613D01*
X154223387Y-97250489D01*
X154326114Y-97309799D01*
X154440691Y-97340500D01*
X154440694Y-97340500D01*
X154559306Y-97340500D01*
X154559309Y-97340500D01*
X154673886Y-97309799D01*
X154776613Y-97250489D01*
X154860489Y-97166613D01*
X154919799Y-97063886D01*
X154950500Y-96949309D01*
X154950500Y-96830691D01*
X154919799Y-96716114D01*
X154860489Y-96613387D01*
X154776613Y-96529511D01*
X154673886Y-96470201D01*
X154559309Y-96439500D01*
X154440691Y-96439500D01*
X154326114Y-96470201D01*
X154326112Y-96470201D01*
X154326112Y-96470202D01*
X154223387Y-96529511D01*
X154223384Y-96529513D01*
X154139513Y-96613384D01*
X154139511Y-96613387D01*
X154080201Y-96716114D01*
X154049500Y-96830691D01*
X144848885Y-96830691D01*
X144826386Y-96817701D01*
X144711809Y-96787000D01*
X144593191Y-96787000D01*
X144488005Y-96815184D01*
X144478610Y-96817702D01*
X144402000Y-96861934D01*
X144334100Y-96878407D01*
X144278000Y-96861934D01*
X144201389Y-96817702D01*
X144201390Y-96817702D01*
X144191994Y-96815184D01*
X144086809Y-96787000D01*
X143968191Y-96787000D01*
X143853614Y-96817701D01*
X143853612Y-96817701D01*
X143853612Y-96817702D01*
X143750887Y-96877011D01*
X143750884Y-96877013D01*
X143667013Y-96960884D01*
X143667011Y-96960887D01*
X143662149Y-96969309D01*
X143607701Y-97063614D01*
X143577000Y-97178191D01*
X139005293Y-97178191D01*
X139002613Y-97175511D01*
X138899886Y-97116201D01*
X138785309Y-97085500D01*
X138666691Y-97085500D01*
X138552114Y-97116201D01*
X138552112Y-97116201D01*
X138552112Y-97116202D01*
X138449387Y-97175511D01*
X138449384Y-97175513D01*
X138365513Y-97259384D01*
X138365511Y-97259387D01*
X138325025Y-97329511D01*
X138306201Y-97362114D01*
X138275500Y-97476691D01*
X133292500Y-97476691D01*
X133292500Y-97440691D01*
X133261799Y-97326114D01*
X133202489Y-97223387D01*
X133118613Y-97139511D01*
X133015886Y-97080201D01*
X132901309Y-97049500D01*
X132782691Y-97049500D01*
X132668114Y-97080201D01*
X132668112Y-97080201D01*
X132668112Y-97080202D01*
X132565387Y-97139511D01*
X132565384Y-97139513D01*
X132481513Y-97223384D01*
X132481511Y-97223387D01*
X132431621Y-97309799D01*
X132422201Y-97326114D01*
X132391500Y-97440691D01*
X125125884Y-97440691D01*
X125046839Y-97407950D01*
X125046829Y-97407947D01*
X124853543Y-97369500D01*
X124853541Y-97369500D01*
X124656459Y-97369500D01*
X124656457Y-97369500D01*
X124463170Y-97407947D01*
X124463160Y-97407950D01*
X124281092Y-97483364D01*
X124281079Y-97483371D01*
X124117218Y-97592860D01*
X124117214Y-97592863D01*
X123977863Y-97732214D01*
X123977860Y-97732218D01*
X123868371Y-97896079D01*
X123868364Y-97896092D01*
X123792950Y-98078160D01*
X123792947Y-98078170D01*
X123754500Y-98271456D01*
X123754500Y-98271459D01*
X123754500Y-98468541D01*
X123754500Y-98468543D01*
X123754499Y-98468543D01*
X120330481Y-98468543D01*
X120330500Y-98468422D01*
X120330500Y-98271586D01*
X120330498Y-98271568D01*
X120299709Y-98077173D01*
X120248574Y-97919797D01*
X120238884Y-97889975D01*
X120238882Y-97889972D01*
X120238882Y-97889970D01*
X120188969Y-97792011D01*
X120149524Y-97714595D01*
X120033828Y-97555354D01*
X119894646Y-97416172D01*
X119741380Y-97304817D01*
X119698716Y-97249488D01*
X119692737Y-97179874D01*
X119725343Y-97118079D01*
X119786182Y-97083722D01*
X119814267Y-97080500D01*
X119961525Y-97080500D01*
X120055302Y-97065647D01*
X120055303Y-97065646D01*
X120055305Y-97065646D01*
X120168343Y-97008050D01*
X120258050Y-96918343D01*
X120292521Y-96850691D01*
X130779500Y-96850691D01*
X130779500Y-96969309D01*
X130810201Y-97083886D01*
X130869511Y-97186613D01*
X130953387Y-97270489D01*
X131056114Y-97329799D01*
X131170691Y-97360500D01*
X131170694Y-97360500D01*
X131289306Y-97360500D01*
X131289309Y-97360500D01*
X131403886Y-97329799D01*
X131506613Y-97270489D01*
X131590489Y-97186613D01*
X131649799Y-97083886D01*
X131680500Y-96969309D01*
X131680500Y-96850691D01*
X131649799Y-96736114D01*
X131590489Y-96633387D01*
X131506613Y-96549511D01*
X131403886Y-96490201D01*
X131289309Y-96459500D01*
X131170691Y-96459500D01*
X131056114Y-96490201D01*
X131056112Y-96490201D01*
X131056112Y-96490202D01*
X130953387Y-96549511D01*
X130953384Y-96549513D01*
X130869513Y-96633384D01*
X130869511Y-96633387D01*
X130824398Y-96711525D01*
X130810201Y-96736114D01*
X130779500Y-96850691D01*
X120292521Y-96850691D01*
X120315646Y-96805305D01*
X120315646Y-96805303D01*
X120315647Y-96805302D01*
X120330500Y-96711525D01*
X120330500Y-96694822D01*
X123754499Y-96694822D01*
X123763231Y-96738717D01*
X123763234Y-96738724D01*
X123795491Y-96787000D01*
X123796496Y-96788504D01*
X123846278Y-96821767D01*
X123846281Y-96821767D01*
X123846282Y-96821768D01*
X123890177Y-96830500D01*
X123890180Y-96830500D01*
X125619822Y-96830500D01*
X125663717Y-96821768D01*
X125663717Y-96821767D01*
X125663722Y-96821767D01*
X125713504Y-96788504D01*
X125746767Y-96738722D01*
X125755500Y-96694820D01*
X125755500Y-95911171D01*
X140799799Y-95911171D01*
X140824797Y-96036838D01*
X140824799Y-96036844D01*
X140873833Y-96155224D01*
X140873838Y-96155233D01*
X140945023Y-96261768D01*
X140945026Y-96261772D01*
X141035627Y-96352373D01*
X141035631Y-96352376D01*
X141142166Y-96423561D01*
X141142172Y-96423564D01*
X141142173Y-96423565D01*
X141260556Y-96472601D01*
X141260560Y-96472601D01*
X141260561Y-96472602D01*
X141386228Y-96497600D01*
X141386231Y-96497600D01*
X141514371Y-96497600D01*
X141598915Y-96480782D01*
X141640044Y-96472601D01*
X141758427Y-96423565D01*
X141864969Y-96352376D01*
X141955576Y-96261769D01*
X142026765Y-96155227D01*
X142075801Y-96036844D01*
X142082495Y-96003191D01*
X156902500Y-96003191D01*
X156902500Y-96121809D01*
X156933201Y-96236386D01*
X156992511Y-96339113D01*
X157076387Y-96422989D01*
X157179114Y-96482299D01*
X157293691Y-96513000D01*
X157293694Y-96513000D01*
X157412306Y-96513000D01*
X157412309Y-96513000D01*
X157526886Y-96482299D01*
X157629613Y-96422989D01*
X157713489Y-96339113D01*
X157772799Y-96236386D01*
X157803500Y-96121809D01*
X157803500Y-96003191D01*
X157772799Y-95888614D01*
X157713489Y-95785887D01*
X157629613Y-95702011D01*
X157526886Y-95642701D01*
X157412309Y-95612000D01*
X157293691Y-95612000D01*
X157179114Y-95642701D01*
X157179112Y-95642701D01*
X157179112Y-95642702D01*
X157076387Y-95702011D01*
X157076384Y-95702013D01*
X156992513Y-95785884D01*
X156992511Y-95785887D01*
X156933201Y-95888614D01*
X156902500Y-96003191D01*
X142082495Y-96003191D01*
X142100800Y-95911169D01*
X142100800Y-95783031D01*
X142100800Y-95783028D01*
X142075802Y-95657361D01*
X142075801Y-95657360D01*
X142075801Y-95657356D01*
X142026765Y-95538973D01*
X142026764Y-95538972D01*
X142026761Y-95538966D01*
X141955576Y-95432431D01*
X141955573Y-95432427D01*
X141864972Y-95341826D01*
X141864968Y-95341823D01*
X141758433Y-95270638D01*
X141758424Y-95270633D01*
X141640044Y-95221599D01*
X141640038Y-95221597D01*
X141514371Y-95196600D01*
X141514369Y-95196600D01*
X141386231Y-95196600D01*
X141386229Y-95196600D01*
X141260561Y-95221597D01*
X141260555Y-95221599D01*
X141142175Y-95270633D01*
X141142166Y-95270638D01*
X141035631Y-95341823D01*
X141035627Y-95341826D01*
X140945026Y-95432427D01*
X140945023Y-95432431D01*
X140873838Y-95538966D01*
X140873833Y-95538975D01*
X140824799Y-95657355D01*
X140824797Y-95657361D01*
X140799800Y-95783028D01*
X140799800Y-95783031D01*
X140799800Y-95911169D01*
X140799800Y-95911171D01*
X140799799Y-95911171D01*
X125755500Y-95911171D01*
X125755500Y-95140911D01*
X138233500Y-95140911D01*
X138233500Y-95259529D01*
X138264201Y-95374106D01*
X138323511Y-95476833D01*
X138407387Y-95560709D01*
X138510114Y-95620019D01*
X138624691Y-95650720D01*
X138624694Y-95650720D01*
X138743306Y-95650720D01*
X138743309Y-95650720D01*
X138857886Y-95620019D01*
X138960613Y-95560709D01*
X139044489Y-95476833D01*
X139103799Y-95374106D01*
X139134500Y-95259529D01*
X139134500Y-95140911D01*
X139103799Y-95026334D01*
X139044489Y-94923607D01*
X138960613Y-94839731D01*
X138857886Y-94780421D01*
X138743309Y-94749720D01*
X138624691Y-94749720D01*
X138510114Y-94780421D01*
X138510112Y-94780421D01*
X138510112Y-94780422D01*
X138407387Y-94839731D01*
X138407384Y-94839733D01*
X138323513Y-94923604D01*
X138323511Y-94923607D01*
X138264201Y-95026334D01*
X138233500Y-95140911D01*
X125755500Y-95140911D01*
X125755500Y-94965180D01*
X125755500Y-94965177D01*
X125746768Y-94921282D01*
X125746767Y-94921281D01*
X125746767Y-94921278D01*
X125713504Y-94871496D01*
X125713503Y-94871495D01*
X125663724Y-94838234D01*
X125663717Y-94838231D01*
X125619822Y-94829500D01*
X125619820Y-94829500D01*
X123890180Y-94829500D01*
X123890178Y-94829500D01*
X123846282Y-94838231D01*
X123846275Y-94838234D01*
X123796496Y-94871495D01*
X123796495Y-94871496D01*
X123763234Y-94921275D01*
X123763231Y-94921282D01*
X123754500Y-94965177D01*
X123754500Y-94965180D01*
X123754500Y-96694820D01*
X123754500Y-96694822D01*
X123754499Y-96694822D01*
X120330500Y-96694822D01*
X120330500Y-94948474D01*
X120315647Y-94854697D01*
X120308021Y-94839731D01*
X120258050Y-94741657D01*
X120258046Y-94741653D01*
X120258045Y-94741651D01*
X120168348Y-94651954D01*
X120168345Y-94651952D01*
X120168343Y-94651950D01*
X120091518Y-94612805D01*
X120055302Y-94594352D01*
X119961525Y-94579500D01*
X119961520Y-94579500D01*
X118198480Y-94579500D01*
X118198475Y-94579500D01*
X118104697Y-94594352D01*
X118029336Y-94632751D01*
X117991657Y-94651950D01*
X117991656Y-94651951D01*
X117991651Y-94651954D01*
X117901954Y-94741651D01*
X117901951Y-94741656D01*
X117901950Y-94741657D01*
X117897267Y-94750848D01*
X117844352Y-94854697D01*
X117829500Y-94948474D01*
X109595500Y-94948474D01*
X109595500Y-91119077D01*
X146139500Y-91119077D01*
X146139500Y-92615922D01*
X146170290Y-92810326D01*
X146231117Y-92997529D01*
X146272910Y-93079551D01*
X146320476Y-93172905D01*
X146436172Y-93332146D01*
X146575354Y-93471328D01*
X146734595Y-93587024D01*
X146817455Y-93629243D01*
X146909970Y-93676382D01*
X146909972Y-93676382D01*
X146909975Y-93676384D01*
X147010317Y-93708987D01*
X147097173Y-93737209D01*
X147291578Y-93768000D01*
X147291583Y-93768000D01*
X147488422Y-93768000D01*
X147682826Y-93737209D01*
X147685260Y-93736418D01*
X147870025Y-93676384D01*
X148045405Y-93587024D01*
X148204646Y-93471328D01*
X148343828Y-93332146D01*
X148459524Y-93172905D01*
X148548884Y-92997525D01*
X148609709Y-92810326D01*
X148618201Y-92756710D01*
X148640500Y-92615922D01*
X148640500Y-91278804D01*
X150589500Y-91278804D01*
X150589500Y-92456195D01*
X150624103Y-92630158D01*
X150624106Y-92630167D01*
X150691983Y-92794040D01*
X150691990Y-92794053D01*
X150790535Y-92941534D01*
X150790538Y-92941538D01*
X150915961Y-93066961D01*
X150915965Y-93066964D01*
X151063446Y-93165509D01*
X151063459Y-93165516D01*
X151186363Y-93216423D01*
X151227334Y-93233394D01*
X151227336Y-93233394D01*
X151227341Y-93233396D01*
X151401304Y-93267999D01*
X151401307Y-93268000D01*
X151401309Y-93268000D01*
X151578693Y-93268000D01*
X151578694Y-93267999D01*
X151636682Y-93256464D01*
X151752658Y-93233396D01*
X151752661Y-93233394D01*
X151752666Y-93233394D01*
X151916547Y-93165513D01*
X152064035Y-93066964D01*
X152189464Y-92941535D01*
X152288013Y-92794047D01*
X152293426Y-92780980D01*
X152332272Y-92687195D01*
X152355894Y-92630166D01*
X152358728Y-92615922D01*
X152368383Y-92567382D01*
X152400768Y-92505471D01*
X152461483Y-92470897D01*
X152531253Y-92474636D01*
X152587925Y-92515503D01*
X152611617Y-92567382D01*
X152624103Y-92630158D01*
X152624106Y-92630167D01*
X152691983Y-92794040D01*
X152691990Y-92794053D01*
X152790535Y-92941534D01*
X152790538Y-92941538D01*
X152915961Y-93066961D01*
X152915965Y-93066964D01*
X153063446Y-93165509D01*
X153063459Y-93165516D01*
X153186363Y-93216423D01*
X153227334Y-93233394D01*
X153227336Y-93233394D01*
X153227341Y-93233396D01*
X153401304Y-93267999D01*
X153401307Y-93268000D01*
X153401309Y-93268000D01*
X153578693Y-93268000D01*
X153578694Y-93267999D01*
X153636682Y-93256464D01*
X153752658Y-93233396D01*
X153752661Y-93233394D01*
X153752666Y-93233394D01*
X153916547Y-93165513D01*
X154064035Y-93066964D01*
X154189464Y-92941535D01*
X154197778Y-92929091D01*
X154251387Y-92884285D01*
X154320711Y-92875575D01*
X154383740Y-92905727D01*
X154418812Y-92959657D01*
X154431081Y-92997416D01*
X154431118Y-92997530D01*
X154472909Y-93079549D01*
X154520476Y-93172905D01*
X154636172Y-93332146D01*
X154775354Y-93471328D01*
X154934595Y-93587024D01*
X155017455Y-93629243D01*
X155109970Y-93676382D01*
X155109972Y-93676382D01*
X155109975Y-93676384D01*
X155210317Y-93708987D01*
X155297173Y-93737209D01*
X155491578Y-93768000D01*
X155491583Y-93768000D01*
X155688422Y-93768000D01*
X155882826Y-93737209D01*
X155885260Y-93736418D01*
X156070025Y-93676384D01*
X156245405Y-93587024D01*
X156404646Y-93471328D01*
X156543828Y-93332146D01*
X156659524Y-93172905D01*
X156748884Y-92997525D01*
X156809709Y-92810326D01*
X156814358Y-92780974D01*
X160674500Y-92780974D01*
X160674500Y-94544025D01*
X160689352Y-94637802D01*
X160696563Y-94651954D01*
X160746950Y-94750843D01*
X160746952Y-94750845D01*
X160746954Y-94750848D01*
X160836651Y-94840545D01*
X160836653Y-94840546D01*
X160836657Y-94840550D01*
X160949695Y-94898146D01*
X160949697Y-94898147D01*
X161043475Y-94913000D01*
X161043480Y-94913000D01*
X162806525Y-94913000D01*
X162900302Y-94898147D01*
X162900303Y-94898146D01*
X162900305Y-94898146D01*
X163013343Y-94840550D01*
X163103050Y-94750843D01*
X163160646Y-94637805D01*
X163160646Y-94637803D01*
X163160647Y-94637802D01*
X163175500Y-94544025D01*
X163175500Y-93736420D01*
X163714499Y-93736420D01*
X163743340Y-93881407D01*
X163743343Y-93881417D01*
X163799912Y-94017988D01*
X163799919Y-94018001D01*
X163882048Y-94140915D01*
X163882051Y-94140919D01*
X163986580Y-94245448D01*
X163986584Y-94245451D01*
X164109498Y-94327580D01*
X164109511Y-94327587D01*
X164246082Y-94384156D01*
X164246087Y-94384158D01*
X164246091Y-94384158D01*
X164246092Y-94384159D01*
X164391079Y-94413000D01*
X164391082Y-94413000D01*
X164538920Y-94413000D01*
X164636462Y-94393596D01*
X164683913Y-94384158D01*
X164820495Y-94327584D01*
X164943416Y-94245451D01*
X165047951Y-94140916D01*
X165130084Y-94017995D01*
X165186658Y-93881413D01*
X165215500Y-93736418D01*
X165215500Y-93588582D01*
X165215500Y-93588579D01*
X165186659Y-93443592D01*
X165186658Y-93443591D01*
X165186658Y-93443587D01*
X165140499Y-93332148D01*
X165130087Y-93307011D01*
X165130080Y-93306998D01*
X165047951Y-93184084D01*
X165047948Y-93184080D01*
X164943419Y-93079551D01*
X164943415Y-93079548D01*
X164820501Y-92997419D01*
X164820488Y-92997412D01*
X164683917Y-92940843D01*
X164683907Y-92940840D01*
X164538920Y-92912000D01*
X164538918Y-92912000D01*
X164391082Y-92912000D01*
X164391080Y-92912000D01*
X164246092Y-92940840D01*
X164246082Y-92940843D01*
X164109511Y-92997412D01*
X164109498Y-92997419D01*
X163986584Y-93079548D01*
X163986580Y-93079551D01*
X163882051Y-93184080D01*
X163882048Y-93184084D01*
X163799919Y-93306998D01*
X163799912Y-93307011D01*
X163743343Y-93443582D01*
X163743340Y-93443592D01*
X163714500Y-93588579D01*
X163714500Y-93588582D01*
X163714500Y-93736418D01*
X163714500Y-93736420D01*
X163714499Y-93736420D01*
X163175500Y-93736420D01*
X163175500Y-92780974D01*
X163160647Y-92687197D01*
X163160646Y-92687195D01*
X163103050Y-92574157D01*
X163103046Y-92574153D01*
X163103045Y-92574151D01*
X163013348Y-92484454D01*
X163013345Y-92484452D01*
X163013343Y-92484450D01*
X162936518Y-92445305D01*
X162900302Y-92426852D01*
X162806525Y-92412000D01*
X162806520Y-92412000D01*
X161043480Y-92412000D01*
X161043475Y-92412000D01*
X160949697Y-92426852D01*
X160892118Y-92456191D01*
X160836657Y-92484450D01*
X160836656Y-92484451D01*
X160836651Y-92484454D01*
X160746954Y-92574151D01*
X160746951Y-92574156D01*
X160689352Y-92687197D01*
X160674500Y-92780974D01*
X156814358Y-92780974D01*
X156818201Y-92756710D01*
X156840500Y-92615922D01*
X156840500Y-91196420D01*
X163714499Y-91196420D01*
X163743340Y-91341407D01*
X163743343Y-91341417D01*
X163799912Y-91477988D01*
X163799919Y-91478001D01*
X163882048Y-91600915D01*
X163882051Y-91600919D01*
X163986580Y-91705448D01*
X163986584Y-91705451D01*
X164109498Y-91787580D01*
X164109511Y-91787587D01*
X164246082Y-91844156D01*
X164246087Y-91844158D01*
X164246091Y-91844158D01*
X164246092Y-91844159D01*
X164391079Y-91873000D01*
X164391082Y-91873000D01*
X164538920Y-91873000D01*
X164636462Y-91853596D01*
X164683913Y-91844158D01*
X164820495Y-91787584D01*
X164943416Y-91705451D01*
X165047951Y-91600916D01*
X165130084Y-91477995D01*
X165186658Y-91341413D01*
X165208914Y-91229528D01*
X165215500Y-91196420D01*
X165215500Y-91048579D01*
X165186659Y-90903592D01*
X165186658Y-90903591D01*
X165186658Y-90903587D01*
X165141044Y-90793465D01*
X165130087Y-90767011D01*
X165130080Y-90766998D01*
X165047951Y-90644084D01*
X165047948Y-90644080D01*
X164943419Y-90539551D01*
X164943415Y-90539548D01*
X164820501Y-90457419D01*
X164820488Y-90457412D01*
X164683917Y-90400843D01*
X164683907Y-90400840D01*
X164538920Y-90372000D01*
X164538918Y-90372000D01*
X164391082Y-90372000D01*
X164391080Y-90372000D01*
X164246092Y-90400840D01*
X164246082Y-90400843D01*
X164109511Y-90457412D01*
X164109498Y-90457419D01*
X163986584Y-90539548D01*
X163986580Y-90539551D01*
X163882051Y-90644080D01*
X163882048Y-90644084D01*
X163799919Y-90766998D01*
X163799912Y-90767011D01*
X163743343Y-90903582D01*
X163743340Y-90903592D01*
X163714500Y-91048579D01*
X163714500Y-91048582D01*
X163714500Y-91196418D01*
X163714500Y-91196420D01*
X163714499Y-91196420D01*
X156840500Y-91196420D01*
X156840500Y-91119077D01*
X156831442Y-91061888D01*
X156809709Y-90924673D01*
X156758479Y-90767005D01*
X156748884Y-90737475D01*
X156748882Y-90737472D01*
X156748882Y-90737470D01*
X156701297Y-90644080D01*
X156659524Y-90562095D01*
X156543828Y-90402854D01*
X156404646Y-90263672D01*
X156245405Y-90147976D01*
X156233943Y-90142136D01*
X156070029Y-90058617D01*
X155882826Y-89997790D01*
X155688422Y-89967000D01*
X155688417Y-89967000D01*
X155491583Y-89967000D01*
X155491578Y-89967000D01*
X155297173Y-89997790D01*
X155109970Y-90058617D01*
X154934594Y-90147976D01*
X154907966Y-90167323D01*
X154775354Y-90263672D01*
X154775352Y-90263674D01*
X154775351Y-90263674D01*
X154636174Y-90402851D01*
X154636174Y-90402852D01*
X154636172Y-90402854D01*
X154596533Y-90457412D01*
X154520476Y-90562094D01*
X154431115Y-90737474D01*
X154418812Y-90775340D01*
X154379374Y-90833015D01*
X154315015Y-90860212D01*
X154246168Y-90848296D01*
X154197780Y-90805910D01*
X154189464Y-90793465D01*
X154189462Y-90793463D01*
X154189460Y-90793460D01*
X154064038Y-90668038D01*
X154064034Y-90668035D01*
X153916553Y-90569490D01*
X153916540Y-90569483D01*
X153752667Y-90501606D01*
X153752658Y-90501603D01*
X153578694Y-90467000D01*
X153578691Y-90467000D01*
X153401309Y-90467000D01*
X153401306Y-90467000D01*
X153227341Y-90501603D01*
X153227332Y-90501606D01*
X153063459Y-90569483D01*
X153063446Y-90569490D01*
X152915965Y-90668035D01*
X152915961Y-90668038D01*
X152790538Y-90793461D01*
X152790535Y-90793465D01*
X152691990Y-90940946D01*
X152691983Y-90940959D01*
X152624106Y-91104832D01*
X152624104Y-91104840D01*
X152611617Y-91167618D01*
X152579232Y-91229528D01*
X152518516Y-91264103D01*
X152448747Y-91260363D01*
X152392075Y-91219496D01*
X152368383Y-91167618D01*
X152355895Y-91104840D01*
X152355894Y-91104834D01*
X152332593Y-91048579D01*
X152288016Y-90940959D01*
X152288009Y-90940946D01*
X152189464Y-90793465D01*
X152189461Y-90793461D01*
X152064038Y-90668038D01*
X152064034Y-90668035D01*
X151916553Y-90569490D01*
X151916540Y-90569483D01*
X151752667Y-90501606D01*
X151752658Y-90501603D01*
X151578694Y-90467000D01*
X151578691Y-90467000D01*
X151401309Y-90467000D01*
X151401306Y-90467000D01*
X151227341Y-90501603D01*
X151227332Y-90501606D01*
X151063459Y-90569483D01*
X151063446Y-90569490D01*
X150915965Y-90668035D01*
X150915961Y-90668038D01*
X150790538Y-90793461D01*
X150790535Y-90793465D01*
X150691990Y-90940946D01*
X150691983Y-90940959D01*
X150624106Y-91104832D01*
X150624103Y-91104841D01*
X150589500Y-91278804D01*
X148640500Y-91278804D01*
X148640500Y-91119077D01*
X148609709Y-90924673D01*
X148558479Y-90767005D01*
X148548884Y-90737475D01*
X148548882Y-90737472D01*
X148548882Y-90737470D01*
X148501297Y-90644080D01*
X148459524Y-90562095D01*
X148343828Y-90402854D01*
X148204646Y-90263672D01*
X148045405Y-90147976D01*
X147937477Y-90092984D01*
X147886682Y-90045011D01*
X147869887Y-89977190D01*
X147892424Y-89911055D01*
X147947139Y-89867603D01*
X147993773Y-89858500D01*
X148064306Y-89858500D01*
X148064309Y-89858500D01*
X148178886Y-89827799D01*
X148281613Y-89768489D01*
X148365489Y-89684613D01*
X148424799Y-89581886D01*
X148455500Y-89467309D01*
X148455500Y-89348691D01*
X148424799Y-89234114D01*
X148365489Y-89131387D01*
X148281613Y-89047511D01*
X148178886Y-88988201D01*
X148064309Y-88957500D01*
X147945691Y-88957500D01*
X147831114Y-88988201D01*
X147831112Y-88988201D01*
X147831112Y-88988202D01*
X147728387Y-89047511D01*
X147728384Y-89047513D01*
X147644513Y-89131384D01*
X147644511Y-89131387D01*
X147585201Y-89234114D01*
X147554500Y-89348691D01*
X147554500Y-89467309D01*
X147585201Y-89581886D01*
X147644511Y-89684613D01*
X147728387Y-89768489D01*
X147728393Y-89768492D01*
X147729440Y-89769296D01*
X147730105Y-89770207D01*
X147734134Y-89774236D01*
X147733505Y-89774864D01*
X147770642Y-89825725D01*
X147774797Y-89895471D01*
X147740584Y-89956391D01*
X147678867Y-89989143D01*
X147634555Y-89990145D01*
X147488422Y-89967000D01*
X147488417Y-89967000D01*
X147291583Y-89967000D01*
X147291578Y-89967000D01*
X147097173Y-89997790D01*
X146909970Y-90058617D01*
X146734594Y-90147976D01*
X146707966Y-90167323D01*
X146575354Y-90263672D01*
X146575352Y-90263674D01*
X146575351Y-90263674D01*
X146436174Y-90402851D01*
X146436174Y-90402852D01*
X146436172Y-90402854D01*
X146396533Y-90457412D01*
X146320476Y-90562094D01*
X146231117Y-90737470D01*
X146170290Y-90924673D01*
X146139500Y-91119077D01*
X109595500Y-91119077D01*
X109595500Y-89818191D01*
X125519500Y-89818191D01*
X125519500Y-89936809D01*
X125550201Y-90051386D01*
X125609511Y-90154113D01*
X125693387Y-90237989D01*
X125796114Y-90297299D01*
X125910691Y-90328000D01*
X125910694Y-90328000D01*
X126029306Y-90328000D01*
X126029309Y-90328000D01*
X126143886Y-90297299D01*
X126246613Y-90237989D01*
X126330489Y-90154113D01*
X126389799Y-90051386D01*
X126420500Y-89936809D01*
X126420500Y-89818191D01*
X126389799Y-89703614D01*
X126330489Y-89600887D01*
X126246613Y-89517011D01*
X126143886Y-89457701D01*
X126029309Y-89427000D01*
X125910691Y-89427000D01*
X125796114Y-89457701D01*
X125796112Y-89457701D01*
X125796112Y-89457702D01*
X125693387Y-89517011D01*
X125693384Y-89517013D01*
X125609513Y-89600884D01*
X125609511Y-89600887D01*
X125577213Y-89656829D01*
X125550201Y-89703614D01*
X125519500Y-89818191D01*
X109595500Y-89818191D01*
X109595500Y-89231379D01*
X128639500Y-89231379D01*
X128639500Y-89418620D01*
X128676025Y-89602243D01*
X128676027Y-89602251D01*
X128747676Y-89775228D01*
X128747681Y-89775237D01*
X128851697Y-89930907D01*
X128851700Y-89930911D01*
X128984088Y-90063299D01*
X128984092Y-90063302D01*
X129139762Y-90167318D01*
X129139768Y-90167321D01*
X129139769Y-90167322D01*
X129312749Y-90238973D01*
X129496379Y-90275499D01*
X129496383Y-90275500D01*
X129496384Y-90275500D01*
X129683617Y-90275500D01*
X129683618Y-90275499D01*
X129867251Y-90238973D01*
X130040231Y-90167322D01*
X130195908Y-90063302D01*
X130328302Y-89930908D01*
X130432322Y-89775231D01*
X130503973Y-89602251D01*
X130531564Y-89463543D01*
X131619499Y-89463543D01*
X131657947Y-89656829D01*
X131657950Y-89656839D01*
X131733364Y-89838907D01*
X131733371Y-89838920D01*
X131842860Y-90002781D01*
X131842863Y-90002785D01*
X131982214Y-90142136D01*
X131982218Y-90142139D01*
X132146079Y-90251628D01*
X132146092Y-90251635D01*
X132328160Y-90327049D01*
X132328165Y-90327051D01*
X132328169Y-90327051D01*
X132328170Y-90327052D01*
X132521456Y-90365500D01*
X132521459Y-90365500D01*
X132718543Y-90365500D01*
X132848582Y-90339632D01*
X132911835Y-90327051D01*
X133093914Y-90251632D01*
X133257782Y-90142139D01*
X133397139Y-90002782D01*
X133506632Y-89838914D01*
X133582051Y-89656835D01*
X133609864Y-89517011D01*
X133620500Y-89463543D01*
X133620500Y-89266456D01*
X133582052Y-89073170D01*
X133582051Y-89073169D01*
X133582051Y-89073165D01*
X133571526Y-89047756D01*
X133506635Y-88891092D01*
X133506628Y-88891079D01*
X133397139Y-88727218D01*
X133397136Y-88727214D01*
X133257785Y-88587863D01*
X133257781Y-88587860D01*
X133093920Y-88478371D01*
X133093907Y-88478364D01*
X132911839Y-88402950D01*
X132911829Y-88402947D01*
X132718543Y-88364500D01*
X132718541Y-88364500D01*
X132521459Y-88364500D01*
X132521457Y-88364500D01*
X132328170Y-88402947D01*
X132328160Y-88402950D01*
X132146092Y-88478364D01*
X132146079Y-88478371D01*
X131982218Y-88587860D01*
X131982214Y-88587863D01*
X131842863Y-88727214D01*
X131842860Y-88727218D01*
X131733371Y-88891079D01*
X131733364Y-88891092D01*
X131657950Y-89073160D01*
X131657947Y-89073170D01*
X131619500Y-89266456D01*
X131619500Y-89266459D01*
X131619500Y-89463541D01*
X131619500Y-89463543D01*
X131619499Y-89463543D01*
X130531564Y-89463543D01*
X130540500Y-89418616D01*
X130540500Y-89231384D01*
X130503973Y-89047749D01*
X130432322Y-88874769D01*
X130432321Y-88874768D01*
X130432318Y-88874762D01*
X130328302Y-88719092D01*
X130328299Y-88719088D01*
X130195911Y-88586700D01*
X130195907Y-88586697D01*
X130040237Y-88482681D01*
X130040228Y-88482676D01*
X129867251Y-88411027D01*
X129867243Y-88411025D01*
X129683620Y-88374500D01*
X129683616Y-88374500D01*
X129496384Y-88374500D01*
X129496379Y-88374500D01*
X129312756Y-88411025D01*
X129312748Y-88411027D01*
X129139771Y-88482676D01*
X129139762Y-88482681D01*
X128984092Y-88586697D01*
X128984088Y-88586700D01*
X128851700Y-88719088D01*
X128851697Y-88719092D01*
X128747681Y-88874762D01*
X128747676Y-88874771D01*
X128676027Y-89047748D01*
X128676025Y-89047756D01*
X128639500Y-89231379D01*
X109595500Y-89231379D01*
X109595500Y-84811571D01*
X136499499Y-84811571D01*
X136524497Y-84937238D01*
X136524499Y-84937244D01*
X136573533Y-85055624D01*
X136573538Y-85055633D01*
X136644723Y-85162168D01*
X136644726Y-85162172D01*
X136735327Y-85252773D01*
X136735331Y-85252776D01*
X136841866Y-85323961D01*
X136841872Y-85323964D01*
X136841873Y-85323965D01*
X136960256Y-85373001D01*
X136960258Y-85373001D01*
X136960260Y-85373002D01*
X136968459Y-85374633D01*
X137030370Y-85407019D01*
X137064943Y-85467735D01*
X137061202Y-85537505D01*
X137020335Y-85594176D01*
X136968459Y-85617867D01*
X136960260Y-85619497D01*
X136960255Y-85619499D01*
X136841875Y-85668533D01*
X136841866Y-85668538D01*
X136735331Y-85739723D01*
X136735327Y-85739726D01*
X136644726Y-85830327D01*
X136644723Y-85830331D01*
X136573538Y-85936866D01*
X136573533Y-85936875D01*
X136524499Y-86055255D01*
X136524497Y-86055261D01*
X136499500Y-86180928D01*
X136499500Y-86180931D01*
X136499500Y-86309069D01*
X136499500Y-86309071D01*
X136499499Y-86309071D01*
X136524497Y-86434738D01*
X136524499Y-86434744D01*
X136573533Y-86553124D01*
X136573538Y-86553133D01*
X136644723Y-86659668D01*
X136644726Y-86659672D01*
X136735327Y-86750273D01*
X136735331Y-86750276D01*
X136841866Y-86821461D01*
X136841872Y-86821464D01*
X136841873Y-86821465D01*
X136960256Y-86870501D01*
X136960260Y-86870501D01*
X136960261Y-86870502D01*
X137085928Y-86895500D01*
X137085931Y-86895500D01*
X137214071Y-86895500D01*
X137298615Y-86878682D01*
X137339744Y-86870501D01*
X137458127Y-86821465D01*
X137564669Y-86750276D01*
X137655276Y-86659669D01*
X137726465Y-86553127D01*
X137775501Y-86434744D01*
X137800500Y-86309069D01*
X137800500Y-86180931D01*
X137800500Y-86180928D01*
X137775502Y-86055261D01*
X137775501Y-86055260D01*
X137775501Y-86055256D01*
X137726465Y-85936873D01*
X137726464Y-85936872D01*
X137726461Y-85936866D01*
X137655276Y-85830331D01*
X137655273Y-85830327D01*
X137564672Y-85739726D01*
X137564668Y-85739723D01*
X137458133Y-85668538D01*
X137458124Y-85668533D01*
X137399339Y-85644184D01*
X137399336Y-85644182D01*
X137339744Y-85619499D01*
X137322168Y-85616003D01*
X137313198Y-85612727D01*
X137292460Y-85597423D01*
X137269631Y-85585482D01*
X137264813Y-85577022D01*
X137256978Y-85571240D01*
X137247806Y-85547155D01*
X137240016Y-85533475D01*
X146827000Y-85533475D01*
X146827000Y-86846517D01*
X146830799Y-86870500D01*
X146841854Y-86940304D01*
X146899450Y-87053342D01*
X146899452Y-87053344D01*
X146899454Y-87053347D01*
X146989152Y-87143045D01*
X146989154Y-87143046D01*
X146989158Y-87143050D01*
X147102194Y-87200645D01*
X147102198Y-87200647D01*
X147195975Y-87215499D01*
X147195981Y-87215500D01*
X147959018Y-87215499D01*
X148052804Y-87200646D01*
X148165842Y-87143050D01*
X148255550Y-87053342D01*
X148313146Y-86940304D01*
X148313146Y-86940302D01*
X148313147Y-86940301D01*
X148327999Y-86846524D01*
X148328000Y-86846519D01*
X148327999Y-85533482D01*
X148313146Y-85439696D01*
X148255550Y-85326658D01*
X148255546Y-85326654D01*
X148255545Y-85326652D01*
X148165847Y-85236954D01*
X148165844Y-85236952D01*
X148165842Y-85236950D01*
X148089017Y-85197805D01*
X148052801Y-85179352D01*
X147959024Y-85164500D01*
X147195982Y-85164500D01*
X147115019Y-85177323D01*
X147102196Y-85179354D01*
X146989158Y-85236950D01*
X146989157Y-85236951D01*
X146989152Y-85236954D01*
X146899454Y-85326652D01*
X146899451Y-85326657D01*
X146841852Y-85439698D01*
X146827000Y-85533475D01*
X137240016Y-85533475D01*
X137235057Y-85524766D01*
X137235578Y-85515044D01*
X137232113Y-85505945D01*
X137237416Y-85480729D01*
X137238796Y-85454997D01*
X137244490Y-85447099D01*
X137246495Y-85437572D01*
X137264592Y-85419224D01*
X137279663Y-85398325D01*
X137289749Y-85393718D01*
X137295560Y-85387828D01*
X137309516Y-85384691D01*
X137331542Y-85374633D01*
X137335195Y-85373905D01*
X137339744Y-85373001D01*
X137458127Y-85323965D01*
X137564669Y-85252776D01*
X137655276Y-85162169D01*
X137726465Y-85055627D01*
X137775501Y-84937244D01*
X137800500Y-84811569D01*
X137800500Y-84683431D01*
X137800500Y-84683428D01*
X137775502Y-84557761D01*
X137775501Y-84557760D01*
X137775501Y-84557756D01*
X137726465Y-84439373D01*
X137726464Y-84439372D01*
X137726461Y-84439366D01*
X137655276Y-84332831D01*
X137655273Y-84332827D01*
X137564672Y-84242226D01*
X137564668Y-84242223D01*
X137458133Y-84171038D01*
X137458124Y-84171033D01*
X137339744Y-84121999D01*
X137339738Y-84121997D01*
X137214071Y-84097000D01*
X137214069Y-84097000D01*
X137085931Y-84097000D01*
X137085929Y-84097000D01*
X136960261Y-84121997D01*
X136960255Y-84121999D01*
X136841875Y-84171033D01*
X136841866Y-84171038D01*
X136735331Y-84242223D01*
X136735327Y-84242226D01*
X136644726Y-84332827D01*
X136644723Y-84332831D01*
X136573538Y-84439366D01*
X136573533Y-84439375D01*
X136524499Y-84557755D01*
X136524497Y-84557761D01*
X136499500Y-84683428D01*
X136499500Y-84683431D01*
X136499500Y-84811569D01*
X136499500Y-84811571D01*
X136499499Y-84811571D01*
X109595500Y-84811571D01*
X109595500Y-80044500D01*
X109615185Y-79977461D01*
X109667989Y-79931706D01*
X109719500Y-79920500D01*
X171970500Y-79920500D01*
X172037539Y-79940185D01*
G37*
%TD.AperFunction*%
%TD*%
M02*
