%TF.GenerationSoftware,KiCad,Pcbnew,8.0.5*%
%TF.CreationDate,2025-01-24T13:28:19-08:00*%
%TF.ProjectId,LTC3556_v1.2a,4c544333-3535-4365-9f76-312e32612e6b,rev?*%
%TF.SameCoordinates,Original*%
%TF.FileFunction,Drillmap*%
%TF.FilePolarity,Positive*%
%FSLAX45Y45*%
G04 Gerber Fmt 4.5, Leading zero omitted, Abs format (unit mm)*
G04 Created by KiCad (PCBNEW 8.0.5) date 2025-01-24 13:28:19*
%MOMM*%
%LPD*%
G01*
G04 APERTURE LIST*
%ADD10C,0.050000*%
%ADD11C,0.200000*%
%ADD12C,0.100000*%
%ADD13C,0.150000*%
%ADD14C,0.350000*%
G04 APERTURE END LIST*
D10*
X12146500Y-7280000D02*
X17312500Y-7280000D01*
X17312500Y-11053000D01*
X12146500Y-11053000D01*
X12146500Y-7280000D01*
D11*
D12*
X14667750Y-9290000D02*
X14687750Y-9310000D01*
X14687750Y-9290000D02*
X14667750Y-9310000D01*
X14667750Y-9395000D02*
X14687750Y-9415000D01*
X14687750Y-9395000D02*
X14667750Y-9415000D01*
X14667750Y-9500000D02*
X14687750Y-9520000D01*
X14687750Y-9500000D02*
X14667750Y-9520000D01*
X14667750Y-9605000D02*
X14687750Y-9625000D01*
X14687750Y-9605000D02*
X14667750Y-9625000D01*
X14775250Y-9290000D02*
X14795250Y-9310000D01*
X14795250Y-9290000D02*
X14775250Y-9310000D01*
X14775250Y-9395000D02*
X14795250Y-9415000D01*
X14795250Y-9395000D02*
X14775250Y-9415000D01*
X14775250Y-9500000D02*
X14795250Y-9520000D01*
X14795250Y-9500000D02*
X14775250Y-9520000D01*
X14775250Y-9605000D02*
X14795250Y-9625000D01*
X14795250Y-9605000D02*
X14775250Y-9625000D01*
X14882750Y-9290000D02*
X14902750Y-9310000D01*
X14902750Y-9290000D02*
X14882750Y-9310000D01*
X14882750Y-9395000D02*
X14902750Y-9415000D01*
X14902750Y-9395000D02*
X14882750Y-9415000D01*
X14882750Y-9500000D02*
X14902750Y-9520000D01*
X14902750Y-9500000D02*
X14882750Y-9520000D01*
X14882750Y-9605000D02*
X14902750Y-9625000D01*
X14902750Y-9605000D02*
X14882750Y-9625000D01*
X13949000Y-9660000D02*
G75*
G02*
X13919000Y-9660000I-15000J0D01*
G01*
X13919000Y-9660000D02*
G75*
G02*
X13949000Y-9660000I15000J0D01*
G01*
X14126000Y-9638000D02*
G75*
G02*
X14096000Y-9638000I-15000J0D01*
G01*
X14096000Y-9638000D02*
G75*
G02*
X14126000Y-9638000I15000J0D01*
G01*
X14215000Y-10225000D02*
G75*
G02*
X14185000Y-10225000I-15000J0D01*
G01*
X14185000Y-10225000D02*
G75*
G02*
X14215000Y-10225000I15000J0D01*
G01*
X14240000Y-8925000D02*
G75*
G02*
X14210000Y-8925000I-15000J0D01*
G01*
X14210000Y-8925000D02*
G75*
G02*
X14240000Y-8925000I15000J0D01*
G01*
X14396500Y-9658000D02*
G75*
G02*
X14366500Y-9658000I-15000J0D01*
G01*
X14366500Y-9658000D02*
G75*
G02*
X14396500Y-9658000I15000J0D01*
G01*
X14490000Y-10175000D02*
G75*
G02*
X14460000Y-10175000I-15000J0D01*
G01*
X14460000Y-10175000D02*
G75*
G02*
X14490000Y-10175000I15000J0D01*
G01*
X14502000Y-9602000D02*
G75*
G02*
X14472000Y-9602000I-15000J0D01*
G01*
X14472000Y-9602000D02*
G75*
G02*
X14502000Y-9602000I15000J0D01*
G01*
X14504294Y-9671963D02*
G75*
G02*
X14474294Y-9671963I-15000J0D01*
G01*
X14474294Y-9671963D02*
G75*
G02*
X14504294Y-9671963I15000J0D01*
G01*
X14525000Y-9532000D02*
G75*
G02*
X14495000Y-9532000I-15000J0D01*
G01*
X14495000Y-9532000D02*
G75*
G02*
X14525000Y-9532000I15000J0D01*
G01*
X14542500Y-10025000D02*
G75*
G02*
X14512500Y-10025000I-15000J0D01*
G01*
X14512500Y-10025000D02*
G75*
G02*
X14542500Y-10025000I15000J0D01*
G01*
X14553500Y-10100000D02*
G75*
G02*
X14523500Y-10100000I-15000J0D01*
G01*
X14523500Y-10100000D02*
G75*
G02*
X14553500Y-10100000I15000J0D01*
G01*
X14604000Y-9233000D02*
G75*
G02*
X14574000Y-9233000I-15000J0D01*
G01*
X14574000Y-9233000D02*
G75*
G02*
X14604000Y-9233000I15000J0D01*
G01*
X14665000Y-9875000D02*
G75*
G02*
X14635000Y-9875000I-15000J0D01*
G01*
X14635000Y-9875000D02*
G75*
G02*
X14665000Y-9875000I15000J0D01*
G01*
X14718500Y-9797500D02*
G75*
G02*
X14688500Y-9797500I-15000J0D01*
G01*
X14688500Y-9797500D02*
G75*
G02*
X14718500Y-9797500I15000J0D01*
G01*
X14744000Y-10274000D02*
G75*
G02*
X14714000Y-10274000I-15000J0D01*
G01*
X14714000Y-10274000D02*
G75*
G02*
X14744000Y-10274000I15000J0D01*
G01*
X14788383Y-9801543D02*
G75*
G02*
X14758383Y-9801543I-15000J0D01*
G01*
X14758383Y-9801543D02*
G75*
G02*
X14788383Y-9801543I15000J0D01*
G01*
X14815000Y-8800000D02*
G75*
G02*
X14785000Y-8800000I-15000J0D01*
G01*
X14785000Y-8800000D02*
G75*
G02*
X14815000Y-8800000I15000J0D01*
G01*
X14890000Y-8650000D02*
G75*
G02*
X14860000Y-8650000I-15000J0D01*
G01*
X14860000Y-8650000D02*
G75*
G02*
X14890000Y-8650000I15000J0D01*
G01*
X14903000Y-9803500D02*
G75*
G02*
X14873000Y-9803500I-15000J0D01*
G01*
X14873000Y-9803500D02*
G75*
G02*
X14903000Y-9803500I15000J0D01*
G01*
X15015000Y-8925000D02*
G75*
G02*
X14985000Y-8925000I-15000J0D01*
G01*
X14985000Y-8925000D02*
G75*
G02*
X15015000Y-8925000I15000J0D01*
G01*
X15015000Y-10100000D02*
G75*
G02*
X14985000Y-10100000I-15000J0D01*
G01*
X14985000Y-10100000D02*
G75*
G02*
X15015000Y-10100000I15000J0D01*
G01*
X15077750Y-9480000D02*
G75*
G02*
X15047750Y-9480000I-15000J0D01*
G01*
X15047750Y-9480000D02*
G75*
G02*
X15077750Y-9480000I15000J0D01*
G01*
X15090000Y-9585000D02*
G75*
G02*
X15060000Y-9585000I-15000J0D01*
G01*
X15060000Y-9585000D02*
G75*
G02*
X15090000Y-9585000I15000J0D01*
G01*
X15090000Y-9925000D02*
G75*
G02*
X15060000Y-9925000I-15000J0D01*
G01*
X15060000Y-9925000D02*
G75*
G02*
X15090000Y-9925000I15000J0D01*
G01*
X15115000Y-9325000D02*
G75*
G02*
X15085000Y-9325000I-15000J0D01*
G01*
X15085000Y-9325000D02*
G75*
G02*
X15115000Y-9325000I15000J0D01*
G01*
X15115000Y-9750000D02*
G75*
G02*
X15085000Y-9750000I-15000J0D01*
G01*
X15085000Y-9750000D02*
G75*
G02*
X15115000Y-9750000I15000J0D01*
G01*
X15140000Y-9252500D02*
G75*
G02*
X15110000Y-9252500I-15000J0D01*
G01*
X15110000Y-9252500D02*
G75*
G02*
X15140000Y-9252500I15000J0D01*
G01*
X15165000Y-10050000D02*
G75*
G02*
X15135000Y-10050000I-15000J0D01*
G01*
X15135000Y-10050000D02*
G75*
G02*
X15165000Y-10050000I15000J0D01*
G01*
X15215000Y-9075000D02*
G75*
G02*
X15185000Y-9075000I-15000J0D01*
G01*
X15185000Y-9075000D02*
G75*
G02*
X15215000Y-9075000I15000J0D01*
G01*
X15390000Y-9750000D02*
G75*
G02*
X15360000Y-9750000I-15000J0D01*
G01*
X15360000Y-9750000D02*
G75*
G02*
X15390000Y-9750000I15000J0D01*
G01*
X15790000Y-9250000D02*
G75*
G02*
X15760000Y-9250000I-15000J0D01*
G01*
X15760000Y-9250000D02*
G75*
G02*
X15790000Y-9250000I15000J0D01*
G01*
X14500000Y-7395000D02*
X14500000Y-7445000D01*
X14475000Y-7420000D02*
X14525000Y-7420000D01*
X14525000Y-7452500D02*
X14525000Y-7387500D01*
X14475000Y-7387500D02*
G75*
G02*
X14525000Y-7387500I25000J0D01*
G01*
X14475000Y-7387500D02*
X14475000Y-7452500D01*
X14475000Y-7452500D02*
G75*
G03*
X14525000Y-7452500I25000J0D01*
G01*
X15200000Y-7395000D02*
X15200000Y-7445000D01*
X15175000Y-7420000D02*
X15225000Y-7420000D01*
X15225000Y-7452500D02*
X15225000Y-7387500D01*
X15175000Y-7387500D02*
G75*
G02*
X15225000Y-7387500I25000J0D01*
G01*
X15175000Y-7387500D02*
X15175000Y-7452500D01*
X15175000Y-7452500D02*
G75*
G03*
X15225000Y-7452500I25000J0D01*
G01*
X14619446Y-7709446D02*
X14619446Y-7670554D01*
X14580554Y-7670554D01*
X14580554Y-7709446D01*
X14619446Y-7709446D01*
X14615000Y-7662500D02*
X14585000Y-7662500D01*
X14585000Y-7717500D02*
G75*
G02*
X14585000Y-7662500I0J27500D01*
G01*
X14585000Y-7717500D02*
X14615000Y-7717500D01*
X14615000Y-7717500D02*
G75*
G03*
X14615000Y-7662500I0J27500D01*
G01*
X15119446Y-7709446D02*
X15119446Y-7670554D01*
X15080554Y-7670554D01*
X15080554Y-7709446D01*
X15119446Y-7709446D01*
X15115000Y-7662500D02*
X15085000Y-7662500D01*
X15085000Y-7717500D02*
G75*
G02*
X15085000Y-7662500I0J27500D01*
G01*
X15085000Y-7717500D02*
X15115000Y-7717500D01*
X15115000Y-7717500D02*
G75*
G03*
X15115000Y-7662500I0J27500D01*
G01*
X14459000Y-10359500D02*
X14491500Y-10327000D01*
X14459000Y-10294500D01*
X14426500Y-10327000D01*
X14459000Y-10359500D01*
X15000000Y-10357500D02*
X15032500Y-10325000D01*
X15000000Y-10292500D01*
X14967500Y-10325000D01*
X15000000Y-10357500D01*
X15325000Y-10357500D02*
X15357500Y-10325000D01*
X15325000Y-10292500D01*
X15292500Y-10325000D01*
X15325000Y-10357500D01*
X15675000Y-9907500D02*
X15707500Y-9875000D01*
X15675000Y-9842500D01*
X15642500Y-9875000D01*
X15675000Y-9907500D01*
X15775000Y-9482500D02*
X15807500Y-9450000D01*
X15775000Y-9417500D01*
X15742500Y-9450000D01*
X15775000Y-9482500D01*
X13585000Y-8910000D02*
X13665000Y-8990000D01*
X13665000Y-8910000D02*
X13585000Y-8990000D01*
X13665000Y-8950000D02*
G75*
G02*
X13585000Y-8950000I-40000J0D01*
G01*
X13585000Y-8950000D02*
G75*
G02*
X13665000Y-8950000I40000J0D01*
G01*
X13585000Y-9110000D02*
X13665000Y-9190000D01*
X13665000Y-9110000D02*
X13585000Y-9190000D01*
X13665000Y-9150000D02*
G75*
G02*
X13585000Y-9150000I-40000J0D01*
G01*
X13585000Y-9150000D02*
G75*
G02*
X13665000Y-9150000I40000J0D01*
G01*
X13585000Y-9310000D02*
X13665000Y-9390000D01*
X13665000Y-9310000D02*
X13585000Y-9390000D01*
X13665000Y-9350000D02*
G75*
G02*
X13585000Y-9350000I-40000J0D01*
G01*
X13585000Y-9350000D02*
G75*
G02*
X13665000Y-9350000I40000J0D01*
G01*
D13*
X13550000Y-8665000D02*
X13700000Y-8815000D01*
X13700000Y-8665000D02*
X13550000Y-8815000D01*
X13625000Y-8665000D02*
X13625000Y-8815000D01*
X13550000Y-8740000D02*
X13700000Y-8740000D01*
X13550000Y-9485000D02*
X13700000Y-9635000D01*
X13700000Y-9485000D02*
X13550000Y-9635000D01*
X13625000Y-9485000D02*
X13625000Y-9635000D01*
X13550000Y-9560000D02*
X13700000Y-9560000D01*
D14*
X12900000Y-10350000D02*
X13250000Y-10700000D01*
X13250000Y-10350000D02*
X12900000Y-10700000D01*
X13198745Y-10648745D02*
X13198745Y-10401255D01*
X12951255Y-10401255D01*
X12951255Y-10648745D01*
X13198745Y-10648745D01*
X12925000Y-7675000D02*
X13275000Y-8025000D01*
X13275000Y-7675000D02*
X12925000Y-8025000D01*
X13223745Y-7973745D02*
X13223745Y-7726255D01*
X12976255Y-7726255D01*
X12976255Y-7973745D01*
X13223745Y-7973745D01*
X16350000Y-7725000D02*
X16700000Y-8075000D01*
X16700000Y-7725000D02*
X16350000Y-8075000D01*
X16648745Y-8023745D02*
X16648745Y-7776255D01*
X16401255Y-7776255D01*
X16401255Y-8023745D01*
X16648745Y-8023745D01*
X16400000Y-10350000D02*
X16750000Y-10700000D01*
X16750000Y-10350000D02*
X16400000Y-10700000D01*
X16698745Y-10648745D02*
X16698745Y-10401255D01*
X16451255Y-10401255D01*
X16451255Y-10648745D01*
X16698745Y-10648745D01*
D11*
X12404777Y-11366984D02*
X12404777Y-11166984D01*
X12404777Y-11166984D02*
X12452396Y-11166984D01*
X12452396Y-11166984D02*
X12480967Y-11176508D01*
X12480967Y-11176508D02*
X12500015Y-11195555D01*
X12500015Y-11195555D02*
X12509539Y-11214603D01*
X12509539Y-11214603D02*
X12519062Y-11252698D01*
X12519062Y-11252698D02*
X12519062Y-11281269D01*
X12519062Y-11281269D02*
X12509539Y-11319365D01*
X12509539Y-11319365D02*
X12500015Y-11338412D01*
X12500015Y-11338412D02*
X12480967Y-11357460D01*
X12480967Y-11357460D02*
X12452396Y-11366984D01*
X12452396Y-11366984D02*
X12404777Y-11366984D01*
X12604777Y-11366984D02*
X12604777Y-11233650D01*
X12604777Y-11271746D02*
X12614301Y-11252698D01*
X12614301Y-11252698D02*
X12623824Y-11243174D01*
X12623824Y-11243174D02*
X12642872Y-11233650D01*
X12642872Y-11233650D02*
X12661920Y-11233650D01*
X12728586Y-11366984D02*
X12728586Y-11233650D01*
X12728586Y-11166984D02*
X12719062Y-11176508D01*
X12719062Y-11176508D02*
X12728586Y-11186031D01*
X12728586Y-11186031D02*
X12738110Y-11176508D01*
X12738110Y-11176508D02*
X12728586Y-11166984D01*
X12728586Y-11166984D02*
X12728586Y-11186031D01*
X12852396Y-11366984D02*
X12833348Y-11357460D01*
X12833348Y-11357460D02*
X12823824Y-11338412D01*
X12823824Y-11338412D02*
X12823824Y-11166984D01*
X12957158Y-11366984D02*
X12938110Y-11357460D01*
X12938110Y-11357460D02*
X12928586Y-11338412D01*
X12928586Y-11338412D02*
X12928586Y-11166984D01*
X13185729Y-11366984D02*
X13185729Y-11166984D01*
X13185729Y-11166984D02*
X13252396Y-11309841D01*
X13252396Y-11309841D02*
X13319062Y-11166984D01*
X13319062Y-11166984D02*
X13319062Y-11366984D01*
X13500015Y-11366984D02*
X13500015Y-11262222D01*
X13500015Y-11262222D02*
X13490491Y-11243174D01*
X13490491Y-11243174D02*
X13471443Y-11233650D01*
X13471443Y-11233650D02*
X13433348Y-11233650D01*
X13433348Y-11233650D02*
X13414301Y-11243174D01*
X13500015Y-11357460D02*
X13480967Y-11366984D01*
X13480967Y-11366984D02*
X13433348Y-11366984D01*
X13433348Y-11366984D02*
X13414301Y-11357460D01*
X13414301Y-11357460D02*
X13404777Y-11338412D01*
X13404777Y-11338412D02*
X13404777Y-11319365D01*
X13404777Y-11319365D02*
X13414301Y-11300317D01*
X13414301Y-11300317D02*
X13433348Y-11290793D01*
X13433348Y-11290793D02*
X13480967Y-11290793D01*
X13480967Y-11290793D02*
X13500015Y-11281269D01*
X13595253Y-11233650D02*
X13595253Y-11433650D01*
X13595253Y-11243174D02*
X13614301Y-11233650D01*
X13614301Y-11233650D02*
X13652396Y-11233650D01*
X13652396Y-11233650D02*
X13671443Y-11243174D01*
X13671443Y-11243174D02*
X13680967Y-11252698D01*
X13680967Y-11252698D02*
X13690491Y-11271746D01*
X13690491Y-11271746D02*
X13690491Y-11328888D01*
X13690491Y-11328888D02*
X13680967Y-11347936D01*
X13680967Y-11347936D02*
X13671443Y-11357460D01*
X13671443Y-11357460D02*
X13652396Y-11366984D01*
X13652396Y-11366984D02*
X13614301Y-11366984D01*
X13614301Y-11366984D02*
X13595253Y-11357460D01*
X13776205Y-11347936D02*
X13785729Y-11357460D01*
X13785729Y-11357460D02*
X13776205Y-11366984D01*
X13776205Y-11366984D02*
X13766682Y-11357460D01*
X13766682Y-11357460D02*
X13776205Y-11347936D01*
X13776205Y-11347936D02*
X13776205Y-11366984D01*
X13776205Y-11243174D02*
X13785729Y-11252698D01*
X13785729Y-11252698D02*
X13776205Y-11262222D01*
X13776205Y-11262222D02*
X13766682Y-11252698D01*
X13766682Y-11252698D02*
X13776205Y-11243174D01*
X13776205Y-11243174D02*
X13776205Y-11262222D01*
D12*
X12124000Y-11685500D02*
X12144000Y-11705500D01*
X12144000Y-11685500D02*
X12124000Y-11705500D01*
D11*
X12442872Y-11586984D02*
X12461920Y-11586984D01*
X12461920Y-11586984D02*
X12480967Y-11596508D01*
X12480967Y-11596508D02*
X12490491Y-11606031D01*
X12490491Y-11606031D02*
X12500015Y-11625079D01*
X12500015Y-11625079D02*
X12509539Y-11663174D01*
X12509539Y-11663174D02*
X12509539Y-11710793D01*
X12509539Y-11710793D02*
X12500015Y-11748888D01*
X12500015Y-11748888D02*
X12490491Y-11767936D01*
X12490491Y-11767936D02*
X12480967Y-11777460D01*
X12480967Y-11777460D02*
X12461920Y-11786984D01*
X12461920Y-11786984D02*
X12442872Y-11786984D01*
X12442872Y-11786984D02*
X12423824Y-11777460D01*
X12423824Y-11777460D02*
X12414301Y-11767936D01*
X12414301Y-11767936D02*
X12404777Y-11748888D01*
X12404777Y-11748888D02*
X12395253Y-11710793D01*
X12395253Y-11710793D02*
X12395253Y-11663174D01*
X12395253Y-11663174D02*
X12404777Y-11625079D01*
X12404777Y-11625079D02*
X12414301Y-11606031D01*
X12414301Y-11606031D02*
X12423824Y-11596508D01*
X12423824Y-11596508D02*
X12442872Y-11586984D01*
X12595253Y-11767936D02*
X12604777Y-11777460D01*
X12604777Y-11777460D02*
X12595253Y-11786984D01*
X12595253Y-11786984D02*
X12585729Y-11777460D01*
X12585729Y-11777460D02*
X12595253Y-11767936D01*
X12595253Y-11767936D02*
X12595253Y-11786984D01*
X12680967Y-11606031D02*
X12690491Y-11596508D01*
X12690491Y-11596508D02*
X12709539Y-11586984D01*
X12709539Y-11586984D02*
X12757158Y-11586984D01*
X12757158Y-11586984D02*
X12776205Y-11596508D01*
X12776205Y-11596508D02*
X12785729Y-11606031D01*
X12785729Y-11606031D02*
X12795253Y-11625079D01*
X12795253Y-11625079D02*
X12795253Y-11644127D01*
X12795253Y-11644127D02*
X12785729Y-11672698D01*
X12785729Y-11672698D02*
X12671443Y-11786984D01*
X12671443Y-11786984D02*
X12795253Y-11786984D01*
X12919062Y-11586984D02*
X12938110Y-11586984D01*
X12938110Y-11586984D02*
X12957158Y-11596508D01*
X12957158Y-11596508D02*
X12966682Y-11606031D01*
X12966682Y-11606031D02*
X12976205Y-11625079D01*
X12976205Y-11625079D02*
X12985729Y-11663174D01*
X12985729Y-11663174D02*
X12985729Y-11710793D01*
X12985729Y-11710793D02*
X12976205Y-11748888D01*
X12976205Y-11748888D02*
X12966682Y-11767936D01*
X12966682Y-11767936D02*
X12957158Y-11777460D01*
X12957158Y-11777460D02*
X12938110Y-11786984D01*
X12938110Y-11786984D02*
X12919062Y-11786984D01*
X12919062Y-11786984D02*
X12900015Y-11777460D01*
X12900015Y-11777460D02*
X12890491Y-11767936D01*
X12890491Y-11767936D02*
X12880967Y-11748888D01*
X12880967Y-11748888D02*
X12871443Y-11710793D01*
X12871443Y-11710793D02*
X12871443Y-11663174D01*
X12871443Y-11663174D02*
X12880967Y-11625079D01*
X12880967Y-11625079D02*
X12890491Y-11606031D01*
X12890491Y-11606031D02*
X12900015Y-11596508D01*
X12900015Y-11596508D02*
X12919062Y-11586984D01*
X13109539Y-11586984D02*
X13128586Y-11586984D01*
X13128586Y-11586984D02*
X13147634Y-11596508D01*
X13147634Y-11596508D02*
X13157158Y-11606031D01*
X13157158Y-11606031D02*
X13166682Y-11625079D01*
X13166682Y-11625079D02*
X13176205Y-11663174D01*
X13176205Y-11663174D02*
X13176205Y-11710793D01*
X13176205Y-11710793D02*
X13166682Y-11748888D01*
X13166682Y-11748888D02*
X13157158Y-11767936D01*
X13157158Y-11767936D02*
X13147634Y-11777460D01*
X13147634Y-11777460D02*
X13128586Y-11786984D01*
X13128586Y-11786984D02*
X13109539Y-11786984D01*
X13109539Y-11786984D02*
X13090491Y-11777460D01*
X13090491Y-11777460D02*
X13080967Y-11767936D01*
X13080967Y-11767936D02*
X13071443Y-11748888D01*
X13071443Y-11748888D02*
X13061920Y-11710793D01*
X13061920Y-11710793D02*
X13061920Y-11663174D01*
X13061920Y-11663174D02*
X13071443Y-11625079D01*
X13071443Y-11625079D02*
X13080967Y-11606031D01*
X13080967Y-11606031D02*
X13090491Y-11596508D01*
X13090491Y-11596508D02*
X13109539Y-11586984D01*
X13261920Y-11786984D02*
X13261920Y-11653650D01*
X13261920Y-11672698D02*
X13271443Y-11663174D01*
X13271443Y-11663174D02*
X13290491Y-11653650D01*
X13290491Y-11653650D02*
X13319063Y-11653650D01*
X13319063Y-11653650D02*
X13338110Y-11663174D01*
X13338110Y-11663174D02*
X13347634Y-11682222D01*
X13347634Y-11682222D02*
X13347634Y-11786984D01*
X13347634Y-11682222D02*
X13357158Y-11663174D01*
X13357158Y-11663174D02*
X13376205Y-11653650D01*
X13376205Y-11653650D02*
X13404777Y-11653650D01*
X13404777Y-11653650D02*
X13423824Y-11663174D01*
X13423824Y-11663174D02*
X13433348Y-11682222D01*
X13433348Y-11682222D02*
X13433348Y-11786984D01*
X13528586Y-11786984D02*
X13528586Y-11653650D01*
X13528586Y-11672698D02*
X13538110Y-11663174D01*
X13538110Y-11663174D02*
X13557158Y-11653650D01*
X13557158Y-11653650D02*
X13585729Y-11653650D01*
X13585729Y-11653650D02*
X13604777Y-11663174D01*
X13604777Y-11663174D02*
X13614301Y-11682222D01*
X13614301Y-11682222D02*
X13614301Y-11786984D01*
X13614301Y-11682222D02*
X13623824Y-11663174D01*
X13623824Y-11663174D02*
X13642872Y-11653650D01*
X13642872Y-11653650D02*
X13671443Y-11653650D01*
X13671443Y-11653650D02*
X13690491Y-11663174D01*
X13690491Y-11663174D02*
X13700015Y-11682222D01*
X13700015Y-11682222D02*
X13700015Y-11786984D01*
X14090491Y-11577460D02*
X13919063Y-11834603D01*
X14347634Y-11586984D02*
X14366682Y-11586984D01*
X14366682Y-11586984D02*
X14385729Y-11596508D01*
X14385729Y-11596508D02*
X14395253Y-11606031D01*
X14395253Y-11606031D02*
X14404777Y-11625079D01*
X14404777Y-11625079D02*
X14414301Y-11663174D01*
X14414301Y-11663174D02*
X14414301Y-11710793D01*
X14414301Y-11710793D02*
X14404777Y-11748888D01*
X14404777Y-11748888D02*
X14395253Y-11767936D01*
X14395253Y-11767936D02*
X14385729Y-11777460D01*
X14385729Y-11777460D02*
X14366682Y-11786984D01*
X14366682Y-11786984D02*
X14347634Y-11786984D01*
X14347634Y-11786984D02*
X14328586Y-11777460D01*
X14328586Y-11777460D02*
X14319063Y-11767936D01*
X14319063Y-11767936D02*
X14309539Y-11748888D01*
X14309539Y-11748888D02*
X14300015Y-11710793D01*
X14300015Y-11710793D02*
X14300015Y-11663174D01*
X14300015Y-11663174D02*
X14309539Y-11625079D01*
X14309539Y-11625079D02*
X14319063Y-11606031D01*
X14319063Y-11606031D02*
X14328586Y-11596508D01*
X14328586Y-11596508D02*
X14347634Y-11586984D01*
X14500015Y-11767936D02*
X14509539Y-11777460D01*
X14509539Y-11777460D02*
X14500015Y-11786984D01*
X14500015Y-11786984D02*
X14490491Y-11777460D01*
X14490491Y-11777460D02*
X14500015Y-11767936D01*
X14500015Y-11767936D02*
X14500015Y-11786984D01*
X14633348Y-11586984D02*
X14652396Y-11586984D01*
X14652396Y-11586984D02*
X14671444Y-11596508D01*
X14671444Y-11596508D02*
X14680967Y-11606031D01*
X14680967Y-11606031D02*
X14690491Y-11625079D01*
X14690491Y-11625079D02*
X14700015Y-11663174D01*
X14700015Y-11663174D02*
X14700015Y-11710793D01*
X14700015Y-11710793D02*
X14690491Y-11748888D01*
X14690491Y-11748888D02*
X14680967Y-11767936D01*
X14680967Y-11767936D02*
X14671444Y-11777460D01*
X14671444Y-11777460D02*
X14652396Y-11786984D01*
X14652396Y-11786984D02*
X14633348Y-11786984D01*
X14633348Y-11786984D02*
X14614301Y-11777460D01*
X14614301Y-11777460D02*
X14604777Y-11767936D01*
X14604777Y-11767936D02*
X14595253Y-11748888D01*
X14595253Y-11748888D02*
X14585729Y-11710793D01*
X14585729Y-11710793D02*
X14585729Y-11663174D01*
X14585729Y-11663174D02*
X14595253Y-11625079D01*
X14595253Y-11625079D02*
X14604777Y-11606031D01*
X14604777Y-11606031D02*
X14614301Y-11596508D01*
X14614301Y-11596508D02*
X14633348Y-11586984D01*
X14823825Y-11586984D02*
X14842872Y-11586984D01*
X14842872Y-11586984D02*
X14861920Y-11596508D01*
X14861920Y-11596508D02*
X14871444Y-11606031D01*
X14871444Y-11606031D02*
X14880967Y-11625079D01*
X14880967Y-11625079D02*
X14890491Y-11663174D01*
X14890491Y-11663174D02*
X14890491Y-11710793D01*
X14890491Y-11710793D02*
X14880967Y-11748888D01*
X14880967Y-11748888D02*
X14871444Y-11767936D01*
X14871444Y-11767936D02*
X14861920Y-11777460D01*
X14861920Y-11777460D02*
X14842872Y-11786984D01*
X14842872Y-11786984D02*
X14823825Y-11786984D01*
X14823825Y-11786984D02*
X14804777Y-11777460D01*
X14804777Y-11777460D02*
X14795253Y-11767936D01*
X14795253Y-11767936D02*
X14785729Y-11748888D01*
X14785729Y-11748888D02*
X14776206Y-11710793D01*
X14776206Y-11710793D02*
X14776206Y-11663174D01*
X14776206Y-11663174D02*
X14785729Y-11625079D01*
X14785729Y-11625079D02*
X14795253Y-11606031D01*
X14795253Y-11606031D02*
X14804777Y-11596508D01*
X14804777Y-11596508D02*
X14823825Y-11586984D01*
X14957158Y-11586984D02*
X15090491Y-11586984D01*
X15090491Y-11586984D02*
X15004777Y-11786984D01*
X15176206Y-11786984D02*
X15214301Y-11786984D01*
X15214301Y-11786984D02*
X15233348Y-11777460D01*
X15233348Y-11777460D02*
X15242872Y-11767936D01*
X15242872Y-11767936D02*
X15261920Y-11739365D01*
X15261920Y-11739365D02*
X15271444Y-11701269D01*
X15271444Y-11701269D02*
X15271444Y-11625079D01*
X15271444Y-11625079D02*
X15261920Y-11606031D01*
X15261920Y-11606031D02*
X15252396Y-11596508D01*
X15252396Y-11596508D02*
X15233348Y-11586984D01*
X15233348Y-11586984D02*
X15195253Y-11586984D01*
X15195253Y-11586984D02*
X15176206Y-11596508D01*
X15176206Y-11596508D02*
X15166682Y-11606031D01*
X15166682Y-11606031D02*
X15157158Y-11625079D01*
X15157158Y-11625079D02*
X15157158Y-11672698D01*
X15157158Y-11672698D02*
X15166682Y-11691746D01*
X15166682Y-11691746D02*
X15176206Y-11701269D01*
X15176206Y-11701269D02*
X15195253Y-11710793D01*
X15195253Y-11710793D02*
X15233348Y-11710793D01*
X15233348Y-11710793D02*
X15252396Y-11701269D01*
X15252396Y-11701269D02*
X15261920Y-11691746D01*
X15261920Y-11691746D02*
X15271444Y-11672698D01*
X15347634Y-11586984D02*
X15347634Y-11625079D01*
X15423825Y-11586984D02*
X15423825Y-11625079D01*
X15719063Y-11863174D02*
X15709539Y-11853650D01*
X15709539Y-11853650D02*
X15690491Y-11825079D01*
X15690491Y-11825079D02*
X15680968Y-11806031D01*
X15680968Y-11806031D02*
X15671444Y-11777460D01*
X15671444Y-11777460D02*
X15661920Y-11729841D01*
X15661920Y-11729841D02*
X15661920Y-11691746D01*
X15661920Y-11691746D02*
X15671444Y-11644127D01*
X15671444Y-11644127D02*
X15680968Y-11615555D01*
X15680968Y-11615555D02*
X15690491Y-11596508D01*
X15690491Y-11596508D02*
X15709539Y-11567936D01*
X15709539Y-11567936D02*
X15719063Y-11558412D01*
X15900015Y-11786984D02*
X15785729Y-11786984D01*
X15842872Y-11786984D02*
X15842872Y-11586984D01*
X15842872Y-11586984D02*
X15823825Y-11615555D01*
X15823825Y-11615555D02*
X15804777Y-11634603D01*
X15804777Y-11634603D02*
X15785729Y-11644127D01*
X15976206Y-11606031D02*
X15985729Y-11596508D01*
X15985729Y-11596508D02*
X16004777Y-11586984D01*
X16004777Y-11586984D02*
X16052396Y-11586984D01*
X16052396Y-11586984D02*
X16071444Y-11596508D01*
X16071444Y-11596508D02*
X16080968Y-11606031D01*
X16080968Y-11606031D02*
X16090491Y-11625079D01*
X16090491Y-11625079D02*
X16090491Y-11644127D01*
X16090491Y-11644127D02*
X16080968Y-11672698D01*
X16080968Y-11672698D02*
X15966682Y-11786984D01*
X15966682Y-11786984D02*
X16090491Y-11786984D01*
X16328587Y-11786984D02*
X16328587Y-11586984D01*
X16414301Y-11786984D02*
X16414301Y-11682222D01*
X16414301Y-11682222D02*
X16404777Y-11663174D01*
X16404777Y-11663174D02*
X16385730Y-11653650D01*
X16385730Y-11653650D02*
X16357158Y-11653650D01*
X16357158Y-11653650D02*
X16338110Y-11663174D01*
X16338110Y-11663174D02*
X16328587Y-11672698D01*
X16538110Y-11786984D02*
X16519063Y-11777460D01*
X16519063Y-11777460D02*
X16509539Y-11767936D01*
X16509539Y-11767936D02*
X16500015Y-11748888D01*
X16500015Y-11748888D02*
X16500015Y-11691746D01*
X16500015Y-11691746D02*
X16509539Y-11672698D01*
X16509539Y-11672698D02*
X16519063Y-11663174D01*
X16519063Y-11663174D02*
X16538110Y-11653650D01*
X16538110Y-11653650D02*
X16566682Y-11653650D01*
X16566682Y-11653650D02*
X16585730Y-11663174D01*
X16585730Y-11663174D02*
X16595253Y-11672698D01*
X16595253Y-11672698D02*
X16604777Y-11691746D01*
X16604777Y-11691746D02*
X16604777Y-11748888D01*
X16604777Y-11748888D02*
X16595253Y-11767936D01*
X16595253Y-11767936D02*
X16585730Y-11777460D01*
X16585730Y-11777460D02*
X16566682Y-11786984D01*
X16566682Y-11786984D02*
X16538110Y-11786984D01*
X16719063Y-11786984D02*
X16700015Y-11777460D01*
X16700015Y-11777460D02*
X16690491Y-11758412D01*
X16690491Y-11758412D02*
X16690491Y-11586984D01*
X16871444Y-11777460D02*
X16852396Y-11786984D01*
X16852396Y-11786984D02*
X16814301Y-11786984D01*
X16814301Y-11786984D02*
X16795253Y-11777460D01*
X16795253Y-11777460D02*
X16785730Y-11758412D01*
X16785730Y-11758412D02*
X16785730Y-11682222D01*
X16785730Y-11682222D02*
X16795253Y-11663174D01*
X16795253Y-11663174D02*
X16814301Y-11653650D01*
X16814301Y-11653650D02*
X16852396Y-11653650D01*
X16852396Y-11653650D02*
X16871444Y-11663174D01*
X16871444Y-11663174D02*
X16880968Y-11682222D01*
X16880968Y-11682222D02*
X16880968Y-11701269D01*
X16880968Y-11701269D02*
X16785730Y-11720317D01*
X16957158Y-11777460D02*
X16976206Y-11786984D01*
X16976206Y-11786984D02*
X17014301Y-11786984D01*
X17014301Y-11786984D02*
X17033349Y-11777460D01*
X17033349Y-11777460D02*
X17042873Y-11758412D01*
X17042873Y-11758412D02*
X17042873Y-11748888D01*
X17042873Y-11748888D02*
X17033349Y-11729841D01*
X17033349Y-11729841D02*
X17014301Y-11720317D01*
X17014301Y-11720317D02*
X16985730Y-11720317D01*
X16985730Y-11720317D02*
X16966682Y-11710793D01*
X16966682Y-11710793D02*
X16957158Y-11691746D01*
X16957158Y-11691746D02*
X16957158Y-11682222D01*
X16957158Y-11682222D02*
X16966682Y-11663174D01*
X16966682Y-11663174D02*
X16985730Y-11653650D01*
X16985730Y-11653650D02*
X17014301Y-11653650D01*
X17014301Y-11653650D02*
X17033349Y-11663174D01*
X17109539Y-11863174D02*
X17119063Y-11853650D01*
X17119063Y-11853650D02*
X17138111Y-11825079D01*
X17138111Y-11825079D02*
X17147634Y-11806031D01*
X17147634Y-11806031D02*
X17157158Y-11777460D01*
X17157158Y-11777460D02*
X17166682Y-11729841D01*
X17166682Y-11729841D02*
X17166682Y-11691746D01*
X17166682Y-11691746D02*
X17157158Y-11644127D01*
X17157158Y-11644127D02*
X17147634Y-11615555D01*
X17147634Y-11615555D02*
X17138111Y-11596508D01*
X17138111Y-11596508D02*
X17119063Y-11567936D01*
X17119063Y-11567936D02*
X17109539Y-11558412D01*
D12*
X12144000Y-11959500D02*
G75*
G02*
X12114000Y-11959500I-15000J0D01*
G01*
X12114000Y-11959500D02*
G75*
G02*
X12144000Y-11959500I15000J0D01*
G01*
D11*
X12442872Y-11850984D02*
X12461920Y-11850984D01*
X12461920Y-11850984D02*
X12480967Y-11860508D01*
X12480967Y-11860508D02*
X12490491Y-11870031D01*
X12490491Y-11870031D02*
X12500015Y-11889079D01*
X12500015Y-11889079D02*
X12509539Y-11927174D01*
X12509539Y-11927174D02*
X12509539Y-11974793D01*
X12509539Y-11974793D02*
X12500015Y-12012888D01*
X12500015Y-12012888D02*
X12490491Y-12031936D01*
X12490491Y-12031936D02*
X12480967Y-12041460D01*
X12480967Y-12041460D02*
X12461920Y-12050984D01*
X12461920Y-12050984D02*
X12442872Y-12050984D01*
X12442872Y-12050984D02*
X12423824Y-12041460D01*
X12423824Y-12041460D02*
X12414301Y-12031936D01*
X12414301Y-12031936D02*
X12404777Y-12012888D01*
X12404777Y-12012888D02*
X12395253Y-11974793D01*
X12395253Y-11974793D02*
X12395253Y-11927174D01*
X12395253Y-11927174D02*
X12404777Y-11889079D01*
X12404777Y-11889079D02*
X12414301Y-11870031D01*
X12414301Y-11870031D02*
X12423824Y-11860508D01*
X12423824Y-11860508D02*
X12442872Y-11850984D01*
X12595253Y-12031936D02*
X12604777Y-12041460D01*
X12604777Y-12041460D02*
X12595253Y-12050984D01*
X12595253Y-12050984D02*
X12585729Y-12041460D01*
X12585729Y-12041460D02*
X12595253Y-12031936D01*
X12595253Y-12031936D02*
X12595253Y-12050984D01*
X12671443Y-11850984D02*
X12795253Y-11850984D01*
X12795253Y-11850984D02*
X12728586Y-11927174D01*
X12728586Y-11927174D02*
X12757158Y-11927174D01*
X12757158Y-11927174D02*
X12776205Y-11936698D01*
X12776205Y-11936698D02*
X12785729Y-11946222D01*
X12785729Y-11946222D02*
X12795253Y-11965269D01*
X12795253Y-11965269D02*
X12795253Y-12012888D01*
X12795253Y-12012888D02*
X12785729Y-12031936D01*
X12785729Y-12031936D02*
X12776205Y-12041460D01*
X12776205Y-12041460D02*
X12757158Y-12050984D01*
X12757158Y-12050984D02*
X12700015Y-12050984D01*
X12700015Y-12050984D02*
X12680967Y-12041460D01*
X12680967Y-12041460D02*
X12671443Y-12031936D01*
X12919062Y-11850984D02*
X12938110Y-11850984D01*
X12938110Y-11850984D02*
X12957158Y-11860508D01*
X12957158Y-11860508D02*
X12966682Y-11870031D01*
X12966682Y-11870031D02*
X12976205Y-11889079D01*
X12976205Y-11889079D02*
X12985729Y-11927174D01*
X12985729Y-11927174D02*
X12985729Y-11974793D01*
X12985729Y-11974793D02*
X12976205Y-12012888D01*
X12976205Y-12012888D02*
X12966682Y-12031936D01*
X12966682Y-12031936D02*
X12957158Y-12041460D01*
X12957158Y-12041460D02*
X12938110Y-12050984D01*
X12938110Y-12050984D02*
X12919062Y-12050984D01*
X12919062Y-12050984D02*
X12900015Y-12041460D01*
X12900015Y-12041460D02*
X12890491Y-12031936D01*
X12890491Y-12031936D02*
X12880967Y-12012888D01*
X12880967Y-12012888D02*
X12871443Y-11974793D01*
X12871443Y-11974793D02*
X12871443Y-11927174D01*
X12871443Y-11927174D02*
X12880967Y-11889079D01*
X12880967Y-11889079D02*
X12890491Y-11870031D01*
X12890491Y-11870031D02*
X12900015Y-11860508D01*
X12900015Y-11860508D02*
X12919062Y-11850984D01*
X13109539Y-11850984D02*
X13128586Y-11850984D01*
X13128586Y-11850984D02*
X13147634Y-11860508D01*
X13147634Y-11860508D02*
X13157158Y-11870031D01*
X13157158Y-11870031D02*
X13166682Y-11889079D01*
X13166682Y-11889079D02*
X13176205Y-11927174D01*
X13176205Y-11927174D02*
X13176205Y-11974793D01*
X13176205Y-11974793D02*
X13166682Y-12012888D01*
X13166682Y-12012888D02*
X13157158Y-12031936D01*
X13157158Y-12031936D02*
X13147634Y-12041460D01*
X13147634Y-12041460D02*
X13128586Y-12050984D01*
X13128586Y-12050984D02*
X13109539Y-12050984D01*
X13109539Y-12050984D02*
X13090491Y-12041460D01*
X13090491Y-12041460D02*
X13080967Y-12031936D01*
X13080967Y-12031936D02*
X13071443Y-12012888D01*
X13071443Y-12012888D02*
X13061920Y-11974793D01*
X13061920Y-11974793D02*
X13061920Y-11927174D01*
X13061920Y-11927174D02*
X13071443Y-11889079D01*
X13071443Y-11889079D02*
X13080967Y-11870031D01*
X13080967Y-11870031D02*
X13090491Y-11860508D01*
X13090491Y-11860508D02*
X13109539Y-11850984D01*
X13261920Y-12050984D02*
X13261920Y-11917650D01*
X13261920Y-11936698D02*
X13271443Y-11927174D01*
X13271443Y-11927174D02*
X13290491Y-11917650D01*
X13290491Y-11917650D02*
X13319063Y-11917650D01*
X13319063Y-11917650D02*
X13338110Y-11927174D01*
X13338110Y-11927174D02*
X13347634Y-11946222D01*
X13347634Y-11946222D02*
X13347634Y-12050984D01*
X13347634Y-11946222D02*
X13357158Y-11927174D01*
X13357158Y-11927174D02*
X13376205Y-11917650D01*
X13376205Y-11917650D02*
X13404777Y-11917650D01*
X13404777Y-11917650D02*
X13423824Y-11927174D01*
X13423824Y-11927174D02*
X13433348Y-11946222D01*
X13433348Y-11946222D02*
X13433348Y-12050984D01*
X13528586Y-12050984D02*
X13528586Y-11917650D01*
X13528586Y-11936698D02*
X13538110Y-11927174D01*
X13538110Y-11927174D02*
X13557158Y-11917650D01*
X13557158Y-11917650D02*
X13585729Y-11917650D01*
X13585729Y-11917650D02*
X13604777Y-11927174D01*
X13604777Y-11927174D02*
X13614301Y-11946222D01*
X13614301Y-11946222D02*
X13614301Y-12050984D01*
X13614301Y-11946222D02*
X13623824Y-11927174D01*
X13623824Y-11927174D02*
X13642872Y-11917650D01*
X13642872Y-11917650D02*
X13671443Y-11917650D01*
X13671443Y-11917650D02*
X13690491Y-11927174D01*
X13690491Y-11927174D02*
X13700015Y-11946222D01*
X13700015Y-11946222D02*
X13700015Y-12050984D01*
X14090491Y-11841460D02*
X13919063Y-12098603D01*
X14347634Y-11850984D02*
X14366682Y-11850984D01*
X14366682Y-11850984D02*
X14385729Y-11860508D01*
X14385729Y-11860508D02*
X14395253Y-11870031D01*
X14395253Y-11870031D02*
X14404777Y-11889079D01*
X14404777Y-11889079D02*
X14414301Y-11927174D01*
X14414301Y-11927174D02*
X14414301Y-11974793D01*
X14414301Y-11974793D02*
X14404777Y-12012888D01*
X14404777Y-12012888D02*
X14395253Y-12031936D01*
X14395253Y-12031936D02*
X14385729Y-12041460D01*
X14385729Y-12041460D02*
X14366682Y-12050984D01*
X14366682Y-12050984D02*
X14347634Y-12050984D01*
X14347634Y-12050984D02*
X14328586Y-12041460D01*
X14328586Y-12041460D02*
X14319063Y-12031936D01*
X14319063Y-12031936D02*
X14309539Y-12012888D01*
X14309539Y-12012888D02*
X14300015Y-11974793D01*
X14300015Y-11974793D02*
X14300015Y-11927174D01*
X14300015Y-11927174D02*
X14309539Y-11889079D01*
X14309539Y-11889079D02*
X14319063Y-11870031D01*
X14319063Y-11870031D02*
X14328586Y-11860508D01*
X14328586Y-11860508D02*
X14347634Y-11850984D01*
X14500015Y-12031936D02*
X14509539Y-12041460D01*
X14509539Y-12041460D02*
X14500015Y-12050984D01*
X14500015Y-12050984D02*
X14490491Y-12041460D01*
X14490491Y-12041460D02*
X14500015Y-12031936D01*
X14500015Y-12031936D02*
X14500015Y-12050984D01*
X14633348Y-11850984D02*
X14652396Y-11850984D01*
X14652396Y-11850984D02*
X14671444Y-11860508D01*
X14671444Y-11860508D02*
X14680967Y-11870031D01*
X14680967Y-11870031D02*
X14690491Y-11889079D01*
X14690491Y-11889079D02*
X14700015Y-11927174D01*
X14700015Y-11927174D02*
X14700015Y-11974793D01*
X14700015Y-11974793D02*
X14690491Y-12012888D01*
X14690491Y-12012888D02*
X14680967Y-12031936D01*
X14680967Y-12031936D02*
X14671444Y-12041460D01*
X14671444Y-12041460D02*
X14652396Y-12050984D01*
X14652396Y-12050984D02*
X14633348Y-12050984D01*
X14633348Y-12050984D02*
X14614301Y-12041460D01*
X14614301Y-12041460D02*
X14604777Y-12031936D01*
X14604777Y-12031936D02*
X14595253Y-12012888D01*
X14595253Y-12012888D02*
X14585729Y-11974793D01*
X14585729Y-11974793D02*
X14585729Y-11927174D01*
X14585729Y-11927174D02*
X14595253Y-11889079D01*
X14595253Y-11889079D02*
X14604777Y-11870031D01*
X14604777Y-11870031D02*
X14614301Y-11860508D01*
X14614301Y-11860508D02*
X14633348Y-11850984D01*
X14890491Y-12050984D02*
X14776206Y-12050984D01*
X14833348Y-12050984D02*
X14833348Y-11850984D01*
X14833348Y-11850984D02*
X14814301Y-11879555D01*
X14814301Y-11879555D02*
X14795253Y-11898603D01*
X14795253Y-11898603D02*
X14776206Y-11908127D01*
X15080967Y-12050984D02*
X14966682Y-12050984D01*
X15023825Y-12050984D02*
X15023825Y-11850984D01*
X15023825Y-11850984D02*
X15004777Y-11879555D01*
X15004777Y-11879555D02*
X14985729Y-11898603D01*
X14985729Y-11898603D02*
X14966682Y-11908127D01*
X15195253Y-11936698D02*
X15176206Y-11927174D01*
X15176206Y-11927174D02*
X15166682Y-11917650D01*
X15166682Y-11917650D02*
X15157158Y-11898603D01*
X15157158Y-11898603D02*
X15157158Y-11889079D01*
X15157158Y-11889079D02*
X15166682Y-11870031D01*
X15166682Y-11870031D02*
X15176206Y-11860508D01*
X15176206Y-11860508D02*
X15195253Y-11850984D01*
X15195253Y-11850984D02*
X15233348Y-11850984D01*
X15233348Y-11850984D02*
X15252396Y-11860508D01*
X15252396Y-11860508D02*
X15261920Y-11870031D01*
X15261920Y-11870031D02*
X15271444Y-11889079D01*
X15271444Y-11889079D02*
X15271444Y-11898603D01*
X15271444Y-11898603D02*
X15261920Y-11917650D01*
X15261920Y-11917650D02*
X15252396Y-11927174D01*
X15252396Y-11927174D02*
X15233348Y-11936698D01*
X15233348Y-11936698D02*
X15195253Y-11936698D01*
X15195253Y-11936698D02*
X15176206Y-11946222D01*
X15176206Y-11946222D02*
X15166682Y-11955746D01*
X15166682Y-11955746D02*
X15157158Y-11974793D01*
X15157158Y-11974793D02*
X15157158Y-12012888D01*
X15157158Y-12012888D02*
X15166682Y-12031936D01*
X15166682Y-12031936D02*
X15176206Y-12041460D01*
X15176206Y-12041460D02*
X15195253Y-12050984D01*
X15195253Y-12050984D02*
X15233348Y-12050984D01*
X15233348Y-12050984D02*
X15252396Y-12041460D01*
X15252396Y-12041460D02*
X15261920Y-12031936D01*
X15261920Y-12031936D02*
X15271444Y-12012888D01*
X15271444Y-12012888D02*
X15271444Y-11974793D01*
X15271444Y-11974793D02*
X15261920Y-11955746D01*
X15261920Y-11955746D02*
X15252396Y-11946222D01*
X15252396Y-11946222D02*
X15233348Y-11936698D01*
X15347634Y-11850984D02*
X15347634Y-11889079D01*
X15423825Y-11850984D02*
X15423825Y-11889079D01*
X15719063Y-12127174D02*
X15709539Y-12117650D01*
X15709539Y-12117650D02*
X15690491Y-12089079D01*
X15690491Y-12089079D02*
X15680968Y-12070031D01*
X15680968Y-12070031D02*
X15671444Y-12041460D01*
X15671444Y-12041460D02*
X15661920Y-11993841D01*
X15661920Y-11993841D02*
X15661920Y-11955746D01*
X15661920Y-11955746D02*
X15671444Y-11908127D01*
X15671444Y-11908127D02*
X15680968Y-11879555D01*
X15680968Y-11879555D02*
X15690491Y-11860508D01*
X15690491Y-11860508D02*
X15709539Y-11831936D01*
X15709539Y-11831936D02*
X15719063Y-11822412D01*
X15776206Y-11850984D02*
X15900015Y-11850984D01*
X15900015Y-11850984D02*
X15833348Y-11927174D01*
X15833348Y-11927174D02*
X15861920Y-11927174D01*
X15861920Y-11927174D02*
X15880968Y-11936698D01*
X15880968Y-11936698D02*
X15890491Y-11946222D01*
X15890491Y-11946222D02*
X15900015Y-11965269D01*
X15900015Y-11965269D02*
X15900015Y-12012888D01*
X15900015Y-12012888D02*
X15890491Y-12031936D01*
X15890491Y-12031936D02*
X15880968Y-12041460D01*
X15880968Y-12041460D02*
X15861920Y-12050984D01*
X15861920Y-12050984D02*
X15804777Y-12050984D01*
X15804777Y-12050984D02*
X15785729Y-12041460D01*
X15785729Y-12041460D02*
X15776206Y-12031936D01*
X16090491Y-12050984D02*
X15976206Y-12050984D01*
X16033348Y-12050984D02*
X16033348Y-11850984D01*
X16033348Y-11850984D02*
X16014301Y-11879555D01*
X16014301Y-11879555D02*
X15995253Y-11898603D01*
X15995253Y-11898603D02*
X15976206Y-11908127D01*
X16328587Y-12050984D02*
X16328587Y-11850984D01*
X16414301Y-12050984D02*
X16414301Y-11946222D01*
X16414301Y-11946222D02*
X16404777Y-11927174D01*
X16404777Y-11927174D02*
X16385730Y-11917650D01*
X16385730Y-11917650D02*
X16357158Y-11917650D01*
X16357158Y-11917650D02*
X16338110Y-11927174D01*
X16338110Y-11927174D02*
X16328587Y-11936698D01*
X16538110Y-12050984D02*
X16519063Y-12041460D01*
X16519063Y-12041460D02*
X16509539Y-12031936D01*
X16509539Y-12031936D02*
X16500015Y-12012888D01*
X16500015Y-12012888D02*
X16500015Y-11955746D01*
X16500015Y-11955746D02*
X16509539Y-11936698D01*
X16509539Y-11936698D02*
X16519063Y-11927174D01*
X16519063Y-11927174D02*
X16538110Y-11917650D01*
X16538110Y-11917650D02*
X16566682Y-11917650D01*
X16566682Y-11917650D02*
X16585730Y-11927174D01*
X16585730Y-11927174D02*
X16595253Y-11936698D01*
X16595253Y-11936698D02*
X16604777Y-11955746D01*
X16604777Y-11955746D02*
X16604777Y-12012888D01*
X16604777Y-12012888D02*
X16595253Y-12031936D01*
X16595253Y-12031936D02*
X16585730Y-12041460D01*
X16585730Y-12041460D02*
X16566682Y-12050984D01*
X16566682Y-12050984D02*
X16538110Y-12050984D01*
X16719063Y-12050984D02*
X16700015Y-12041460D01*
X16700015Y-12041460D02*
X16690491Y-12022412D01*
X16690491Y-12022412D02*
X16690491Y-11850984D01*
X16871444Y-12041460D02*
X16852396Y-12050984D01*
X16852396Y-12050984D02*
X16814301Y-12050984D01*
X16814301Y-12050984D02*
X16795253Y-12041460D01*
X16795253Y-12041460D02*
X16785730Y-12022412D01*
X16785730Y-12022412D02*
X16785730Y-11946222D01*
X16785730Y-11946222D02*
X16795253Y-11927174D01*
X16795253Y-11927174D02*
X16814301Y-11917650D01*
X16814301Y-11917650D02*
X16852396Y-11917650D01*
X16852396Y-11917650D02*
X16871444Y-11927174D01*
X16871444Y-11927174D02*
X16880968Y-11946222D01*
X16880968Y-11946222D02*
X16880968Y-11965269D01*
X16880968Y-11965269D02*
X16785730Y-11984317D01*
X16957158Y-12041460D02*
X16976206Y-12050984D01*
X16976206Y-12050984D02*
X17014301Y-12050984D01*
X17014301Y-12050984D02*
X17033349Y-12041460D01*
X17033349Y-12041460D02*
X17042873Y-12022412D01*
X17042873Y-12022412D02*
X17042873Y-12012888D01*
X17042873Y-12012888D02*
X17033349Y-11993841D01*
X17033349Y-11993841D02*
X17014301Y-11984317D01*
X17014301Y-11984317D02*
X16985730Y-11984317D01*
X16985730Y-11984317D02*
X16966682Y-11974793D01*
X16966682Y-11974793D02*
X16957158Y-11955746D01*
X16957158Y-11955746D02*
X16957158Y-11946222D01*
X16957158Y-11946222D02*
X16966682Y-11927174D01*
X16966682Y-11927174D02*
X16985730Y-11917650D01*
X16985730Y-11917650D02*
X17014301Y-11917650D01*
X17014301Y-11917650D02*
X17033349Y-11927174D01*
X17109539Y-12127174D02*
X17119063Y-12117650D01*
X17119063Y-12117650D02*
X17138111Y-12089079D01*
X17138111Y-12089079D02*
X17147634Y-12070031D01*
X17147634Y-12070031D02*
X17157158Y-12041460D01*
X17157158Y-12041460D02*
X17166682Y-11993841D01*
X17166682Y-11993841D02*
X17166682Y-11955746D01*
X17166682Y-11955746D02*
X17157158Y-11908127D01*
X17157158Y-11908127D02*
X17147634Y-11879555D01*
X17147634Y-11879555D02*
X17138111Y-11860508D01*
X17138111Y-11860508D02*
X17119063Y-11831936D01*
X17119063Y-11831936D02*
X17109539Y-11822412D01*
D12*
X12119000Y-12198500D02*
X12119000Y-12248500D01*
X12094000Y-12223500D02*
X12144000Y-12223500D01*
D11*
X12442872Y-12114984D02*
X12461920Y-12114984D01*
X12461920Y-12114984D02*
X12480967Y-12124508D01*
X12480967Y-12124508D02*
X12490491Y-12134031D01*
X12490491Y-12134031D02*
X12500015Y-12153079D01*
X12500015Y-12153079D02*
X12509539Y-12191174D01*
X12509539Y-12191174D02*
X12509539Y-12238793D01*
X12509539Y-12238793D02*
X12500015Y-12276888D01*
X12500015Y-12276888D02*
X12490491Y-12295936D01*
X12490491Y-12295936D02*
X12480967Y-12305460D01*
X12480967Y-12305460D02*
X12461920Y-12314984D01*
X12461920Y-12314984D02*
X12442872Y-12314984D01*
X12442872Y-12314984D02*
X12423824Y-12305460D01*
X12423824Y-12305460D02*
X12414301Y-12295936D01*
X12414301Y-12295936D02*
X12404777Y-12276888D01*
X12404777Y-12276888D02*
X12395253Y-12238793D01*
X12395253Y-12238793D02*
X12395253Y-12191174D01*
X12395253Y-12191174D02*
X12404777Y-12153079D01*
X12404777Y-12153079D02*
X12414301Y-12134031D01*
X12414301Y-12134031D02*
X12423824Y-12124508D01*
X12423824Y-12124508D02*
X12442872Y-12114984D01*
X12595253Y-12295936D02*
X12604777Y-12305460D01*
X12604777Y-12305460D02*
X12595253Y-12314984D01*
X12595253Y-12314984D02*
X12585729Y-12305460D01*
X12585729Y-12305460D02*
X12595253Y-12295936D01*
X12595253Y-12295936D02*
X12595253Y-12314984D01*
X12785729Y-12114984D02*
X12690491Y-12114984D01*
X12690491Y-12114984D02*
X12680967Y-12210222D01*
X12680967Y-12210222D02*
X12690491Y-12200698D01*
X12690491Y-12200698D02*
X12709539Y-12191174D01*
X12709539Y-12191174D02*
X12757158Y-12191174D01*
X12757158Y-12191174D02*
X12776205Y-12200698D01*
X12776205Y-12200698D02*
X12785729Y-12210222D01*
X12785729Y-12210222D02*
X12795253Y-12229269D01*
X12795253Y-12229269D02*
X12795253Y-12276888D01*
X12795253Y-12276888D02*
X12785729Y-12295936D01*
X12785729Y-12295936D02*
X12776205Y-12305460D01*
X12776205Y-12305460D02*
X12757158Y-12314984D01*
X12757158Y-12314984D02*
X12709539Y-12314984D01*
X12709539Y-12314984D02*
X12690491Y-12305460D01*
X12690491Y-12305460D02*
X12680967Y-12295936D01*
X12919062Y-12114984D02*
X12938110Y-12114984D01*
X12938110Y-12114984D02*
X12957158Y-12124508D01*
X12957158Y-12124508D02*
X12966682Y-12134031D01*
X12966682Y-12134031D02*
X12976205Y-12153079D01*
X12976205Y-12153079D02*
X12985729Y-12191174D01*
X12985729Y-12191174D02*
X12985729Y-12238793D01*
X12985729Y-12238793D02*
X12976205Y-12276888D01*
X12976205Y-12276888D02*
X12966682Y-12295936D01*
X12966682Y-12295936D02*
X12957158Y-12305460D01*
X12957158Y-12305460D02*
X12938110Y-12314984D01*
X12938110Y-12314984D02*
X12919062Y-12314984D01*
X12919062Y-12314984D02*
X12900015Y-12305460D01*
X12900015Y-12305460D02*
X12890491Y-12295936D01*
X12890491Y-12295936D02*
X12880967Y-12276888D01*
X12880967Y-12276888D02*
X12871443Y-12238793D01*
X12871443Y-12238793D02*
X12871443Y-12191174D01*
X12871443Y-12191174D02*
X12880967Y-12153079D01*
X12880967Y-12153079D02*
X12890491Y-12134031D01*
X12890491Y-12134031D02*
X12900015Y-12124508D01*
X12900015Y-12124508D02*
X12919062Y-12114984D01*
X13109539Y-12114984D02*
X13128586Y-12114984D01*
X13128586Y-12114984D02*
X13147634Y-12124508D01*
X13147634Y-12124508D02*
X13157158Y-12134031D01*
X13157158Y-12134031D02*
X13166682Y-12153079D01*
X13166682Y-12153079D02*
X13176205Y-12191174D01*
X13176205Y-12191174D02*
X13176205Y-12238793D01*
X13176205Y-12238793D02*
X13166682Y-12276888D01*
X13166682Y-12276888D02*
X13157158Y-12295936D01*
X13157158Y-12295936D02*
X13147634Y-12305460D01*
X13147634Y-12305460D02*
X13128586Y-12314984D01*
X13128586Y-12314984D02*
X13109539Y-12314984D01*
X13109539Y-12314984D02*
X13090491Y-12305460D01*
X13090491Y-12305460D02*
X13080967Y-12295936D01*
X13080967Y-12295936D02*
X13071443Y-12276888D01*
X13071443Y-12276888D02*
X13061920Y-12238793D01*
X13061920Y-12238793D02*
X13061920Y-12191174D01*
X13061920Y-12191174D02*
X13071443Y-12153079D01*
X13071443Y-12153079D02*
X13080967Y-12134031D01*
X13080967Y-12134031D02*
X13090491Y-12124508D01*
X13090491Y-12124508D02*
X13109539Y-12114984D01*
X13261920Y-12314984D02*
X13261920Y-12181650D01*
X13261920Y-12200698D02*
X13271443Y-12191174D01*
X13271443Y-12191174D02*
X13290491Y-12181650D01*
X13290491Y-12181650D02*
X13319063Y-12181650D01*
X13319063Y-12181650D02*
X13338110Y-12191174D01*
X13338110Y-12191174D02*
X13347634Y-12210222D01*
X13347634Y-12210222D02*
X13347634Y-12314984D01*
X13347634Y-12210222D02*
X13357158Y-12191174D01*
X13357158Y-12191174D02*
X13376205Y-12181650D01*
X13376205Y-12181650D02*
X13404777Y-12181650D01*
X13404777Y-12181650D02*
X13423824Y-12191174D01*
X13423824Y-12191174D02*
X13433348Y-12210222D01*
X13433348Y-12210222D02*
X13433348Y-12314984D01*
X13528586Y-12314984D02*
X13528586Y-12181650D01*
X13528586Y-12200698D02*
X13538110Y-12191174D01*
X13538110Y-12191174D02*
X13557158Y-12181650D01*
X13557158Y-12181650D02*
X13585729Y-12181650D01*
X13585729Y-12181650D02*
X13604777Y-12191174D01*
X13604777Y-12191174D02*
X13614301Y-12210222D01*
X13614301Y-12210222D02*
X13614301Y-12314984D01*
X13614301Y-12210222D02*
X13623824Y-12191174D01*
X13623824Y-12191174D02*
X13642872Y-12181650D01*
X13642872Y-12181650D02*
X13671443Y-12181650D01*
X13671443Y-12181650D02*
X13690491Y-12191174D01*
X13690491Y-12191174D02*
X13700015Y-12210222D01*
X13700015Y-12210222D02*
X13700015Y-12314984D01*
X14090491Y-12105460D02*
X13919063Y-12362603D01*
X14347634Y-12114984D02*
X14366682Y-12114984D01*
X14366682Y-12114984D02*
X14385729Y-12124508D01*
X14385729Y-12124508D02*
X14395253Y-12134031D01*
X14395253Y-12134031D02*
X14404777Y-12153079D01*
X14404777Y-12153079D02*
X14414301Y-12191174D01*
X14414301Y-12191174D02*
X14414301Y-12238793D01*
X14414301Y-12238793D02*
X14404777Y-12276888D01*
X14404777Y-12276888D02*
X14395253Y-12295936D01*
X14395253Y-12295936D02*
X14385729Y-12305460D01*
X14385729Y-12305460D02*
X14366682Y-12314984D01*
X14366682Y-12314984D02*
X14347634Y-12314984D01*
X14347634Y-12314984D02*
X14328586Y-12305460D01*
X14328586Y-12305460D02*
X14319063Y-12295936D01*
X14319063Y-12295936D02*
X14309539Y-12276888D01*
X14309539Y-12276888D02*
X14300015Y-12238793D01*
X14300015Y-12238793D02*
X14300015Y-12191174D01*
X14300015Y-12191174D02*
X14309539Y-12153079D01*
X14309539Y-12153079D02*
X14319063Y-12134031D01*
X14319063Y-12134031D02*
X14328586Y-12124508D01*
X14328586Y-12124508D02*
X14347634Y-12114984D01*
X14500015Y-12295936D02*
X14509539Y-12305460D01*
X14509539Y-12305460D02*
X14500015Y-12314984D01*
X14500015Y-12314984D02*
X14490491Y-12305460D01*
X14490491Y-12305460D02*
X14500015Y-12295936D01*
X14500015Y-12295936D02*
X14500015Y-12314984D01*
X14633348Y-12114984D02*
X14652396Y-12114984D01*
X14652396Y-12114984D02*
X14671444Y-12124508D01*
X14671444Y-12124508D02*
X14680967Y-12134031D01*
X14680967Y-12134031D02*
X14690491Y-12153079D01*
X14690491Y-12153079D02*
X14700015Y-12191174D01*
X14700015Y-12191174D02*
X14700015Y-12238793D01*
X14700015Y-12238793D02*
X14690491Y-12276888D01*
X14690491Y-12276888D02*
X14680967Y-12295936D01*
X14680967Y-12295936D02*
X14671444Y-12305460D01*
X14671444Y-12305460D02*
X14652396Y-12314984D01*
X14652396Y-12314984D02*
X14633348Y-12314984D01*
X14633348Y-12314984D02*
X14614301Y-12305460D01*
X14614301Y-12305460D02*
X14604777Y-12295936D01*
X14604777Y-12295936D02*
X14595253Y-12276888D01*
X14595253Y-12276888D02*
X14585729Y-12238793D01*
X14585729Y-12238793D02*
X14585729Y-12191174D01*
X14585729Y-12191174D02*
X14595253Y-12153079D01*
X14595253Y-12153079D02*
X14604777Y-12134031D01*
X14604777Y-12134031D02*
X14614301Y-12124508D01*
X14614301Y-12124508D02*
X14633348Y-12114984D01*
X14890491Y-12314984D02*
X14776206Y-12314984D01*
X14833348Y-12314984D02*
X14833348Y-12114984D01*
X14833348Y-12114984D02*
X14814301Y-12143555D01*
X14814301Y-12143555D02*
X14795253Y-12162603D01*
X14795253Y-12162603D02*
X14776206Y-12172127D01*
X14985729Y-12314984D02*
X15023825Y-12314984D01*
X15023825Y-12314984D02*
X15042872Y-12305460D01*
X15042872Y-12305460D02*
X15052396Y-12295936D01*
X15052396Y-12295936D02*
X15071444Y-12267365D01*
X15071444Y-12267365D02*
X15080967Y-12229269D01*
X15080967Y-12229269D02*
X15080967Y-12153079D01*
X15080967Y-12153079D02*
X15071444Y-12134031D01*
X15071444Y-12134031D02*
X15061920Y-12124508D01*
X15061920Y-12124508D02*
X15042872Y-12114984D01*
X15042872Y-12114984D02*
X15004777Y-12114984D01*
X15004777Y-12114984D02*
X14985729Y-12124508D01*
X14985729Y-12124508D02*
X14976206Y-12134031D01*
X14976206Y-12134031D02*
X14966682Y-12153079D01*
X14966682Y-12153079D02*
X14966682Y-12200698D01*
X14966682Y-12200698D02*
X14976206Y-12219746D01*
X14976206Y-12219746D02*
X14985729Y-12229269D01*
X14985729Y-12229269D02*
X15004777Y-12238793D01*
X15004777Y-12238793D02*
X15042872Y-12238793D01*
X15042872Y-12238793D02*
X15061920Y-12229269D01*
X15061920Y-12229269D02*
X15071444Y-12219746D01*
X15071444Y-12219746D02*
X15080967Y-12200698D01*
X15147634Y-12114984D02*
X15280967Y-12114984D01*
X15280967Y-12114984D02*
X15195253Y-12314984D01*
X15347634Y-12114984D02*
X15347634Y-12153079D01*
X15423825Y-12114984D02*
X15423825Y-12153079D01*
X15719063Y-12391174D02*
X15709539Y-12381650D01*
X15709539Y-12381650D02*
X15690491Y-12353079D01*
X15690491Y-12353079D02*
X15680968Y-12334031D01*
X15680968Y-12334031D02*
X15671444Y-12305460D01*
X15671444Y-12305460D02*
X15661920Y-12257841D01*
X15661920Y-12257841D02*
X15661920Y-12219746D01*
X15661920Y-12219746D02*
X15671444Y-12172127D01*
X15671444Y-12172127D02*
X15680968Y-12143555D01*
X15680968Y-12143555D02*
X15690491Y-12124508D01*
X15690491Y-12124508D02*
X15709539Y-12095936D01*
X15709539Y-12095936D02*
X15719063Y-12086412D01*
X15833348Y-12114984D02*
X15852396Y-12114984D01*
X15852396Y-12114984D02*
X15871444Y-12124508D01*
X15871444Y-12124508D02*
X15880968Y-12134031D01*
X15880968Y-12134031D02*
X15890491Y-12153079D01*
X15890491Y-12153079D02*
X15900015Y-12191174D01*
X15900015Y-12191174D02*
X15900015Y-12238793D01*
X15900015Y-12238793D02*
X15890491Y-12276888D01*
X15890491Y-12276888D02*
X15880968Y-12295936D01*
X15880968Y-12295936D02*
X15871444Y-12305460D01*
X15871444Y-12305460D02*
X15852396Y-12314984D01*
X15852396Y-12314984D02*
X15833348Y-12314984D01*
X15833348Y-12314984D02*
X15814301Y-12305460D01*
X15814301Y-12305460D02*
X15804777Y-12295936D01*
X15804777Y-12295936D02*
X15795253Y-12276888D01*
X15795253Y-12276888D02*
X15785729Y-12238793D01*
X15785729Y-12238793D02*
X15785729Y-12191174D01*
X15785729Y-12191174D02*
X15795253Y-12153079D01*
X15795253Y-12153079D02*
X15804777Y-12134031D01*
X15804777Y-12134031D02*
X15814301Y-12124508D01*
X15814301Y-12124508D02*
X15833348Y-12114984D01*
X16138110Y-12314984D02*
X16138110Y-12114984D01*
X16223825Y-12314984D02*
X16223825Y-12210222D01*
X16223825Y-12210222D02*
X16214301Y-12191174D01*
X16214301Y-12191174D02*
X16195253Y-12181650D01*
X16195253Y-12181650D02*
X16166682Y-12181650D01*
X16166682Y-12181650D02*
X16147634Y-12191174D01*
X16147634Y-12191174D02*
X16138110Y-12200698D01*
X16347634Y-12314984D02*
X16328587Y-12305460D01*
X16328587Y-12305460D02*
X16319063Y-12295936D01*
X16319063Y-12295936D02*
X16309539Y-12276888D01*
X16309539Y-12276888D02*
X16309539Y-12219746D01*
X16309539Y-12219746D02*
X16319063Y-12200698D01*
X16319063Y-12200698D02*
X16328587Y-12191174D01*
X16328587Y-12191174D02*
X16347634Y-12181650D01*
X16347634Y-12181650D02*
X16376206Y-12181650D01*
X16376206Y-12181650D02*
X16395253Y-12191174D01*
X16395253Y-12191174D02*
X16404777Y-12200698D01*
X16404777Y-12200698D02*
X16414301Y-12219746D01*
X16414301Y-12219746D02*
X16414301Y-12276888D01*
X16414301Y-12276888D02*
X16404777Y-12295936D01*
X16404777Y-12295936D02*
X16395253Y-12305460D01*
X16395253Y-12305460D02*
X16376206Y-12314984D01*
X16376206Y-12314984D02*
X16347634Y-12314984D01*
X16528587Y-12314984D02*
X16509539Y-12305460D01*
X16509539Y-12305460D02*
X16500015Y-12286412D01*
X16500015Y-12286412D02*
X16500015Y-12114984D01*
X16680968Y-12305460D02*
X16661920Y-12314984D01*
X16661920Y-12314984D02*
X16623825Y-12314984D01*
X16623825Y-12314984D02*
X16604777Y-12305460D01*
X16604777Y-12305460D02*
X16595253Y-12286412D01*
X16595253Y-12286412D02*
X16595253Y-12210222D01*
X16595253Y-12210222D02*
X16604777Y-12191174D01*
X16604777Y-12191174D02*
X16623825Y-12181650D01*
X16623825Y-12181650D02*
X16661920Y-12181650D01*
X16661920Y-12181650D02*
X16680968Y-12191174D01*
X16680968Y-12191174D02*
X16690491Y-12210222D01*
X16690491Y-12210222D02*
X16690491Y-12229269D01*
X16690491Y-12229269D02*
X16595253Y-12248317D01*
X16766682Y-12305460D02*
X16785730Y-12314984D01*
X16785730Y-12314984D02*
X16823825Y-12314984D01*
X16823825Y-12314984D02*
X16842873Y-12305460D01*
X16842873Y-12305460D02*
X16852396Y-12286412D01*
X16852396Y-12286412D02*
X16852396Y-12276888D01*
X16852396Y-12276888D02*
X16842873Y-12257841D01*
X16842873Y-12257841D02*
X16823825Y-12248317D01*
X16823825Y-12248317D02*
X16795253Y-12248317D01*
X16795253Y-12248317D02*
X16776206Y-12238793D01*
X16776206Y-12238793D02*
X16766682Y-12219746D01*
X16766682Y-12219746D02*
X16766682Y-12210222D01*
X16766682Y-12210222D02*
X16776206Y-12191174D01*
X16776206Y-12191174D02*
X16795253Y-12181650D01*
X16795253Y-12181650D02*
X16823825Y-12181650D01*
X16823825Y-12181650D02*
X16842873Y-12191174D01*
X17090492Y-12238793D02*
X17242873Y-12238793D01*
X17166682Y-12314984D02*
X17166682Y-12162603D01*
X17480968Y-12134031D02*
X17490492Y-12124508D01*
X17490492Y-12124508D02*
X17509539Y-12114984D01*
X17509539Y-12114984D02*
X17557158Y-12114984D01*
X17557158Y-12114984D02*
X17576206Y-12124508D01*
X17576206Y-12124508D02*
X17585730Y-12134031D01*
X17585730Y-12134031D02*
X17595254Y-12153079D01*
X17595254Y-12153079D02*
X17595254Y-12172127D01*
X17595254Y-12172127D02*
X17585730Y-12200698D01*
X17585730Y-12200698D02*
X17471444Y-12314984D01*
X17471444Y-12314984D02*
X17595254Y-12314984D01*
X17823825Y-12305460D02*
X17842873Y-12314984D01*
X17842873Y-12314984D02*
X17880968Y-12314984D01*
X17880968Y-12314984D02*
X17900016Y-12305460D01*
X17900016Y-12305460D02*
X17909539Y-12286412D01*
X17909539Y-12286412D02*
X17909539Y-12276888D01*
X17909539Y-12276888D02*
X17900016Y-12257841D01*
X17900016Y-12257841D02*
X17880968Y-12248317D01*
X17880968Y-12248317D02*
X17852396Y-12248317D01*
X17852396Y-12248317D02*
X17833349Y-12238793D01*
X17833349Y-12238793D02*
X17823825Y-12219746D01*
X17823825Y-12219746D02*
X17823825Y-12210222D01*
X17823825Y-12210222D02*
X17833349Y-12191174D01*
X17833349Y-12191174D02*
X17852396Y-12181650D01*
X17852396Y-12181650D02*
X17880968Y-12181650D01*
X17880968Y-12181650D02*
X17900016Y-12191174D01*
X18023825Y-12314984D02*
X18004777Y-12305460D01*
X18004777Y-12305460D02*
X17995254Y-12286412D01*
X17995254Y-12286412D02*
X17995254Y-12114984D01*
X18128587Y-12314984D02*
X18109539Y-12305460D01*
X18109539Y-12305460D02*
X18100016Y-12295936D01*
X18100016Y-12295936D02*
X18090492Y-12276888D01*
X18090492Y-12276888D02*
X18090492Y-12219746D01*
X18090492Y-12219746D02*
X18100016Y-12200698D01*
X18100016Y-12200698D02*
X18109539Y-12191174D01*
X18109539Y-12191174D02*
X18128587Y-12181650D01*
X18128587Y-12181650D02*
X18157158Y-12181650D01*
X18157158Y-12181650D02*
X18176206Y-12191174D01*
X18176206Y-12191174D02*
X18185730Y-12200698D01*
X18185730Y-12200698D02*
X18195254Y-12219746D01*
X18195254Y-12219746D02*
X18195254Y-12276888D01*
X18195254Y-12276888D02*
X18185730Y-12295936D01*
X18185730Y-12295936D02*
X18176206Y-12305460D01*
X18176206Y-12305460D02*
X18157158Y-12314984D01*
X18157158Y-12314984D02*
X18128587Y-12314984D01*
X18252397Y-12181650D02*
X18328587Y-12181650D01*
X18280968Y-12114984D02*
X18280968Y-12286412D01*
X18280968Y-12286412D02*
X18290492Y-12305460D01*
X18290492Y-12305460D02*
X18309539Y-12314984D01*
X18309539Y-12314984D02*
X18328587Y-12314984D01*
X18385730Y-12305460D02*
X18404777Y-12314984D01*
X18404777Y-12314984D02*
X18442873Y-12314984D01*
X18442873Y-12314984D02*
X18461920Y-12305460D01*
X18461920Y-12305460D02*
X18471444Y-12286412D01*
X18471444Y-12286412D02*
X18471444Y-12276888D01*
X18471444Y-12276888D02*
X18461920Y-12257841D01*
X18461920Y-12257841D02*
X18442873Y-12248317D01*
X18442873Y-12248317D02*
X18414301Y-12248317D01*
X18414301Y-12248317D02*
X18395254Y-12238793D01*
X18395254Y-12238793D02*
X18385730Y-12219746D01*
X18385730Y-12219746D02*
X18385730Y-12210222D01*
X18385730Y-12210222D02*
X18395254Y-12191174D01*
X18395254Y-12191174D02*
X18414301Y-12181650D01*
X18414301Y-12181650D02*
X18442873Y-12181650D01*
X18442873Y-12181650D02*
X18461920Y-12191174D01*
X18538111Y-12391174D02*
X18547635Y-12381650D01*
X18547635Y-12381650D02*
X18566682Y-12353079D01*
X18566682Y-12353079D02*
X18576206Y-12334031D01*
X18576206Y-12334031D02*
X18585730Y-12305460D01*
X18585730Y-12305460D02*
X18595254Y-12257841D01*
X18595254Y-12257841D02*
X18595254Y-12219746D01*
X18595254Y-12219746D02*
X18585730Y-12172127D01*
X18585730Y-12172127D02*
X18576206Y-12143555D01*
X18576206Y-12143555D02*
X18566682Y-12124508D01*
X18566682Y-12124508D02*
X18547635Y-12095936D01*
X18547635Y-12095936D02*
X18538111Y-12086412D01*
D12*
X12135946Y-12506946D02*
X12135946Y-12468054D01*
X12097054Y-12468054D01*
X12097054Y-12506946D01*
X12135946Y-12506946D01*
D11*
X12442872Y-12378984D02*
X12461920Y-12378984D01*
X12461920Y-12378984D02*
X12480967Y-12388508D01*
X12480967Y-12388508D02*
X12490491Y-12398031D01*
X12490491Y-12398031D02*
X12500015Y-12417079D01*
X12500015Y-12417079D02*
X12509539Y-12455174D01*
X12509539Y-12455174D02*
X12509539Y-12502793D01*
X12509539Y-12502793D02*
X12500015Y-12540888D01*
X12500015Y-12540888D02*
X12490491Y-12559936D01*
X12490491Y-12559936D02*
X12480967Y-12569460D01*
X12480967Y-12569460D02*
X12461920Y-12578984D01*
X12461920Y-12578984D02*
X12442872Y-12578984D01*
X12442872Y-12578984D02*
X12423824Y-12569460D01*
X12423824Y-12569460D02*
X12414301Y-12559936D01*
X12414301Y-12559936D02*
X12404777Y-12540888D01*
X12404777Y-12540888D02*
X12395253Y-12502793D01*
X12395253Y-12502793D02*
X12395253Y-12455174D01*
X12395253Y-12455174D02*
X12404777Y-12417079D01*
X12404777Y-12417079D02*
X12414301Y-12398031D01*
X12414301Y-12398031D02*
X12423824Y-12388508D01*
X12423824Y-12388508D02*
X12442872Y-12378984D01*
X12595253Y-12559936D02*
X12604777Y-12569460D01*
X12604777Y-12569460D02*
X12595253Y-12578984D01*
X12595253Y-12578984D02*
X12585729Y-12569460D01*
X12585729Y-12569460D02*
X12595253Y-12559936D01*
X12595253Y-12559936D02*
X12595253Y-12578984D01*
X12785729Y-12378984D02*
X12690491Y-12378984D01*
X12690491Y-12378984D02*
X12680967Y-12474222D01*
X12680967Y-12474222D02*
X12690491Y-12464698D01*
X12690491Y-12464698D02*
X12709539Y-12455174D01*
X12709539Y-12455174D02*
X12757158Y-12455174D01*
X12757158Y-12455174D02*
X12776205Y-12464698D01*
X12776205Y-12464698D02*
X12785729Y-12474222D01*
X12785729Y-12474222D02*
X12795253Y-12493269D01*
X12795253Y-12493269D02*
X12795253Y-12540888D01*
X12795253Y-12540888D02*
X12785729Y-12559936D01*
X12785729Y-12559936D02*
X12776205Y-12569460D01*
X12776205Y-12569460D02*
X12757158Y-12578984D01*
X12757158Y-12578984D02*
X12709539Y-12578984D01*
X12709539Y-12578984D02*
X12690491Y-12569460D01*
X12690491Y-12569460D02*
X12680967Y-12559936D01*
X12976205Y-12378984D02*
X12880967Y-12378984D01*
X12880967Y-12378984D02*
X12871443Y-12474222D01*
X12871443Y-12474222D02*
X12880967Y-12464698D01*
X12880967Y-12464698D02*
X12900015Y-12455174D01*
X12900015Y-12455174D02*
X12947634Y-12455174D01*
X12947634Y-12455174D02*
X12966682Y-12464698D01*
X12966682Y-12464698D02*
X12976205Y-12474222D01*
X12976205Y-12474222D02*
X12985729Y-12493269D01*
X12985729Y-12493269D02*
X12985729Y-12540888D01*
X12985729Y-12540888D02*
X12976205Y-12559936D01*
X12976205Y-12559936D02*
X12966682Y-12569460D01*
X12966682Y-12569460D02*
X12947634Y-12578984D01*
X12947634Y-12578984D02*
X12900015Y-12578984D01*
X12900015Y-12578984D02*
X12880967Y-12569460D01*
X12880967Y-12569460D02*
X12871443Y-12559936D01*
X13109539Y-12378984D02*
X13128586Y-12378984D01*
X13128586Y-12378984D02*
X13147634Y-12388508D01*
X13147634Y-12388508D02*
X13157158Y-12398031D01*
X13157158Y-12398031D02*
X13166682Y-12417079D01*
X13166682Y-12417079D02*
X13176205Y-12455174D01*
X13176205Y-12455174D02*
X13176205Y-12502793D01*
X13176205Y-12502793D02*
X13166682Y-12540888D01*
X13166682Y-12540888D02*
X13157158Y-12559936D01*
X13157158Y-12559936D02*
X13147634Y-12569460D01*
X13147634Y-12569460D02*
X13128586Y-12578984D01*
X13128586Y-12578984D02*
X13109539Y-12578984D01*
X13109539Y-12578984D02*
X13090491Y-12569460D01*
X13090491Y-12569460D02*
X13080967Y-12559936D01*
X13080967Y-12559936D02*
X13071443Y-12540888D01*
X13071443Y-12540888D02*
X13061920Y-12502793D01*
X13061920Y-12502793D02*
X13061920Y-12455174D01*
X13061920Y-12455174D02*
X13071443Y-12417079D01*
X13071443Y-12417079D02*
X13080967Y-12398031D01*
X13080967Y-12398031D02*
X13090491Y-12388508D01*
X13090491Y-12388508D02*
X13109539Y-12378984D01*
X13261920Y-12578984D02*
X13261920Y-12445650D01*
X13261920Y-12464698D02*
X13271443Y-12455174D01*
X13271443Y-12455174D02*
X13290491Y-12445650D01*
X13290491Y-12445650D02*
X13319063Y-12445650D01*
X13319063Y-12445650D02*
X13338110Y-12455174D01*
X13338110Y-12455174D02*
X13347634Y-12474222D01*
X13347634Y-12474222D02*
X13347634Y-12578984D01*
X13347634Y-12474222D02*
X13357158Y-12455174D01*
X13357158Y-12455174D02*
X13376205Y-12445650D01*
X13376205Y-12445650D02*
X13404777Y-12445650D01*
X13404777Y-12445650D02*
X13423824Y-12455174D01*
X13423824Y-12455174D02*
X13433348Y-12474222D01*
X13433348Y-12474222D02*
X13433348Y-12578984D01*
X13528586Y-12578984D02*
X13528586Y-12445650D01*
X13528586Y-12464698D02*
X13538110Y-12455174D01*
X13538110Y-12455174D02*
X13557158Y-12445650D01*
X13557158Y-12445650D02*
X13585729Y-12445650D01*
X13585729Y-12445650D02*
X13604777Y-12455174D01*
X13604777Y-12455174D02*
X13614301Y-12474222D01*
X13614301Y-12474222D02*
X13614301Y-12578984D01*
X13614301Y-12474222D02*
X13623824Y-12455174D01*
X13623824Y-12455174D02*
X13642872Y-12445650D01*
X13642872Y-12445650D02*
X13671443Y-12445650D01*
X13671443Y-12445650D02*
X13690491Y-12455174D01*
X13690491Y-12455174D02*
X13700015Y-12474222D01*
X13700015Y-12474222D02*
X13700015Y-12578984D01*
X14090491Y-12369460D02*
X13919063Y-12626603D01*
X14347634Y-12378984D02*
X14366682Y-12378984D01*
X14366682Y-12378984D02*
X14385729Y-12388508D01*
X14385729Y-12388508D02*
X14395253Y-12398031D01*
X14395253Y-12398031D02*
X14404777Y-12417079D01*
X14404777Y-12417079D02*
X14414301Y-12455174D01*
X14414301Y-12455174D02*
X14414301Y-12502793D01*
X14414301Y-12502793D02*
X14404777Y-12540888D01*
X14404777Y-12540888D02*
X14395253Y-12559936D01*
X14395253Y-12559936D02*
X14385729Y-12569460D01*
X14385729Y-12569460D02*
X14366682Y-12578984D01*
X14366682Y-12578984D02*
X14347634Y-12578984D01*
X14347634Y-12578984D02*
X14328586Y-12569460D01*
X14328586Y-12569460D02*
X14319063Y-12559936D01*
X14319063Y-12559936D02*
X14309539Y-12540888D01*
X14309539Y-12540888D02*
X14300015Y-12502793D01*
X14300015Y-12502793D02*
X14300015Y-12455174D01*
X14300015Y-12455174D02*
X14309539Y-12417079D01*
X14309539Y-12417079D02*
X14319063Y-12398031D01*
X14319063Y-12398031D02*
X14328586Y-12388508D01*
X14328586Y-12388508D02*
X14347634Y-12378984D01*
X14500015Y-12559936D02*
X14509539Y-12569460D01*
X14509539Y-12569460D02*
X14500015Y-12578984D01*
X14500015Y-12578984D02*
X14490491Y-12569460D01*
X14490491Y-12569460D02*
X14500015Y-12559936D01*
X14500015Y-12559936D02*
X14500015Y-12578984D01*
X14633348Y-12378984D02*
X14652396Y-12378984D01*
X14652396Y-12378984D02*
X14671444Y-12388508D01*
X14671444Y-12388508D02*
X14680967Y-12398031D01*
X14680967Y-12398031D02*
X14690491Y-12417079D01*
X14690491Y-12417079D02*
X14700015Y-12455174D01*
X14700015Y-12455174D02*
X14700015Y-12502793D01*
X14700015Y-12502793D02*
X14690491Y-12540888D01*
X14690491Y-12540888D02*
X14680967Y-12559936D01*
X14680967Y-12559936D02*
X14671444Y-12569460D01*
X14671444Y-12569460D02*
X14652396Y-12578984D01*
X14652396Y-12578984D02*
X14633348Y-12578984D01*
X14633348Y-12578984D02*
X14614301Y-12569460D01*
X14614301Y-12569460D02*
X14604777Y-12559936D01*
X14604777Y-12559936D02*
X14595253Y-12540888D01*
X14595253Y-12540888D02*
X14585729Y-12502793D01*
X14585729Y-12502793D02*
X14585729Y-12455174D01*
X14585729Y-12455174D02*
X14595253Y-12417079D01*
X14595253Y-12417079D02*
X14604777Y-12398031D01*
X14604777Y-12398031D02*
X14614301Y-12388508D01*
X14614301Y-12388508D02*
X14633348Y-12378984D01*
X14776206Y-12398031D02*
X14785729Y-12388508D01*
X14785729Y-12388508D02*
X14804777Y-12378984D01*
X14804777Y-12378984D02*
X14852396Y-12378984D01*
X14852396Y-12378984D02*
X14871444Y-12388508D01*
X14871444Y-12388508D02*
X14880967Y-12398031D01*
X14880967Y-12398031D02*
X14890491Y-12417079D01*
X14890491Y-12417079D02*
X14890491Y-12436127D01*
X14890491Y-12436127D02*
X14880967Y-12464698D01*
X14880967Y-12464698D02*
X14766682Y-12578984D01*
X14766682Y-12578984D02*
X14890491Y-12578984D01*
X15080967Y-12578984D02*
X14966682Y-12578984D01*
X15023825Y-12578984D02*
X15023825Y-12378984D01*
X15023825Y-12378984D02*
X15004777Y-12407555D01*
X15004777Y-12407555D02*
X14985729Y-12426603D01*
X14985729Y-12426603D02*
X14966682Y-12436127D01*
X15147634Y-12378984D02*
X15280967Y-12378984D01*
X15280967Y-12378984D02*
X15195253Y-12578984D01*
X15347634Y-12378984D02*
X15347634Y-12417079D01*
X15423825Y-12378984D02*
X15423825Y-12417079D01*
X15719063Y-12655174D02*
X15709539Y-12645650D01*
X15709539Y-12645650D02*
X15690491Y-12617079D01*
X15690491Y-12617079D02*
X15680968Y-12598031D01*
X15680968Y-12598031D02*
X15671444Y-12569460D01*
X15671444Y-12569460D02*
X15661920Y-12521841D01*
X15661920Y-12521841D02*
X15661920Y-12483746D01*
X15661920Y-12483746D02*
X15671444Y-12436127D01*
X15671444Y-12436127D02*
X15680968Y-12407555D01*
X15680968Y-12407555D02*
X15690491Y-12388508D01*
X15690491Y-12388508D02*
X15709539Y-12359936D01*
X15709539Y-12359936D02*
X15719063Y-12350412D01*
X15833348Y-12378984D02*
X15852396Y-12378984D01*
X15852396Y-12378984D02*
X15871444Y-12388508D01*
X15871444Y-12388508D02*
X15880968Y-12398031D01*
X15880968Y-12398031D02*
X15890491Y-12417079D01*
X15890491Y-12417079D02*
X15900015Y-12455174D01*
X15900015Y-12455174D02*
X15900015Y-12502793D01*
X15900015Y-12502793D02*
X15890491Y-12540888D01*
X15890491Y-12540888D02*
X15880968Y-12559936D01*
X15880968Y-12559936D02*
X15871444Y-12569460D01*
X15871444Y-12569460D02*
X15852396Y-12578984D01*
X15852396Y-12578984D02*
X15833348Y-12578984D01*
X15833348Y-12578984D02*
X15814301Y-12569460D01*
X15814301Y-12569460D02*
X15804777Y-12559936D01*
X15804777Y-12559936D02*
X15795253Y-12540888D01*
X15795253Y-12540888D02*
X15785729Y-12502793D01*
X15785729Y-12502793D02*
X15785729Y-12455174D01*
X15785729Y-12455174D02*
X15795253Y-12417079D01*
X15795253Y-12417079D02*
X15804777Y-12398031D01*
X15804777Y-12398031D02*
X15814301Y-12388508D01*
X15814301Y-12388508D02*
X15833348Y-12378984D01*
X16138110Y-12578984D02*
X16138110Y-12378984D01*
X16223825Y-12578984D02*
X16223825Y-12474222D01*
X16223825Y-12474222D02*
X16214301Y-12455174D01*
X16214301Y-12455174D02*
X16195253Y-12445650D01*
X16195253Y-12445650D02*
X16166682Y-12445650D01*
X16166682Y-12445650D02*
X16147634Y-12455174D01*
X16147634Y-12455174D02*
X16138110Y-12464698D01*
X16347634Y-12578984D02*
X16328587Y-12569460D01*
X16328587Y-12569460D02*
X16319063Y-12559936D01*
X16319063Y-12559936D02*
X16309539Y-12540888D01*
X16309539Y-12540888D02*
X16309539Y-12483746D01*
X16309539Y-12483746D02*
X16319063Y-12464698D01*
X16319063Y-12464698D02*
X16328587Y-12455174D01*
X16328587Y-12455174D02*
X16347634Y-12445650D01*
X16347634Y-12445650D02*
X16376206Y-12445650D01*
X16376206Y-12445650D02*
X16395253Y-12455174D01*
X16395253Y-12455174D02*
X16404777Y-12464698D01*
X16404777Y-12464698D02*
X16414301Y-12483746D01*
X16414301Y-12483746D02*
X16414301Y-12540888D01*
X16414301Y-12540888D02*
X16404777Y-12559936D01*
X16404777Y-12559936D02*
X16395253Y-12569460D01*
X16395253Y-12569460D02*
X16376206Y-12578984D01*
X16376206Y-12578984D02*
X16347634Y-12578984D01*
X16528587Y-12578984D02*
X16509539Y-12569460D01*
X16509539Y-12569460D02*
X16500015Y-12550412D01*
X16500015Y-12550412D02*
X16500015Y-12378984D01*
X16680968Y-12569460D02*
X16661920Y-12578984D01*
X16661920Y-12578984D02*
X16623825Y-12578984D01*
X16623825Y-12578984D02*
X16604777Y-12569460D01*
X16604777Y-12569460D02*
X16595253Y-12550412D01*
X16595253Y-12550412D02*
X16595253Y-12474222D01*
X16595253Y-12474222D02*
X16604777Y-12455174D01*
X16604777Y-12455174D02*
X16623825Y-12445650D01*
X16623825Y-12445650D02*
X16661920Y-12445650D01*
X16661920Y-12445650D02*
X16680968Y-12455174D01*
X16680968Y-12455174D02*
X16690491Y-12474222D01*
X16690491Y-12474222D02*
X16690491Y-12493269D01*
X16690491Y-12493269D02*
X16595253Y-12512317D01*
X16766682Y-12569460D02*
X16785730Y-12578984D01*
X16785730Y-12578984D02*
X16823825Y-12578984D01*
X16823825Y-12578984D02*
X16842873Y-12569460D01*
X16842873Y-12569460D02*
X16852396Y-12550412D01*
X16852396Y-12550412D02*
X16852396Y-12540888D01*
X16852396Y-12540888D02*
X16842873Y-12521841D01*
X16842873Y-12521841D02*
X16823825Y-12512317D01*
X16823825Y-12512317D02*
X16795253Y-12512317D01*
X16795253Y-12512317D02*
X16776206Y-12502793D01*
X16776206Y-12502793D02*
X16766682Y-12483746D01*
X16766682Y-12483746D02*
X16766682Y-12474222D01*
X16766682Y-12474222D02*
X16776206Y-12455174D01*
X16776206Y-12455174D02*
X16795253Y-12445650D01*
X16795253Y-12445650D02*
X16823825Y-12445650D01*
X16823825Y-12445650D02*
X16842873Y-12455174D01*
X17090492Y-12502793D02*
X17242873Y-12502793D01*
X17166682Y-12578984D02*
X17166682Y-12426603D01*
X17480968Y-12398031D02*
X17490492Y-12388508D01*
X17490492Y-12388508D02*
X17509539Y-12378984D01*
X17509539Y-12378984D02*
X17557158Y-12378984D01*
X17557158Y-12378984D02*
X17576206Y-12388508D01*
X17576206Y-12388508D02*
X17585730Y-12398031D01*
X17585730Y-12398031D02*
X17595254Y-12417079D01*
X17595254Y-12417079D02*
X17595254Y-12436127D01*
X17595254Y-12436127D02*
X17585730Y-12464698D01*
X17585730Y-12464698D02*
X17471444Y-12578984D01*
X17471444Y-12578984D02*
X17595254Y-12578984D01*
X17823825Y-12569460D02*
X17842873Y-12578984D01*
X17842873Y-12578984D02*
X17880968Y-12578984D01*
X17880968Y-12578984D02*
X17900016Y-12569460D01*
X17900016Y-12569460D02*
X17909539Y-12550412D01*
X17909539Y-12550412D02*
X17909539Y-12540888D01*
X17909539Y-12540888D02*
X17900016Y-12521841D01*
X17900016Y-12521841D02*
X17880968Y-12512317D01*
X17880968Y-12512317D02*
X17852396Y-12512317D01*
X17852396Y-12512317D02*
X17833349Y-12502793D01*
X17833349Y-12502793D02*
X17823825Y-12483746D01*
X17823825Y-12483746D02*
X17823825Y-12474222D01*
X17823825Y-12474222D02*
X17833349Y-12455174D01*
X17833349Y-12455174D02*
X17852396Y-12445650D01*
X17852396Y-12445650D02*
X17880968Y-12445650D01*
X17880968Y-12445650D02*
X17900016Y-12455174D01*
X18023825Y-12578984D02*
X18004777Y-12569460D01*
X18004777Y-12569460D02*
X17995254Y-12550412D01*
X17995254Y-12550412D02*
X17995254Y-12378984D01*
X18128587Y-12578984D02*
X18109539Y-12569460D01*
X18109539Y-12569460D02*
X18100016Y-12559936D01*
X18100016Y-12559936D02*
X18090492Y-12540888D01*
X18090492Y-12540888D02*
X18090492Y-12483746D01*
X18090492Y-12483746D02*
X18100016Y-12464698D01*
X18100016Y-12464698D02*
X18109539Y-12455174D01*
X18109539Y-12455174D02*
X18128587Y-12445650D01*
X18128587Y-12445650D02*
X18157158Y-12445650D01*
X18157158Y-12445650D02*
X18176206Y-12455174D01*
X18176206Y-12455174D02*
X18185730Y-12464698D01*
X18185730Y-12464698D02*
X18195254Y-12483746D01*
X18195254Y-12483746D02*
X18195254Y-12540888D01*
X18195254Y-12540888D02*
X18185730Y-12559936D01*
X18185730Y-12559936D02*
X18176206Y-12569460D01*
X18176206Y-12569460D02*
X18157158Y-12578984D01*
X18157158Y-12578984D02*
X18128587Y-12578984D01*
X18252397Y-12445650D02*
X18328587Y-12445650D01*
X18280968Y-12378984D02*
X18280968Y-12550412D01*
X18280968Y-12550412D02*
X18290492Y-12569460D01*
X18290492Y-12569460D02*
X18309539Y-12578984D01*
X18309539Y-12578984D02*
X18328587Y-12578984D01*
X18385730Y-12569460D02*
X18404777Y-12578984D01*
X18404777Y-12578984D02*
X18442873Y-12578984D01*
X18442873Y-12578984D02*
X18461920Y-12569460D01*
X18461920Y-12569460D02*
X18471444Y-12550412D01*
X18471444Y-12550412D02*
X18471444Y-12540888D01*
X18471444Y-12540888D02*
X18461920Y-12521841D01*
X18461920Y-12521841D02*
X18442873Y-12512317D01*
X18442873Y-12512317D02*
X18414301Y-12512317D01*
X18414301Y-12512317D02*
X18395254Y-12502793D01*
X18395254Y-12502793D02*
X18385730Y-12483746D01*
X18385730Y-12483746D02*
X18385730Y-12474222D01*
X18385730Y-12474222D02*
X18395254Y-12455174D01*
X18395254Y-12455174D02*
X18414301Y-12445650D01*
X18414301Y-12445650D02*
X18442873Y-12445650D01*
X18442873Y-12445650D02*
X18461920Y-12455174D01*
X18538111Y-12655174D02*
X18547635Y-12645650D01*
X18547635Y-12645650D02*
X18566682Y-12617079D01*
X18566682Y-12617079D02*
X18576206Y-12598031D01*
X18576206Y-12598031D02*
X18585730Y-12569460D01*
X18585730Y-12569460D02*
X18595254Y-12521841D01*
X18595254Y-12521841D02*
X18595254Y-12483746D01*
X18595254Y-12483746D02*
X18585730Y-12436127D01*
X18585730Y-12436127D02*
X18576206Y-12407555D01*
X18576206Y-12407555D02*
X18566682Y-12388508D01*
X18566682Y-12388508D02*
X18547635Y-12359936D01*
X18547635Y-12359936D02*
X18538111Y-12350412D01*
D12*
X12111500Y-12784000D02*
X12144000Y-12751500D01*
X12111500Y-12719000D01*
X12079000Y-12751500D01*
X12111500Y-12784000D01*
D11*
X12442872Y-12642984D02*
X12461920Y-12642984D01*
X12461920Y-12642984D02*
X12480967Y-12652508D01*
X12480967Y-12652508D02*
X12490491Y-12662031D01*
X12490491Y-12662031D02*
X12500015Y-12681079D01*
X12500015Y-12681079D02*
X12509539Y-12719174D01*
X12509539Y-12719174D02*
X12509539Y-12766793D01*
X12509539Y-12766793D02*
X12500015Y-12804888D01*
X12500015Y-12804888D02*
X12490491Y-12823936D01*
X12490491Y-12823936D02*
X12480967Y-12833460D01*
X12480967Y-12833460D02*
X12461920Y-12842984D01*
X12461920Y-12842984D02*
X12442872Y-12842984D01*
X12442872Y-12842984D02*
X12423824Y-12833460D01*
X12423824Y-12833460D02*
X12414301Y-12823936D01*
X12414301Y-12823936D02*
X12404777Y-12804888D01*
X12404777Y-12804888D02*
X12395253Y-12766793D01*
X12395253Y-12766793D02*
X12395253Y-12719174D01*
X12395253Y-12719174D02*
X12404777Y-12681079D01*
X12404777Y-12681079D02*
X12414301Y-12662031D01*
X12414301Y-12662031D02*
X12423824Y-12652508D01*
X12423824Y-12652508D02*
X12442872Y-12642984D01*
X12595253Y-12823936D02*
X12604777Y-12833460D01*
X12604777Y-12833460D02*
X12595253Y-12842984D01*
X12595253Y-12842984D02*
X12585729Y-12833460D01*
X12585729Y-12833460D02*
X12595253Y-12823936D01*
X12595253Y-12823936D02*
X12595253Y-12842984D01*
X12776205Y-12642984D02*
X12738110Y-12642984D01*
X12738110Y-12642984D02*
X12719062Y-12652508D01*
X12719062Y-12652508D02*
X12709539Y-12662031D01*
X12709539Y-12662031D02*
X12690491Y-12690603D01*
X12690491Y-12690603D02*
X12680967Y-12728698D01*
X12680967Y-12728698D02*
X12680967Y-12804888D01*
X12680967Y-12804888D02*
X12690491Y-12823936D01*
X12690491Y-12823936D02*
X12700015Y-12833460D01*
X12700015Y-12833460D02*
X12719062Y-12842984D01*
X12719062Y-12842984D02*
X12757158Y-12842984D01*
X12757158Y-12842984D02*
X12776205Y-12833460D01*
X12776205Y-12833460D02*
X12785729Y-12823936D01*
X12785729Y-12823936D02*
X12795253Y-12804888D01*
X12795253Y-12804888D02*
X12795253Y-12757269D01*
X12795253Y-12757269D02*
X12785729Y-12738222D01*
X12785729Y-12738222D02*
X12776205Y-12728698D01*
X12776205Y-12728698D02*
X12757158Y-12719174D01*
X12757158Y-12719174D02*
X12719062Y-12719174D01*
X12719062Y-12719174D02*
X12700015Y-12728698D01*
X12700015Y-12728698D02*
X12690491Y-12738222D01*
X12690491Y-12738222D02*
X12680967Y-12757269D01*
X12976205Y-12642984D02*
X12880967Y-12642984D01*
X12880967Y-12642984D02*
X12871443Y-12738222D01*
X12871443Y-12738222D02*
X12880967Y-12728698D01*
X12880967Y-12728698D02*
X12900015Y-12719174D01*
X12900015Y-12719174D02*
X12947634Y-12719174D01*
X12947634Y-12719174D02*
X12966682Y-12728698D01*
X12966682Y-12728698D02*
X12976205Y-12738222D01*
X12976205Y-12738222D02*
X12985729Y-12757269D01*
X12985729Y-12757269D02*
X12985729Y-12804888D01*
X12985729Y-12804888D02*
X12976205Y-12823936D01*
X12976205Y-12823936D02*
X12966682Y-12833460D01*
X12966682Y-12833460D02*
X12947634Y-12842984D01*
X12947634Y-12842984D02*
X12900015Y-12842984D01*
X12900015Y-12842984D02*
X12880967Y-12833460D01*
X12880967Y-12833460D02*
X12871443Y-12823936D01*
X13109539Y-12642984D02*
X13128586Y-12642984D01*
X13128586Y-12642984D02*
X13147634Y-12652508D01*
X13147634Y-12652508D02*
X13157158Y-12662031D01*
X13157158Y-12662031D02*
X13166682Y-12681079D01*
X13166682Y-12681079D02*
X13176205Y-12719174D01*
X13176205Y-12719174D02*
X13176205Y-12766793D01*
X13176205Y-12766793D02*
X13166682Y-12804888D01*
X13166682Y-12804888D02*
X13157158Y-12823936D01*
X13157158Y-12823936D02*
X13147634Y-12833460D01*
X13147634Y-12833460D02*
X13128586Y-12842984D01*
X13128586Y-12842984D02*
X13109539Y-12842984D01*
X13109539Y-12842984D02*
X13090491Y-12833460D01*
X13090491Y-12833460D02*
X13080967Y-12823936D01*
X13080967Y-12823936D02*
X13071443Y-12804888D01*
X13071443Y-12804888D02*
X13061920Y-12766793D01*
X13061920Y-12766793D02*
X13061920Y-12719174D01*
X13061920Y-12719174D02*
X13071443Y-12681079D01*
X13071443Y-12681079D02*
X13080967Y-12662031D01*
X13080967Y-12662031D02*
X13090491Y-12652508D01*
X13090491Y-12652508D02*
X13109539Y-12642984D01*
X13261920Y-12842984D02*
X13261920Y-12709650D01*
X13261920Y-12728698D02*
X13271443Y-12719174D01*
X13271443Y-12719174D02*
X13290491Y-12709650D01*
X13290491Y-12709650D02*
X13319063Y-12709650D01*
X13319063Y-12709650D02*
X13338110Y-12719174D01*
X13338110Y-12719174D02*
X13347634Y-12738222D01*
X13347634Y-12738222D02*
X13347634Y-12842984D01*
X13347634Y-12738222D02*
X13357158Y-12719174D01*
X13357158Y-12719174D02*
X13376205Y-12709650D01*
X13376205Y-12709650D02*
X13404777Y-12709650D01*
X13404777Y-12709650D02*
X13423824Y-12719174D01*
X13423824Y-12719174D02*
X13433348Y-12738222D01*
X13433348Y-12738222D02*
X13433348Y-12842984D01*
X13528586Y-12842984D02*
X13528586Y-12709650D01*
X13528586Y-12728698D02*
X13538110Y-12719174D01*
X13538110Y-12719174D02*
X13557158Y-12709650D01*
X13557158Y-12709650D02*
X13585729Y-12709650D01*
X13585729Y-12709650D02*
X13604777Y-12719174D01*
X13604777Y-12719174D02*
X13614301Y-12738222D01*
X13614301Y-12738222D02*
X13614301Y-12842984D01*
X13614301Y-12738222D02*
X13623824Y-12719174D01*
X13623824Y-12719174D02*
X13642872Y-12709650D01*
X13642872Y-12709650D02*
X13671443Y-12709650D01*
X13671443Y-12709650D02*
X13690491Y-12719174D01*
X13690491Y-12719174D02*
X13700015Y-12738222D01*
X13700015Y-12738222D02*
X13700015Y-12842984D01*
X14090491Y-12633460D02*
X13919063Y-12890603D01*
X14347634Y-12642984D02*
X14366682Y-12642984D01*
X14366682Y-12642984D02*
X14385729Y-12652508D01*
X14385729Y-12652508D02*
X14395253Y-12662031D01*
X14395253Y-12662031D02*
X14404777Y-12681079D01*
X14404777Y-12681079D02*
X14414301Y-12719174D01*
X14414301Y-12719174D02*
X14414301Y-12766793D01*
X14414301Y-12766793D02*
X14404777Y-12804888D01*
X14404777Y-12804888D02*
X14395253Y-12823936D01*
X14395253Y-12823936D02*
X14385729Y-12833460D01*
X14385729Y-12833460D02*
X14366682Y-12842984D01*
X14366682Y-12842984D02*
X14347634Y-12842984D01*
X14347634Y-12842984D02*
X14328586Y-12833460D01*
X14328586Y-12833460D02*
X14319063Y-12823936D01*
X14319063Y-12823936D02*
X14309539Y-12804888D01*
X14309539Y-12804888D02*
X14300015Y-12766793D01*
X14300015Y-12766793D02*
X14300015Y-12719174D01*
X14300015Y-12719174D02*
X14309539Y-12681079D01*
X14309539Y-12681079D02*
X14319063Y-12662031D01*
X14319063Y-12662031D02*
X14328586Y-12652508D01*
X14328586Y-12652508D02*
X14347634Y-12642984D01*
X14500015Y-12823936D02*
X14509539Y-12833460D01*
X14509539Y-12833460D02*
X14500015Y-12842984D01*
X14500015Y-12842984D02*
X14490491Y-12833460D01*
X14490491Y-12833460D02*
X14500015Y-12823936D01*
X14500015Y-12823936D02*
X14500015Y-12842984D01*
X14633348Y-12642984D02*
X14652396Y-12642984D01*
X14652396Y-12642984D02*
X14671444Y-12652508D01*
X14671444Y-12652508D02*
X14680967Y-12662031D01*
X14680967Y-12662031D02*
X14690491Y-12681079D01*
X14690491Y-12681079D02*
X14700015Y-12719174D01*
X14700015Y-12719174D02*
X14700015Y-12766793D01*
X14700015Y-12766793D02*
X14690491Y-12804888D01*
X14690491Y-12804888D02*
X14680967Y-12823936D01*
X14680967Y-12823936D02*
X14671444Y-12833460D01*
X14671444Y-12833460D02*
X14652396Y-12842984D01*
X14652396Y-12842984D02*
X14633348Y-12842984D01*
X14633348Y-12842984D02*
X14614301Y-12833460D01*
X14614301Y-12833460D02*
X14604777Y-12823936D01*
X14604777Y-12823936D02*
X14595253Y-12804888D01*
X14595253Y-12804888D02*
X14585729Y-12766793D01*
X14585729Y-12766793D02*
X14585729Y-12719174D01*
X14585729Y-12719174D02*
X14595253Y-12681079D01*
X14595253Y-12681079D02*
X14604777Y-12662031D01*
X14604777Y-12662031D02*
X14614301Y-12652508D01*
X14614301Y-12652508D02*
X14633348Y-12642984D01*
X14776206Y-12662031D02*
X14785729Y-12652508D01*
X14785729Y-12652508D02*
X14804777Y-12642984D01*
X14804777Y-12642984D02*
X14852396Y-12642984D01*
X14852396Y-12642984D02*
X14871444Y-12652508D01*
X14871444Y-12652508D02*
X14880967Y-12662031D01*
X14880967Y-12662031D02*
X14890491Y-12681079D01*
X14890491Y-12681079D02*
X14890491Y-12700127D01*
X14890491Y-12700127D02*
X14880967Y-12728698D01*
X14880967Y-12728698D02*
X14766682Y-12842984D01*
X14766682Y-12842984D02*
X14890491Y-12842984D01*
X15071444Y-12642984D02*
X14976206Y-12642984D01*
X14976206Y-12642984D02*
X14966682Y-12738222D01*
X14966682Y-12738222D02*
X14976206Y-12728698D01*
X14976206Y-12728698D02*
X14995253Y-12719174D01*
X14995253Y-12719174D02*
X15042872Y-12719174D01*
X15042872Y-12719174D02*
X15061920Y-12728698D01*
X15061920Y-12728698D02*
X15071444Y-12738222D01*
X15071444Y-12738222D02*
X15080967Y-12757269D01*
X15080967Y-12757269D02*
X15080967Y-12804888D01*
X15080967Y-12804888D02*
X15071444Y-12823936D01*
X15071444Y-12823936D02*
X15061920Y-12833460D01*
X15061920Y-12833460D02*
X15042872Y-12842984D01*
X15042872Y-12842984D02*
X14995253Y-12842984D01*
X14995253Y-12842984D02*
X14976206Y-12833460D01*
X14976206Y-12833460D02*
X14966682Y-12823936D01*
X15252396Y-12642984D02*
X15214301Y-12642984D01*
X15214301Y-12642984D02*
X15195253Y-12652508D01*
X15195253Y-12652508D02*
X15185729Y-12662031D01*
X15185729Y-12662031D02*
X15166682Y-12690603D01*
X15166682Y-12690603D02*
X15157158Y-12728698D01*
X15157158Y-12728698D02*
X15157158Y-12804888D01*
X15157158Y-12804888D02*
X15166682Y-12823936D01*
X15166682Y-12823936D02*
X15176206Y-12833460D01*
X15176206Y-12833460D02*
X15195253Y-12842984D01*
X15195253Y-12842984D02*
X15233348Y-12842984D01*
X15233348Y-12842984D02*
X15252396Y-12833460D01*
X15252396Y-12833460D02*
X15261920Y-12823936D01*
X15261920Y-12823936D02*
X15271444Y-12804888D01*
X15271444Y-12804888D02*
X15271444Y-12757269D01*
X15271444Y-12757269D02*
X15261920Y-12738222D01*
X15261920Y-12738222D02*
X15252396Y-12728698D01*
X15252396Y-12728698D02*
X15233348Y-12719174D01*
X15233348Y-12719174D02*
X15195253Y-12719174D01*
X15195253Y-12719174D02*
X15176206Y-12728698D01*
X15176206Y-12728698D02*
X15166682Y-12738222D01*
X15166682Y-12738222D02*
X15157158Y-12757269D01*
X15347634Y-12642984D02*
X15347634Y-12681079D01*
X15423825Y-12642984D02*
X15423825Y-12681079D01*
X15719063Y-12919174D02*
X15709539Y-12909650D01*
X15709539Y-12909650D02*
X15690491Y-12881079D01*
X15690491Y-12881079D02*
X15680968Y-12862031D01*
X15680968Y-12862031D02*
X15671444Y-12833460D01*
X15671444Y-12833460D02*
X15661920Y-12785841D01*
X15661920Y-12785841D02*
X15661920Y-12747746D01*
X15661920Y-12747746D02*
X15671444Y-12700127D01*
X15671444Y-12700127D02*
X15680968Y-12671555D01*
X15680968Y-12671555D02*
X15690491Y-12652508D01*
X15690491Y-12652508D02*
X15709539Y-12623936D01*
X15709539Y-12623936D02*
X15719063Y-12614412D01*
X15890491Y-12642984D02*
X15795253Y-12642984D01*
X15795253Y-12642984D02*
X15785729Y-12738222D01*
X15785729Y-12738222D02*
X15795253Y-12728698D01*
X15795253Y-12728698D02*
X15814301Y-12719174D01*
X15814301Y-12719174D02*
X15861920Y-12719174D01*
X15861920Y-12719174D02*
X15880968Y-12728698D01*
X15880968Y-12728698D02*
X15890491Y-12738222D01*
X15890491Y-12738222D02*
X15900015Y-12757269D01*
X15900015Y-12757269D02*
X15900015Y-12804888D01*
X15900015Y-12804888D02*
X15890491Y-12823936D01*
X15890491Y-12823936D02*
X15880968Y-12833460D01*
X15880968Y-12833460D02*
X15861920Y-12842984D01*
X15861920Y-12842984D02*
X15814301Y-12842984D01*
X15814301Y-12842984D02*
X15795253Y-12833460D01*
X15795253Y-12833460D02*
X15785729Y-12823936D01*
X16138110Y-12842984D02*
X16138110Y-12642984D01*
X16223825Y-12842984D02*
X16223825Y-12738222D01*
X16223825Y-12738222D02*
X16214301Y-12719174D01*
X16214301Y-12719174D02*
X16195253Y-12709650D01*
X16195253Y-12709650D02*
X16166682Y-12709650D01*
X16166682Y-12709650D02*
X16147634Y-12719174D01*
X16147634Y-12719174D02*
X16138110Y-12728698D01*
X16347634Y-12842984D02*
X16328587Y-12833460D01*
X16328587Y-12833460D02*
X16319063Y-12823936D01*
X16319063Y-12823936D02*
X16309539Y-12804888D01*
X16309539Y-12804888D02*
X16309539Y-12747746D01*
X16309539Y-12747746D02*
X16319063Y-12728698D01*
X16319063Y-12728698D02*
X16328587Y-12719174D01*
X16328587Y-12719174D02*
X16347634Y-12709650D01*
X16347634Y-12709650D02*
X16376206Y-12709650D01*
X16376206Y-12709650D02*
X16395253Y-12719174D01*
X16395253Y-12719174D02*
X16404777Y-12728698D01*
X16404777Y-12728698D02*
X16414301Y-12747746D01*
X16414301Y-12747746D02*
X16414301Y-12804888D01*
X16414301Y-12804888D02*
X16404777Y-12823936D01*
X16404777Y-12823936D02*
X16395253Y-12833460D01*
X16395253Y-12833460D02*
X16376206Y-12842984D01*
X16376206Y-12842984D02*
X16347634Y-12842984D01*
X16528587Y-12842984D02*
X16509539Y-12833460D01*
X16509539Y-12833460D02*
X16500015Y-12814412D01*
X16500015Y-12814412D02*
X16500015Y-12642984D01*
X16680968Y-12833460D02*
X16661920Y-12842984D01*
X16661920Y-12842984D02*
X16623825Y-12842984D01*
X16623825Y-12842984D02*
X16604777Y-12833460D01*
X16604777Y-12833460D02*
X16595253Y-12814412D01*
X16595253Y-12814412D02*
X16595253Y-12738222D01*
X16595253Y-12738222D02*
X16604777Y-12719174D01*
X16604777Y-12719174D02*
X16623825Y-12709650D01*
X16623825Y-12709650D02*
X16661920Y-12709650D01*
X16661920Y-12709650D02*
X16680968Y-12719174D01*
X16680968Y-12719174D02*
X16690491Y-12738222D01*
X16690491Y-12738222D02*
X16690491Y-12757269D01*
X16690491Y-12757269D02*
X16595253Y-12776317D01*
X16766682Y-12833460D02*
X16785730Y-12842984D01*
X16785730Y-12842984D02*
X16823825Y-12842984D01*
X16823825Y-12842984D02*
X16842873Y-12833460D01*
X16842873Y-12833460D02*
X16852396Y-12814412D01*
X16852396Y-12814412D02*
X16852396Y-12804888D01*
X16852396Y-12804888D02*
X16842873Y-12785841D01*
X16842873Y-12785841D02*
X16823825Y-12776317D01*
X16823825Y-12776317D02*
X16795253Y-12776317D01*
X16795253Y-12776317D02*
X16776206Y-12766793D01*
X16776206Y-12766793D02*
X16766682Y-12747746D01*
X16766682Y-12747746D02*
X16766682Y-12738222D01*
X16766682Y-12738222D02*
X16776206Y-12719174D01*
X16776206Y-12719174D02*
X16795253Y-12709650D01*
X16795253Y-12709650D02*
X16823825Y-12709650D01*
X16823825Y-12709650D02*
X16842873Y-12719174D01*
X16919063Y-12919174D02*
X16928587Y-12909650D01*
X16928587Y-12909650D02*
X16947634Y-12881079D01*
X16947634Y-12881079D02*
X16957158Y-12862031D01*
X16957158Y-12862031D02*
X16966682Y-12833460D01*
X16966682Y-12833460D02*
X16976206Y-12785841D01*
X16976206Y-12785841D02*
X16976206Y-12747746D01*
X16976206Y-12747746D02*
X16966682Y-12700127D01*
X16966682Y-12700127D02*
X16957158Y-12671555D01*
X16957158Y-12671555D02*
X16947634Y-12652508D01*
X16947634Y-12652508D02*
X16928587Y-12623936D01*
X16928587Y-12623936D02*
X16919063Y-12614412D01*
D12*
X12064000Y-12975500D02*
X12144000Y-13055500D01*
X12144000Y-12975500D02*
X12064000Y-13055500D01*
X12144000Y-13015500D02*
G75*
G02*
X12064000Y-13015500I-40000J0D01*
G01*
X12064000Y-13015500D02*
G75*
G02*
X12144000Y-13015500I40000J0D01*
G01*
D11*
X12442872Y-12906984D02*
X12461920Y-12906984D01*
X12461920Y-12906984D02*
X12480967Y-12916508D01*
X12480967Y-12916508D02*
X12490491Y-12926031D01*
X12490491Y-12926031D02*
X12500015Y-12945079D01*
X12500015Y-12945079D02*
X12509539Y-12983174D01*
X12509539Y-12983174D02*
X12509539Y-13030793D01*
X12509539Y-13030793D02*
X12500015Y-13068888D01*
X12500015Y-13068888D02*
X12490491Y-13087936D01*
X12490491Y-13087936D02*
X12480967Y-13097460D01*
X12480967Y-13097460D02*
X12461920Y-13106984D01*
X12461920Y-13106984D02*
X12442872Y-13106984D01*
X12442872Y-13106984D02*
X12423824Y-13097460D01*
X12423824Y-13097460D02*
X12414301Y-13087936D01*
X12414301Y-13087936D02*
X12404777Y-13068888D01*
X12404777Y-13068888D02*
X12395253Y-13030793D01*
X12395253Y-13030793D02*
X12395253Y-12983174D01*
X12395253Y-12983174D02*
X12404777Y-12945079D01*
X12404777Y-12945079D02*
X12414301Y-12926031D01*
X12414301Y-12926031D02*
X12423824Y-12916508D01*
X12423824Y-12916508D02*
X12442872Y-12906984D01*
X12595253Y-13087936D02*
X12604777Y-13097460D01*
X12604777Y-13097460D02*
X12595253Y-13106984D01*
X12595253Y-13106984D02*
X12585729Y-13097460D01*
X12585729Y-13097460D02*
X12595253Y-13087936D01*
X12595253Y-13087936D02*
X12595253Y-13106984D01*
X12719062Y-12992698D02*
X12700015Y-12983174D01*
X12700015Y-12983174D02*
X12690491Y-12973650D01*
X12690491Y-12973650D02*
X12680967Y-12954603D01*
X12680967Y-12954603D02*
X12680967Y-12945079D01*
X12680967Y-12945079D02*
X12690491Y-12926031D01*
X12690491Y-12926031D02*
X12700015Y-12916508D01*
X12700015Y-12916508D02*
X12719062Y-12906984D01*
X12719062Y-12906984D02*
X12757158Y-12906984D01*
X12757158Y-12906984D02*
X12776205Y-12916508D01*
X12776205Y-12916508D02*
X12785729Y-12926031D01*
X12785729Y-12926031D02*
X12795253Y-12945079D01*
X12795253Y-12945079D02*
X12795253Y-12954603D01*
X12795253Y-12954603D02*
X12785729Y-12973650D01*
X12785729Y-12973650D02*
X12776205Y-12983174D01*
X12776205Y-12983174D02*
X12757158Y-12992698D01*
X12757158Y-12992698D02*
X12719062Y-12992698D01*
X12719062Y-12992698D02*
X12700015Y-13002222D01*
X12700015Y-13002222D02*
X12690491Y-13011746D01*
X12690491Y-13011746D02*
X12680967Y-13030793D01*
X12680967Y-13030793D02*
X12680967Y-13068888D01*
X12680967Y-13068888D02*
X12690491Y-13087936D01*
X12690491Y-13087936D02*
X12700015Y-13097460D01*
X12700015Y-13097460D02*
X12719062Y-13106984D01*
X12719062Y-13106984D02*
X12757158Y-13106984D01*
X12757158Y-13106984D02*
X12776205Y-13097460D01*
X12776205Y-13097460D02*
X12785729Y-13087936D01*
X12785729Y-13087936D02*
X12795253Y-13068888D01*
X12795253Y-13068888D02*
X12795253Y-13030793D01*
X12795253Y-13030793D02*
X12785729Y-13011746D01*
X12785729Y-13011746D02*
X12776205Y-13002222D01*
X12776205Y-13002222D02*
X12757158Y-12992698D01*
X12919062Y-12906984D02*
X12938110Y-12906984D01*
X12938110Y-12906984D02*
X12957158Y-12916508D01*
X12957158Y-12916508D02*
X12966682Y-12926031D01*
X12966682Y-12926031D02*
X12976205Y-12945079D01*
X12976205Y-12945079D02*
X12985729Y-12983174D01*
X12985729Y-12983174D02*
X12985729Y-13030793D01*
X12985729Y-13030793D02*
X12976205Y-13068888D01*
X12976205Y-13068888D02*
X12966682Y-13087936D01*
X12966682Y-13087936D02*
X12957158Y-13097460D01*
X12957158Y-13097460D02*
X12938110Y-13106984D01*
X12938110Y-13106984D02*
X12919062Y-13106984D01*
X12919062Y-13106984D02*
X12900015Y-13097460D01*
X12900015Y-13097460D02*
X12890491Y-13087936D01*
X12890491Y-13087936D02*
X12880967Y-13068888D01*
X12880967Y-13068888D02*
X12871443Y-13030793D01*
X12871443Y-13030793D02*
X12871443Y-12983174D01*
X12871443Y-12983174D02*
X12880967Y-12945079D01*
X12880967Y-12945079D02*
X12890491Y-12926031D01*
X12890491Y-12926031D02*
X12900015Y-12916508D01*
X12900015Y-12916508D02*
X12919062Y-12906984D01*
X13109539Y-12906984D02*
X13128586Y-12906984D01*
X13128586Y-12906984D02*
X13147634Y-12916508D01*
X13147634Y-12916508D02*
X13157158Y-12926031D01*
X13157158Y-12926031D02*
X13166682Y-12945079D01*
X13166682Y-12945079D02*
X13176205Y-12983174D01*
X13176205Y-12983174D02*
X13176205Y-13030793D01*
X13176205Y-13030793D02*
X13166682Y-13068888D01*
X13166682Y-13068888D02*
X13157158Y-13087936D01*
X13157158Y-13087936D02*
X13147634Y-13097460D01*
X13147634Y-13097460D02*
X13128586Y-13106984D01*
X13128586Y-13106984D02*
X13109539Y-13106984D01*
X13109539Y-13106984D02*
X13090491Y-13097460D01*
X13090491Y-13097460D02*
X13080967Y-13087936D01*
X13080967Y-13087936D02*
X13071443Y-13068888D01*
X13071443Y-13068888D02*
X13061920Y-13030793D01*
X13061920Y-13030793D02*
X13061920Y-12983174D01*
X13061920Y-12983174D02*
X13071443Y-12945079D01*
X13071443Y-12945079D02*
X13080967Y-12926031D01*
X13080967Y-12926031D02*
X13090491Y-12916508D01*
X13090491Y-12916508D02*
X13109539Y-12906984D01*
X13261920Y-13106984D02*
X13261920Y-12973650D01*
X13261920Y-12992698D02*
X13271443Y-12983174D01*
X13271443Y-12983174D02*
X13290491Y-12973650D01*
X13290491Y-12973650D02*
X13319063Y-12973650D01*
X13319063Y-12973650D02*
X13338110Y-12983174D01*
X13338110Y-12983174D02*
X13347634Y-13002222D01*
X13347634Y-13002222D02*
X13347634Y-13106984D01*
X13347634Y-13002222D02*
X13357158Y-12983174D01*
X13357158Y-12983174D02*
X13376205Y-12973650D01*
X13376205Y-12973650D02*
X13404777Y-12973650D01*
X13404777Y-12973650D02*
X13423824Y-12983174D01*
X13423824Y-12983174D02*
X13433348Y-13002222D01*
X13433348Y-13002222D02*
X13433348Y-13106984D01*
X13528586Y-13106984D02*
X13528586Y-12973650D01*
X13528586Y-12992698D02*
X13538110Y-12983174D01*
X13538110Y-12983174D02*
X13557158Y-12973650D01*
X13557158Y-12973650D02*
X13585729Y-12973650D01*
X13585729Y-12973650D02*
X13604777Y-12983174D01*
X13604777Y-12983174D02*
X13614301Y-13002222D01*
X13614301Y-13002222D02*
X13614301Y-13106984D01*
X13614301Y-13002222D02*
X13623824Y-12983174D01*
X13623824Y-12983174D02*
X13642872Y-12973650D01*
X13642872Y-12973650D02*
X13671443Y-12973650D01*
X13671443Y-12973650D02*
X13690491Y-12983174D01*
X13690491Y-12983174D02*
X13700015Y-13002222D01*
X13700015Y-13002222D02*
X13700015Y-13106984D01*
X14090491Y-12897460D02*
X13919063Y-13154603D01*
X14347634Y-12906984D02*
X14366682Y-12906984D01*
X14366682Y-12906984D02*
X14385729Y-12916508D01*
X14385729Y-12916508D02*
X14395253Y-12926031D01*
X14395253Y-12926031D02*
X14404777Y-12945079D01*
X14404777Y-12945079D02*
X14414301Y-12983174D01*
X14414301Y-12983174D02*
X14414301Y-13030793D01*
X14414301Y-13030793D02*
X14404777Y-13068888D01*
X14404777Y-13068888D02*
X14395253Y-13087936D01*
X14395253Y-13087936D02*
X14385729Y-13097460D01*
X14385729Y-13097460D02*
X14366682Y-13106984D01*
X14366682Y-13106984D02*
X14347634Y-13106984D01*
X14347634Y-13106984D02*
X14328586Y-13097460D01*
X14328586Y-13097460D02*
X14319063Y-13087936D01*
X14319063Y-13087936D02*
X14309539Y-13068888D01*
X14309539Y-13068888D02*
X14300015Y-13030793D01*
X14300015Y-13030793D02*
X14300015Y-12983174D01*
X14300015Y-12983174D02*
X14309539Y-12945079D01*
X14309539Y-12945079D02*
X14319063Y-12926031D01*
X14319063Y-12926031D02*
X14328586Y-12916508D01*
X14328586Y-12916508D02*
X14347634Y-12906984D01*
X14500015Y-13087936D02*
X14509539Y-13097460D01*
X14509539Y-13097460D02*
X14500015Y-13106984D01*
X14500015Y-13106984D02*
X14490491Y-13097460D01*
X14490491Y-13097460D02*
X14500015Y-13087936D01*
X14500015Y-13087936D02*
X14500015Y-13106984D01*
X14633348Y-12906984D02*
X14652396Y-12906984D01*
X14652396Y-12906984D02*
X14671444Y-12916508D01*
X14671444Y-12916508D02*
X14680967Y-12926031D01*
X14680967Y-12926031D02*
X14690491Y-12945079D01*
X14690491Y-12945079D02*
X14700015Y-12983174D01*
X14700015Y-12983174D02*
X14700015Y-13030793D01*
X14700015Y-13030793D02*
X14690491Y-13068888D01*
X14690491Y-13068888D02*
X14680967Y-13087936D01*
X14680967Y-13087936D02*
X14671444Y-13097460D01*
X14671444Y-13097460D02*
X14652396Y-13106984D01*
X14652396Y-13106984D02*
X14633348Y-13106984D01*
X14633348Y-13106984D02*
X14614301Y-13097460D01*
X14614301Y-13097460D02*
X14604777Y-13087936D01*
X14604777Y-13087936D02*
X14595253Y-13068888D01*
X14595253Y-13068888D02*
X14585729Y-13030793D01*
X14585729Y-13030793D02*
X14585729Y-12983174D01*
X14585729Y-12983174D02*
X14595253Y-12945079D01*
X14595253Y-12945079D02*
X14604777Y-12926031D01*
X14604777Y-12926031D02*
X14614301Y-12916508D01*
X14614301Y-12916508D02*
X14633348Y-12906984D01*
X14766682Y-12906984D02*
X14890491Y-12906984D01*
X14890491Y-12906984D02*
X14823825Y-12983174D01*
X14823825Y-12983174D02*
X14852396Y-12983174D01*
X14852396Y-12983174D02*
X14871444Y-12992698D01*
X14871444Y-12992698D02*
X14880967Y-13002222D01*
X14880967Y-13002222D02*
X14890491Y-13021269D01*
X14890491Y-13021269D02*
X14890491Y-13068888D01*
X14890491Y-13068888D02*
X14880967Y-13087936D01*
X14880967Y-13087936D02*
X14871444Y-13097460D01*
X14871444Y-13097460D02*
X14852396Y-13106984D01*
X14852396Y-13106984D02*
X14795253Y-13106984D01*
X14795253Y-13106984D02*
X14776206Y-13097460D01*
X14776206Y-13097460D02*
X14766682Y-13087936D01*
X15080967Y-13106984D02*
X14966682Y-13106984D01*
X15023825Y-13106984D02*
X15023825Y-12906984D01*
X15023825Y-12906984D02*
X15004777Y-12935555D01*
X15004777Y-12935555D02*
X14985729Y-12954603D01*
X14985729Y-12954603D02*
X14966682Y-12964127D01*
X15261920Y-12906984D02*
X15166682Y-12906984D01*
X15166682Y-12906984D02*
X15157158Y-13002222D01*
X15157158Y-13002222D02*
X15166682Y-12992698D01*
X15166682Y-12992698D02*
X15185729Y-12983174D01*
X15185729Y-12983174D02*
X15233348Y-12983174D01*
X15233348Y-12983174D02*
X15252396Y-12992698D01*
X15252396Y-12992698D02*
X15261920Y-13002222D01*
X15261920Y-13002222D02*
X15271444Y-13021269D01*
X15271444Y-13021269D02*
X15271444Y-13068888D01*
X15271444Y-13068888D02*
X15261920Y-13087936D01*
X15261920Y-13087936D02*
X15252396Y-13097460D01*
X15252396Y-13097460D02*
X15233348Y-13106984D01*
X15233348Y-13106984D02*
X15185729Y-13106984D01*
X15185729Y-13106984D02*
X15166682Y-13097460D01*
X15166682Y-13097460D02*
X15157158Y-13087936D01*
X15347634Y-12906984D02*
X15347634Y-12945079D01*
X15423825Y-12906984D02*
X15423825Y-12945079D01*
X15719063Y-13183174D02*
X15709539Y-13173650D01*
X15709539Y-13173650D02*
X15690491Y-13145079D01*
X15690491Y-13145079D02*
X15680968Y-13126031D01*
X15680968Y-13126031D02*
X15671444Y-13097460D01*
X15671444Y-13097460D02*
X15661920Y-13049841D01*
X15661920Y-13049841D02*
X15661920Y-13011746D01*
X15661920Y-13011746D02*
X15671444Y-12964127D01*
X15671444Y-12964127D02*
X15680968Y-12935555D01*
X15680968Y-12935555D02*
X15690491Y-12916508D01*
X15690491Y-12916508D02*
X15709539Y-12887936D01*
X15709539Y-12887936D02*
X15719063Y-12878412D01*
X15776206Y-12906984D02*
X15900015Y-12906984D01*
X15900015Y-12906984D02*
X15833348Y-12983174D01*
X15833348Y-12983174D02*
X15861920Y-12983174D01*
X15861920Y-12983174D02*
X15880968Y-12992698D01*
X15880968Y-12992698D02*
X15890491Y-13002222D01*
X15890491Y-13002222D02*
X15900015Y-13021269D01*
X15900015Y-13021269D02*
X15900015Y-13068888D01*
X15900015Y-13068888D02*
X15890491Y-13087936D01*
X15890491Y-13087936D02*
X15880968Y-13097460D01*
X15880968Y-13097460D02*
X15861920Y-13106984D01*
X15861920Y-13106984D02*
X15804777Y-13106984D01*
X15804777Y-13106984D02*
X15785729Y-13097460D01*
X15785729Y-13097460D02*
X15776206Y-13087936D01*
X16138110Y-13106984D02*
X16138110Y-12906984D01*
X16223825Y-13106984D02*
X16223825Y-13002222D01*
X16223825Y-13002222D02*
X16214301Y-12983174D01*
X16214301Y-12983174D02*
X16195253Y-12973650D01*
X16195253Y-12973650D02*
X16166682Y-12973650D01*
X16166682Y-12973650D02*
X16147634Y-12983174D01*
X16147634Y-12983174D02*
X16138110Y-12992698D01*
X16347634Y-13106984D02*
X16328587Y-13097460D01*
X16328587Y-13097460D02*
X16319063Y-13087936D01*
X16319063Y-13087936D02*
X16309539Y-13068888D01*
X16309539Y-13068888D02*
X16309539Y-13011746D01*
X16309539Y-13011746D02*
X16319063Y-12992698D01*
X16319063Y-12992698D02*
X16328587Y-12983174D01*
X16328587Y-12983174D02*
X16347634Y-12973650D01*
X16347634Y-12973650D02*
X16376206Y-12973650D01*
X16376206Y-12973650D02*
X16395253Y-12983174D01*
X16395253Y-12983174D02*
X16404777Y-12992698D01*
X16404777Y-12992698D02*
X16414301Y-13011746D01*
X16414301Y-13011746D02*
X16414301Y-13068888D01*
X16414301Y-13068888D02*
X16404777Y-13087936D01*
X16404777Y-13087936D02*
X16395253Y-13097460D01*
X16395253Y-13097460D02*
X16376206Y-13106984D01*
X16376206Y-13106984D02*
X16347634Y-13106984D01*
X16528587Y-13106984D02*
X16509539Y-13097460D01*
X16509539Y-13097460D02*
X16500015Y-13078412D01*
X16500015Y-13078412D02*
X16500015Y-12906984D01*
X16680968Y-13097460D02*
X16661920Y-13106984D01*
X16661920Y-13106984D02*
X16623825Y-13106984D01*
X16623825Y-13106984D02*
X16604777Y-13097460D01*
X16604777Y-13097460D02*
X16595253Y-13078412D01*
X16595253Y-13078412D02*
X16595253Y-13002222D01*
X16595253Y-13002222D02*
X16604777Y-12983174D01*
X16604777Y-12983174D02*
X16623825Y-12973650D01*
X16623825Y-12973650D02*
X16661920Y-12973650D01*
X16661920Y-12973650D02*
X16680968Y-12983174D01*
X16680968Y-12983174D02*
X16690491Y-13002222D01*
X16690491Y-13002222D02*
X16690491Y-13021269D01*
X16690491Y-13021269D02*
X16595253Y-13040317D01*
X16766682Y-13097460D02*
X16785730Y-13106984D01*
X16785730Y-13106984D02*
X16823825Y-13106984D01*
X16823825Y-13106984D02*
X16842873Y-13097460D01*
X16842873Y-13097460D02*
X16852396Y-13078412D01*
X16852396Y-13078412D02*
X16852396Y-13068888D01*
X16852396Y-13068888D02*
X16842873Y-13049841D01*
X16842873Y-13049841D02*
X16823825Y-13040317D01*
X16823825Y-13040317D02*
X16795253Y-13040317D01*
X16795253Y-13040317D02*
X16776206Y-13030793D01*
X16776206Y-13030793D02*
X16766682Y-13011746D01*
X16766682Y-13011746D02*
X16766682Y-13002222D01*
X16766682Y-13002222D02*
X16776206Y-12983174D01*
X16776206Y-12983174D02*
X16795253Y-12973650D01*
X16795253Y-12973650D02*
X16823825Y-12973650D01*
X16823825Y-12973650D02*
X16842873Y-12983174D01*
X16919063Y-13183174D02*
X16928587Y-13173650D01*
X16928587Y-13173650D02*
X16947634Y-13145079D01*
X16947634Y-13145079D02*
X16957158Y-13126031D01*
X16957158Y-13126031D02*
X16966682Y-13097460D01*
X16966682Y-13097460D02*
X16976206Y-13049841D01*
X16976206Y-13049841D02*
X16976206Y-13011746D01*
X16976206Y-13011746D02*
X16966682Y-12964127D01*
X16966682Y-12964127D02*
X16957158Y-12935555D01*
X16957158Y-12935555D02*
X16947634Y-12916508D01*
X16947634Y-12916508D02*
X16928587Y-12887936D01*
X16928587Y-12887936D02*
X16919063Y-12878412D01*
D13*
X11994000Y-13204500D02*
X12144000Y-13354500D01*
X12144000Y-13204500D02*
X11994000Y-13354500D01*
X12069000Y-13204500D02*
X12069000Y-13354500D01*
X11994000Y-13279500D02*
X12144000Y-13279500D01*
D11*
X12509539Y-13370984D02*
X12395253Y-13370984D01*
X12452396Y-13370984D02*
X12452396Y-13170984D01*
X12452396Y-13170984D02*
X12433348Y-13199555D01*
X12433348Y-13199555D02*
X12414301Y-13218603D01*
X12414301Y-13218603D02*
X12395253Y-13228127D01*
X12595253Y-13351936D02*
X12604777Y-13361460D01*
X12604777Y-13361460D02*
X12595253Y-13370984D01*
X12595253Y-13370984D02*
X12585729Y-13361460D01*
X12585729Y-13361460D02*
X12595253Y-13351936D01*
X12595253Y-13351936D02*
X12595253Y-13370984D01*
X12785729Y-13170984D02*
X12690491Y-13170984D01*
X12690491Y-13170984D02*
X12680967Y-13266222D01*
X12680967Y-13266222D02*
X12690491Y-13256698D01*
X12690491Y-13256698D02*
X12709539Y-13247174D01*
X12709539Y-13247174D02*
X12757158Y-13247174D01*
X12757158Y-13247174D02*
X12776205Y-13256698D01*
X12776205Y-13256698D02*
X12785729Y-13266222D01*
X12785729Y-13266222D02*
X12795253Y-13285269D01*
X12795253Y-13285269D02*
X12795253Y-13332888D01*
X12795253Y-13332888D02*
X12785729Y-13351936D01*
X12785729Y-13351936D02*
X12776205Y-13361460D01*
X12776205Y-13361460D02*
X12757158Y-13370984D01*
X12757158Y-13370984D02*
X12709539Y-13370984D01*
X12709539Y-13370984D02*
X12690491Y-13361460D01*
X12690491Y-13361460D02*
X12680967Y-13351936D01*
X12919062Y-13170984D02*
X12938110Y-13170984D01*
X12938110Y-13170984D02*
X12957158Y-13180508D01*
X12957158Y-13180508D02*
X12966682Y-13190031D01*
X12966682Y-13190031D02*
X12976205Y-13209079D01*
X12976205Y-13209079D02*
X12985729Y-13247174D01*
X12985729Y-13247174D02*
X12985729Y-13294793D01*
X12985729Y-13294793D02*
X12976205Y-13332888D01*
X12976205Y-13332888D02*
X12966682Y-13351936D01*
X12966682Y-13351936D02*
X12957158Y-13361460D01*
X12957158Y-13361460D02*
X12938110Y-13370984D01*
X12938110Y-13370984D02*
X12919062Y-13370984D01*
X12919062Y-13370984D02*
X12900015Y-13361460D01*
X12900015Y-13361460D02*
X12890491Y-13351936D01*
X12890491Y-13351936D02*
X12880967Y-13332888D01*
X12880967Y-13332888D02*
X12871443Y-13294793D01*
X12871443Y-13294793D02*
X12871443Y-13247174D01*
X12871443Y-13247174D02*
X12880967Y-13209079D01*
X12880967Y-13209079D02*
X12890491Y-13190031D01*
X12890491Y-13190031D02*
X12900015Y-13180508D01*
X12900015Y-13180508D02*
X12919062Y-13170984D01*
X13109539Y-13170984D02*
X13128586Y-13170984D01*
X13128586Y-13170984D02*
X13147634Y-13180508D01*
X13147634Y-13180508D02*
X13157158Y-13190031D01*
X13157158Y-13190031D02*
X13166682Y-13209079D01*
X13166682Y-13209079D02*
X13176205Y-13247174D01*
X13176205Y-13247174D02*
X13176205Y-13294793D01*
X13176205Y-13294793D02*
X13166682Y-13332888D01*
X13166682Y-13332888D02*
X13157158Y-13351936D01*
X13157158Y-13351936D02*
X13147634Y-13361460D01*
X13147634Y-13361460D02*
X13128586Y-13370984D01*
X13128586Y-13370984D02*
X13109539Y-13370984D01*
X13109539Y-13370984D02*
X13090491Y-13361460D01*
X13090491Y-13361460D02*
X13080967Y-13351936D01*
X13080967Y-13351936D02*
X13071443Y-13332888D01*
X13071443Y-13332888D02*
X13061920Y-13294793D01*
X13061920Y-13294793D02*
X13061920Y-13247174D01*
X13061920Y-13247174D02*
X13071443Y-13209079D01*
X13071443Y-13209079D02*
X13080967Y-13190031D01*
X13080967Y-13190031D02*
X13090491Y-13180508D01*
X13090491Y-13180508D02*
X13109539Y-13170984D01*
X13261920Y-13370984D02*
X13261920Y-13237650D01*
X13261920Y-13256698D02*
X13271443Y-13247174D01*
X13271443Y-13247174D02*
X13290491Y-13237650D01*
X13290491Y-13237650D02*
X13319063Y-13237650D01*
X13319063Y-13237650D02*
X13338110Y-13247174D01*
X13338110Y-13247174D02*
X13347634Y-13266222D01*
X13347634Y-13266222D02*
X13347634Y-13370984D01*
X13347634Y-13266222D02*
X13357158Y-13247174D01*
X13357158Y-13247174D02*
X13376205Y-13237650D01*
X13376205Y-13237650D02*
X13404777Y-13237650D01*
X13404777Y-13237650D02*
X13423824Y-13247174D01*
X13423824Y-13247174D02*
X13433348Y-13266222D01*
X13433348Y-13266222D02*
X13433348Y-13370984D01*
X13528586Y-13370984D02*
X13528586Y-13237650D01*
X13528586Y-13256698D02*
X13538110Y-13247174D01*
X13538110Y-13247174D02*
X13557158Y-13237650D01*
X13557158Y-13237650D02*
X13585729Y-13237650D01*
X13585729Y-13237650D02*
X13604777Y-13247174D01*
X13604777Y-13247174D02*
X13614301Y-13266222D01*
X13614301Y-13266222D02*
X13614301Y-13370984D01*
X13614301Y-13266222D02*
X13623824Y-13247174D01*
X13623824Y-13247174D02*
X13642872Y-13237650D01*
X13642872Y-13237650D02*
X13671443Y-13237650D01*
X13671443Y-13237650D02*
X13690491Y-13247174D01*
X13690491Y-13247174D02*
X13700015Y-13266222D01*
X13700015Y-13266222D02*
X13700015Y-13370984D01*
X14090491Y-13161460D02*
X13919063Y-13418603D01*
X14347634Y-13170984D02*
X14366682Y-13170984D01*
X14366682Y-13170984D02*
X14385729Y-13180508D01*
X14385729Y-13180508D02*
X14395253Y-13190031D01*
X14395253Y-13190031D02*
X14404777Y-13209079D01*
X14404777Y-13209079D02*
X14414301Y-13247174D01*
X14414301Y-13247174D02*
X14414301Y-13294793D01*
X14414301Y-13294793D02*
X14404777Y-13332888D01*
X14404777Y-13332888D02*
X14395253Y-13351936D01*
X14395253Y-13351936D02*
X14385729Y-13361460D01*
X14385729Y-13361460D02*
X14366682Y-13370984D01*
X14366682Y-13370984D02*
X14347634Y-13370984D01*
X14347634Y-13370984D02*
X14328586Y-13361460D01*
X14328586Y-13361460D02*
X14319063Y-13351936D01*
X14319063Y-13351936D02*
X14309539Y-13332888D01*
X14309539Y-13332888D02*
X14300015Y-13294793D01*
X14300015Y-13294793D02*
X14300015Y-13247174D01*
X14300015Y-13247174D02*
X14309539Y-13209079D01*
X14309539Y-13209079D02*
X14319063Y-13190031D01*
X14319063Y-13190031D02*
X14328586Y-13180508D01*
X14328586Y-13180508D02*
X14347634Y-13170984D01*
X14500015Y-13351936D02*
X14509539Y-13361460D01*
X14509539Y-13361460D02*
X14500015Y-13370984D01*
X14500015Y-13370984D02*
X14490491Y-13361460D01*
X14490491Y-13361460D02*
X14500015Y-13351936D01*
X14500015Y-13351936D02*
X14500015Y-13370984D01*
X14633348Y-13170984D02*
X14652396Y-13170984D01*
X14652396Y-13170984D02*
X14671444Y-13180508D01*
X14671444Y-13180508D02*
X14680967Y-13190031D01*
X14680967Y-13190031D02*
X14690491Y-13209079D01*
X14690491Y-13209079D02*
X14700015Y-13247174D01*
X14700015Y-13247174D02*
X14700015Y-13294793D01*
X14700015Y-13294793D02*
X14690491Y-13332888D01*
X14690491Y-13332888D02*
X14680967Y-13351936D01*
X14680967Y-13351936D02*
X14671444Y-13361460D01*
X14671444Y-13361460D02*
X14652396Y-13370984D01*
X14652396Y-13370984D02*
X14633348Y-13370984D01*
X14633348Y-13370984D02*
X14614301Y-13361460D01*
X14614301Y-13361460D02*
X14604777Y-13351936D01*
X14604777Y-13351936D02*
X14595253Y-13332888D01*
X14595253Y-13332888D02*
X14585729Y-13294793D01*
X14585729Y-13294793D02*
X14585729Y-13247174D01*
X14585729Y-13247174D02*
X14595253Y-13209079D01*
X14595253Y-13209079D02*
X14604777Y-13190031D01*
X14604777Y-13190031D02*
X14614301Y-13180508D01*
X14614301Y-13180508D02*
X14633348Y-13170984D01*
X14880967Y-13170984D02*
X14785729Y-13170984D01*
X14785729Y-13170984D02*
X14776206Y-13266222D01*
X14776206Y-13266222D02*
X14785729Y-13256698D01*
X14785729Y-13256698D02*
X14804777Y-13247174D01*
X14804777Y-13247174D02*
X14852396Y-13247174D01*
X14852396Y-13247174D02*
X14871444Y-13256698D01*
X14871444Y-13256698D02*
X14880967Y-13266222D01*
X14880967Y-13266222D02*
X14890491Y-13285269D01*
X14890491Y-13285269D02*
X14890491Y-13332888D01*
X14890491Y-13332888D02*
X14880967Y-13351936D01*
X14880967Y-13351936D02*
X14871444Y-13361460D01*
X14871444Y-13361460D02*
X14852396Y-13370984D01*
X14852396Y-13370984D02*
X14804777Y-13370984D01*
X14804777Y-13370984D02*
X14785729Y-13361460D01*
X14785729Y-13361460D02*
X14776206Y-13351936D01*
X14985729Y-13370984D02*
X15023825Y-13370984D01*
X15023825Y-13370984D02*
X15042872Y-13361460D01*
X15042872Y-13361460D02*
X15052396Y-13351936D01*
X15052396Y-13351936D02*
X15071444Y-13323365D01*
X15071444Y-13323365D02*
X15080967Y-13285269D01*
X15080967Y-13285269D02*
X15080967Y-13209079D01*
X15080967Y-13209079D02*
X15071444Y-13190031D01*
X15071444Y-13190031D02*
X15061920Y-13180508D01*
X15061920Y-13180508D02*
X15042872Y-13170984D01*
X15042872Y-13170984D02*
X15004777Y-13170984D01*
X15004777Y-13170984D02*
X14985729Y-13180508D01*
X14985729Y-13180508D02*
X14976206Y-13190031D01*
X14976206Y-13190031D02*
X14966682Y-13209079D01*
X14966682Y-13209079D02*
X14966682Y-13256698D01*
X14966682Y-13256698D02*
X14976206Y-13275746D01*
X14976206Y-13275746D02*
X14985729Y-13285269D01*
X14985729Y-13285269D02*
X15004777Y-13294793D01*
X15004777Y-13294793D02*
X15042872Y-13294793D01*
X15042872Y-13294793D02*
X15061920Y-13285269D01*
X15061920Y-13285269D02*
X15071444Y-13275746D01*
X15071444Y-13275746D02*
X15080967Y-13256698D01*
X15271444Y-13370984D02*
X15157158Y-13370984D01*
X15214301Y-13370984D02*
X15214301Y-13170984D01*
X15214301Y-13170984D02*
X15195253Y-13199555D01*
X15195253Y-13199555D02*
X15176206Y-13218603D01*
X15176206Y-13218603D02*
X15157158Y-13228127D01*
X15347634Y-13170984D02*
X15347634Y-13209079D01*
X15423825Y-13170984D02*
X15423825Y-13209079D01*
X15719063Y-13447174D02*
X15709539Y-13437650D01*
X15709539Y-13437650D02*
X15690491Y-13409079D01*
X15690491Y-13409079D02*
X15680968Y-13390031D01*
X15680968Y-13390031D02*
X15671444Y-13361460D01*
X15671444Y-13361460D02*
X15661920Y-13313841D01*
X15661920Y-13313841D02*
X15661920Y-13275746D01*
X15661920Y-13275746D02*
X15671444Y-13228127D01*
X15671444Y-13228127D02*
X15680968Y-13199555D01*
X15680968Y-13199555D02*
X15690491Y-13180508D01*
X15690491Y-13180508D02*
X15709539Y-13151936D01*
X15709539Y-13151936D02*
X15719063Y-13142412D01*
X15785729Y-13190031D02*
X15795253Y-13180508D01*
X15795253Y-13180508D02*
X15814301Y-13170984D01*
X15814301Y-13170984D02*
X15861920Y-13170984D01*
X15861920Y-13170984D02*
X15880968Y-13180508D01*
X15880968Y-13180508D02*
X15890491Y-13190031D01*
X15890491Y-13190031D02*
X15900015Y-13209079D01*
X15900015Y-13209079D02*
X15900015Y-13228127D01*
X15900015Y-13228127D02*
X15890491Y-13256698D01*
X15890491Y-13256698D02*
X15776206Y-13370984D01*
X15776206Y-13370984D02*
X15900015Y-13370984D01*
X16138110Y-13370984D02*
X16138110Y-13170984D01*
X16223825Y-13370984D02*
X16223825Y-13266222D01*
X16223825Y-13266222D02*
X16214301Y-13247174D01*
X16214301Y-13247174D02*
X16195253Y-13237650D01*
X16195253Y-13237650D02*
X16166682Y-13237650D01*
X16166682Y-13237650D02*
X16147634Y-13247174D01*
X16147634Y-13247174D02*
X16138110Y-13256698D01*
X16347634Y-13370984D02*
X16328587Y-13361460D01*
X16328587Y-13361460D02*
X16319063Y-13351936D01*
X16319063Y-13351936D02*
X16309539Y-13332888D01*
X16309539Y-13332888D02*
X16309539Y-13275746D01*
X16309539Y-13275746D02*
X16319063Y-13256698D01*
X16319063Y-13256698D02*
X16328587Y-13247174D01*
X16328587Y-13247174D02*
X16347634Y-13237650D01*
X16347634Y-13237650D02*
X16376206Y-13237650D01*
X16376206Y-13237650D02*
X16395253Y-13247174D01*
X16395253Y-13247174D02*
X16404777Y-13256698D01*
X16404777Y-13256698D02*
X16414301Y-13275746D01*
X16414301Y-13275746D02*
X16414301Y-13332888D01*
X16414301Y-13332888D02*
X16404777Y-13351936D01*
X16404777Y-13351936D02*
X16395253Y-13361460D01*
X16395253Y-13361460D02*
X16376206Y-13370984D01*
X16376206Y-13370984D02*
X16347634Y-13370984D01*
X16528587Y-13370984D02*
X16509539Y-13361460D01*
X16509539Y-13361460D02*
X16500015Y-13342412D01*
X16500015Y-13342412D02*
X16500015Y-13170984D01*
X16680968Y-13361460D02*
X16661920Y-13370984D01*
X16661920Y-13370984D02*
X16623825Y-13370984D01*
X16623825Y-13370984D02*
X16604777Y-13361460D01*
X16604777Y-13361460D02*
X16595253Y-13342412D01*
X16595253Y-13342412D02*
X16595253Y-13266222D01*
X16595253Y-13266222D02*
X16604777Y-13247174D01*
X16604777Y-13247174D02*
X16623825Y-13237650D01*
X16623825Y-13237650D02*
X16661920Y-13237650D01*
X16661920Y-13237650D02*
X16680968Y-13247174D01*
X16680968Y-13247174D02*
X16690491Y-13266222D01*
X16690491Y-13266222D02*
X16690491Y-13285269D01*
X16690491Y-13285269D02*
X16595253Y-13304317D01*
X16766682Y-13361460D02*
X16785730Y-13370984D01*
X16785730Y-13370984D02*
X16823825Y-13370984D01*
X16823825Y-13370984D02*
X16842873Y-13361460D01*
X16842873Y-13361460D02*
X16852396Y-13342412D01*
X16852396Y-13342412D02*
X16852396Y-13332888D01*
X16852396Y-13332888D02*
X16842873Y-13313841D01*
X16842873Y-13313841D02*
X16823825Y-13304317D01*
X16823825Y-13304317D02*
X16795253Y-13304317D01*
X16795253Y-13304317D02*
X16776206Y-13294793D01*
X16776206Y-13294793D02*
X16766682Y-13275746D01*
X16766682Y-13275746D02*
X16766682Y-13266222D01*
X16766682Y-13266222D02*
X16776206Y-13247174D01*
X16776206Y-13247174D02*
X16795253Y-13237650D01*
X16795253Y-13237650D02*
X16823825Y-13237650D01*
X16823825Y-13237650D02*
X16842873Y-13247174D01*
X16919063Y-13447174D02*
X16928587Y-13437650D01*
X16928587Y-13437650D02*
X16947634Y-13409079D01*
X16947634Y-13409079D02*
X16957158Y-13390031D01*
X16957158Y-13390031D02*
X16966682Y-13361460D01*
X16966682Y-13361460D02*
X16976206Y-13313841D01*
X16976206Y-13313841D02*
X16976206Y-13275746D01*
X16976206Y-13275746D02*
X16966682Y-13228127D01*
X16966682Y-13228127D02*
X16957158Y-13199555D01*
X16957158Y-13199555D02*
X16947634Y-13180508D01*
X16947634Y-13180508D02*
X16928587Y-13151936D01*
X16928587Y-13151936D02*
X16919063Y-13142412D01*
X11944000Y-13449500D02*
X12144000Y-13649500D01*
X12144000Y-13449500D02*
X11944000Y-13649500D01*
X12114711Y-13620211D02*
X12114711Y-13478789D01*
X11973289Y-13478789D01*
X11973289Y-13620211D01*
X12114711Y-13620211D01*
X12385729Y-13440984D02*
X12509539Y-13440984D01*
X12509539Y-13440984D02*
X12442872Y-13517174D01*
X12442872Y-13517174D02*
X12471443Y-13517174D01*
X12471443Y-13517174D02*
X12490491Y-13526698D01*
X12490491Y-13526698D02*
X12500015Y-13536222D01*
X12500015Y-13536222D02*
X12509539Y-13555269D01*
X12509539Y-13555269D02*
X12509539Y-13602888D01*
X12509539Y-13602888D02*
X12500015Y-13621936D01*
X12500015Y-13621936D02*
X12490491Y-13631460D01*
X12490491Y-13631460D02*
X12471443Y-13640984D01*
X12471443Y-13640984D02*
X12414301Y-13640984D01*
X12414301Y-13640984D02*
X12395253Y-13631460D01*
X12395253Y-13631460D02*
X12385729Y-13621936D01*
X12595253Y-13621936D02*
X12604777Y-13631460D01*
X12604777Y-13631460D02*
X12595253Y-13640984D01*
X12595253Y-13640984D02*
X12585729Y-13631460D01*
X12585729Y-13631460D02*
X12595253Y-13621936D01*
X12595253Y-13621936D02*
X12595253Y-13640984D01*
X12785729Y-13440984D02*
X12690491Y-13440984D01*
X12690491Y-13440984D02*
X12680967Y-13536222D01*
X12680967Y-13536222D02*
X12690491Y-13526698D01*
X12690491Y-13526698D02*
X12709539Y-13517174D01*
X12709539Y-13517174D02*
X12757158Y-13517174D01*
X12757158Y-13517174D02*
X12776205Y-13526698D01*
X12776205Y-13526698D02*
X12785729Y-13536222D01*
X12785729Y-13536222D02*
X12795253Y-13555269D01*
X12795253Y-13555269D02*
X12795253Y-13602888D01*
X12795253Y-13602888D02*
X12785729Y-13621936D01*
X12785729Y-13621936D02*
X12776205Y-13631460D01*
X12776205Y-13631460D02*
X12757158Y-13640984D01*
X12757158Y-13640984D02*
X12709539Y-13640984D01*
X12709539Y-13640984D02*
X12690491Y-13631460D01*
X12690491Y-13631460D02*
X12680967Y-13621936D01*
X12919062Y-13440984D02*
X12938110Y-13440984D01*
X12938110Y-13440984D02*
X12957158Y-13450508D01*
X12957158Y-13450508D02*
X12966682Y-13460031D01*
X12966682Y-13460031D02*
X12976205Y-13479079D01*
X12976205Y-13479079D02*
X12985729Y-13517174D01*
X12985729Y-13517174D02*
X12985729Y-13564793D01*
X12985729Y-13564793D02*
X12976205Y-13602888D01*
X12976205Y-13602888D02*
X12966682Y-13621936D01*
X12966682Y-13621936D02*
X12957158Y-13631460D01*
X12957158Y-13631460D02*
X12938110Y-13640984D01*
X12938110Y-13640984D02*
X12919062Y-13640984D01*
X12919062Y-13640984D02*
X12900015Y-13631460D01*
X12900015Y-13631460D02*
X12890491Y-13621936D01*
X12890491Y-13621936D02*
X12880967Y-13602888D01*
X12880967Y-13602888D02*
X12871443Y-13564793D01*
X12871443Y-13564793D02*
X12871443Y-13517174D01*
X12871443Y-13517174D02*
X12880967Y-13479079D01*
X12880967Y-13479079D02*
X12890491Y-13460031D01*
X12890491Y-13460031D02*
X12900015Y-13450508D01*
X12900015Y-13450508D02*
X12919062Y-13440984D01*
X13109539Y-13440984D02*
X13128586Y-13440984D01*
X13128586Y-13440984D02*
X13147634Y-13450508D01*
X13147634Y-13450508D02*
X13157158Y-13460031D01*
X13157158Y-13460031D02*
X13166682Y-13479079D01*
X13166682Y-13479079D02*
X13176205Y-13517174D01*
X13176205Y-13517174D02*
X13176205Y-13564793D01*
X13176205Y-13564793D02*
X13166682Y-13602888D01*
X13166682Y-13602888D02*
X13157158Y-13621936D01*
X13157158Y-13621936D02*
X13147634Y-13631460D01*
X13147634Y-13631460D02*
X13128586Y-13640984D01*
X13128586Y-13640984D02*
X13109539Y-13640984D01*
X13109539Y-13640984D02*
X13090491Y-13631460D01*
X13090491Y-13631460D02*
X13080967Y-13621936D01*
X13080967Y-13621936D02*
X13071443Y-13602888D01*
X13071443Y-13602888D02*
X13061920Y-13564793D01*
X13061920Y-13564793D02*
X13061920Y-13517174D01*
X13061920Y-13517174D02*
X13071443Y-13479079D01*
X13071443Y-13479079D02*
X13080967Y-13460031D01*
X13080967Y-13460031D02*
X13090491Y-13450508D01*
X13090491Y-13450508D02*
X13109539Y-13440984D01*
X13261920Y-13640984D02*
X13261920Y-13507650D01*
X13261920Y-13526698D02*
X13271443Y-13517174D01*
X13271443Y-13517174D02*
X13290491Y-13507650D01*
X13290491Y-13507650D02*
X13319063Y-13507650D01*
X13319063Y-13507650D02*
X13338110Y-13517174D01*
X13338110Y-13517174D02*
X13347634Y-13536222D01*
X13347634Y-13536222D02*
X13347634Y-13640984D01*
X13347634Y-13536222D02*
X13357158Y-13517174D01*
X13357158Y-13517174D02*
X13376205Y-13507650D01*
X13376205Y-13507650D02*
X13404777Y-13507650D01*
X13404777Y-13507650D02*
X13423824Y-13517174D01*
X13423824Y-13517174D02*
X13433348Y-13536222D01*
X13433348Y-13536222D02*
X13433348Y-13640984D01*
X13528586Y-13640984D02*
X13528586Y-13507650D01*
X13528586Y-13526698D02*
X13538110Y-13517174D01*
X13538110Y-13517174D02*
X13557158Y-13507650D01*
X13557158Y-13507650D02*
X13585729Y-13507650D01*
X13585729Y-13507650D02*
X13604777Y-13517174D01*
X13604777Y-13517174D02*
X13614301Y-13536222D01*
X13614301Y-13536222D02*
X13614301Y-13640984D01*
X13614301Y-13536222D02*
X13623824Y-13517174D01*
X13623824Y-13517174D02*
X13642872Y-13507650D01*
X13642872Y-13507650D02*
X13671443Y-13507650D01*
X13671443Y-13507650D02*
X13690491Y-13517174D01*
X13690491Y-13517174D02*
X13700015Y-13536222D01*
X13700015Y-13536222D02*
X13700015Y-13640984D01*
X14090491Y-13431460D02*
X13919063Y-13688603D01*
X14347634Y-13440984D02*
X14366682Y-13440984D01*
X14366682Y-13440984D02*
X14385729Y-13450508D01*
X14385729Y-13450508D02*
X14395253Y-13460031D01*
X14395253Y-13460031D02*
X14404777Y-13479079D01*
X14404777Y-13479079D02*
X14414301Y-13517174D01*
X14414301Y-13517174D02*
X14414301Y-13564793D01*
X14414301Y-13564793D02*
X14404777Y-13602888D01*
X14404777Y-13602888D02*
X14395253Y-13621936D01*
X14395253Y-13621936D02*
X14385729Y-13631460D01*
X14385729Y-13631460D02*
X14366682Y-13640984D01*
X14366682Y-13640984D02*
X14347634Y-13640984D01*
X14347634Y-13640984D02*
X14328586Y-13631460D01*
X14328586Y-13631460D02*
X14319063Y-13621936D01*
X14319063Y-13621936D02*
X14309539Y-13602888D01*
X14309539Y-13602888D02*
X14300015Y-13564793D01*
X14300015Y-13564793D02*
X14300015Y-13517174D01*
X14300015Y-13517174D02*
X14309539Y-13479079D01*
X14309539Y-13479079D02*
X14319063Y-13460031D01*
X14319063Y-13460031D02*
X14328586Y-13450508D01*
X14328586Y-13450508D02*
X14347634Y-13440984D01*
X14500015Y-13621936D02*
X14509539Y-13631460D01*
X14509539Y-13631460D02*
X14500015Y-13640984D01*
X14500015Y-13640984D02*
X14490491Y-13631460D01*
X14490491Y-13631460D02*
X14500015Y-13621936D01*
X14500015Y-13621936D02*
X14500015Y-13640984D01*
X14700015Y-13640984D02*
X14585729Y-13640984D01*
X14642872Y-13640984D02*
X14642872Y-13440984D01*
X14642872Y-13440984D02*
X14623825Y-13469555D01*
X14623825Y-13469555D02*
X14604777Y-13488603D01*
X14604777Y-13488603D02*
X14585729Y-13498127D01*
X14766682Y-13440984D02*
X14890491Y-13440984D01*
X14890491Y-13440984D02*
X14823825Y-13517174D01*
X14823825Y-13517174D02*
X14852396Y-13517174D01*
X14852396Y-13517174D02*
X14871444Y-13526698D01*
X14871444Y-13526698D02*
X14880967Y-13536222D01*
X14880967Y-13536222D02*
X14890491Y-13555269D01*
X14890491Y-13555269D02*
X14890491Y-13602888D01*
X14890491Y-13602888D02*
X14880967Y-13621936D01*
X14880967Y-13621936D02*
X14871444Y-13631460D01*
X14871444Y-13631460D02*
X14852396Y-13640984D01*
X14852396Y-13640984D02*
X14795253Y-13640984D01*
X14795253Y-13640984D02*
X14776206Y-13631460D01*
X14776206Y-13631460D02*
X14766682Y-13621936D01*
X14957158Y-13440984D02*
X15090491Y-13440984D01*
X15090491Y-13440984D02*
X15004777Y-13640984D01*
X15195253Y-13526698D02*
X15176206Y-13517174D01*
X15176206Y-13517174D02*
X15166682Y-13507650D01*
X15166682Y-13507650D02*
X15157158Y-13488603D01*
X15157158Y-13488603D02*
X15157158Y-13479079D01*
X15157158Y-13479079D02*
X15166682Y-13460031D01*
X15166682Y-13460031D02*
X15176206Y-13450508D01*
X15176206Y-13450508D02*
X15195253Y-13440984D01*
X15195253Y-13440984D02*
X15233348Y-13440984D01*
X15233348Y-13440984D02*
X15252396Y-13450508D01*
X15252396Y-13450508D02*
X15261920Y-13460031D01*
X15261920Y-13460031D02*
X15271444Y-13479079D01*
X15271444Y-13479079D02*
X15271444Y-13488603D01*
X15271444Y-13488603D02*
X15261920Y-13507650D01*
X15261920Y-13507650D02*
X15252396Y-13517174D01*
X15252396Y-13517174D02*
X15233348Y-13526698D01*
X15233348Y-13526698D02*
X15195253Y-13526698D01*
X15195253Y-13526698D02*
X15176206Y-13536222D01*
X15176206Y-13536222D02*
X15166682Y-13545746D01*
X15166682Y-13545746D02*
X15157158Y-13564793D01*
X15157158Y-13564793D02*
X15157158Y-13602888D01*
X15157158Y-13602888D02*
X15166682Y-13621936D01*
X15166682Y-13621936D02*
X15176206Y-13631460D01*
X15176206Y-13631460D02*
X15195253Y-13640984D01*
X15195253Y-13640984D02*
X15233348Y-13640984D01*
X15233348Y-13640984D02*
X15252396Y-13631460D01*
X15252396Y-13631460D02*
X15261920Y-13621936D01*
X15261920Y-13621936D02*
X15271444Y-13602888D01*
X15271444Y-13602888D02*
X15271444Y-13564793D01*
X15271444Y-13564793D02*
X15261920Y-13545746D01*
X15261920Y-13545746D02*
X15252396Y-13536222D01*
X15252396Y-13536222D02*
X15233348Y-13526698D01*
X15347634Y-13440984D02*
X15347634Y-13479079D01*
X15423825Y-13440984D02*
X15423825Y-13479079D01*
X15719063Y-13717174D02*
X15709539Y-13707650D01*
X15709539Y-13707650D02*
X15690491Y-13679079D01*
X15690491Y-13679079D02*
X15680968Y-13660031D01*
X15680968Y-13660031D02*
X15671444Y-13631460D01*
X15671444Y-13631460D02*
X15661920Y-13583841D01*
X15661920Y-13583841D02*
X15661920Y-13545746D01*
X15661920Y-13545746D02*
X15671444Y-13498127D01*
X15671444Y-13498127D02*
X15680968Y-13469555D01*
X15680968Y-13469555D02*
X15690491Y-13450508D01*
X15690491Y-13450508D02*
X15709539Y-13421936D01*
X15709539Y-13421936D02*
X15719063Y-13412412D01*
X15880968Y-13507650D02*
X15880968Y-13640984D01*
X15833348Y-13431460D02*
X15785729Y-13574317D01*
X15785729Y-13574317D02*
X15909539Y-13574317D01*
X16138110Y-13640984D02*
X16138110Y-13440984D01*
X16223825Y-13640984D02*
X16223825Y-13536222D01*
X16223825Y-13536222D02*
X16214301Y-13517174D01*
X16214301Y-13517174D02*
X16195253Y-13507650D01*
X16195253Y-13507650D02*
X16166682Y-13507650D01*
X16166682Y-13507650D02*
X16147634Y-13517174D01*
X16147634Y-13517174D02*
X16138110Y-13526698D01*
X16347634Y-13640984D02*
X16328587Y-13631460D01*
X16328587Y-13631460D02*
X16319063Y-13621936D01*
X16319063Y-13621936D02*
X16309539Y-13602888D01*
X16309539Y-13602888D02*
X16309539Y-13545746D01*
X16309539Y-13545746D02*
X16319063Y-13526698D01*
X16319063Y-13526698D02*
X16328587Y-13517174D01*
X16328587Y-13517174D02*
X16347634Y-13507650D01*
X16347634Y-13507650D02*
X16376206Y-13507650D01*
X16376206Y-13507650D02*
X16395253Y-13517174D01*
X16395253Y-13517174D02*
X16404777Y-13526698D01*
X16404777Y-13526698D02*
X16414301Y-13545746D01*
X16414301Y-13545746D02*
X16414301Y-13602888D01*
X16414301Y-13602888D02*
X16404777Y-13621936D01*
X16404777Y-13621936D02*
X16395253Y-13631460D01*
X16395253Y-13631460D02*
X16376206Y-13640984D01*
X16376206Y-13640984D02*
X16347634Y-13640984D01*
X16528587Y-13640984D02*
X16509539Y-13631460D01*
X16509539Y-13631460D02*
X16500015Y-13612412D01*
X16500015Y-13612412D02*
X16500015Y-13440984D01*
X16680968Y-13631460D02*
X16661920Y-13640984D01*
X16661920Y-13640984D02*
X16623825Y-13640984D01*
X16623825Y-13640984D02*
X16604777Y-13631460D01*
X16604777Y-13631460D02*
X16595253Y-13612412D01*
X16595253Y-13612412D02*
X16595253Y-13536222D01*
X16595253Y-13536222D02*
X16604777Y-13517174D01*
X16604777Y-13517174D02*
X16623825Y-13507650D01*
X16623825Y-13507650D02*
X16661920Y-13507650D01*
X16661920Y-13507650D02*
X16680968Y-13517174D01*
X16680968Y-13517174D02*
X16690491Y-13536222D01*
X16690491Y-13536222D02*
X16690491Y-13555269D01*
X16690491Y-13555269D02*
X16595253Y-13574317D01*
X16766682Y-13631460D02*
X16785730Y-13640984D01*
X16785730Y-13640984D02*
X16823825Y-13640984D01*
X16823825Y-13640984D02*
X16842873Y-13631460D01*
X16842873Y-13631460D02*
X16852396Y-13612412D01*
X16852396Y-13612412D02*
X16852396Y-13602888D01*
X16852396Y-13602888D02*
X16842873Y-13583841D01*
X16842873Y-13583841D02*
X16823825Y-13574317D01*
X16823825Y-13574317D02*
X16795253Y-13574317D01*
X16795253Y-13574317D02*
X16776206Y-13564793D01*
X16776206Y-13564793D02*
X16766682Y-13545746D01*
X16766682Y-13545746D02*
X16766682Y-13536222D01*
X16766682Y-13536222D02*
X16776206Y-13517174D01*
X16776206Y-13517174D02*
X16795253Y-13507650D01*
X16795253Y-13507650D02*
X16823825Y-13507650D01*
X16823825Y-13507650D02*
X16842873Y-13517174D01*
X16919063Y-13717174D02*
X16928587Y-13707650D01*
X16928587Y-13707650D02*
X16947634Y-13679079D01*
X16947634Y-13679079D02*
X16957158Y-13660031D01*
X16957158Y-13660031D02*
X16966682Y-13631460D01*
X16966682Y-13631460D02*
X16976206Y-13583841D01*
X16976206Y-13583841D02*
X16976206Y-13545746D01*
X16976206Y-13545746D02*
X16966682Y-13498127D01*
X16966682Y-13498127D02*
X16957158Y-13469555D01*
X16957158Y-13469555D02*
X16947634Y-13450508D01*
X16947634Y-13450508D02*
X16928587Y-13421936D01*
X16928587Y-13421936D02*
X16919063Y-13412412D01*
M02*
