%FSLAX24Y24*%
%MOIN*%
G70*
G01*
G75*
%ADD10C,0.0120*%
%ADD11C,0.0100*%
%ADD12R,0.0250X0.1000*%
%ADD13R,0.0650X0.0157*%
%ADD14R,0.1024X0.0630*%
%ADD15R,0.0551X0.0472*%
%ADD16R,0.0091X0.0500*%
%ADD17R,0.0500X0.0091*%
%ADD18R,0.0500X0.0091*%
%ADD19R,0.0390X0.0270*%
%ADD20R,0.0197X0.0394*%
%ADD21R,0.0787X0.0709*%
%ADD22R,0.0300X0.0200*%
%ADD23R,0.0350X0.0350*%
%ADD24R,0.0472X0.0551*%
%ADD25R,0.0472X0.0551*%
%ADD26C,0.0200*%
%ADD27C,0.0080*%
%ADD28C,0.0150*%
%ADD29C,0.0040*%
%ADD30C,0.0400*%
%ADD31C,0.0300*%
%ADD32C,0.0250*%
%ADD33C,0.0450*%
%ADD34C,0.0500*%
%ADD35O,0.0500X0.1350*%
%ADD36R,0.0500X0.1350*%
%ADD37C,0.0750*%
%ADD38R,0.0750X0.0750*%
%ADD39C,0.1100*%
%ADD40C,0.0600*%
%ADD41C,0.1500*%
%ADD42C,0.0280*%
%ADD43O,0.1350X0.0500*%
%ADD44R,0.1350X0.0500*%
%ADD45R,0.0433X0.0157*%
%ADD46R,0.0700X0.0800*%
%ADD47R,0.0700X0.0600*%
%ADD48R,0.1000X0.0250*%
%ADD49R,0.0551X0.0472*%
%ADD50C,0.0079*%
%ADD51C,0.0060*%
%ADD52C,0.0090*%
%ADD53C,0.0050*%
%ADD54R,0.0450X0.0450*%
%ADD55R,0.0300X0.1050*%
%ADD56R,0.0700X0.0207*%
%ADD57R,0.1074X0.0680*%
%ADD58R,0.0601X0.0522*%
%ADD59R,0.0141X0.0550*%
%ADD60R,0.0550X0.0141*%
%ADD61R,0.0550X0.0141*%
%ADD62R,0.0440X0.0320*%
%ADD63R,0.0247X0.0444*%
%ADD64R,0.0837X0.0759*%
%ADD65R,0.0350X0.0250*%
%ADD66R,0.0400X0.0400*%
%ADD67R,0.0522X0.0601*%
%ADD68R,0.0522X0.0601*%
%ADD69O,0.0550X0.1400*%
%ADD70R,0.0550X0.1400*%
%ADD71C,0.0800*%
%ADD72R,0.0800X0.0800*%
%ADD73C,0.1150*%
%ADD74C,0.0650*%
%ADD75C,0.1550*%
%ADD76C,0.0330*%
D27*
X50960Y100872D02*
X51460D01*
X51210D01*
Y100123D01*
X51835D02*
X52084D01*
X52209Y100248D01*
Y100497D01*
X52084Y100622D01*
X51835D01*
X51710Y100497D01*
Y100248D01*
X51835Y100123D01*
X52459Y99873D02*
Y100622D01*
X52834D01*
X52959Y100497D01*
Y100248D01*
X52834Y100123D01*
X52459D01*
X54459Y100747D02*
X54334Y100872D01*
X54084D01*
X53959Y100747D01*
Y100622D01*
X54084Y100497D01*
X54334D01*
X54459Y100373D01*
Y100248D01*
X54334Y100123D01*
X54084D01*
X53959Y100248D01*
X54834Y100123D02*
X55083D01*
X55208Y100248D01*
Y100497D01*
X55083Y100622D01*
X54834D01*
X54709Y100497D01*
Y100248D01*
X54834Y100123D01*
X55458D02*
X55708D01*
X55583D01*
Y100872D01*
X55458D01*
X56583D02*
Y100123D01*
X56208D01*
X56083Y100248D01*
Y100497D01*
X56208Y100622D01*
X56583D01*
X57208Y100123D02*
X56958D01*
X56833Y100248D01*
Y100497D01*
X56958Y100622D01*
X57208D01*
X57333Y100497D01*
Y100373D01*
X56833D01*
X57583Y100622D02*
Y100123D01*
Y100373D01*
X57708Y100497D01*
X57833Y100622D01*
X57958D01*
X59082Y100123D02*
Y100872D01*
X59332Y100622D01*
X59582Y100872D01*
Y100123D01*
X59957Y100622D02*
X60207D01*
X60332Y100497D01*
Y100123D01*
X59957D01*
X59832Y100248D01*
X59957Y100373D01*
X60332D01*
X60582Y100123D02*
X60957D01*
X61082Y100248D01*
X60957Y100373D01*
X60707D01*
X60582Y100497D01*
X60707Y100622D01*
X61082D01*
X61331Y100123D02*
Y100872D01*
Y100373D02*
X61706Y100622D01*
X61331Y100373D02*
X61706Y100123D01*
D55*
X58360Y59588D02*
D03*
X58860Y61838D02*
D03*
X58360D02*
D03*
X58860Y59588D02*
D03*
X57860Y61838D02*
D03*
X59360D02*
D03*
Y59588D02*
D03*
X57860D02*
D03*
X63640Y59628D02*
D03*
X62140D02*
D03*
X63640Y61878D02*
D03*
X63140D02*
D03*
X62640D02*
D03*
X62140D02*
D03*
X62640Y59628D02*
D03*
X63140D02*
D03*
D56*
X76980Y58493D02*
D03*
Y58748D02*
D03*
Y59004D02*
D03*
X74716Y58237D02*
D03*
Y58493D02*
D03*
Y58748D02*
D03*
Y59004D02*
D03*
X76980Y58237D02*
D03*
D57*
X74875Y70931D02*
D03*
Y72034D02*
D03*
X64760Y73771D02*
D03*
Y74874D02*
D03*
D58*
X76595Y82928D02*
D03*
Y82101D02*
D03*
X79265Y80903D02*
D03*
Y80076D02*
D03*
X78475Y73169D02*
D03*
Y73996D02*
D03*
X75390Y74049D02*
D03*
Y74876D02*
D03*
X80055Y80903D02*
D03*
Y80076D02*
D03*
X77380Y82101D02*
D03*
Y82928D02*
D03*
D59*
X64575Y76123D02*
D03*
X64968D02*
D03*
X64772Y80769D02*
D03*
X64378D02*
D03*
X63787D02*
D03*
X63197Y76123D02*
D03*
X63000D02*
D03*
X64968Y80769D02*
D03*
X65559D02*
D03*
X63984Y76123D02*
D03*
X63787D02*
D03*
X63000Y80769D02*
D03*
X65165Y76123D02*
D03*
X63197Y80769D02*
D03*
X63394D02*
D03*
X63984D02*
D03*
X64181D02*
D03*
X64575D02*
D03*
X62803D02*
D03*
X65559Y76123D02*
D03*
X63394D02*
D03*
X63591D02*
D03*
X64772D02*
D03*
X63591Y80769D02*
D03*
X65362Y76123D02*
D03*
Y80769D02*
D03*
X65165D02*
D03*
X64181Y76123D02*
D03*
X64378D02*
D03*
X62606Y80769D02*
D03*
X62606Y76123D02*
D03*
X62803D02*
D03*
D60*
X66405Y79332D02*
D03*
Y78938D02*
D03*
Y78545D02*
D03*
Y79923D02*
D03*
Y77167D02*
D03*
Y78151D02*
D03*
Y78348D02*
D03*
Y77954D02*
D03*
Y77757D02*
D03*
Y77364D02*
D03*
Y77560D02*
D03*
Y76970D02*
D03*
Y79726D02*
D03*
Y79135D02*
D03*
Y79529D02*
D03*
Y78741D02*
D03*
X61760Y79923D02*
D03*
X61760Y79726D02*
D03*
Y79529D02*
D03*
Y79332D02*
D03*
Y79135D02*
D03*
Y78938D02*
D03*
Y78741D02*
D03*
Y78545D02*
D03*
Y78348D02*
D03*
Y78151D02*
D03*
Y77954D02*
D03*
Y77757D02*
D03*
Y77560D02*
D03*
Y77364D02*
D03*
Y77167D02*
D03*
D61*
X61760Y76970D02*
D03*
D62*
X79275Y74383D02*
D03*
X80295Y73633D02*
D03*
X79275Y74008D02*
D03*
X80295Y74383D02*
D03*
X79275Y73633D02*
D03*
D63*
X76576Y78702D02*
D03*
X77324Y79637D02*
D03*
X76950Y78702D02*
D03*
X76576Y79637D02*
D03*
X77324Y78702D02*
D03*
X81225Y80142D02*
D03*
X80851D02*
D03*
X81599Y81077D02*
D03*
X80851D02*
D03*
X81599Y80142D02*
D03*
X60926Y87400D02*
D03*
X61674Y88335D02*
D03*
X61300Y87400D02*
D03*
X60926Y88335D02*
D03*
X61674Y87400D02*
D03*
D64*
X72023Y66263D02*
D03*
X70370D02*
D03*
Y64263D02*
D03*
X72023D02*
D03*
D65*
X63140Y62663D02*
D03*
X62640D02*
D03*
X58360Y62623D02*
D03*
X57860D02*
D03*
X58860D02*
D03*
X59360D02*
D03*
D66*
X60710Y64673D02*
D03*
X61310D02*
D03*
X61055Y60111D02*
D03*
Y60711D02*
D03*
X61311Y64088D02*
D03*
X60711D02*
D03*
X58310Y87623D02*
D03*
X58910D02*
D03*
X58208Y70878D02*
D03*
X58207Y70383D02*
D03*
X58208Y71378D02*
D03*
Y72878D02*
D03*
X58207Y72383D02*
D03*
X58208Y73378D02*
D03*
X58210Y73873D02*
D03*
X58208Y74878D02*
D03*
X58207Y74383D02*
D03*
X58208Y75378D02*
D03*
X58210Y75873D02*
D03*
X58208Y76878D02*
D03*
X58207Y76383D02*
D03*
X58208Y77378D02*
D03*
Y78878D02*
D03*
X58207Y78383D02*
D03*
X58208Y79378D02*
D03*
X58210Y79873D02*
D03*
X58208Y80878D02*
D03*
X58207Y80383D02*
D03*
X58208Y81378D02*
D03*
X58210Y81873D02*
D03*
X58208Y82878D02*
D03*
X58207Y82383D02*
D03*
X58208Y83378D02*
D03*
X58210Y83873D02*
D03*
X58208Y84878D02*
D03*
X58207Y84383D02*
D03*
X58208Y85378D02*
D03*
X57608Y70878D02*
D03*
Y71378D02*
D03*
Y72878D02*
D03*
Y73378D02*
D03*
Y74878D02*
D03*
Y75378D02*
D03*
Y76878D02*
D03*
Y77378D02*
D03*
Y78878D02*
D03*
Y79378D02*
D03*
Y80878D02*
D03*
Y81378D02*
D03*
Y82878D02*
D03*
Y83378D02*
D03*
Y84878D02*
D03*
Y85378D02*
D03*
X60110Y60423D02*
D03*
X57210Y62113D02*
D03*
X60110Y61023D02*
D03*
X57607Y72383D02*
D03*
Y74383D02*
D03*
X57610Y75873D02*
D03*
X57607Y76383D02*
D03*
Y78383D02*
D03*
Y80383D02*
D03*
Y82383D02*
D03*
Y84383D02*
D03*
Y70383D02*
D03*
X57210Y61513D02*
D03*
X63510Y74023D02*
D03*
X62910D02*
D03*
X63665Y82221D02*
D03*
Y81621D02*
D03*
X62660Y83273D02*
D03*
Y82673D02*
D03*
X65885Y75361D02*
D03*
Y74761D02*
D03*
X67115Y80174D02*
D03*
Y80774D02*
D03*
X67665D02*
D03*
Y80174D02*
D03*
X64665Y81624D02*
D03*
Y82224D02*
D03*
X64165D02*
D03*
Y81624D02*
D03*
X62051Y83968D02*
D03*
X61451D02*
D03*
X61405Y86621D02*
D03*
Y86021D02*
D03*
X78415Y79398D02*
D03*
Y78798D02*
D03*
X82915Y80271D02*
D03*
Y80871D02*
D03*
X61531Y88908D02*
D03*
X60931D02*
D03*
X73860Y71971D02*
D03*
Y71371D02*
D03*
X69195Y74874D02*
D03*
Y74274D02*
D03*
X66385Y74764D02*
D03*
Y75364D02*
D03*
X82645Y70221D02*
D03*
Y69621D02*
D03*
X62055Y82671D02*
D03*
Y83271D02*
D03*
X77665Y74051D02*
D03*
Y73451D02*
D03*
X79088Y74988D02*
D03*
X78488D02*
D03*
X79273Y72988D02*
D03*
X79873D02*
D03*
X65155Y81621D02*
D03*
Y82221D02*
D03*
X77901Y78044D02*
D03*
X77301D02*
D03*
X81496Y82154D02*
D03*
X80896D02*
D03*
X76601Y80704D02*
D03*
X77201D02*
D03*
X82306Y79194D02*
D03*
X81706D02*
D03*
X82325Y80274D02*
D03*
Y80874D02*
D03*
X77925Y78801D02*
D03*
Y79401D02*
D03*
X80893Y81664D02*
D03*
X81493D02*
D03*
X77198Y80214D02*
D03*
X76598D02*
D03*
X57610Y79873D02*
D03*
Y83873D02*
D03*
Y73873D02*
D03*
Y81873D02*
D03*
X78831Y57932D02*
D03*
X78231D02*
D03*
X78831Y58432D02*
D03*
X78231D02*
D03*
X75931Y57632D02*
D03*
X75331D02*
D03*
X78831Y58982D02*
D03*
X78231D02*
D03*
X66890Y75363D02*
D03*
Y74763D02*
D03*
X57610Y77873D02*
D03*
X58210D02*
D03*
X57610Y71873D02*
D03*
X58210D02*
D03*
X60958Y61638D02*
D03*
X61558D02*
D03*
X57610Y85873D02*
D03*
X58210D02*
D03*
X72815Y66274D02*
D03*
Y65674D02*
D03*
X64310Y61053D02*
D03*
Y60453D02*
D03*
X61560Y62233D02*
D03*
X60960D02*
D03*
D67*
X63623Y74773D02*
D03*
X62796D02*
D03*
D68*
X82228Y75733D02*
D03*
X81401D02*
D03*
X78321D02*
D03*
X79148D02*
D03*
X80688D02*
D03*
X79861D02*
D03*
X79231Y81659D02*
D03*
X80058D02*
D03*
X77423Y81354D02*
D03*
X76596D02*
D03*
X77033Y74053D02*
D03*
X76206D02*
D03*
D69*
X77850Y62698D02*
D03*
X73850Y60648D02*
D03*
X75850D02*
D03*
X79850D02*
D03*
X82850D02*
D03*
X80850D02*
D03*
X77850D02*
D03*
X76850D02*
D03*
X73850Y62698D02*
D03*
X81850D02*
D03*
X79850D02*
D03*
X76850D02*
D03*
X75850D02*
D03*
X74850D02*
D03*
X81850Y60648D02*
D03*
X74850D02*
D03*
X78850D02*
D03*
Y62698D02*
D03*
X80850D02*
D03*
D70*
X82850D02*
D03*
D71*
X53860Y66623D02*
D03*
X52860D02*
D03*
X53860Y67623D02*
D03*
Y68623D02*
D03*
X52860Y67623D02*
D03*
X66670Y62073D02*
D03*
X68670Y61073D02*
D03*
Y62073D02*
D03*
X69670Y61073D02*
D03*
Y62073D02*
D03*
X70670Y61073D02*
D03*
Y62073D02*
D03*
X67670Y61073D02*
D03*
Y62073D02*
D03*
X73860Y66273D02*
D03*
X58360Y64123D02*
D03*
X59360D02*
D03*
Y66123D02*
D03*
X58360D02*
D03*
X82640Y65523D02*
D03*
Y66523D02*
D03*
X74790Y73053D02*
D03*
X70070Y74073D02*
D03*
X75595Y84378D02*
D03*
X79235D02*
D03*
X80235D02*
D03*
X81140Y65523D02*
D03*
X66575Y71678D02*
D03*
X62975Y71983D02*
D03*
X79640Y66523D02*
D03*
X81140D02*
D03*
X70170Y68073D02*
D03*
X71170D02*
D03*
X70070Y73073D02*
D03*
X79640Y65523D02*
D03*
X74595Y84378D02*
D03*
X58360Y68123D02*
D03*
X59360D02*
D03*
X62860Y86673D02*
D03*
X63050Y85133D02*
D03*
X62050D02*
D03*
X53860Y86623D02*
D03*
Y70623D02*
D03*
X52860D02*
D03*
X53860Y71623D02*
D03*
X52860D02*
D03*
X53860Y72623D02*
D03*
X52860D02*
D03*
X53860Y73623D02*
D03*
X52860D02*
D03*
X53860Y74623D02*
D03*
X52860D02*
D03*
X53860Y75623D02*
D03*
X52860D02*
D03*
X53860Y82623D02*
D03*
X52860D02*
D03*
X53860Y83623D02*
D03*
X52860D02*
D03*
X53860Y84623D02*
D03*
X52860D02*
D03*
X53860Y85623D02*
D03*
X52860D02*
D03*
Y86623D02*
D03*
X53860Y87623D02*
D03*
X52860Y81623D02*
D03*
X53860D02*
D03*
X52860Y80623D02*
D03*
X53860D02*
D03*
X52860Y79623D02*
D03*
X53860D02*
D03*
X52860Y78623D02*
D03*
X53860D02*
D03*
X52860Y77623D02*
D03*
X53860D02*
D03*
X52860Y76623D02*
D03*
X53860D02*
D03*
D72*
X52860Y68623D02*
D03*
X66670Y61073D02*
D03*
X73860Y65273D02*
D03*
X57360Y64123D02*
D03*
Y66123D02*
D03*
X82640Y67523D02*
D03*
X75790Y73053D02*
D03*
X76595Y84378D02*
D03*
X81235D02*
D03*
X81140Y67523D02*
D03*
X66575Y72678D02*
D03*
X61975Y71983D02*
D03*
X72170Y68073D02*
D03*
X70070Y75073D02*
D03*
X79640Y67523D02*
D03*
X57360Y68123D02*
D03*
X63860Y86673D02*
D03*
X61050Y85133D02*
D03*
X52860Y87623D02*
D03*
D73*
X54360Y63123D02*
D03*
X53360Y62123D02*
D03*
Y64123D02*
D03*
X55360D02*
D03*
Y62123D02*
D03*
D74*
X76595Y86178D02*
D03*
X76175Y70583D02*
D03*
Y71683D02*
D03*
X80970Y77038D02*
D03*
X70210Y77123D02*
D03*
X71660Y71523D02*
D03*
X79235Y86178D02*
D03*
X61993Y73823D02*
D03*
X82360Y72623D02*
D03*
X66360Y58623D02*
D03*
X56860Y90623D02*
D03*
X71360Y79623D02*
D03*
X74595Y86178D02*
D03*
D75*
X53860Y90873D02*
D03*
Y59123D02*
D03*
D76*
X70760Y75673D02*
D03*
X69210Y75873D02*
D03*
X66510Y75823D02*
D03*
X67960Y71123D02*
D03*
X78830Y57463D02*
D03*
X61440Y60113D02*
D03*
X60470Y60423D02*
D03*
X60110Y61383D02*
D03*
X64433Y75323D02*
D03*
X54610Y66023D02*
D03*
X61290Y88373D02*
D03*
X62160Y81223D02*
D03*
X77780Y58987D02*
D03*
X63197Y75660D02*
D03*
X65559Y76572D02*
D03*
X65210Y82623D02*
D03*
X64607Y77473D02*
D03*
X65810Y79873D02*
D03*
X64460Y81273D02*
D03*
X65560Y81623D02*
D03*
X69360Y69973D02*
D03*
X65960Y81023D02*
D03*
X68060Y80173D02*
D03*
X63410Y80123D02*
D03*
X64510D02*
D03*
X63360Y79223D02*
D03*
X64860Y76673D02*
D03*
X65410Y75573D02*
D03*
X63110Y76723D02*
D03*
X63060Y77273D02*
D03*
X62360Y74773D02*
D03*
X64760Y75338D02*
D03*
X64560Y76923D02*
D03*
X63910Y81273D02*
D03*
X65110Y75338D02*
D03*
X64460Y78073D02*
D03*
X63660Y82573D02*
D03*
X67110Y81173D02*
D03*
X64733Y73373D02*
D03*
X65133D02*
D03*
X64333D02*
D03*
X78605Y85428D02*
D03*
X81910Y82173D02*
D03*
X79710Y79573D02*
D03*
X82710Y75773D02*
D03*
X78070Y75123D02*
D03*
X80710Y73623D02*
D03*
X77760Y73073D02*
D03*
X74878Y74876D02*
D03*
X67660Y81173D02*
D03*
X72810Y65173D02*
D03*
X70360Y64923D02*
D03*
X66660Y67973D02*
D03*
X62565Y70578D02*
D03*
X63560Y70973D02*
D03*
X62770Y66723D02*
D03*
X66830Y67623D02*
D03*
X65070Y65336D02*
D03*
X65320Y62936D02*
D03*
X61910Y88923D02*
D03*
X82915Y79891D02*
D03*
X82333Y79873D02*
D03*
X82710Y79223D02*
D03*
X78260Y78373D02*
D03*
X76960Y79123D02*
D03*
X77910Y81373D02*
D03*
X57160Y80123D02*
D03*
Y85873D02*
D03*
Y84123D02*
D03*
Y76123D02*
D03*
X60950Y62503D02*
D03*
X57160Y82123D02*
D03*
X64710Y61053D02*
D03*
X57160Y74123D02*
D03*
Y70373D02*
D03*
Y78123D02*
D03*
X64710Y60453D02*
D03*
X66160Y75823D02*
D03*
X82160Y70223D02*
D03*
X66410Y74323D02*
D03*
X67070Y69023D02*
D03*
X66730Y62936D02*
D03*
X73970Y70873D02*
D03*
X74535Y70288D02*
D03*
X75155D02*
D03*
X77210Y85423D02*
D03*
X60580Y88913D02*
D03*
X71360Y64273D02*
D03*
X74860Y57773D02*
D03*
X76330Y57637D02*
D03*
X77780Y57937D02*
D03*
X77774Y58493D02*
D03*
X75624D02*
D03*
X79230Y57937D02*
D03*
Y58437D02*
D03*
Y58987D02*
D03*
X66660Y76623D02*
D03*
X66910Y77423D02*
D03*
X68660Y68573D02*
D03*
X62310Y81923D02*
D03*
X72810Y69673D02*
D03*
X71210Y69923D02*
D03*
Y70323D02*
D03*
X66910Y75823D02*
D03*
X67460Y78023D02*
D03*
X69460Y71323D02*
D03*
X68910Y72523D02*
D03*
X57160Y72123D02*
D03*
X63610Y83423D02*
D03*
X66310Y85673D02*
D03*
X64960Y83423D02*
D03*
X61560Y61273D02*
D03*
X57210Y62473D02*
D03*
X61416Y60708D02*
D03*
X62640Y63023D02*
D03*
X60711Y63648D02*
D03*
X57210Y61113D02*
D03*
X80360Y68173D02*
D03*
M02*
