%FSLAX24Y24*%
%MOIN*%
G70*
G01*
G75*
%ADD10C,0.0120*%
%ADD11C,0.0100*%
%ADD12R,0.0250X0.1000*%
%ADD13R,0.0650X0.0157*%
%ADD14R,0.1024X0.0630*%
%ADD15R,0.0551X0.0472*%
%ADD16R,0.0091X0.0500*%
%ADD17R,0.0500X0.0091*%
%ADD18R,0.0500X0.0091*%
%ADD19R,0.0390X0.0270*%
%ADD20R,0.0197X0.0394*%
%ADD21R,0.0787X0.0709*%
%ADD22R,0.0300X0.0200*%
%ADD23R,0.0350X0.0350*%
%ADD24R,0.0472X0.0551*%
%ADD25R,0.0472X0.0551*%
%ADD26C,0.0200*%
%ADD27C,0.0080*%
%ADD28C,0.0150*%
%ADD29C,0.0040*%
%ADD30C,0.0400*%
%ADD31C,0.0300*%
%ADD32C,0.0250*%
%ADD33C,0.0450*%
%ADD34C,0.0500*%
%ADD35O,0.0500X0.1350*%
%ADD36R,0.0500X0.1350*%
%ADD37C,0.0750*%
%ADD38R,0.0750X0.0750*%
%ADD39C,0.1100*%
%ADD40C,0.0600*%
%ADD41C,0.1500*%
%ADD42C,0.0280*%
%ADD43O,0.1350X0.0500*%
%ADD44R,0.1350X0.0500*%
%ADD45R,0.0433X0.0157*%
%ADD46R,0.0700X0.0800*%
%ADD47R,0.0700X0.0600*%
%ADD48R,0.1000X0.0250*%
%ADD49R,0.0551X0.0472*%
%ADD50C,0.0079*%
%ADD51C,0.0060*%
%ADD52C,0.0090*%
%ADD53C,0.0050*%
%ADD54R,0.0450X0.0450*%
%ADD55R,0.0300X0.1050*%
%ADD56R,0.0700X0.0207*%
%ADD57R,0.1074X0.0680*%
%ADD58R,0.0601X0.0522*%
%ADD59R,0.0141X0.0550*%
%ADD60R,0.0550X0.0141*%
%ADD61R,0.0550X0.0141*%
%ADD62R,0.0440X0.0320*%
%ADD63R,0.0247X0.0444*%
%ADD64R,0.0837X0.0759*%
%ADD65R,0.0350X0.0250*%
%ADD66R,0.0400X0.0400*%
%ADD67R,0.0522X0.0601*%
%ADD68R,0.0522X0.0601*%
%ADD69O,0.0550X0.1400*%
%ADD70R,0.0550X0.1400*%
%ADD71C,0.0800*%
%ADD72R,0.0800X0.0800*%
%ADD73C,0.1150*%
%ADD74C,0.0650*%
%ADD75C,0.1550*%
%ADD76C,0.0330*%
%ADD77O,0.1400X0.0550*%
%ADD78R,0.1400X0.0550*%
%ADD79R,0.0483X0.0207*%
%ADD80R,0.0750X0.0850*%
%ADD81R,0.0750X0.0650*%
%ADD82R,0.1050X0.0300*%
%ADD83R,0.0601X0.0522*%
%ADD84C,0.0070*%
%ADD85C,0.0350*%
%ADD86C,0.0570*%
%ADD87C,0.0870*%
%ADD88C,0.1400*%
D11*
X73360Y70123D02*
X76110Y67373D01*
Y61573D02*
Y67373D01*
X73360Y72123D02*
Y75973D01*
X74210Y61573D02*
X76110D01*
X83860Y57123D02*
Y72123D01*
X74210Y57123D02*
X83860D01*
X74210D02*
Y61573D01*
X70510Y75973D02*
X73360D01*
X70510Y74573D02*
X72260D01*
X70510D02*
Y75973D01*
X73360Y72123D02*
X83860D01*
X72260Y70123D02*
X73360D01*
X72260D02*
Y74573D01*
X68110Y57123D02*
Y69173D01*
D32*
X51860Y57123D02*
X83860D01*
Y92123D01*
X51860D02*
X83860D01*
X51860Y57123D02*
Y92123D01*
D76*
X66510Y75823D02*
D03*
X67960Y71123D02*
D03*
X61440Y60113D02*
D03*
X60470Y60423D02*
D03*
X64433Y75323D02*
D03*
X61290Y88373D02*
D03*
X77780Y58987D02*
D03*
X63197Y75660D02*
D03*
X65559Y76572D02*
D03*
X65210Y82623D02*
D03*
X64607Y77473D02*
D03*
X65810Y79873D02*
D03*
X64460Y81273D02*
D03*
X69360Y69973D02*
D03*
X68060Y80173D02*
D03*
X63410Y80123D02*
D03*
X64510D02*
D03*
X63360Y79223D02*
D03*
X64860Y76673D02*
D03*
X63110Y76723D02*
D03*
X63060Y77273D02*
D03*
X62360Y74773D02*
D03*
X64760Y75338D02*
D03*
X64560Y76923D02*
D03*
X63910Y81273D02*
D03*
X65110Y75338D02*
D03*
X64733Y73373D02*
D03*
X65133D02*
D03*
X64333D02*
D03*
X78605Y85428D02*
D03*
X63560Y70973D02*
D03*
X62770Y66723D02*
D03*
X66830Y67623D02*
D03*
X65070Y65336D02*
D03*
X65320Y62936D02*
D03*
X64710Y60453D02*
D03*
X66160Y75823D02*
D03*
X82160Y70223D02*
D03*
X66410Y74323D02*
D03*
X67070Y69023D02*
D03*
X66730Y62936D02*
D03*
X77210Y85423D02*
D03*
X60580Y88913D02*
D03*
X71360Y64273D02*
D03*
X74860Y57773D02*
D03*
X77780Y57937D02*
D03*
X77774Y58493D02*
D03*
X79230Y57937D02*
D03*
Y58437D02*
D03*
Y58987D02*
D03*
X66910Y77423D02*
D03*
X68660Y68573D02*
D03*
X62310Y81923D02*
D03*
X72810Y69673D02*
D03*
X71210Y69923D02*
D03*
Y70323D02*
D03*
X66910Y75823D02*
D03*
X67460Y78023D02*
D03*
X69460Y71323D02*
D03*
X68910Y72523D02*
D03*
X63610Y83423D02*
D03*
X66310Y85673D02*
D03*
X64960Y83423D02*
D03*
X61560Y61273D02*
D03*
X61416Y60708D02*
D03*
X62640Y63023D02*
D03*
X57210Y61113D02*
D03*
X80360Y68173D02*
D03*
D84*
X52693Y54123D02*
X52360D01*
X52693Y54456D01*
Y54539D01*
X52610Y54622D01*
X52443D01*
X52360Y54539D01*
D85*
X77850Y62698D02*
D03*
X73850Y60648D02*
D03*
X75850D02*
D03*
X79850D02*
D03*
X82850D02*
D03*
X80850D02*
D03*
X77850D02*
D03*
X76850D02*
D03*
X82850Y62698D02*
D03*
X73850D02*
D03*
X81850D02*
D03*
X79850D02*
D03*
X76850D02*
D03*
X75850D02*
D03*
X74850D02*
D03*
X78850D02*
D03*
X80850D02*
D03*
D86*
X53860Y66623D02*
D03*
X52860D02*
D03*
X53860Y67623D02*
D03*
Y68623D02*
D03*
X52860Y67623D02*
D03*
Y68623D02*
D03*
X66670Y62073D02*
D03*
Y61073D02*
D03*
X68670D02*
D03*
Y62073D02*
D03*
X69670Y61073D02*
D03*
Y62073D02*
D03*
X70670D02*
D03*
X67670Y61073D02*
D03*
Y62073D02*
D03*
X76595Y86178D02*
D03*
X73860Y66273D02*
D03*
Y65273D02*
D03*
X57360Y64123D02*
D03*
X58360D02*
D03*
X59360D02*
D03*
Y66123D02*
D03*
X57360D02*
D03*
X58360D02*
D03*
X82640Y65523D02*
D03*
Y66523D02*
D03*
X76175Y71683D02*
D03*
X80970Y77038D02*
D03*
X74790Y73053D02*
D03*
X75790D02*
D03*
X70070Y74073D02*
D03*
X70210Y77123D02*
D03*
X71660Y71523D02*
D03*
X76595Y84378D02*
D03*
X75595D02*
D03*
X79235D02*
D03*
X80235D02*
D03*
X79235Y86178D02*
D03*
X81140Y67523D02*
D03*
Y65523D02*
D03*
X66575Y72678D02*
D03*
X61975Y71983D02*
D03*
X62975D02*
D03*
X61993Y73823D02*
D03*
X79640Y66523D02*
D03*
X81140D02*
D03*
X70170Y68073D02*
D03*
X72170D02*
D03*
X71170D02*
D03*
X70070Y73073D02*
D03*
Y75073D02*
D03*
X79640Y67523D02*
D03*
Y65523D02*
D03*
X74595Y84378D02*
D03*
Y86178D02*
D03*
X58360Y68123D02*
D03*
X57360D02*
D03*
X59360D02*
D03*
X63860Y86673D02*
D03*
X62860D02*
D03*
X61050Y85133D02*
D03*
X63050D02*
D03*
X62050D02*
D03*
X53860Y86623D02*
D03*
Y70623D02*
D03*
X52860D02*
D03*
X53860Y71623D02*
D03*
X52860D02*
D03*
X53860Y72623D02*
D03*
X52860D02*
D03*
X53860Y73623D02*
D03*
X52860D02*
D03*
X53860Y74623D02*
D03*
X52860D02*
D03*
X53860Y75623D02*
D03*
X52860D02*
D03*
X53860Y82623D02*
D03*
X52860D02*
D03*
X53860Y83623D02*
D03*
X52860D02*
D03*
X53860Y84623D02*
D03*
X52860D02*
D03*
X53860Y85623D02*
D03*
X52860D02*
D03*
Y86623D02*
D03*
X53860Y87623D02*
D03*
X52860D02*
D03*
Y81623D02*
D03*
X53860D02*
D03*
X52860Y80623D02*
D03*
X53860D02*
D03*
X52860Y79623D02*
D03*
X53860D02*
D03*
X52860Y78623D02*
D03*
X53860D02*
D03*
X52860Y77623D02*
D03*
X53860D02*
D03*
X52860Y76623D02*
D03*
X53860D02*
D03*
D87*
X54360Y63123D02*
D03*
D88*
X53860Y90873D02*
D03*
Y59123D02*
D03*
M02*
