%FSLAX24Y24*%
%MOIN*%
G70*
G01*
G75*
%ADD10C,0.0120*%
%ADD11C,0.0100*%
%ADD12R,0.0250X0.1000*%
%ADD13R,0.0650X0.0157*%
%ADD14R,0.1024X0.0630*%
%ADD15R,0.0551X0.0472*%
%ADD16R,0.0091X0.0500*%
%ADD17R,0.0500X0.0091*%
%ADD18R,0.0500X0.0091*%
%ADD19R,0.0390X0.0270*%
%ADD20R,0.0197X0.0394*%
%ADD21R,0.0787X0.0709*%
%ADD22R,0.0300X0.0200*%
%ADD23R,0.0350X0.0350*%
%ADD24R,0.0472X0.0551*%
%ADD25R,0.0472X0.0551*%
%ADD26C,0.0200*%
%ADD27C,0.0080*%
%ADD28C,0.0150*%
%ADD29C,0.0040*%
%ADD30C,0.0400*%
%ADD31C,0.0300*%
%ADD32C,0.0250*%
%ADD33C,0.0450*%
%ADD34C,0.0500*%
%ADD35O,0.0500X0.1350*%
%ADD36R,0.0500X0.1350*%
%ADD37C,0.0750*%
%ADD38R,0.0750X0.0750*%
%ADD39C,0.1100*%
%ADD40C,0.0600*%
%ADD41C,0.1500*%
%ADD42C,0.0280*%
%ADD43O,0.1350X0.0500*%
%ADD44R,0.1350X0.0500*%
%ADD45R,0.0433X0.0157*%
%ADD46R,0.0700X0.0800*%
%ADD47R,0.0700X0.0600*%
%ADD48R,0.1000X0.0250*%
%ADD49R,0.0551X0.0472*%
%ADD50C,0.0079*%
%ADD51C,0.0060*%
%ADD52C,0.0090*%
%ADD53C,0.0050*%
%ADD54R,0.0450X0.0450*%
%ADD55R,0.0300X0.1050*%
%ADD56R,0.0700X0.0207*%
%ADD57R,0.1074X0.0680*%
%ADD58R,0.0601X0.0522*%
%ADD59R,0.0141X0.0550*%
%ADD60R,0.0550X0.0141*%
%ADD61R,0.0550X0.0141*%
%ADD62R,0.0440X0.0320*%
%ADD63R,0.0247X0.0444*%
%ADD64R,0.0837X0.0759*%
%ADD65R,0.0350X0.0250*%
%ADD66R,0.0400X0.0400*%
%ADD67R,0.0522X0.0601*%
%ADD68R,0.0522X0.0601*%
%ADD69O,0.0550X0.1400*%
%ADD70R,0.0550X0.1400*%
%ADD71C,0.0800*%
%ADD72R,0.0800X0.0800*%
%ADD73C,0.1150*%
%ADD74C,0.0650*%
%ADD75C,0.1550*%
%ADD76C,0.0330*%
%ADD77O,0.1400X0.0550*%
%ADD78R,0.1400X0.0550*%
%ADD79R,0.0483X0.0207*%
%ADD80R,0.0750X0.0850*%
%ADD81R,0.0750X0.0650*%
%ADD82R,0.1050X0.0300*%
%ADD83R,0.0601X0.0522*%
%ADD84C,0.0070*%
%ADD85C,0.0350*%
%ADD86C,0.0570*%
%ADD87C,0.0870*%
%ADD88C,0.1400*%
D11*
X79610Y59523D02*
Y60123D01*
X78660D02*
X79610D01*
X75160Y59273D02*
X78060D01*
X73110Y60123D02*
X78660D01*
X73110D02*
Y63773D01*
X72260Y70773D02*
Y73523D01*
X75150Y58293D02*
X75160Y59273D01*
X75150Y58293D02*
X75360Y58163D01*
X79600Y57583D02*
X79610Y59523D01*
X78810Y57743D02*
X79190Y57583D01*
X79600D01*
X78060Y57743D02*
X78810D01*
X78060Y57773D02*
Y59273D01*
X75360Y57673D02*
Y58163D01*
Y57473D02*
Y57673D01*
X71160Y70773D02*
X72260D01*
X69760Y73523D02*
X72260D01*
X70110Y70773D02*
X71160D01*
X68510Y69823D02*
X70110Y70773D01*
X69510Y73523D02*
X69760D01*
X69510Y71873D02*
Y73523D01*
X68110Y70773D02*
X69510Y71873D01*
X69660Y62673D02*
X71360D01*
X68510Y63773D02*
X73110D01*
X71360Y57473D02*
Y62673D01*
Y57473D02*
X75360D01*
X68510Y63773D02*
Y69823D01*
X68110Y62673D02*
Y70773D01*
Y62673D02*
X69660D01*
X66010Y87523D02*
Y89623D01*
X78010Y83023D02*
Y87523D01*
X66010D02*
X78010D01*
X64110Y86023D02*
X66710D01*
Y85273D02*
Y86023D01*
X64860Y83023D02*
X78010D01*
X62560Y85273D02*
X66710D01*
X64110Y86023D02*
Y88083D01*
X64860Y81073D02*
Y83023D01*
X62860Y88083D02*
X64110D01*
X62560Y88513D02*
X62860Y88083D01*
X64210Y81073D02*
X64860D01*
X64210Y79373D02*
Y81073D01*
Y79373D02*
X65810D01*
X68110Y69273D02*
Y69623D01*
Y62673D02*
Y69273D01*
X66710Y69623D02*
X68110D01*
X66710Y68773D02*
X67110Y68373D01*
Y63263D02*
Y68373D01*
X68110Y59623D02*
Y62673D01*
X65360Y59623D02*
X68110D01*
X65810Y78373D02*
Y79373D01*
X66710Y68773D02*
Y69623D01*
X64010Y78373D02*
X65810D01*
X64010Y76123D02*
Y78373D01*
X66010Y63263D02*
X67110D01*
X66010Y62623D02*
Y63263D01*
X64360Y59623D02*
X65360D01*
X61710Y88513D02*
X62560D01*
X61460Y88723D02*
X61710Y88513D01*
X53360Y89623D02*
X66010D01*
X60926Y88723D02*
X61460D01*
X62560Y76123D02*
Y85273D01*
Y76123D02*
X64010D01*
X59110Y64073D02*
X61360D01*
X60710Y88523D02*
X60926Y88723D01*
X56660Y88523D02*
X60710D01*
X53360Y86123D02*
Y89623D01*
X56660Y65373D02*
Y88523D01*
Y64073D02*
Y65373D01*
Y64073D02*
X59110D01*
X53360Y68123D02*
Y86123D01*
X61360Y62623D02*
Y64073D01*
X62360Y61623D02*
X64360Y59623D01*
X61360Y62623D02*
X66010D01*
X61210Y61623D02*
X62360D01*
X61210Y60973D02*
X61860D01*
Y59623D02*
Y60973D01*
X59860Y59623D02*
X61860D01*
X53360Y62823D02*
Y68123D01*
X57510Y60073D02*
Y62123D01*
X53360D02*
Y62823D01*
Y62123D02*
X57510D01*
X61210Y60973D02*
Y61623D01*
X57510Y59623D02*
Y60073D01*
Y59623D02*
X59860D01*
X79910Y78623D02*
X83860D01*
X71410Y80423D02*
X79910Y78623D01*
X83860Y74773D02*
Y78623D01*
Y70073D02*
Y74773D01*
X72260Y70773D02*
Y73523D01*
X69760D02*
X72260D01*
X70110Y70773D02*
X72260D01*
X83860Y57123D02*
Y70073D01*
X78660Y60123D02*
X79610D01*
Y59523D02*
Y60123D01*
Y57123D02*
X83860D01*
X73110Y60123D02*
Y63773D01*
Y60123D02*
X78660D01*
X79610Y57123D02*
Y59523D01*
X66460Y80423D02*
X71410D01*
X65860Y73973D02*
X67410D01*
X69510Y73523D02*
X69760D01*
X69510Y71873D02*
Y73523D01*
X66460Y80423D02*
X66510Y76123D01*
X65860D02*
X66510D01*
X65860Y73973D02*
Y76123D01*
X68510Y69823D02*
X70110Y70773D01*
X68110D02*
X69510Y71873D01*
X68510Y63773D02*
X73110D01*
X67410Y70773D02*
Y73973D01*
Y70773D02*
X68110D01*
X68510Y63773D02*
Y69823D01*
D32*
X51860Y57123D02*
Y92123D01*
X83860D01*
Y57123D02*
Y92123D01*
X51860Y57123D02*
X83860D01*
D76*
X70760Y75673D02*
D03*
X69210Y75873D02*
D03*
X66510Y75823D02*
D03*
X67960Y71123D02*
D03*
X78830Y57463D02*
D03*
X60110Y61383D02*
D03*
X64433Y75323D02*
D03*
X54610Y66023D02*
D03*
X62160Y81223D02*
D03*
X77780Y58987D02*
D03*
X64460Y81273D02*
D03*
X65560Y81623D02*
D03*
X69360Y69973D02*
D03*
X65960Y81023D02*
D03*
X64860Y76673D02*
D03*
X65410Y75573D02*
D03*
X63110Y76723D02*
D03*
X64760Y75338D02*
D03*
X64560Y76923D02*
D03*
X65110Y75338D02*
D03*
X64460Y78073D02*
D03*
X63660Y82573D02*
D03*
X67110Y81173D02*
D03*
X81910Y82173D02*
D03*
X79710Y79573D02*
D03*
X82710Y75773D02*
D03*
X78070Y75123D02*
D03*
X80710Y73623D02*
D03*
X77760Y73073D02*
D03*
X74878Y74876D02*
D03*
X67660Y81173D02*
D03*
X72810Y65173D02*
D03*
X70360Y64923D02*
D03*
X66660Y67973D02*
D03*
X62565Y70578D02*
D03*
X61910Y88923D02*
D03*
X82915Y79891D02*
D03*
X82333Y79873D02*
D03*
X82710Y79223D02*
D03*
X78260Y78373D02*
D03*
X76960Y79123D02*
D03*
X77910Y81373D02*
D03*
X57160Y80123D02*
D03*
Y85873D02*
D03*
Y84123D02*
D03*
Y76123D02*
D03*
X60950Y62503D02*
D03*
X57160Y82123D02*
D03*
X64710Y61053D02*
D03*
X57160Y74123D02*
D03*
Y70373D02*
D03*
Y78123D02*
D03*
X66160Y75823D02*
D03*
X73970Y70873D02*
D03*
X74535Y70288D02*
D03*
X75155D02*
D03*
X71360Y64273D02*
D03*
X76330Y57637D02*
D03*
X77780Y57937D02*
D03*
X77774Y58493D02*
D03*
X75624D02*
D03*
X66660Y76623D02*
D03*
X66910Y77423D02*
D03*
X68660Y68573D02*
D03*
X62310Y81923D02*
D03*
X72810Y69673D02*
D03*
X71210Y69923D02*
D03*
Y70323D02*
D03*
X66910Y75823D02*
D03*
X67460Y78023D02*
D03*
X69460Y71323D02*
D03*
X68910Y72523D02*
D03*
X57160Y72123D02*
D03*
X63610Y83423D02*
D03*
X57210Y62473D02*
D03*
X61416Y60708D02*
D03*
X62640Y63023D02*
D03*
X60711Y63648D02*
D03*
X80360Y68173D02*
D03*
D84*
X53360Y54539D02*
X53443Y54622D01*
X53610D01*
X53693Y54539D01*
Y54456D01*
X53610Y54373D01*
X53526D01*
X53610D01*
X53693Y54289D01*
Y54206D01*
X53610Y54123D01*
X53443D01*
X53360Y54206D01*
D85*
X77850Y62698D02*
D03*
X73850Y60648D02*
D03*
X75850D02*
D03*
X79850D02*
D03*
X82850D02*
D03*
X80850D02*
D03*
X77850D02*
D03*
X76850D02*
D03*
X82850Y62698D02*
D03*
X73850D02*
D03*
X81850D02*
D03*
X79850D02*
D03*
X76850D02*
D03*
X75850D02*
D03*
X74850D02*
D03*
X81850Y60648D02*
D03*
X74850D02*
D03*
X78850D02*
D03*
Y62698D02*
D03*
X80850D02*
D03*
D86*
X53860Y66623D02*
D03*
X52860D02*
D03*
X53860Y67623D02*
D03*
Y68623D02*
D03*
X52860Y67623D02*
D03*
Y68623D02*
D03*
X66670Y62073D02*
D03*
Y61073D02*
D03*
X68670D02*
D03*
Y62073D02*
D03*
X69670Y61073D02*
D03*
Y62073D02*
D03*
X70670Y61073D02*
D03*
Y62073D02*
D03*
X67670Y61073D02*
D03*
Y62073D02*
D03*
X76595Y86178D02*
D03*
X73860Y66273D02*
D03*
X57360Y64123D02*
D03*
X58360D02*
D03*
X59360D02*
D03*
Y66123D02*
D03*
X57360D02*
D03*
X58360D02*
D03*
X82640Y65523D02*
D03*
Y66523D02*
D03*
Y67523D02*
D03*
X76175Y70583D02*
D03*
Y71683D02*
D03*
X80970Y77038D02*
D03*
X74790Y73053D02*
D03*
X75790D02*
D03*
X70210Y77123D02*
D03*
X76595Y84378D02*
D03*
X79235D02*
D03*
X81235D02*
D03*
X79235Y86178D02*
D03*
X81140Y67523D02*
D03*
Y65523D02*
D03*
X66575Y71678D02*
D03*
Y72678D02*
D03*
X61975Y71983D02*
D03*
X62975D02*
D03*
X61993Y73823D02*
D03*
X79640Y66523D02*
D03*
X81140D02*
D03*
X70170Y68073D02*
D03*
X72170D02*
D03*
X71170D02*
D03*
X82360Y72623D02*
D03*
X66360Y58623D02*
D03*
X56860Y90623D02*
D03*
X71360Y79623D02*
D03*
X70070Y75073D02*
D03*
X79640Y67523D02*
D03*
Y65523D02*
D03*
X74595Y84378D02*
D03*
Y86178D02*
D03*
X58360Y68123D02*
D03*
X57360D02*
D03*
X59360D02*
D03*
X63860Y86673D02*
D03*
X62860D02*
D03*
X61050Y85133D02*
D03*
X63050D02*
D03*
X62050D02*
D03*
X53860Y86623D02*
D03*
Y70623D02*
D03*
X52860D02*
D03*
X53860Y71623D02*
D03*
X52860D02*
D03*
X53860Y72623D02*
D03*
X52860D02*
D03*
X53860Y73623D02*
D03*
X52860D02*
D03*
X53860Y74623D02*
D03*
X52860D02*
D03*
X53860Y75623D02*
D03*
X52860D02*
D03*
X53860Y82623D02*
D03*
X52860D02*
D03*
X53860Y83623D02*
D03*
X52860D02*
D03*
X53860Y84623D02*
D03*
X52860D02*
D03*
X53860Y85623D02*
D03*
X52860D02*
D03*
Y86623D02*
D03*
X53860Y87623D02*
D03*
X52860D02*
D03*
Y81623D02*
D03*
X53860D02*
D03*
X52860Y80623D02*
D03*
X53860D02*
D03*
X52860Y79623D02*
D03*
X53860D02*
D03*
X52860Y78623D02*
D03*
X53860D02*
D03*
X52860Y77623D02*
D03*
X53860D02*
D03*
X52860Y76623D02*
D03*
X53860D02*
D03*
D87*
X54360Y63123D02*
D03*
X53360Y62123D02*
D03*
Y64123D02*
D03*
X55360D02*
D03*
Y62123D02*
D03*
D88*
X53860Y90873D02*
D03*
Y59123D02*
D03*
M02*
