M72
M48
T1F00S00C0.0150
T2F00S00C0.0370
T3F00S00C0.0670
T4F00S00C0.1200
T5F00S00C0.0130
%
T01
X02199Y003525
X02299
X02399
X02499
Y005575
X02399
X02299
X02199
X02599
X02699
X02799
X02899
X02999
X03099
Y003525
X02999
X02899
X02799
X02699
X02599
T02
X0145Y0015
X0075Y007
X0065
X0055
Y009
X0065
X0075
Y011
X0065
X0055
X002Y0105
Y0095
X001
Y0105
Y0115
X002
Y0135
X001
Y0145
X002
Y0155
X001
Y0165
X002
X010134Y0167
X010115Y01486
X011115
X014715Y014555
Y015555
X01821Y01595
Y01695
X0198Y0144
X01931Y01095
X01831
X02031
X022Y00915
Y00815
X01881Y00495
X01781
X01681
Y00395
X01781
X01881
X01581
X01481
Y00495
X01581
X024315Y01346
Y01456
X02393Y01593
X02293
X0305Y0155
X03078Y0104
Y0094
Y0084
X02928
Y0094
Y0104
X02778
Y0094
Y0084
X02911Y019915
X029375Y027255
X028375
X027375
Y029055
X024735
Y027255
X023735
X022735
Y029055
X0195Y0225
X01835Y02
X01821Y01795
X01119Y02801
X01019
X011Y02955
X012
X00919Y02801
X002Y0285
Y0295
X001
Y0285
Y0275
Y0265
Y0255
X002
Y0265
Y0275
Y0305
X001
Y0245
X002
Y0235
X001
Y0225
X002
Y0215
X001
Y0205
X002
Y0195
Y0185
Y0175
X001
Y0185
Y0195
X005Y0335
T03
X0015Y005
X0025Y006
X0015Y007
X0035
Y005
T04
X002Y002
Y03375
T05
X02592Y000814
X025914Y00137
X02737Y001314
Y000814
X02697Y00034
X02447Y000514
X023764Y00137
X023Y00065
X00958Y00299
X009556Y003586
X0097Y00415
X00825Y00426
X00861Y0033
X00909Y00538
X008851Y006525
X00535Y00535
Y00399
X00275Y0089
X0053Y01325
Y015
Y017
X012474Y01625
X012874
X013274
X01455Y0172
X01705Y0154
X0176Y0142
X0175Y01285
X01935Y0128
Y0132
X02095Y01255
X022675Y013165
X023295
X02211Y01375
X0161Y014
X01521Y0119
X0148Y01085
X01497Y0105
X0168Y01145
X0185Y0078
X0195Y00715
X02095Y00805
X01321Y008214
X01346Y005814
X01487
X01285Y00393
Y00333
X01078Y0059
X01091Y0096
X010705Y013455
X0117Y01385
X0259Y01595
X02885Y0165
X0303Y0131
X0285Y01105
X02737Y001864
X02592
X02621Y018
X0264Y02125
X02785Y02245
X030474Y02275
X031055Y022769
X03085Y0221
Y01865
X03005Y02505
X02605Y02425
X026745Y028305
X02535Y0283
X0251Y022
X023018Y017753
X0189Y01855
X01735Y01875
X01505Y0187
X01465
X0143
X01355Y01845
X01325Y018215
X0129
X012574Y0182
X011337Y018537
X01125Y0196
X0112Y02015
X012747Y02035
X0127Y0198
X013Y01955
X013699Y019449
X0148Y0195
X01505Y0203
X0156Y0209
X0162Y02305
X0158Y02405
X01525
X0141Y0239
X0137Y0245
X01335Y0255
X0131Y0263
X01175
X0118Y02545
X01205Y02415
X0126
X01265Y023
X01155
X0115Y0221
X0126Y02095
X01395Y02275
X0103Y0241
X01045Y0248
X0105Y01765
X01005Y0318
X01445Y02855
X00943Y03125
X00872Y03179
X0053Y02875
Y027
Y025
Y023
Y021
Y019
M30
